<mxfile host="Electron" agent="Mozilla/5.0 (Macintosh; Intel Mac OS X 10_15_7) AppleWebKit/537.36 (KHTML, like Gecko) draw.io/28.2.8 Chrome/140.0.7339.240 Electron/38.4.0 Safari/537.36" version="28.2.8">
  <diagram name="Page-1" id="hhoCn7LHlC3BoJKUhtxO">
    <mxGraphModel dx="1212" dy="790" grid="0" gridSize="10" guides="1" tooltips="1" connect="1" arrows="1" fold="1" page="0" pageScale="1" pageWidth="850" pageHeight="1100" math="0" shadow="0">
      <root>
        <mxCell id="0" />
        <mxCell id="1" parent="0" />
        <mxCell id="BNi_J-HcAc2oYYCLPXiT-1" value="frontend&lt;div&gt;Container App&lt;br&gt;&lt;div&gt;(streamlit)&lt;/div&gt;&lt;/div&gt;" style="image;aspect=fixed;html=1;points=[];align=center;fontSize=14;image=img/lib/azure2/other/Worker_Container_App.svg;" vertex="1" parent="1">
          <mxGeometry x="26" y="352" width="45.34" height="44" as="geometry" />
        </mxCell>
        <mxCell id="BNi_J-HcAc2oYYCLPXiT-2" value="APIM" style="image;sketch=0;aspect=fixed;html=1;points=[];align=center;fontSize=14;image=img/lib/mscae/API_Management.svg;" vertex="1" parent="1">
          <mxGeometry x="247" y="353" width="50" height="42" as="geometry" />
        </mxCell>
        <mxCell id="BNi_J-HcAc2oYYCLPXiT-7" value="&lt;div&gt;API Operations&lt;/div&gt;stage-1&lt;div&gt;stage-2&lt;/div&gt;&lt;div&gt;stage-21&lt;/div&gt;&lt;div&gt;stage-3&lt;/div&gt;&lt;div&gt;stage-4&lt;/div&gt;&lt;div&gt;stage-5&lt;/div&gt;" style="verticalLabelPosition=bottom;html=1;verticalAlign=top;align=center;strokeColor=none;fillColor=#00BEF2;shape=mxgraph.azure.service_endpoint;" vertex="1" parent="1">
          <mxGeometry x="194" y="364" width="50" height="20" as="geometry" />
        </mxCell>
        <mxCell id="BNi_J-HcAc2oYYCLPXiT-9" value="&lt;div&gt;backend&lt;/div&gt;&lt;div&gt;Container App&lt;br&gt;&lt;div&gt;(FastAPI)&lt;/div&gt;&lt;/div&gt;" style="image;aspect=fixed;html=1;points=[];align=center;fontSize=12;image=img/lib/azure2/other/Worker_Container_App.svg;" vertex="1" parent="1">
          <mxGeometry x="413" y="346" width="45.34" height="44" as="geometry" />
        </mxCell>
        <mxCell id="BNi_J-HcAc2oYYCLPXiT-10" value="" style="endArrow=classic;html=1;rounded=0;exitX=0.948;exitY=0.477;exitDx=0;exitDy=0;exitPerimeter=0;" edge="1" parent="1" source="BNi_J-HcAc2oYYCLPXiT-1" target="BNi_J-HcAc2oYYCLPXiT-7">
          <mxGeometry width="50" height="50" relative="1" as="geometry">
            <mxPoint x="110" y="482" as="sourcePoint" />
            <mxPoint x="160" y="432" as="targetPoint" />
          </mxGeometry>
        </mxCell>
        <mxCell id="BNi_J-HcAc2oYYCLPXiT-11" value="" style="endArrow=classic;html=1;rounded=0;entryX=0.044;entryY=0.568;entryDx=0;entryDy=0;entryPerimeter=0;exitX=1;exitY=0.429;exitDx=0;exitDy=0;exitPerimeter=0;" edge="1" parent="1" source="BNi_J-HcAc2oYYCLPXiT-2" target="BNi_J-HcAc2oYYCLPXiT-9">
          <mxGeometry width="50" height="50" relative="1" as="geometry">
            <mxPoint x="295" y="323" as="sourcePoint" />
            <mxPoint x="299" y="328" as="targetPoint" />
          </mxGeometry>
        </mxCell>
        <mxCell id="BNi_J-HcAc2oYYCLPXiT-12" value="gpt-4o&#xa;dall-e&#xa;AI Foundry" style="shape=image;verticalLabelPosition=bottom;labelBackgroundColor=default;verticalAlign=top;aspect=fixed;imageAspect=0;image=data:image/png,iVBORw0KGgoAAAANSUhEUgAAAQAAAAEACAYAAABccqhmAAAAAXNSR0IArs4c6QAAAERlWElmTU0AKgAAAAgAAYdpAAQAAAABAAAAGgAAAAAAA6ABAAMAAAABAAEAAKACAAQAAAABAAABAKADAAQAAAABAAABAAAAAABn6hpJAABAAElEQVR4Aey9Xay22Xnf9ex3xondOHisJsWJms7rJkgBBXlCg0BwMDsICc48HCD1ADEDJ1QI4UDjyEiVPFWlJBJIQQRBpR44iBMOEOZDFRKotUOU8JE2MQgiJ6bMpAnEpE3sUn+M533fvfn/fv9r3fezx+OZsb1fJ5l9r/0891rr+vhf11rrutb98Tx779PpKMcMHDNwzMAxA8cMHDNwzMAxA8cMHDNwzMAxA8cMHDNwzMAxA8cMHDNwzMAxA8cMHDNwzMAxA8cMHDNwzMAxA8cMHDNwzMAxA8cMHDNwzMAxA8cMHDNwzMAxA8cMHDNwzMAxA8cMHDNwzMAxA8cMHDPwR2IGLv5IeHk4eWsz8LEXX3rqwasP7p9Oj5554nTv6dP1xVP3Lq6fukgk3Dtd3784XZ8urmifThccrtK/d3F6Qg/STi0P/ta+OmtLv45KoK5P9wIc3NPFdejaqB524F1E5kKZ0+nVV758+sz/+Run//d3P3v6e3/v86dXvvIVcF8+3bv+X+9dPPmpf+/TP/3JmDzKLc4Aa3iUt/EM/Oxf+Mzl9aNTkv3q2euLi8sk41Mko0nchLxOMl6ElgM5msTMfFxc5yevJPIkKXX0ItHELkY6lbdGIjrRz9s2+0A2mNFt8ouPDXQC9/DBg9Nnfv3XTr/x658+PXjw6lqN+IWxFhp5vxTazz/xxMVf/OlP//TLwzqqb2IGtgn+JjAO1T9EM/AzOcNfvfLguWTgs8nfD9679uzOSXZPQpO9ibrO0nsiN3ndFDKuJt4k+WBAyxVBEnTjF99+ZGfzgL+S3Y1k8Te9i9MrX/r7p//hr/1311/+0hcQtyTJs3lM9sfx2smRqwU3louLJy7uvfiTv/GTf3FUjuobnAHm9ihvgxn4qZzp7z06fTAJ90LS5z3JIU+fJEzepFHqK2kmaA6kGQHAmRjGlqzSyrt3dmXQq4NQgqMswJzFzxM+bUztWMXG1rYJzK3Bl7/490//0yf++9OXvvgFViAOuY8kz69zCxGPahte0z7WMBmoxf/Utz3x7f/Ci59+8WVljsPXPQOs/1H+CM/AX/rIZy6fvLj4aHLikkRciX8vDfKH+29KE5JNwKQ1u9rO2dytILJR2PQn8Vcik4G07UdR2a0/m42JbYZCcBNYesvWwiO7f+GvfjzJ/0WServYN8WzAeClum4K5HwIUENWRoJSL9+7920/emwCmZBvoDDLR/kjOAMvJvGfOF18NAv4bNxvQpN15LA/yZa85qybxF9J2k3CZCaZSHQByr95xjfBkvRsHN0AArqd3Wtr3xTA6cYQmc2X4eMX/sQwcp996W+dfu1/+aU4nl7yfZLajeM8wSPKOPARtfCrkbYWIKa8fLr3jmMT6Fx8Xccnvy7pQ/gPfAZe/AsvXV4/fPTRJMmzV+TDOmXjWXPeh27kS5jXV16ue4o3g/pgL4wk1dV18ynXCkkwkMw0rwRIOHKzCYYd83D6SLMh5AlDLyrUVQicCOfDg16mRy4fKkANHaPZBCLw0v/+v1kXHx4SvFqQWdcBsJr2+pFRtkeNdA73Lx49/C/S/MeqfRzf6gz00523Kn3I/YHNwIt5uPdP/xP/5k9dX1/95eTDfSLfTEj4N23HNXIiDLLC43XOyZNbeR4vp1fY6HlSVjBKo7HodDlnA0hN1qmPfGW1vbXdRGA2P1HCsxEtQ9YXP//7p//70//HdW49wr1wo8DFXGn405orh/ZzpaP91r22CGe7EunVzMX3/Ogfv7z4xO/9/Cc1dRze0gycr85bUjiEvvUz8JGPvHSZtPxY3vdJCjKcNE0SJOmaYqZpOKYs2Uzu0I/cprPSWXqzGKFirX73Cz+6C49LerFyOib15jP90PKCAT1yFHlB47YDvZz7eyugLvjV//z/81unz/ziz9tHT0f1OYD4yBUJ4PKoArB2FQZPW3KV2WmCDXxY997/7xwPBTMRb62stXtr0ofUt3wGfuIjL3008f2JvO9f5Xo7l/1kQN6kPvmeZ/vp55Lbd6rrK+g8EMwPF/ePkj+VJ13BQJZLc0UitNPnsSF6148C9igphTy7gDaiX9rWDw76wcQn7Af2UTTQGbvysIcMn/tnU+LMn48T8865PH2vL3o271neY2TCvVCuOn43gQ2mGxIbTnST/MpcX38srhzlLc4Ae+ZR/hDOAJf8X3jl9PGk0CVZlYVKPpFSaSe3EvA0vQII337TLVxE5Xr2Tx8ln8qTn8WQ5GU2W4EJNFcPiKqDPc8QkfBhInbQi0Bt6dd2lbBoJnEM1RaOsg1gK+80Pv/y3zr99i//z+m1wNNHa1rK129FOOOHHkQEkeC9juAOK3T2vtM/8+FPv/hJJI7yxjNwPAR84/n5A+H+2Edeuv//vXL6RML6vkm5Rbuhz0n8ImfnSdJsBjl9ckYn1Uz+poE9rgak55zOWbnn1vUAMBaSLiQXZ/ckEmfyldzJ/yYWCZarD4EiH/Mkcvr6AIPNxauA0eUqobhLFiRsYIArCr5IlCYozrEjS29ZTEsGNmhNzV4SJa4KsMdmVp3lD2qZnA8G6JMCH4c3nAHW9ih/iGaA5E9kf+LR1elpLvkJcS/9acdPntx7yZ04JwFIYJK/PNIn8qm8zI982Dzthxb55E9E4TXNTbeQNnpkTNBe9qMfNS7btRnd9vEjb33oLQUJDy5YuUVQPmMwRZXNPgFf25Fh10kS52ddGax2kjvYBKb8kKm5zM/vLsxlf5gZQendjPgORPEyY/cuXlDiOLzpDBwbwJtO0bdO4F//8EvP5Mz+q4n/+5xXUye5SapENwlGOxljO265OaQmOU2+8KxXsidxSMao9T38yDRZ2Rxip88C2GiWPifaLWGVZRPpvf+Z3cg/Qh8c/Bj94ocYezx/6Aain7ZjvgmezS2fBHg1wRVBE7gJHVhl5vlAevnJS3k2gtjjUwHlYjemvLqZzeI9P/uDf+kyIkd5kxk4NoA3maBvFfvP5cyfCP9EEu8pkikx7Tvt7QycZE2SJdnCTF6Z+NkEaJKwqUncpZdtou0mcNokoomtbvrJnyXvxhJ8rxiqp93wm9zJNPxyE4ga9vQz7W4M3TDYcKA36aHx9gpEOnYoJurUnNl7RUBS+0CwfDI+DjTZU6dtfzaCQOUqoBsGtX02lDh373R1GdJR3mQGjmcAbzJB3wq2yX91+kSSI8lPyiUzecU4ZzhSmtgnaVJ7xsQv799TRyKqI08WqN+ERRuKB2HMNRFzHk0i81wgCatEJMcuGwV2k8ykoW1tpxUfC4g/kefym1sTpGizIfAxIs6CLYLbkzCnh1/6kgmeniUimA1alGhgKGXZlVPqmpNKhAE8JRsIBtlH2j/de9bGcXjDGTiuAN5weh4/k+S/usqZ/+LiPlFN4pFUhD/ZQIJKD6X8JmsSNjxCvjo505qC6zJcnPDn8tyzd+RTRw7ddEjkG2dxaHmjS+IvrFVXB7255C++sj3ze8shpjjxzasBba2rgRBTeGjHJfx2JZA+I/dePm3p0UOOTaRybgWRM/GVhSIvDWomq1cD15cfu//iUxo7Dl9zBo4N4GtOzbeG8ejq4uNJqKdNWJMvCZisNjET6CGZcCZf+WtDyDYRudAq21MkNOnVSzLPBpLkMPlJ7OTJ4EeKpHXDiQtnujGobWwm4/QvZ9nUufSfjQP5iBXrXp4nbH7n9kJ79W98xFc2CrC8nM/pmnv63teb5H6cSSJLnw3Ch39xtBvGvhnw6Ye0YHQTYLNgS2h99c53PBdzR3mDGTg2gDeYnMfN+ld/4jc/muR5hojllJzkIMFI6CSVZ1lqEnE2ApInCZ+cNpmSiSSkSZ7twM0gvJR19iYpJ0HRbeIil0/2xQ4EG04fBqoLnpsOT/lTqi/2+FGbwTD5m/T9FKBtfR4fabsZBHRtEKB6ZqemkzIJ7FkcGm+u56H3jN9aufDcNLIzke/KRor6iditjM4/G9JR3mAGjmcAbzA5j5P1wodfeiH582LC3AQkkMlyzqYEfnhmLNFPIenyVVvP3OE2NaOjfIQgzFsaOkmI0W5ipkuKx1SA0uTSmuQ3iWouljXmZXeksknIBsiNJp9S8LQ90voawyHkRyxVIzkYyNCkAMzWss7QIEgbCQfsuCI3+upu7dKxJV4OzBHPMWoPP3mYKBv/gOf7AEd5gxlg0zzKt3gGXuCz/ot7H73yLNzEImIT0J5+c7b1Hp3ILt3s4xI+/SSziUlyrrM1GOh3A4FOUpSGfOikL/rQkxrK5pBX26Gzmai4Y7k7oLo+7kOv714ZiIndCM1XjufKYs788ja/tBGTc9nvWduP9LKB9HP+yG9n8WQwnwp4to9/0FN5ps9Znl8mSpZnJgPoxpIu7cjMx4UX7/1Pf+inLqNylK8xA8cG8DUm5nGSH10/keTnvj8RnWDlkp+kIgG57C6d5D67rE9we6kulaRls0Df/L24yqka/Sb+0gMTyWAmLcSPvLSINnmHHgfou1EgSz9645POpG8GRh+f6w8+z1u86LkZRIZBsWmNXWt+v4ASKBOZZCUI6afdK4Q092cAocVw7vUjX511iU/tR4jRo+Z5AChuDDHPpnC6Oj4NyPR8zXJsAF9zah4P41/6ib/9XJL1+aCbueRD3iZwE5LE88zvpXz5JDp04ju85HT7JBc8zuzqTLKZeF7s9+yfpI9CNwzsoqcu+tif5EcvzwaQJXkCXX3ovd0wmeMGenyPAJmlD9Kj0NaG0E8G9AX97Z1mkpQz+Upqktbkz2YQmmnMpsDm4JleSlwqPw0CFx60uULgKqBXEfGp+Ni5vsTeUV5/Bo4N4PXn5bFR87DsZ4hmEqKJmNqEI5qn3X74yDRxrHNocq4kxk2SMWd/eCGv5F2JO5tK7K1ELaY2B3uScxJ5Ejh4JHDwS0+mFdONxr0EbBLeK5NIekGStBybm/9uBPXPTSByTX4Seb1JfN6RC217kMcmwLufAKyzOzJuBhe9LUDXDaG3BNkIwnaziHuXHz8+DmQhX7ccG8DrTsvjIf7ZD//tF/LY6unEeJMpdTcBkixvk6SX8kk2aJNMJB95xgkXXS7jTWQSHjXpqYh7EtEWG4ObirJRCm99guC3CpNu2gAvILus2CTrRZK3Z3StgOeG40eJXM7X/xnP2the4zv+zSbDJsVPHt3xQ6LjqknPZf76rn+StwndS3x0equAzlziswm4gazbA/T96jAyYPV9evU7330ZuKO8zgwcG8DrTMrjIiXpPppk4CM68iYHE4d2kowzL5vASvp04ENLjV4aJiryEJPMJC0JiiwYoRUzlTsDzwY4A2+JKqa6s4kkocEbmUdsBiNTmrpDy6kZJzAfOfjIUtc9Nwc+7sMnryDkRwD7Cw//PYNTp0MCc/njRpCjNDlBDdlLfOh08vJKIY3ZPNKKnD/hZbxsDLzC75XDw+tn8fAoXz0Dxwbw1XPyWCj/Ys7+Sdin+zTepDVBiVsSdxLKPDCRSbKEds/Mk1h4Bi1V8sUinwQ7S7Jimsic9ZVkI1HW1CAZyWA2HRK6CQouyO2T3Jvd0FabepdBNnrz5aKFRV0Hb/pfjIj7Q/CtZO59PPfwnrlz5P59v7T3ViFaykePTYO/SbhhhIbFqHSDCAJWIN27d3F8IYiZeJ1ybACvMymPg5Q/ufHRxDQJafKSsEmcJCVnUs+OTbLkTvtJToSiMZsGierVA30Sa0vExLkJHsdD75k9/OCkvSXlJLZ/S8AE1Zfa9oFeE54k7btne3B84019Tj1XFV4JsHHUn+hhN2NaNDaqrR0ebcr+EHA2gfhKMHL7vi7tvRIgyYOxEp+6P5HNa6OzWZD9/BTDjwZnE7n/8R/8qfvYPcrNGTg2gJvz8Vh6z3n2v37aRCI5TBDO8Il6z8RJGhOFXmhJNZNoycUrdVMngdwoSO5Fs5GNAp3QPIDD6ZDNhISubBOTQZqU1GHoT2q2ihu40e/GQt2rlqiMfftcQczGMkkfAZ4bdAjdELCl/eCFlfdK6HVGx1k+z/d2IBvBfmY3yWPCzSH8yrApLF0+/uPJQDBzfDK/IXAmy7RW54lvO64CnPmbh2MDuDkfj6l37/nEp4nSs7rtJpJJaiImZ8zdpALpkA7vLcH2TWAlNnJbgkaYJKNP1DexV3JOkg/WSsietdlrsIMMXw/uFUL1YzOMbkhte+YPrRsISd+3GIAAhV/BPLdTfL4shAzbQM/Yk8g8EAwFer/YQ1ITnE3m/VOA9DNsZeaMn25UlacViG0jiS1Qi3txfCswk/PacmwAr52RW+4/95HfuZ84vJyzM2dYkpO8muQimUyiSdrQ4S0+8tM3udP2FiB5QJLmZfLSXHLYcBMJSxz0kwfStV96yOoXBzv8+q9wyK930g3eYAaQ3y8orhuMG9U2JvwDNyw3j6Rj9YfeHO0T/2B6CU8C5zd7fIJv+pK4bCNsEv37AIGUkw3DWqMhsoE0+dHJZyxijj64biTYOX3g48/8zPHbgZmz83JsAOez8RjaV/n7dFxYJ6+aWYlQekkSk2iSlljPT2VyluTMSiJNok0CghIfm8jWi7+SP3we7LFJkIOxAxbJGNU08SQSI1MsdZctvGAT6KcBsRsF8aLW2uRXBrnaSj1y60+DcSVReRwBoxsIm5en7NjmzMxDPyckMtRcxndTMGmV2S732RXQQy4PBprsUNhikuxuFt0UwCH5a9XJfeqdD/OLV0e5MQPHBnBjOm6/k3Pqj5GwJgC1aWjymliJ5SZYGiaqoZyP0SqXWE8IN4eavGKhz5skIwk5X5NJxY18edUjX5Zs9ZIc+qRcAGNTO8FoIpNOtHtF0A2EjQGcva6doW0YYIVGP++1MQRvGy8pn+T14z0smeCRbaI3gU1yEjpgJjoJf745ZLDQ+aE22cMPXh0KHq9eIfTPjQXqeA7A/JyV47cBzybjtpvPffi3n3lwfbqfQCQoyTFi0g4pgj2SJTmQiq/msB+Ttb2UDTFnVtJoASi5COoKEi2S00wXwUTwVJ0EiF1s5RVovr47gHFmkjWGKgAIciQ+tLRlUaXgrDA6jyQy3KtDdYOQVjy16VPYCCgkJGxqAPGBEi87P5t3xcaAfKq0c8xgIHX+sB/V0NkIQNz1VBxl2tlAnqV7lH0GjiuAfS5uvfXq6eJDBCRvgne150wqPYlhABP9RHZlclafSKePPAnkffXI2EcnWtJNBOWKR8Qry1m4l+qcINGbM7qYy5fa8FI++j1zp/YSn1QjxbiKGbtjU6NgZs/CF5LRBD/DHr2441g4BA/3PIOnr6tJfM730rNLEZiIefYPLhMjLXJkuzqRkJ9eA/ma24ClWxvR1A6y9y6e+cTxHCAzu5djA9jn4tZbidnLJE6SosG/100UEtFwHn7O9nO/biZNEo1+It5kTyCTrKTGJL7XDt5zB28S1QdwkeP2gEwSZCU+OCaymGwwoegDecaZ3DyE7obEk/v+dd+Rc4sJJjpuDN4WsFl4FaAdsWcDEbsbA/KULSnT7736JDjO9mVSI52rBTaCfPSX5HY4yObjPwQHK5VXFekzpf6OgLcMIRDkvhnW1TuOTwMyH6scG8CaiVuu//mP/M5lsvA+KbIlavKH3cB37DXZqAlj3iRVojSBTaySYOQDCY/O3O+nTWIh2QQlJzzzRs/EHtlF56Fi2uBtctoIeP2ZGrvSvBLQfvXYP8rzKiBYnPXxy7N//fVKYNErX/+UQ1Z5OCtxSUwSmwd4czaPzJawSXI2CvqZjl4NRC4bRjYFRhBiavhPbM8Iog8RuhriMqnaunh0/LXgTNdWjmcA21TcbuP6wdXzRK2ZXGgjn4QimFubeGd08p9ESbwmd/KXdROvfrfdxFWVnYFozitZSc9MYGfxL/Fii/gPIxtFOmC1aQ9+Cmd0deMKn6tDEy8tkgcQCy12nPY8RtOkLXTEFxYqjqbJzv7UXJxRryq1VwD434cCckzacJyEUKpbP9LWj3oWpvzhxSy2ZkDDY2vBXQcjJhApxxUA0zLluAJYM3HLdU5dlyTKikFinY7v2IKeMyI5apyGDolobT/RunTXGXTpeJaNPLrwkvzqpU0qRz8P8SK8PcUPKB/rPQpLm+mTLX03c2zXtvZro1cCPeujqz5+9VKfMeBHsOTFuL5iG7+KVxo+ZUzQ3/HgYX9bj3RMn8TMCZxa5/2LQOH0SuCslsZzgtBo23fIYoiT4XjFgJMRhMbb2ww7F+/9hR/62cuYOkpm4NgAHkMY/LM//luXuQ9+uonBk/y882ALU4leMpechZ0e/RzS5rIeWTpQIEcoLy7tu5mgJD3ySw+Z6IkzOsqgRx9sf8QEq3bwxUSNiPpgg6Pd6uGOGPVHp+UvOf1WZ/zd9d0MxFq49efJhw96cR77XuLHz17qm9ReFGy/FFQ3elkf/whYkpn7e1I/et4CMEC/UxA/uzkEOxJcB9AHZj1kfPL05LMQjnJsAI8lBq6v7z2fNEhCkGJNDhKQM6kJlrbxS1/+nFlRgVcdz7hg8Cu9akg3IU3+JBgfE04ShxRr6LrhBKtn5ekjG2744utPZDDoJrB0w55NIff0yPv1YHHrF7T6Db72gt26Azizq17xt40nHpKuk/RR2R/sQV3cXh3MWT5eJFjDTJ905jf8mvilyUMVebHBTYM3A55fCnLjiduXkT1KZuC4AngMYZB4e24lSdpkdV5bsjdbkq3kV8/s20axEoaEilITamqTrPQm+mCv5MTIJCd1dCMQ5Gw22NqwkOlmAY925oA3G0f1Ip/EGrq4sylkswAbnjWbGl1vCaBFjqo26YeLgDV+kKB5m5go2p3NQHp5nM29bI/ySur+sdDooJef0Od3CDSoHAHNZtFvBc7tQijoePWAwdPp8lePjwMzI8cG4CTc5uHyw7/9QoL8PUmklSSTAInKPalMFClcC8QB3kQ1GdgQL6H0JE4aZNa+kSC/knG/fVhXBJ6FI0Lem/wjO/R+DDjGSM4m6Erk9kn63pZwi7GuUuCtqw589MoG9/CPqwexuWpZm0hxBrOCDjWX5PmZ5E+SeskeO04IW0Xmo8nfQGX0XMb39iCdGPCqIJjWoILXJMcjz/hsNtjxB9lovvro2y8jcOfL8SnAbYfA1b0PJi6J1fy4CaS7xTTWEoKQ0opUD5DaTJVgjR4N+cisUjrBzJmW8zgiVSVtgCUtoKToR/gmVTjp69gw0dRD+zlo07N2h1BA9SorZg58B6HGwdswHXI3Cq672bD0bTvgS42RlNrTX2l6K1k/NvcjmBLAbgxpOWrhGVJtKCJE5y4abChrICR9PGIjqAcX9y6j8l/mfafLcQtwi8t/2d/8y+U/6UIiJDjTsU8waos45mUk5uEgIvnbfAllBaZeOqRBzs4GMkr2B4d2MbUR0IQ7+0IY6keu9/Ha3HxZDxT1bzDA9iwfRfXr37pSYTw4sW5ZYkV/tcNm5FkeP8OpTT556JUCvOKLTQbHwZ6p2czI6JDmGoCPM9dVAVtNz9hhI5MEZtTSUEGby/1+X4BhxnmSnDeXD14toBhRbaGhuevj40DnMYej3M4MPHr10SWJR1jmBGmLo8njCWxdOvNtu9ITjRFP5EZwJVnl0w89yQQEpzJadhCdhJKbNv15g+O7l/n4Yp/sWAm8XY4vvNjCSgSWfJTWxrMu+etz6ODhkDaxVeXawdX9VmJ8Aat+mLaTpAwwlifJsZycXV/+IWnZCEjbJv5KYJM7PrSP2+Y6U2nCU1vETye2t+FFln50n/7VZ/7j+4G50+W4ArjN5b+XP/yRSDNxgnsW/OYLZ3rDdWxytvQd6pLNFkF8piSsSQ9qQ9iEW3IkN6xkEIkPD4y1sSw8ePjj1YiJucnGz/I4e0cunZXg2BOPrMF+MkqC9nCmfuXiZTaZza79XmEsnzZfgu/VjJjcApCo636dZN4/xtvO4qGmHcGV7Fu7NM/8gVGOScjLBE87PEzFewxptfYgI5Z/GnLnfzvw2AAaDd/08Z/08v/iksQhHjkLkii0936TAmKTaCUHNUlqnbRyEyGYB+s1yURX/MgnrdFNa2qxc6lOzpYGHgrr0jzUJCpJHtnizBVJN4H4wdN9dC78GnHQ2SQ8i2OJPpjJIWzTlyYmnkFc41mYeIMfAc8BoSa1X+2FJRGaz+4jAI039/LW0dzkwDiTUTaHPgxUb/SxQz8oKndDoZmPBu/8bcCxASQQbqW8err0fp4kIPlIgNQmTQyYpwlDk4W+RkmgJteWrCYUyVlR+NE12Yj/6rW2nQvo1KHnOUIa0DBOdpic9H3HAvYT+U1+6DjbBK3Mps/VACxlujHVJm374dYeZ/+MNbgbRhp4UL5+1Hbo6HJGJlH7NN+k9v7cL/iEn01AYwQnZ3xV4ntaPthrQpPUlVVGg0wEQ3f4CHh7ARoyI++GEAwG8IGXnvnYUxi4q+XYAG5p5fPFlA8ZucFbsUgAmojmGWddUs7LYHJjbhWSIO4OhGc0ieFVR7tJFYrydJvE6c6lfXnoKBMVz8zpNAHFGNyNRvRHHixZ+DL+4AU+kazksHncBEY+dvvOOPCBjQefcwhifqCz+amrDDvTeo6gcPg9y+fLPM7QJH1w8Kaz5uThpNNqAtfVyKCUt8leHTeF0Jronu99EMjHhogy0nUbUU0gLt77hdPDZzB5V8uxAdzCynP5f3V1/QGTIHitkwAJ3nUFgJkm0yQsoU0k+jKJTLwkVdQm6UgqU6CbRiC4x/YED2645MfYo0fiDr5RDh+FwYvBSWp8iXyTfm4NQuIvEU3y6ptYcztAsmuqG0B0azsytrGNn1qsX/imndpa7ZC3e3+SmDM+c2F+k60RaMKb5jB6Xx9OnqI48spqQHmU9wTHQsnaCr7yGZs1+EFy07i62/8z4PgeQILhmy3XD574YO6WDfqFRcgnUhNw1Ak7IpQMaaFjNvEbfyQ1l8RsGBQCfrWBgIwiCUgNboJdfDEl1lzNjEJNJ4u4TC9GqpT6Qa5yBibprTeeJjEUTT5Sqw/o4QuJg3+YzSFDRFRQXIeaPttR2BGksdEBkI4KDKaIS3WF0gXap/rWyiIPBxObBbXncMZHIQV7QRxrNH3tB2QynGx5z6pwRw/HFcCtLLx/928LNhq8e/Y3vmmTMyd/KShhSDzy9kxudJtHIZKQETbgwTGFQilOEkBNUjh4JgTAJA3KGilPLjZ501EsclwRsCGkb/KDUgxokUsfv/LXf8VDtvJicBWh3NA0iQHs8A49NMykMb4sHnXg54dNgh9ofVP5FeDU0LgS8MwesZEtPfihk8IdeCyV3ysKdFO8hFjYbLJiweibvfGZu/wc4NgACJNvovxT+bt/Sb77xHEvrwOW6DLQQ1uBD5Xk4paUjHFzSG2ihEnKh24yjU7wen897o0ekqOvXm2Brf2EtPpgz7uX9cKb8CtnkNPvEEhaExvf0cN2GmwGYCM7CW9bXW3OQ8DX+AKfHcAauTTUDz4m8iYZTWKTHKciAz0Hk7wyQkjfdMKdwDXBSeq+wRRjbjFwPj9ra7AdPvoBa31xevXq7n4p6NgACLhvojy4ekf/7l/TjrAibywNfpLJ2CaSDXESgRAvPzxeITXZFFo8sxYlvpNvNCOn/sil4yZCdhDv7Zth5xtCeeYyPqJjonO1gWaOeecnDWyRK1viS0Z+/IwCWmwam0xNT5KjK2YSf41TYfXgNVHjcNo99rnA+pt+OMWVQKo+vFtJDAEAf5rwbCQOnwN8UOPZfMow8mc6DI6dGGFGcO/u/nbgsQEQBN9UyZ+YMjGaHJ7ZE3JEbt7ZDAhX202a5kYSg3QzETlRVmjkCFUBJmaL1UQ6xxob4Dbx0yB144ObkHwOwecqQLl0eyaPDHmiTXzB2UnqJBsYvuWHjr9uCrQHIwOofmvokMSpPXGHHv1tXLgEMsltItLb3/333ud8LpzgI8aZe+eVKi0SXAkUZ9XZJCI/724mYGA7mP7ZsOvrO/uFoGMDMKa+scOP/Hj+7t/pdD9xl5hrfHJTSbuJkeYkzVhY9ORINwnilYRhMzAxVxIR4nk3edpGZnsrpx7qlbVee8myXV+0g2fIsEGkJuWKRzPtikKE1ZGE1g0DN3spn7obTHTgxUfwIq9qxxhb23hKn42DycK3lcg987MR8K4nikSrkpFO8cEgX97JBPf3BRCYDSQ1kHmHePbcoHbYu8rPaHRzZEfndPHUZ575K5cRuXPl2AC+iSXvH/6Y8CQpgtX7bZMl3URbXpiYJKk1YjixhwBKCFgb2vSNUvGQTEMM5Wpn/4IRurzrRlri+tR/Nouok9zNUoGSJanzLvCW2Eko2v5norK49Qiyie6DwfMk96qgsNitH6nnWUJ0GT7+93cgyDrtR4az79kXgfZ7d3jR08G0GVY3glGOg/7icOiChbn43D50YJPkMe6VQ8ZrHSiEkff7AfQDQxI8efXkB4C8a+XYAL6JFU/sX5p8jfEgcc86z5yM3YSXyU7UEWrELJfo3SyIbBMivJwtzfMma0/CIUAkzrfL+nXr0NDtGVncCJFw62y9aLixEjAiwUKHrHWTmlob2Gm666w+AeOZHHvhB4pk5p1+c5IRuuF0DIPlxtCPH+uTm2Cxghk4Z4RZabpLygEKtwZJc4VIVi7VObNnhqFVZ/3ugHRo6qkzVwbYiIJXFlVTt9sEW1mxU+eS4m7+16BjAzBwvv7Dj/z4Z/ke+f3EebIiLaKI/7tDRaqQJLBMtEXp+YlAJdzRQz4JSV6WBh7ac+lg2yf7JJz6cGmYiNrNAYBpoylfXWyVjxEsQcYKjraGkEK3NNvBUARO8Rjj2AKm7Unsws2VR2nbJrPpYMWB5mhJ5XMAqYtL8kPfJJ2ZEEYKXa8SIuHmELfkRQvewlaOgQ4tsqPnBnEuxwxf3sWPA48NgKj7BsrDPDgiWQy3RB/JwsUpsdgkStjRTkWiENC8G48RiZDq0twMJvnCUwdoExvZxndqn9CDlje2qberh3HIxFO3PM7AlUUeH4rLFUOzoDjBiuWe+cGlP7JrM+PMrxXpEeiVwODSD/z2wJF5CW2NFT+4+sDKSlw/84/cfnYHmbM9R0Vxgva635ffAzNUscounVVXDxiSHxnayrI0Y0NiuXfua8HHBmBMfAOH63vPmagEeNSbWFCaXInzvAi1RFra6zLY5IxQdZosyERQmrWYXKpLymGSztD1diBi0QKkJQLIkLxeecgre/yJHD6awLFGG7s8ZCQpqZHf/EQex6m0gTPTGrkbstrGVW4HKokiVvhCUWXjC2NwuCt5pfRePbgrUSNVWjD8zB5gkze1L2SZ7b49u0ewfa7oadMbOZQzhPJTR8DnAtIql2cSd+63A48NwBD5+g7P/Nu/80JC/D1okRJNi2IY+hNlpRB5RGKJI5+K5E48NiYrGpkNK+LB2iMWOyGUT0KRTJOwEEESRVNciitrEoaRFw5Q3E3IVN6Q1evmwkawVMIKT911VkeVjaCF2ncOsxlkQ0knp1bSGpobS0jnck99+cvzGX1SELsw439yst/uS1tnoaUFXU8nWUcOM+EFA2UhhCktvDMdNHEpKiLHJkZVkhQWI79zHwceG0DD4Os6JpI+uALaUE2HlzTDbh7aBXUSyhgnKYnlJhF1cwm9JlA4qx227ZxOm0T20VEGhxvD6SffJgHl6UcOyhr52mTTgDUy4JnQlYtp7LRwS6w9Npko4bF2x766ip5tQlEZm8FhI1i+AltfatscND9zIo6dXu5rCEzZSfIkMgkNwQd5MKramkGlcDIfufSb3nhLW0G8KgzmNxlIXggwxPygc/H07zzzsfth3JlybABf51I/wx/+uM4TY2JmEohWSuMxDZK+fKjDRcJiLDZ3N50IhUxCLqkGbc9a0GDM28Q931gWmPwcqAEMXda6PQBz3yiSP25GJjbJq/G99vZg9IdXH4DvpxLYyfC0i34abDK1Ufqy521GpFXOWdvEjyxZd95O1wlzluDTi1L7XM5Do39Tzt2h1DOdDCnCnOLRQe28DjXIEY/jXgaknZuHO3UbcGwADYy3fHyUP/xhBBo6CRhe0faQ2uQnPuGXzpl1sWnwCh89JBDlHtw4rA56pTcp7SNVWyRV2Ea3NpY8NifCtTEyla0/2iPO0Uk9Ceo4SA/xdLKZk6aY1trhHj+l2TNnerDrG9JiRCRyUdtvVxZdxOjzE2FUSUyTE/c5+4fE7UB+MFXmSlKcLP3sFoAHDy2wChZfOtJhhANzXXFgZCFVJ9+BOF39aKXvxvH4deCvc50TUs8TVEStgZgQIvISnH1an6bsRhYB1yiOjBFqsDfRYAhCzkAn7vFn9ZcOTNOwpjBEEgZ7QNukSyGx447sGhU1zRLhtR0xTUaWxiYW8sr44W++aaqC48FQag9ODevK3oSdFw8WMZ/kdvA5UqpGZ6BLx78WdNjU5iPCoW5DYv4LE33azmso0rHpOKgGT/Ec8vrKk0+ePvud35n3d5x+66n3PPuv/XMvfyJS96P1nrDfq89gzmJFabycORZyTSk2Geeys/TaZ/BrjPrCUri21cdBB3px/fP5GxP/yV/5d9//c6P5WKq4epS3OgNc/j989eIlQpjfke8CVrvxl9XlFRLrnyU18nI00yAO0/4KrLOImDSJnAjUO1po23qtBniEECZpIi4v4An+NI0vnSKFQgG6/uDjCKCz3jSKqbwSAxW9mBl95CmpNRJoPcHPtjUr7sg5/j/3y3/j9AO///nG+fI+Cs6XiHPQ1w6uFBwbP9kQOt3FiUWne81gqBbkTbJopo2nqa4/9653Xnz6T3zX6dfz/uw/8O7TK0/kXMh0wWR8qEVYpXQs4vDHz4Yw1S4/a4CVKEJPcxNOY+tHYGuPQEx0k6Mfpv1Myn/14F3X/8rPvfj+z0u65cNxBfB1TOiDXP538Q29rFKXaWIlSM0r7ndd/6yki74icFZ6LW6FBqOZlaggw4wOdHMZ3Y+00oSHjTmGkC7avDedBB3xSz8MWcpVqBF2FqdqRp/CcFRMzStjGHnZGG8juwHQI08TUXg5YIjS5EfGAUFCZLFNXoiTINDZZVIXhGO0ecSXVFdTK7tLENHXdES5tB8boumTeNCvT6+84x2nT3/3d13/yve+7+LlP/5UVAXwgKrjAVFpyPw69hpHXFmLqoaCtVN50Qop2OJ1WO3lniuOcG/jMkZOmK3S0YhaM7YM/bknv3zv5Uj8W0rd8qEe3DLo2xXuH/nzv/srWbkfZnxMnNFhAKZH9EwxINPeJ5ekbqBvtBVZkVo81BefCEkvh10PyfQRs2yyQ26/fGI1fVNV4ZBXftAf3cqMADSzCd8Y1xK0X+PS4WS8gyHuEi2t4+0Ywlm2R+/f+OW/ef39n/9cd5ewkw+AIY7z+zAD5iiwlkZHhKW9LB9GU0bQBgduEj+X+L/09Ped/sc/9SezCeScV+4OQquiN2nTW+LU0WVi9KzNXUV+usun9PNqT3jmrKNr7GTHyh7nGhS68szxTVs5ETx59cM/95Pv/9Ru7XZaxxXAW5zHH+Tp/6uT/FlNHux1oVwrV3klz6zpiocsuju5ETwLq9UoNVYJ2ASGQUIMpLCfECx5LRwatGsr9HbAVqVBFSeKg1yAw5NgKu2yaABOzVXG2CEgIfrKlYyRyPdreObAE+MxFd2MXnAQUhgDJbIrgGX75ZxhFrsySvejPnTUpy5EjhHQeqaZMSnPId1WjMiNQR00Q9cvNgugYvYXn/6+i7/+/feb+AhSZImUjkpWc4BiWWMUOogUxpwZigg2qtG+3Bu0mQed4aowzqmdhpPs4qRjLLELSg0+DjBidzxspP3o3rOhHhsA0/wHUh7eewG7DWWDYcKsUUhclpn1JgzY2FfQRC/NWXUih01/Fh76SLLuK+i5nB1bojRJCd3ARChMYoROTZOswRGCg4Xv1OeeFQP56YPDiT1dVFc94KKyXKEBAdrohZkuzqzND6beIIQsQbsmIX0TKMJFqVAFJa2pdCxeFTtILKNDRXvUGdzZcMOUoAAy55tBDH7une88/ef/6D988X+91+9r6UJQtxpcirSVliXxiUznpJnIMT5WUr+wrT0RcHTWnLmKLsyFHd3eEmKL8cDPgdGjCUS07aelkJsBYuMf9NPFM/RvuxxXAG91Rq9Oz7tYWTuWrvHJ+tHKMS34pdtKSjaOWD1DAjJriSgBbSzQVbfqIffesw+bmiWVAYY4NF4AzQ98iPfIIPuAaUgT0Cj1ZQIUSXHwqoGm0AiHZXiDUm1Hlybk0Ei9TW0jOP7QM+iNqfBgT1V0MwZwAVNpKsdYrE1bECjLjeYW+Cg49WkwjKitXyL6hVzq/7UfeP/py7n0FznMNY8F1LD+Al2ekJVnfHIZN4VqeTUN3dz5GQY/EeoEUBdbAFgDwhymnTEoXjY2kC8dFrMsop3d+iZ/O41jA3gL8/gPffh3n7l+dHq6J7gsVNamZ0FXNYtVmsvHV1wMUBY0HBeWVohD71LDIaFzRDJL34qlz6IbLoQIcRE2wUArRlajrRBzmT1nGX0BhyKtunSNuBiRrW5jCx/5vn3okwz4FAIbCyUtItJWDhHPCFDSG5ylhaGRRRgr9EueiVIAVfXryz6gXbjqogzOGV7U8nCO6YyFmTbaudd/4uI/+6EfPP3an/ju9FaBQ1l1e7iwMLU75F2u8vg6U7aDZBi8up5AR5Y50QuBzsBvAuN4gYq/ceufU61NsDRcOZV24VtrHRvAW5jK/H+sD0XMpGRNvJ/LarveBH/KlqAGN8tVMrzGykqicqJGFowuQZHXhJA8F18qv0lkFCI0IpUWw9yqFfHE0rl8A6mgtVMjgBdHe6ZQtL09aMLHxj3GSJJGJpVpNrihQG6wO/j0RaRjAHtw/Eo6iEI1mJk4XsCk2KLjVpJ6NggYqkGB18FvfqirXgz+/jvfefGX//EfPv3+u94JfS+D0LEM+Y1oEWEt8c/ZY/w7Wluhpcw8lORMRDUcmTVhc2KDYTICcPPKojIPyxYotKml05givVCLdGv1sQG8hanM3F8uMc/8ppcLBrlxOQHBOhE9rCaxkKYRZEQhnTXeAmqdDdgL4NBPm0BZMuKJqMiiB0Sz6e+fKmE1r8pgH9tjT21dMVSHg1XFuRbRrw6tf8sA72vVISBrkHLmWz5qsKMMWQeCQ7oiXnWo4MyUYJEffYCONKMJMQqjq3rxdi9CRAZ0tAeFz/T/ox955pRNQDtIbSUGtBuCY0nNbNd4APBzipAQcKL0pbJEYjLFQ7zYXJ22A2cYYUWTxx9T0u9vXALIODdvYovNV2LteuGFvnCRZW4G59arYwN4kyn9wfzdv/wt/6ddkEQFEYoKS9hAsNdYD59FKz2Cs6CRaLBWi26Dx7U1+u2D6iaA3Cw5fXC68UgNEz6QbfRSP/0QqlgXgOCBFpf3peg1Dtf3ZSO9POFvjzGk5Ss2arcRr97o2M4BufrRQIY949YGdmP/RqLhZGSoBDBh4ifUUvyT5GmGwphoIWuBUA+xQ9L/h39mkj8iJB3yqTyACLSTtXh0gVv9kcVXdZmClHULJDuydZd5pxPUvPAhcnqEXGCxto937LA2MKlGpOsVTdf8rBYaDxeuSjzQvf1ybABvMqePrp54nhAysCK7VsFVrm6aWZwsliucA2tumVVPWHmPjYhMCHk1kFAgCKJRatvthiZuNCIzIqjXBhieP3bHVohFdiV/JMY5wIpTQMg+QohWmjgEtI7Bi0VNYXp5GA1kOSIRcqqZH1wXEy465FH8UGbkVRVWdWBI85rKkVI9m2E5PZ2Hkqp9/Xvv+vaLnyX5/xiX/eN27NV9RfVvlAKLv4guy5LmMPKMxjlSsONhyjovYkt0XmbdGGvXH3g52EpTkE4FsIuWOaqZkKZBPTawrwtr4Iy9GgDcajk2gDedTv7u31n0dRVZrD1wXKiQSjMIGoZZtVnUszRVqpFCaEzwuP4rRnb4gRQaV40hG23xi7JnVPD2Pn4hGxp1o6rY0dE2NP6rMUPMR48rg+U1qFWcoak7mOQWJ8C9kPwZbkxRL9vRoUfWhIMCUzJ6dDE9IKvRPkfGg/4qaqb/pSeeuPgP/gz3/N8+w+9I26lmdabtBKSNExba05zZKS9E7CmPm7xMyAiXCKmqbDV6H7c4Q5eKjpzMgRZaaTnQmeMCMiX1oKOiB8HxzoZC1zWdAKr87R2PDeAN5vIHfvzvfvD66tF9VrHhu6KBRdwW22VUxkVDhmLVOHBl90UO2jANFRMKLpgyciBIlOPywGSCM3xaW1KUVm9oi1BJrStpYu/MxlRxKxq9PDNcVyo4nI8hTQTcyLuwjKumVnDvDFsxSfQDqt9RGPX6T5+SHjipCuzRPWkISs23BM9GmyboF//t97//9HuvfeBXqGrG+oa02tuaDfhWjeLMacT0vcNmOBmLCzSYnfKhc4XjX1qIYwwpnwKhHuP0xAAeELoI0cD2wNLkVgtKx5c6BiOrR2DkY97HUo4N4A2mNafG52atkTJKWFnWzxVWN7GRDovUFW3ssLgSXFiih4Dgs/1VJkFcaBAJAGSCR6v6CM/9v4mMUB0pzEpsaL7gb0EYo+2HhAPjOjSfC2Bs4Cq3HlRNvDuoDpem0YgKwiryXfl8uZ0zmv5qbrMTqYl0W6hknjhSMm2MuVMTaO2Utbnd2a9vG+viE3/q+05//ek/WcL44q9HippDaJKnRrDotX3DUkhduyWDNF6ZgKRgxucYO/5lr3OjEN9AaGaLvAaoGwysz1HiwgqmWVyg6qLL0DhabowsMpBylfZYyrEBfI1pvf9jn3vq+vpB/vCHUWqqsG70UlhpC6vNP/x0TRcxSbKCCvHqkTlb7oRIQOQFvz11jDfzUmLUBUDQYAShZsg4IQ240nCJyNFOSJPIaozLk6z9J6WojubQBxugFKFTpV4Dilx5BC3vWGMsTlTskTja3ZBFQamedVwi4+hWwFoFvynuKliYaTrxpP/6r37/fQnjSJVGexMMgp+CghIez3AYKm3Qnc6QpBehMwHOTDrjcIHwwzEKMYca1IcRiqbaY8bxxp90wRkjCAWr8++YozNYyCDfeaHnphBn80lBZXaU22kdG8DXmMcn7iX58/vgw+5CbLKusz3Xda3NBAmMksyLNO2Fm5qIoGtgsNJBICChdOHtoGJcjSyZpYrYBnClE5yRRKpWRFx9oBasiJsrxDQ6ECKTAE9/+QcVn8LIEYHKEcV1ua5UvgaAcBy6Exo5w6Cm0OEstllN+8w5pAKNeCSmSrstnNPM9X+T5P+C3/ALUx8jgdBZeU1XTYUGmYFRrMafM/U0Y63fvV7cGwk8um4KdTHu6Sp1R1iv7Fc8Tec4cpzN28aHjI1vcTqjCKHvsKMXIkCR4ZOUx1GODeBrzGqC64Nc+rkekcmauYQsSt+sdNYta8RiTsSzkBYDoIFG5LqQYRKzo472fN23OsMJHTwgTb50il97qK+dwaQDLgKR3UyngeP1LdrLI3UJpohPqQweiotJ7c3Zc+gdVR8SxlpKh4Yd8KX18wj0g+XcjA0GL9CN55XqKhEecFS6DWepUtNhDL/4vf/gxS9+7/sgWXriTRPmNrFLGpGBWc4qB33KZuVMR+9z2HjInvHt7stcSKc4QpmWEFivUcrAOp+hwAm5hK5vZesec4osQmksAJexQ8T0bZdjA3idGb3/kc/dv/rKq88ltkk2Vyliri60bTnSJPFguWgs4B6JkBG28NVaw/xGMO2BJFSUG9SbmvjLhQmUBAmO5SdiXMKS0CtgKqtDsKXHAf1SBhvjg1bah6UYwTudjGT8YBwhlh5abcdXcIlZSBFCjilJuydQMFNQiXJMpYN1/qAK7SHA27o0C61rul77//Wffr/aYOwlirvHNbQzpyV4rak7fdpA0V313sDnSUhgNKJjiOhk1dBsS2qhnI9RqoFc9kdx5mAmy0t7Ji0vQWOkjmAbYcHDfUyPAE7HBtDVu3l89cEla+lSbJGZ9Wh7ZM3Vrt0kAYwuYEUJeglZSCNHpkkiowdC4izpoqGemH3IFiPdO1IbeIPTs0gjRUOxx8O9Blzoo+iGEV1KRPAqxxFLk5aQMnoYVcRpvrbgsr5QA6hfrXPkexNnVxraGrPhfsejh+eYehzyVsbz9GuEOfyl73nf6e/kG38Vis1MUvfBTS3iN9eIeWTJahm4vNPHY7LLzlK/sbYQMyVJU+e4aajkGiedwa2gXGhOJWNyyZFfdz7YFBTwKCs7o4enzTrlxsPDQ3ByLHts3GZ1bACvM5tZwuddj/BW8HQdEJ41SWR0Q6jEHCc+JiuIoJ4VizOL3ahcSW+YbuGQtSYSWPcYIgDpUbwPnD62Q4oP0N0xaIXYbwWqVZzQJojt4whOMr5I6R+Gxmx4TbruQuJjyOnAFUD0kKBEUYypRQ4hboOz+R4lDC7973j1IYASUoHC3VCNBF8e0igU5OLj339/f2CHE04AwohoIK3akMgBOWkArbL7AfSCOfe1ko4yAqlRHxPrTCxilHR+xgqWt41pyHdw0U1HtCrZpql7ZedIybRxxGoFAHKumK7HUY4N4DWzmqf/908XDy5n3jdu1gNSAubCj3W8H4ZgsLM6rBiFwJ+gnkyAmpV0BZWaaCNheyY7SxZlDaCuuDIqbx8naUJXQKvuFh71BHOT3Fj3WQPCmBz/G1F10baxvPk3+mhTpJOsdgzUdsZwqvTDjh4Ha1xAFy0bcBjbJBVYRrbaSLREntzBBSA//d6nOPtHeefT6oymsWtW5qyvTwqP3PhyA2poiGlj9Mlv1jv4kXBgO18dBWdSyFk8qvBYE9LDmhecZUJmHVSW5GA5YAN0CrahHLcATMK3pNzL5b8lC2kAsACuiksx697VbnC4QEZrbmx7Np7QLAd9lrwrWXB6QZ9E6oIrjVRkjaTGSZ1ZEUHPszRC9SuX/eoo6MHMmTgD1TSseXEykqkhnrXBqSXP4FFdc9A4JIonRhEMEX1sosV0RD5HceoUAtARQqWGHR9upKgv28NZt0qnX/je76k+1mpJx9o8o9mMEnpnMFv/tfQlsyA2JxjHLBkT0CEM1xFEI3QYUD10yWZ6ArBCpGqRrmimr3rg8AxgucqidT6YQMzWEr6krXaxbvN4XAG8djYvTh8yYKBn0hvwW5DOKhPlWS11OUaQRctTHugGR7qNHHVdvi38I8biGwHRDD0/ig8YgC2VYf0hETyorW41uVeEAkLllDQIaalZrQYt1oEfcWwzAAJNALuDZL4rAUJ+sIM4bX2GLCDj5w+T9Lv/HRZ5hBwiN0r0BRxl0ZSNw2iQDjHF0P7Gd3+XftfyGHNUQYwEvgA2h+lLqG8ajoyqi47O0qXe1fVZ4x3DmpjiGwLaQM7VrbMRi88DG1kQNxNtT4Knw8NbhIHQDUY8rrnGbhSd/FoRDphbLccGcDadPP0/feXhB8ixme6uUGQm3hrcLBy0Rp0IyL9moQihLVCKZ1Ar36Al1sOZs2Clyz47RmBZ8vvmKPgCsy0a8bkcalhRYyRTPLuIZFbJNsgD0UjMrxXkczoU3NvOb8pLDKcxX68rKjz+aX9mrolbG+GtyFYWH3ANhfGzuUK3NDIpbebzV777u09fzF/zxRg4nS6AaAeJt73p24nwCGIaiaULXXc8qIhGilJbjSPREjxtshPn1q6EQgqjMOm5rbKPi2lsC41dVWWHxzhoT8JnDAxUf9WNfwEoTZnYoF8DKN5qOTaA8+n8yoMfS9dFh8zCZXkmCMow6Eana126i0pwEZisM9FrFHe5R0U+64kYcj17GwQRbMIaQUth6jpFXoRQlwJBwUyKtu1zaIkATALMcdAOJ5UqtvVRbwgyxwt//SZhmjMUx0UmiN3hgRc+aqHKwVjxcRZmuxqNVrrb1FRjvKGKkDMzExTNlzllcQAAQABJREFUX84GAIKo4e/wIVKK16ZClZxBD1/26MYOZhCzAU+7relSxu+pMmplJjErop6ignkIbTkwPgsW5Vm6jR/SrHdszIqKOJvJsoHh6m6UW2wcG8DZZGbl/L9wLo0LNeFOUJJoCRgWKypdvVkXV7z0xFSCHswtVdIGRo0mcFDoBQt6DlEIQRr0mwX2Fh+FQUA8GYLEK9zDVpoF3HEiQpLqP9aWrdBVnL7jwV4a63nG0hNVjq1ICITBurJc2qz2aonusugw6KDVL0EtsBLLkz0+vvyd796f/iO0jCG0iYe40c/bKExZ/NTVoxEedMqGRWcRnR8mdJVqwJa21iUE5m6jOd2js7CWXcEjqXArJhPpiBoTmR3qTOyuPGi3XR0bwMzo/fzdv6uH84c/WJy8mstZ5PxwmEVaizLRMYs0i6VM1r+fEpCO4fOtF7Jy9oY0xeCs7ELTDwXdNPxLXmvxo6jswlUEqIHAM7vEToTQG1ciqlZBBwB9tMOrIoPUty2RY3I9msLluh5xA1LRDgfG8GnVoeA7Buo1TsamRHnowHJcOItr7UzVaTl96cl3XL/07nfLikgLwqsAsXaBRV81WquN/GqvGtrryezWIrnGxJTFTzZD9FY51wd38+eG1JKmFgdYxTenRgSLiFTdeanS5sgI3l51bAAzl1eP8vBvViZLkJVOFHb2J/CzKr2eZYHWCu/BG1kSafHUTUhY94kPSoBsq0drl0fUpBz09iWShdUbewkgSXCJmMAQnNBSwG1iELMYLQ9RCmOzTnOGpKNSHQNwCiJm2TywF+aNDaFDG1dmGqonTJqrRpJO8HbSaklnJPXvpe/8jrbgv16JpYHbuRDW3NiMIQezi2g/35ha87FxFpgYTNvyMf6MD1aGxkaDhAZ2cHzacV3v291sbL7MKBfWJrD8XfEAcDAezx8EOr4JuM379emy7Ym+G6FFnpBEhBYLejMitwhwrcOOUCXMzQakq9g4aj5XK8e8qgg2/RwhiLG+f3/mW+hsUagZLIR7KSGLNAedNeDAXb5sUS1FzQ7qbAMLwIxARH8bNuPXicHiab+feuB8XoHFnl6lkfmCpnqqrdDG3JhUDybqwnQjU+zld78bn766FET6wqsYY0yJ0rnaaq95Z3aXfypEgMEpJwAYACloRW8vro9d/JuPYdMim5kCxmJmgwNpR61IXfE56/BC723XsrLT0T9+HXjNy2Oo7//Y37nMHen9Bk5WgsVg6YiLFILFFQttO5nLjUTqLXhU3EIb9T7ks0XiIC4/8MQEFBoNmoHcgkiJlQETOChQDA+jmI4YNAqRY3Tl4r8PGqsA5FieQIUQeaI0R/mdB25jSHIy0iGuB5aVjCwFdUtkwMgoQ3OsDhUR5y9COtfD2NHz6DmASAChe/Cvf/dd78IpSecpXbOhlBltGntZOlDKqTk+nrSkEkPLtPtFm5pGZ7nRQKhS/VgAmw2Sc5npzDAFAeiGuSHQyKsT1G9sdrpwMQ7IEUh95txxQac5I1m+3FbN72fd+fLo3sXzky2uhYvhxDM1XR/4xI+LmNow3WauAdY04dzMgkUzKizkLCbxNe0qEmYFYpEpntdTb31CEbOwlKHt298sIXThQZNfw/ahE4kUeLR5EV/w9KZcjvSxFbHa45MAzEOvTcYhTmXxQ1nkakcDbJL0R6+c4es7LKCREFDR+IbQaNH63fzBTwhnDB2hL56yEUFppqJ2ohMP1ppVvhyknYOFka6cHKjVSc30MvjSmMb6gZj0zJPzE9mUDqPt9JjhzmNkR3fshAG2Kjm6TbhOZ/KZ346QcaAffP/k2DJwe/XxDMDZPV0yy7zNE1LETrrWWaEsQVeVBTGFkLZ0sdIMZ+77Ro3A4EsfgMxCQmhsyQPM9eXgu4E28ghr9matJBEjk4/sBKub8dm/OR+DZqrCmpzuBBUmxEYXF/W9DtVx/dFBD8XQEhrgdk8YXPckiGsoDBQxJPOjvjw8qyAJt6CY4MrXxhfze/9VXzaFEm216nh6CPJeINSrLPrWL6qy0qYPgHoqpGftNMavXgoxlMppoAkOja4kXDKvx1yvwELqqEutRRIctC4cf1gMIEnU4kTP9eVTk9svd34D+L4//3efSxDeb+A0hrinc2W6FnTMXhYrLDeHLmAXpAEPs/3giZB+Keze+dsCCqC46Iq75itoZtFV1+aI2saPKAc8tQ7QpxhcsZEW4ZQfE0v/60NpwzyTZzx7oIFVU0EIBzMaal6AiwRic1x9TUcKrLAisjhIQmz4ixcWZhXpjFYBi72yCX7YCmlsDgx/mgueAZyRavdcB2PIILWbPJfQj8hYWGSKXXVy8CWlXOm7UAc966K9zEPG6/wplsEunfQL4jyNtSFm/tJK0WCO1ct6L7fKvr3jnd8Ashj5wx9Me2abac+ydBGsGhazdnS6EN2piSeTkYbt6rLwkTxPBsGBToRjZWKgYhEHWToiLO94BDLMFI5QGwyqpINZuNCtPAY/YvhGLU/19tPsqVsePldXvx38fEe9gy1snMw8BbO3Bm6Sy6bmAU0j/OUz9So1v2Qcv+Lw4VkhbqeOob4hTAOlm7T0QpSWWjugLaGxsvkCfQlpC+HRc7whys+8g8uUIaHIzCUqTNnod70ZN8Uq0ujGi0LjTwGVGedSgYtcVzkEWcuH6cXA5r/6t3e4088A+Lt/uTx/ocvhKnRRXfJOMjyTKGviIrnorH44k2DIZI3KmZUSc1/8AYNpYNhXoRzt7veUKDaArNPG3mCmPbGWKJQ2GLZz6IZG5MKuTIcUHH0KtogLCDnsLRuRQ7My9Y2euqlSIyk/FTW89u1JUBFeilQ/ehNkdqtdYrTwIH63t+aKLhTefEPBwpTopg9ahzh26n5tbpxpwAMI/RRxR96kheaYmKPO0yQp8+MYq9cmWNzi8Ro8ExoDHYvDAUo68nTsjyshbULa7FJUJnqJi5THk6qPBxV//wiUByf+7l8XjsWnNPi6eKwTq0CZZBpp1nLKdsY2CCD24VlzhMXumssJWAOla75o1NgxNyoiPhuMFlGqH/U2Z+ghQd18EWPkHM8K2AlWzAAYkX0AkJp03daKvWOihAIvfLOmGkPwZbcRuzyTqFzom150bcNRd5eppn7QdHfIQmySWFrWxKg952R4yG5vGot+Lm+7QPUlcpQlg16LE+azGxLX18by0xC8VFw7OZios9bqdIGc23BH1hXGnEmtjm7nEBF+UpZvTfy6d7VvfcuRW6nv9i3AxcXzLCQn70w6k9+0cc6hwWNFGn4sjITQmf2tj6raUImF8kfLRZcahYYK4gMaeVRbCgJHAyWqMgZwMy4Zk2e7EFxijMxzR3JAjiv31HkEoSyYyuF4HKoCnnnvSUTndfafgjUGWfnITQtFjFW1qOvIGHUQExFwAttWG6g0isixbiBRmqCOs7R6TdtJqf60R2MWSSLIS4Wa940yfGioL/5A3eiHx5SsOKDN2iqKXhujGZbskBcFgstRmvroncuhhXzGgJ2xv7xaWOk/nm8C3dkNgD/88erp4aVJ4poSz4Ro1sBFSWuCN+tj1snPai06i+Va51AceKFJdE1pN2OHCCsiWNFamvaNqwQG8pgTqJyRU0O6gYIifMDExv90i7HIcQhMI66BqztKYmc1ROLzbAxw5hMM9G1u2AcYCkagK4zcBDCMGT/NFGR1bcBUTFt3zlh6oUYPTJmqmdSMdedoffqLvBlB7IwnfVTP2+d6i77qZWnJWDMly1knI1Im60jPBG0Ys6HRt+zrXLjibdO2bECYqYHkxiFvoTid7dzi8c5uAA/4wx9dTxa4gT41f9aJRSaeTIomUZeHXErZAzOEFaioEN1LBsFgEsN77BLTCG1JRpKYqMR9dTWB9oS0vgzMiooGFpKbMqYmSXeaKARXCo5p5Mx/GWEzruY3Tg+BJnTk2ePw1YOdSOE7bZMWpbBzq79A2+AYhqjKAsHX4FLElx8L2AKkrPWtq9hGEiUEtIFiZWGkBy78ZXtUIFQSnn6qJm3JRCLzHtxQl63CggwjhanbiKW7zuq4xnAxJ8To3FDZBibODRei48LoBX46B65JINLx9zPUu9XDnX0GcH19719mvVgsAof5d+G6qF0+BHhNQJo/Ls6sAavdBW9kIk9qiwnuCp4JHZac2HbpI7bkoOKCpXHGPT40yPxEhx+FJjgAQ2BKQQuFEeNpMZF1Y4IhHsroV8KBjCU5YeG8zxp0NHLIZqCaBIQ2sOGLNSIjV2CsqEDN3EFGVw1McD+cQ3FUsi0F0ZtvHgKWJpJtFsH7dXgh+x65VH1IN3UHB20bOyLc10cvB310SPSWLb3teNFzYUPTVsjFSkMc+jstQvTXXA++84J+3vDScjKQdT4kb7j6Aum2y53cAN6Xy/8s4o8ymSyA6zMzOzPNisBbQZDFoStZHYMBGagkS2r4U9uDMiroL15BEvDy2hODfvTJjWLaRBUKCHKoQhRyaHaUW+phBCs96iprf/kKPWQALX3gNAGXWFTVicHPinVs9bt2EOSFASnKLt9qI/Dya0d/OvKlU/4IY6N26nZHEIDxQeGZh6rMnIdPAoqvqeqY1MhvYwAx/RyVVY/e+OfAVx+9zjXS+fH3Hyq5HnYyAchTFYXNuxvSmk91lXFjx/pmJ/pZyurPRhaz+gau2Mz540nVO3kLkP/6c2nUspIsVqPKsEiTpSFciOtyuq70GpyNiy5TFy9yDUQvjRc4wRPdib3Rz1KjeU5vH4oyOEVLLIk4QDC1Nibj3qKihHLoyOk/tParFL7jWXapV1lN6vqm/YA1gJFbl9gbamgjH4O4wp0Ac5Cmhjms/zU4+mjk9ccePuw8Asxcddib3ziRBHLunEr40QO4BRtpczkgqbh1fsmEd0NnVKkQ6eqOHwpWPMz2Rr4T5i/juB6m6/BEOpe3jXos0N5xGU5cHm/hcAZI37HiTR1CDuqmOe3z9dqs30LjTm4AufzLr/62rEXJWmTOWYRZiG0FJ7iXAIuYRZovrLnixCKBz+qeLxR9SmnisLZnMrWl0GIIsryQU50RKpwblBStTqQFbZkcnhUWacQBfNBXXJ7wtLJfFhLF6dkz/CoCb9Qy+A2AuA5jjbubgBoxUSvbKLEe0rsfPGhr+RsLIdQ5RDoe/A1jlPBqKwGRDH4KBmhCs7yeDowlX6n9OPRzQk64m+2BcxzbYHbhaelBRRkKGxiTM84xRxGUwTxWyblF1q9zMx+Rd9OLs6WtwX2VvVshPJ7riltx7fGA+Hf/TqdnJoANry2+l8mVDgbo2YqzPA3WSLJQLONZQquXOGjdNU574aeZhQ/eWdJMINSyIQTyxEdMLJdoTEJuBktDvIGDbGSiFCA1N/VwBIeR9447DFQpCKHPyJZy+jarRJOgNrCR39yJbV6iEMRxZTRDtAX6FEjyw2A/CVm3YY+WNYMDc73hU1bfenBpM/cA2T6Tg6DsOe2svfGWnPVN2zi6yQXONv7nPXOGJ8yXc9X15p+71Lazu9rKIQsvasaGzybO5cOfscwYI36r5c5dAXzllYcfYr6Z5fy7LiI9LQJ65tUV4VCWS5MelByabC5R11gq2qAoBKVLai6iMvy5zyZcoqwMqJteBEMkGUziaWsHqaAsJ/sfg/xsOPI12/tHRJTiW3cxGMhSIOJjqnCk0ZVcYjgt6ixZBSYIZSMcxZgFhCRmgADbL9N2HYEQfSYHrJReQNQLgKBzyd+J0JaAQdbfcbrKcHCB9+DBEL44dC2IUBBbbfpL1fUI87V8ZG4WNPI5vENe6milXVoa5xaKeY6PMH8/IcZUrE2WziUIN+3OkUQIeXeOFy+E2y537gogccu3/wxag3KbUdfFaWdVDRIjW2lPVqidrfOsIbQuv8knDAfZWUywUJN2tuANxMrViaBEmPUPTw9s1ZmKaD4XjCPX4FFh+LqIP+izoWibbn2s2IIcYwYxWH3jQxSF5WBj4bsJMRajsvMYCX9AoCGS06KulssrmPw8H0iG+JMDNbf05MhOE48hbMWkSq8jLxzOanMEdT40a2TP3+P/DVr4lB3H9r4EwY1P8UJHZvJmrtBTu/rBsLuSH73aCsYkP+L9NMOJDpu5UnGN1BqGYDc0x9gtVXfqCuB9+cMfmdn7zF1Xd+bXycwCMOMRYKmc+Bx40Tdu0Mub1ZGvHgfFPbCOkTVIUBIrcMJSiWkDmPGDVnE1d6MbesSX3Y2FjU1n/FlOTo1NNiB8WHo0bri4zFZgjpUXn0PKjedtAeCPhYDNx2nYQcb5i601j8u/1UcKmpfSjGn6oTSpRAGnmjEDrLi1QAdpyeVW5KbM8JVCnsaaG7GrvzAHYomDFVLGlRGucUNDLmvqyM91UHTXc0WYFwRrlza6XlWlzX29S+KBkWR1QAYV3oxu2kPfhgzyrZY7tQHkGyrPN7hcnyxaE9uV7aqFvcKrC2j0bAHlAjU6ugzlkAMsHeu42l3J0QzmCsCz5VvJSUwRJKpEgyDZ/oV3eJwom3CIAFC+QWIahVSAogdj3IBRp3FABxHRXaRA00dhDUr6knNQF4Up5CljqWKIleUoA3q+d4wetiwM3cFt/XA1PFb4SpA+dGzrmcDIlFOXBqHu0QlzGwLu5u08i1xp+TShvUnBlqrxmAHhKGMRMzz8Dr8ig4WbzEioWlC841G/s1UvlJ3pQR17a+xpdAoHV0xpyLlgw7nV6m5tANvf/Tubw6xa172LXQ7r1WV3KRUoTX4V1GTDMD5KMwZXiJC4rqMJQYSkx18IZtkJBggpEzptE0DIl2E8G4zNIk9AAPnHIyK6NocGPkqvV7DDSxMRED2UPTWbN2NXiLoRiaWE3tYGIR2DnwM8rTRrwA6JIe5XD2NjLvPLVlOxoETAZwHYX+oYolS57UWDjOA2g22rjOG83FzRwhfYAywd2pC2hhAb3YQXfkanQVJVHI1EAyUVUzGHabNIca5ru9ZaEkoMpzEQecZQ70Ia0+B0uoE7X5d6elvHO7MBcPmfVbm/LVRmcJbMIOmqhOgCNNCZ+bUiXbDRmcVdQbXFVtRbQO4i2yic4SBCV9lkNlLIHRaZKFiBkUSqbrxw02iIGFAcCBCKqBNgASCcOgZkgEMmseSTtwbnUnSDikwE/KapPggMdgz458wNzhD2IKw+ZkJNgVdXapoO87YnHxhMrBySnLZT69lfsnMtTrgVACdvigzsQSlMqIzXCpEZrM0uTXgZYwo6DlQmOpDxj6IjbXk8x5fgXJPLHWdFRRhf8CpCtSEonlXCOeoshz9jLwQqMYaPvFBcazDAEyNr/lS71cOd2QAS/88Tz6w58cfiTMn6z9q5Zvsidz03qTSaaIFgRVqmXl3wLSEY54RGiGkHOMs77PpRHrEjeeQaC7W1glGJUY5YXcCAmnD7ijmkkHBDkSwlg8urG02wlZBbj5BXcWkgv1g7LdAOBf9XQozejBd6HVB9xxgwpq4YoFJWAi7XHX/0GBXqzN+WyFHCdmVRLoi0CodWrv7Dhk5nhOhCtA4f/KWD57S7ZkhkWkx8YsR1VHfaoZyFQsRnJYLtojqn2GWMsOuEJhhJ9mVM6JmTos9jFtsoqIXcYyh35lOALNhzXQgmn3UhMiyEwMyzy8f0p2TyXQ07ftbL8sLsWkpnbShTyYN/Vho0GNlNIse6jo3IoyMuUaF2fYnMuathoYMATSqDJD3iFCJ2KmNcA4dccQSLWCk5oiNcVYUAGd/QotjGewJ5dFHqCyh86LvyXPbXmQWCE7RxfvEIftokd2oNMumLjo2xqftzEAe6fUeiL8XHhmMtv5OVtkl4xlv6mQrOyk3EAdPX8XzymGcb8VMiB3BTp2LckpfB9mIR3LxWP1o4xjFG0/JoCxlR5Acytc2CZ2b0T+XbPdyJK4Dvzd/9e3R1/VSDIVPL9j3LwgKml4l2EVmGzry08rKKamTqEWLJ+HFxXY7B62V24RceYCYQgrGBrVlcsYYHWnjzjTAFmmwhoZWfNPI2bsX0EEL9Bd6iX8ihB5AAw/SSOA8UizICdRG3Ig5rfDchpQbjap7U1X+HEiOZN/w+G5AgbgYMZ8xGQFuMJEokO7jpLgn5zj2YdVxU25uFwdsEAMlbMOoxRP+sbEY24TOmzSrUlpDkJu6Ph/pLNzRkmVVsZVJGfz2TqdMQZXV1lgPLr1myffiKyQ0+0h4wKDzyzpi9Wz3ciQ3g4aPTBwk8lmyf0c4jfyxjpvnGxJIEqFSB9TDeI1OEG8LQ8qqJqHB6R5IVrln7Q1O1sggZUWk08Ra99lGrfwbGluwDp3/uTigDEUcjlJddaq3Bqj+OSWuYpuhi5Kz9ssoah1zHFcixveE5LgFycArraH0KRPFp1Bdk6yYYeWvQJPAgRhdInV4ZaG+BgRBA8Dqg1OcljGVvI+tJnci/P46uljf21sAGhVNt7hXP/umJLjAD8XhZDk5SXifUAtQ5D7yB0jWQjEAa6iu8qRkmQLpu9Z2RSYJqu9HUm4Xq3+LxbX8L8FT+7l/+6/ULBoZr0yTZ5nAmO7O8pn1nhUI8G6sANLGUMwgjSVzsC0YUNfkBCatKZyLQUTAORS6lIAb3xOjsPUIUFx/JGgRGiIg3eRHD29Bt0cdRnW3dhJtx+j1zNYqnbvqOkZoWyowhAykO0DNPjHtKeTgHFiKc5WMbH9Kn9kGXPH2Km1zW9tIW2UenK/9cKjnmpTPY6FODMf2NV3Jlho+MdoZHX3+mv3Slh4aflCVX39WBVHq8Lx/PnIeB7JwsrFUzW7Trx5o3aLxijzEBteEvHP/PgLxiRT6NvMRjV3oc5fGgPg5Pv0HMd9x7wJ/9zsQ655nQVZtMdlicnuEIiJnvsRf5WXUwjBmEChLZ4s4irpW94atZKwWlvCNlbg2Gax4OsJY0PN0iJD4+bz7iRAqxFOoorSACXmxlzg9rXwAaXMa7EiJgog7ycjJdgj8/cDuMsZ5uWt4TxxG4+sTV1JS1McrwUCGaV7l0flRAYHCNHwcLAjbZHJYxdGiv/iSRljba2D1P6kXS/9VJPe5gz7b4w597bRZgze2ZCeZjfEVeCePF1sJdmqwZYh7O5hsMNoibRWxIUUKvfWNl3WncVLiV3tv+FuDe9b3nnSmWyKXs5Hb1WIUwCIR1ImXpu4Jeyhk8EwyeMKqSjFFQ6IaRzR60tfquZzO0sdDcACclHbNvPCkx5GIChH8rZheMfRkyxZovBw1C/NZduowoiBxXYRJSNtLWOCPHWOdK39CfhmOnn59JrrTCnlRZ9QKtLZGdAfp9l1N5pgEbToeqvYpIE1yqgWgD89vELA4Ohao7uUVPCz0Pm7ayN3vIR2+Ii0fNG2cWDWWfh2T8S37mMcOIlLM+c71kSkN1s2GbZXYYuxVboTkMvEoj6nzvQ/3bPrytN4D3fSR/+OMrjy5dPmZ2K2tJG0J83u2Eb3PcZWhgotR8SV8J1pVFKa6qLPFsGGuRmzzKTSKx2MQI0TT2usDjF2SMIRFR6oJAw4Dxrg/iKIiuDYyUog3p9FNC0EH9BrpkMdPcpJb1QdR3RSfVIkiGLj1YazNYc7Wg5am74dvANxO7KdWJVW5wZ45XaosbHf0fPCrs4K5jPTPaIXh1UnsIbxNCB3IVlg2RoojuXrLGjNU31PRQQJUA4BDe6NhmZ1cENTTTobXmZmEDUT3UFpWWSsGEOFJxljkG6HGUt/ctwKuPLjOVLj9TyjvzyiyHyNqRGC4sXGIsXI68kSbP0qhOiSwG6zqASo2MhtIGk5f6SDdQaEAUt3w7QrU17HQiil15mhJ8wgD/KKk7DkzhEj/410Lg3aAZuDsm/iEpflUABoweAw9CZRxO6LusMkiNQPvL+PIBoK09jd569DKf9lzuX/OPSPO6fpQHXtSbXqDtrHGLychSxg2aqzhxdF7DY10o6I22/UXbOvv4nd9tTvGjOQ1Cx22/bcZB8dlGDcz/AZQ83Nqvc0D4Hl7Wtyf9KNhOHaN9/WZRbvf4tr4CSNA8zwy68EQQAdBIYp6dVrsEOmsHjXnflyoa6EQr9DxMzGohKEk4I6SrVfLwRizKOoDd6LLY6Rs0ttLHD/C20quLIejAYqbjMOi3bSu0XYcQWlDnGIyDIsBqulcxJIbpUMvBHeRf69sAwpE5Mg6tg8P4LhVBCcDhe1OTW9oYw20szKT0f9+hi4uhhs4PJaDoqGHvpg1lcqgZe1oSaDHD9pYAn1/jY8cqnVipGcbeV33wGBd0fnn0GqRiC5SRLd8ZxZrc0pCQNjKDraJ28byLLS0PVS8uPmfzlg9v2yuA+bt/l2upGxCdvUyuodHwYvLzrVe+JmhxuYYPoXzq/ZzEus2mUaXoVi5SWTiIhTOYPEAjT1ngryq7hjDhg1gHK7wSaLTxRaUaHhkq6I0doXIopPKdhlHUBgPhNUVZe+PnxHGtrZjkb9SboPHGl5OBa9sViZ6EEj8p29wxjvR96p+GZ8tQeKAIqFcDSNuv7GabcYGFzWlrf/puMhs9IotOHbtU1S+vroFVC/JwwrE5J5DYd9RbGOl5T76NSZuIFQdA5lQ8NfE7Pxt77I/lzj9+ICcOnSlt5t+k/uai3Gb9tr0CuD499Jt/zHsuJ1n+NFc5T8IujuEnm4Vf8l0Ml8AAkuWBxYLUgHfF04/eGFlCkfEXdnr56enDMOj37M0uNHb/xg6ZgO7A2Vi2ajp+S/BSxuDqpY6+qNuzzoZQZxlMB5TG8DjbpqkTzAF2ZXFgTHFDXxBq8g8ICEqGXXORB6IFVucXZhNmXfKDlZ+oY8seSnu7LiBS8hzBW6Vt/F7+j9IS2OtdaafNgMva7TCtYlaSsafgf47xOX9ROq2Mc+mzoo5l+cYcoKTOrOPZHIorvzzQBBylzDGQ8WPNahy6+rxqt3x4224AuaB83uxZc8iMbsHpirI8sxS0soZZUBaZf3zZQMr6tK3gCgCV0lm/tjv0BsgsUC20M8k+HFa1zc26/XhA0s9/8YkM7oeIOBmYQhNZGRIgj3bpaoWGT46pMN0bZiypgjdxjRoBrw3IjBnslK2BjWVmfFFfWhkA4mzkxq4qXHajKlvJnPWn0w3M3HHoIKTgOvL6WJKEHOL4YKSjON0xYQ1xlxlfIIi6K4NLr7Y6rekWc+aHfqVSDa5/1ceOTOUFahe5Bo1OgM4TfFG6hrbrV5URKYK+MDdxzBdiKRyefPcrn6J92+VteQvA0/9M4QeYrIkmWkZPZrerkhl2wnPkZ2SbCO0uGgGFdJc0gGIGJ+vTpQqb3bplVs0gKoUE24yOVAl0gKlB7aTZDNTPBapgOApyyJuqntFQcqhIK4t8HUO4hX57mNV0huK8TPLDzWg5YSsIj/bID52zIPpWejItzaAqS7/OhwF2vvTDEZlI5zsB1vShp8eELWTxWAFXIRU62lojScc+kkOrTBnjsICALtnKFGxrp8uGQhauNV3jUI8Zd9YxtpV9gFmIztcawL5mOAdmNoS4FJUlm/llU9zwA6s/+mHnU5968f3HFcA23W/SePjK1Yd8YEck8SKASSuOhggLwSok8ieFqFwAsWmxcKbVivFJElgIictKVowaqijga2swe1LQqFJLBRsEvIpygI6qdAnylcNDhpCy66mcA5eljKXOilLnkU7Xm2v2rJRxlWYwZyNbPIjjEmx8wW7HrDwCGyDTikqLc4jwRtNdmZDoJQGCmef89WUpDpeuw8cxeWBiL5rRKE3GjQ4OKjesVeHeWkBor8XQqxysN6U2zmXHLl7ErhUqU8ZVsnrmcXEi7KSgZqNauItf1thpocEoQqeAZn3xWM7+QL8trwAy0fn2H8NjAte0Q+hayKHn9NNrUNJCqqpmQZrNhsb5vsCVy9EoqYZtV/OsD3poexC6ptOdhcbwinfby7adHNIP5KCmTvI0RBxmzyaVYSxI6q++oJqo5CEnLGjqTtCG5RyBr1lkVmOXD4jmV5KBOYgy6p6YOZz9LKfxKT/veviq3kNeVwBK50CRFmNcNlPgWcfnnpnt3jzIqwdOiAN0kNVv03Fv7gSBtu+qxoEdlqb2nB73VdiMjWEw+JF2bWNB+szhMggeosVFYZRKQCv83FZoO8+qxh/saXMpfrKN2z++7TaA7+IPf1yc7n/1VLFQWSWTovNcmS5LyWup1kI1QcObCFiLvtDprxANrVCzxlVBks+3l0aECIcJiZ069M2xCCiDAXzmhXQDL00QhyYdN5Sg17FK1x5RnJ8Op0E6ZypgjDsmgHHy2oHgQtjsg0liOCd06gk1Tp3p4wyY1JT4lJ/vePgg+nqDwzygZXL8s2D8wqEbQK7VoLMJYHubPeDEKU3F6WNnzSzoaPY4+vA3LNr1CxpNbVCrGT7q9oujELIpkQmx8+LSLr0OP3PA86FICJ4xoTDv0Qcjb6Z2rg6demixxNr41o8QH/08eo+jvO02gPyp7+c7uc4lc0aXwoI2Cqgzz8w+C1sBw4c+l9JnhUVAgtim8p1jF6+LDA8cfuAjBJ6YdCuvjAIctlL7W9cGtEU3SQZ6YcpfAmgQMquP+bGtn7qijIFZ2fosP0OOaoZp1PbUIy3kwVxXB3aDT4BrBctTIGQW8IPXIu9cxh9Fkobk5n6fN78XIE29PBPw12w7d8teVCzI0V5Dws7iLYvUbh7I6RF1izwwpLBmFJanbfrwsukyQV3XEENzfuXHOLzqCpB+ZJyJ4rjm6SsDnbZ9proEMNF20wMfzBDFAs/WxSc//e9/z8vIPY7yttsAMuOXzuo+W+ky6U4289sAmrWBkK/4sChON3I9U5Y2YmhlTdMDqZKDW0PQuq+sBNgdGAlXl7Y+jD0We/lLu77a4LCxe+XCOG4WCBKH0zZj6T+kwKmxp2LCkwhdzkJrxEJHlLgfySBDmDh0XpiG8N0kl9s92ymH3XBjs3NRpM1+mMwiXwQi6A38oLT9/7f3PkmTZceVX2YWIE2LDQKtWZdWQPQKuqgNgFxBgStgNc1kpplYGrcBxR0AO2hqATJgB+BME4oJGtusrRsQiibJjAKQ+fX5/Y77ey+yKFkPkJWRhbhfxHv3uh8/7vde9xvx/clIf0zBYbDj9GgTXnAlRzSujzs6PY9N7VxY5D46aWXYjQwktljjawk4aBBEx1SYEWumiOkH6KgmdFkXLmUCTE/3psQFo7/BdT11jT1fdc3I7o/Se2vta/VrQN7+Z1k/ymqxullxNqWbRSJnS9jIal3SffsFnC1jwbuHL+bXcdqxLd20STk2c1zoQ7Jxdzi2I4xQNDj8G9eyVL07D+/RAiGePEy6ymUz1vPNitFEcf6wr/GRTIR/xOsMWIpK5AciDn4zEmVAmHIbbPo7UAomCJ4iVEKF77OtujZ99bdgAeJBKH4b1IxbmOxIHBycKPWT++gwX273V1oiIjhg9oBhUgiKZU33oBx5QDGbuWN0RWw8bMoRfxHx5NRmUZz6hV43565Biw8uPXkxqFekz37+66f/56+Demvta/UOIIv/icuWC/ckjRvA6nUTcmUv29i7Y0iKkBuoTDg3nVF2OQr05SRfT5KIIdXOz3zHYtCTP0qKo4uX4svShCHYaLUkiegDlPuYRaW9XnJP75EG7aQcZz7HHJDzYRhj6ZQCCjiNzmoUFCVdbNBFDCIxynGiEnzjP2w8gUSvqIO1iU/mKl0OWX4XkD5jLa/vCiyU6I+3/TA2Zjo+GxYE6aFTwA916ZxyRn4vHjvu24eHfQKPrM0Y5XMvpCWX0skzuKCzLpHQX6PpW/v5CYaLOn6NxnkEvPuiYWgz3g0ot+ucy/NnP3n5+dv59d/E/Oxr9Q4gf8HzPXfT2SV9slm72Kx7HiPr5+wD6yum2aQVmHb21t1HxvZD4n4xCJb+1ifjITEryBdRpovbHXnwZNzRTPOMSAJPhtDhBcAVx1gFF5v+la6899gOhBWQKjHLhYZwYxq5OPwH1WBdL63EJ56G68KRxX2dmvDwTYy8WuaOL9c8N9a93iNM25jh4FeAjMGgyRUCyBwi5ysFM3IU6oi5OMYjprsD1JU7xSMG7dClNUb9noHN/NHrPrMarty7XAQaabwCxt4AGiOG2KyjQNrXvHJk4NKOOxT5FW7YJFMp04unD17/9rMZv7Xb1+YA+FY+9y/H8R9kYd2m7kUX1b018fOGJxWfBJiNMnez8O61W+E+RNwVP9gcs0vsL3w8pDw2js2dAjYGkjeSgDFuUEQ1pnUQ1SSiYw4BwPKgMfTGx1xMPoLSvZz0gY9hcxO9MfbSMBRRUwkMPxiJ089S4AVBwvQmLzI7pykzKSy3OiuUaeuwc8FrFKxDOxwAdSE+Trjri7vL1Vdj9bMCUTVauMTPHVAEwMpTZc3yao0URZoYhsZXmSoIaSe0PhJUpEaEsWugAXKNOi1MKxeeS+1jQ2iMa+8t8xiHY8MhC+RYN+VPP36bP/zDH+1rcwDk4zA+4bvLY8GbLrPprGg2I7tE/ZmZZgP7xiZ1A9yeEAQ9WxMVLVnEXspSCXSgIuoutz8bqdZdpRoClDSu1g+CEkD/5WaBijh14I+46MJhnLhQy9hX7hNYLwGIdBQQgUwsXYcl5niQSnhw3J2hnYmgiBO3RqjXfyKZlZngysiVfwiEkOXDIecR/QlCIEtOZ5dvdJEMbOFEQd9o0p+7JLswV5nzxdsYzhjeS6vvCFAbCnE67i0Ehwvl7sXuiRMCbfglaGhgDQtiqTqOmJg2sJfffP3qM2Rvu30tDgA+9y//ivxPuuCmgjvB4nUH+o83umdNvOwnareXzuxGxt1mt8PkQOUX25le7CEFFrG3XGLIg7wCodITnR5j33XMjpuuYKwcCLUgmJsGEy9hwFA25gukSYkgbNECIIabKiak00aeSeZDTlyS2wF8cMGd+GTYvCZ0nehSfxSxMR5Tkg/g0TTL6FWmm8P6CCrD+K3WpTXgStbmIEnHKSA4OukHiH/wS2wEKziItpO7ulxisFTekfOMNHPPvJg4S4O488qGzFp1rJyQgwXXdumr850ni9n54jpojZhzxjyC+ux//+Hb+9XfRsf9a3EAfPPFqz/pD2BYcPfF3Tp3YjdiJaw1+9mDYRakaUciu/FKfWkiAYTPvgk0Z5a3mxiL4N3foeRWn91/9pukQgau9kQiymwIcsACY5BHw7VQMFLoHxhJaN44cXiNdTxA1gAGUz8ZyAgWLhKcGIiEUNqr4dgTW8CV5ToV4dpgFR0cdBIJIeLDBJevDvTQdwBA3Su+JQCtocufXvZTewhYU9G50Buq9IimOrrYECB3mqfmZILsnUOVGGhecGfmoow8hrMuncfMTx/9QWB8Q3JzQLhywfDgkBhnGYPV1yHDP5J6zYB1e3r28m9/8J0frd3bvn8tDoBs+CdZKFeQdWfRWPrmTTfIVSYt3QMW3dWelNBEA8shlipgHN6MsbUSa9s8NNPPXQp7SsJgxhHUCURcdrqJUAMRA9OmARN7rEYRl0cPFnSwRFicXHg5mgOUU/xyA4cVuyJza6+1nATvmLlL7Yvf+jeIsdQ+fWUQY7tsNWjuN7UB4psGzu/L7ddOOXNi76AlSPSXvmOluSgHUBy+DpuKCKqydSw8SuIQ86ZtxhUV02IMmJaVnLVkhK/47HqxeOULMymyrdsUUzymCWNTgjrjHR1TieLFF09Pv/njyr6a63t/APDBH7959urjy3KxB90UMiq/alLnqhflWk9KzoZpc9lANtPPp5r8mU12f6Nj07OzW+tNHeR1ZfLV14gyUJcogI3XIxvNkqQGybGNmjL2g9f4ADWFIj8wa3Qwjg8cOYX12ESrm5WlJIOBS6whbIiNyCTPfBMPyPF2Ft3EsYro8UORzLwNp6OnfAsQV2CDAQYnh4Lx5OJdjva4QrX+AMjFPV/QgaEdOISMuXFZ+wFiTxO2/YyXV6UX9jnzJ+DhhPDoZuBjo3fLuNgxMGNirO/CJ4xxw1LxD3Oe/uJv3+Jf/Z1zOnvv/QHwm2e/+Zilm43PMh65wL5s4bqxO+0zhVfCJh7bOHvTTRkEsmDY1HFxS9IReRJMs2MAy0zGTHYlmcyOihSap3BDAEd6WlIWYSpvp6a8cQWjOaNAckFChzDKk+HF3ANRqCiRDQw3EGArWZaU4sJ/hPSLzo3Yxg1zwRKpAMeQHGuP2dHGOtidWN6y55sA+XQsS3quiYNoh5ueVB0zWgTixivA4RFzRlfc8g1SFfMJW6aWIddOcOZR2YiMtT/IjE+sZx/WBt7IZy8mH4rDCz3asXd4fvaXf/uDb/9I+Vd4ee8PgPyByyfshwnFRrgZue4i72JmzCOAlkM2B5vZUm81oUtaHfuHnS6yYflXKrFh4+Sp5mqsxI1Nr7hzw7Hl/+WCGoKLoR70hJdNZA+KoAw7FrC3hSKDyJ3DTiO8rZuAVrY23sG3GSOj4hTnYkzGxzm2YE2MKxZNdkTFe+CxnJEcsRKf7xg03UvUccA7AEx309LVFwQJ3xfcfUeATFrvYd21afyRFgGmsZ9ThF+82GESFKvRSdtQxo84t4jtybeXHnAuRR0gZSKYBjzr3HVXyHyUR8VUWbiYuk61ayyGHmgwf/X3P/jOZxB+1e29/kvAfu7fs4/ZHBa4i8eKsrRsAs82ErKL79UsGRsUUY+1NeeeD43yamGYTNcGTvcvozSu7LSFM/dq0IYCbkGMVzMxzk1Nsy0AksvJgI6UHALIcxIv9wwuTZuZDdbbDpEC/rkdHK5LVUIj1fvwR0PIdQEAIzFcMqZAmJrG8DDvekiwgBnUAT3g/r1/WDgI6PNDQZ9ZH8JK3xKr6WlrLAiPtXUw/oilMeFnG/55apurY+558sPCHWfYdsRfTIYJgGVi7Nex3nB0bWbO2tqPVePWHlt8SYUbdOWM/sd//8PvfIr0XbT3+h3Ar5+//h6LxnJadFlUXz7YmSz3ta38RjqD2sPjKxE7gybibGYx3Kht/XR3g4qgKde7AA2xG30A8CvORXyLmJE+4H0j3Aim6RRgjKzXVTSgzvs0X6rxeYIDn+mamzjOWF59k+hOkkVIz8XABxARrkXCmbEeelJGNPh1gQ+nhaKtZhD31d1FUDVrHH6/FcB9Dw8cy8hledJ12HH1hi7mCEBm4xJfecdrA0T5cYmefiInCClYohvnDA9KByB4rAH46Yu9XHCNjesbJz/++Q++8/2L/ivvvtfvABL8992BY71nK26W8f9rLxakfpLVzc4OmVDUFgme5uVMickNCjI7mT3tdrO7PIHDgThMdCUoDxWVFFOmbZ2Nmz1EGNKIIddL8VM4jdMAGR7z1+XFrmNjmhir9GqR0iPkvrPgXt3ljgQn1zYzcgEmRlDzZXz+qiw6JpCvJUiHz/3ff/XHu4C8cj/1ncBVl3cB45Fq0Z7CjMzndJZWaJf8xCAEwOqv7Yy/bFduTLDJowvbKZ6cMxX08MLTfeDOGGf2R3xZOiww0PL1Z3nl/z7Yd9ne23cA3/70P3331bNnf5S1ZNmtGzegmcIyp1Eop04R+0NGsg3bQEVyCOaNRKh9JSoPZrN3uafvIzZ9DBcHhiEc6GXFOi2Rkhmo05W/mswjVZik58Ro1sR9P9qMgJjophecY9XzZA6q+ja/5rcfrg5udZ1LevifOCGZtYszfRfqVRf1VV1tYSEU/UwooRTCkMY4/T6Yb3rcCJTCTpcmjAnvQDNwCILljtKdhIA2whktV3VvXIXmYnhjugZrr8llQW4ojAxJl2cmJaQfEEqYs19KWcdZSl5emSHy8jPVf8x/Vf/Zf/j8X34u/B1f3tsD4PXzF9/v3rAl/V40nSYz6ZJVZ9D1LwacGRcV/bYt8tng1llU1tTmyOL5PAv3MoCVDY8ew3/62rRrobR48IJpbmQGIY89dkVG0EH+Tqk5T4KdoWg7hrW+nQPflyf3nNAw4cx3EfGMn4SZ+cUd/F2jjWX8rDvsiCdNI40ZMwGdqO4k+nHW8NYJUk4KwIFpw/f4zMtxlwMGkbt2hOU7g+rRAY+9TZ4ZY7hteMRd5HbHFh6aw41L2cVg/czUa5HYkHNC5xHTrl+VnVsUNdVQ4LoILARPP88K/enff/6dn63Zu76/x98C5F/+sabT0rHvBs9ekmSMd9OBgjNB6B/WaLppLRCMmnOalBkQ/6oWCrps9xvUTRKti8EmRJGkmUGaykAPRZUA0kj8fIUclvpYCG/TlV/mzatNX3E0N7aUqiVojtqzfhN844sJuA0L/8SShvzajvq7BQdFdCC5cI7xHJFYfzgIIM198O6wPwMIHAw/uONnAnmySvOtQP/34KLLertXo5kgGkNlPWxqg9wWY8lHsJHuAoBZrFy5FJ8OtrvPKNnEzh8bJDzFE+MhQEhTm/vzp//lg6dv/uuXd1T8hPdevgPggz+SOP/KpNjdZDbpszvZWDOeDTbp0V3a7gmb3EaiN/npROYms2sOqDzIqUyF8Naxmx4QI1ugiaBJgv/5c+PDFxxHCkkSM7zstbwKpG04aDsXPdWg+iG52lGDnc/wJI44vsY5UwnvEfolhs5hMLGUJsB1frU5DlSmWwXXWTPixswHPHyfXz6XMxZK53TDipbrTbiVqjouVxmOpR1uQTeybilzwY6gyQ8i9p4Ad56Hg5igmxlwj4HrFWab942jrovBLNTkzU9++/SbP/uPX9Hf9h+x/1d23ssD4Cmf+8fKOke2JJ3diR2ycccmz2Ic49mxI2m6qQfNuXbsYcnZ1jgxiyJza8m4qTP2fqBnQWmcD4aQIoMmGkk1L8GTWiRW1ACAHm0TEh5sSD66B2A62KNbeYiOfsMizoZfjAPigS8tziHWIbZ1NrZi8I908PgjEIZ0es84ssUMJ4VVhczR8i46RiHk3vWBJHrpwWvE/b+yhehsG80pSQ8PpVU9BrMno8ltbfceUduusWdC5tY1PnJqYTOvmP80Dj/7h8//8CeH6g477+UBkDX++Joh7NXZujGMeXt51XWzdyPJ/91ud3uh7GmU5vJykMWgs+94zjX3MeBml4tqxpIXIZjsExZrEz2XExxgsdzrP1aJoX1EzKsxRWMfC4LlY6XBVb/zlz1SvDdb104z/YyPJm3JjBMufTIf7aHQhar14WDFe9emKxERUuZp9/mz/+bX/+Tv/Ykq4tp4FgjzU4FZmXxL0E8I1sVBs3QjXYJuD0LdzXpY4zhh9fI1G4sgzpgZbUJAf4wJ2AFSBl14RZkJ5q4pf7cgUgfh/8fw5od7T3/9D3f2Vr+z+fL1vTsA5nP//lU27tiYbtx1ctUpz4U7+20ipKoq6H5H3M7FvLlhyibrKchLssIHRznRG4fj5Qg8chRy1+EiLNjo5dcCHAFKmnwqvX4riqYJd84jvY0h/2tx2EISlD4lHT2kxmvS64gp4dDH8mizyewASqefeLoWVTsnJw1Mepjwn5CHogbVy6a7gP/b/L8Alx8CIiZqJth+rvnaCOHXiXsCRkEpuWK/VyfWhRg5MVmb5SmY+Tj+52z7IiHpXPQINJ6d9kTQtc6U/ybvYn6a+7//hx/e96v9dVbbf+8OAN7+k5AmcfYmu8FuZpdnd50ZmzabFTHFk0eTk+27QAGegusGQ1Qeft2jP0hr22v8JlmJAi+nTxnjkuQT2RANLRfk8G3IhE87SRavfMVn/GKtmgD0gReCsDmQsxImT5guWpziN8MIiFm/NXSaO5eucWOsDDDm+ei1MNZ2JuIU6s2ucckdoU7Gw//7jW9+kXdmX6xnaKDUNkDetZXn2bMPfvvb9CNEwFoemiFDfHY7r5F07cskBzQZ8lPcTuKglQHdrnqtLsT4eXr+Rf4dxcvk3s+zTC9D97NvPPu/f/a2P7PvNorf/ei6fr979rfA+C/+4pf/Z1LhD/zMxUSffrLzKAa28XZOO9pdvVbe/298vgKSTsvwz6Khu+bl0E8cmhLQ1ng5NhZHFhe9w89QUhqa3jgQGI0Tvcz1S/OKy1i3nji/oMJKV811sv5oZ5Gv4Rg0dl/wckkVSrb32i8RoafV0RpW5pU5/fQffvidP77IHt13uALv1a8Bv/Xpf/p+MvAPksS+elkGWTxekCyfeUXreiYJrYCMNj1R3CR9xqYsCcvztpX0Riaury6y8mZEuzUeeoW4T5NGOaA8KSI1XiziKRzq8gg3diM2Nvp91vhS/NEvJ4fhcI8M3MGj+3jI0g1MH3uA1hLD+taW1V5OxL6R4D5+OhmlSMAaWxDeF6byjOUqfvTf1Qq8VwfAsxff+B7Z1RRsPpGZJiwKBslMMWQt7yfPgtg1rmzTV5skapO1FSgNyXtJ4OKR6W8KoGOZeXFE20Z9KEC2wtVt8ZRzpJhGoKxMW8FUYEGeHFESA9O7+ixmGYJJd2XYbRBQDR0x8kt4FykL4NrNQuAiitxS0eu/BwEKDhpuYOBLrHY7jgTvAOA4nTvW5HG5ixV4bw6Afu7fE//4x8oysRx0HRmTdGSb9UWF0nFQzFxJzVYOcIRLtn2SO7I+EKYJtADeZJzXPuunSOLguc3+WTCHO8KY4lh6/La9QZAhRZfJx4hinfkG7DzjsLxLcNqvBF6wuFQGh3/Y5NAAcYFufkgZf8OjHQzTPCdOH1ChMT7XDxqpEBZI0I92Vyvw3hwAH+Rz/0iyySRyymI4JVnXI9P3FQtZhVtou/qbi/AdZqSqrfbN2ynSMQj28npWcL8NEIeAQipmneggv+/eQtCMi4cGVQKC2qlh7I531GJDJ2OLnygzjF3jPF98WZM9CDSMnYVYFkjyJMQRjGd4cIC+OmEBIaNhaoCOcG1nVqxGYNgPcc6VcFjSni0T5xg+bvewAu/NAZDU+oT8Iu/m2mJt1m06nmsa+ZHoSEnFLchaIr3YpXhWjyZtf0renNYziNM6mBJUp1EvYvryvi5uzKYu1h7O4vzLwcSe714iqM284mdAjGK92RUDjiJOA1WQA1/hp95PvRD1rmnqF++1s5gnaJaktNgi5F0I/bZ058AQlkuI5LITUKZxwa/d434vK/BeHAB88EcW7ONdNBL/moy84myWXRM0uThFgUVfmOUgb3uKRLwJThXAslQM6cuBguc2oBnzintU4KGD8gQv/6hnCPeUxnBX0b+MI1550fnvDwY7wS220+hU4C8pWGT+kcqwdy4xR9fYxWCVeCVErsMO0USAhOZUPYA0Ryeua1zO9mM3PDDwWLn/lqZ0j+tdrMB7cQD85sWrjyePkkkm12TUmVgtCVBWrYu7MquVPN5cTtfEBJBUzW8RpigwOziRrhzklAkYinJPjj0wlKtrzSjXo5f6wLRh9N26eIXnwYNMTLyXvBUXmmMCrTfiMCyLMUrghAoumsMH/QJ9RY9cAqfAQSQ+l84dv8Rw+ts59oCBuyEFIRXYMdF2eWDA1dqDe7R7WoH34gDIH+J8QsIdJXckaPIvCtL3UN52NSL3k4NfzkINm8QWyCVRqQapxtgkPvDkP48RQL7BEcvZtipkY4CNQsLRSS5XARj45NA5PYZ5VhqEfUOQWXAuW7iLiwTQfqXvH9o07FSxHbjoaDTnhITOWbH+CHSe/dYgBIHffpswLCWWkTcNrn29baiP+12swN0fALz9z4vtvyHTyKokc7KQh8VhvpJnTXT0NF6hJqnHKhir45KZIjtWlfHeywCgfE3iJnd0ep27Nomp6R23S1uuPRfg4clBsZy5B0RkhxZHIBN8UVj1C2NGp6LY5XNRYMpzbesPRo0NTo8VMXaZdt6M6wOGs3ABgWGeNe16I2fqF4+ELjZXsRlvoOP1cbufFbj7A4DP/SOPSCbSM08Tc9Oc8bbqMgqY5BW5ypo3083MJm/EZY5V+4dBKkVG5TExy70DiXRs7THSRUf4trf41gCYAsao1TizgmDkciEuiWL9d178j0a0PSi2xoiAMyTX9VOr4Mu08SBW5TItPpIAJH8DsHoAACVxSURBVIB9fMDZPi/3XUJVTrgXMMjCcMx9x3A+2n2uwN0fAMmmT02uJF5TtrlISiXRcztelL60wlFOtpKT5mUuGHJDNa/sWxUtRyFeKIah6PfOASxGpnKM+ekOdgmMtT6H9aYWWm8ebqMew1oXG3OLrlNJRPgZG4MB4JjYiLiNu/3ptO9HjAlgLpGVrv2xnPnMyDmMnhhY7z53lh0zCnbeATADx8PCwj3a/a3AXR8A3/70V99NRn20xdQU6qsRqU+2JeesSXN/1rd4y4KCsGCskFWAi9Xyciezz0ps0g9dblN8/mXhmNWYawOw2NaOisWmdvBQzH0wmkbkWxhMrhMMbl/hDyBKzwPiDI/zrnbml8EUrjdosz5LsNy+Xa/PaKN+/Rpe+ic6vXGDefpwlZUrK9eovTrHUAYklv0xxCgGJ02kYsA92r2swF0fAK9fvPrzTZcWVEdkJMVEPvGPgugzJPHSsTpY4PZ7YJDEx6uQKHGgTEvwZzOpHZbTIiN/ZTlxO+YUwmbtMgy4cR1olNgbRp0mtkac23TVL49zWBptmVObw/joLFfYGONboDHoNWMehlCO0vGOYPnoMN9Os3NAN79CTNzaS72X6iA3jlLrZ/eDtXMe/gCyPSSPdg8rcNcHQJLr48ko03ySvS9GSTKTz6RsWpH8FFYTvdXWhM5Sh4gKuF30y7AVeaNGS1FMhRw6qCINtYUmSQvhgFgQsbuaHn1qZZ7aZhRdD6KSnTy655+wtg3+ZojtCPLvA/q3/RkjK9sUKcsjbhcQn1O4HkqgM6NMrHzqui4YZthiliRk4pdU7jk7VKHuvCAHLonGj8u9rMCRWfcS0MbBB38kgT7al10LjsRKWu0rEXnVlB4rq2r6UbT4N+82IavnMEAPg+mOLWSOwXbYvJWjuGD6CAAGC+CmMmCiza2D2yuOdGXnmERHtU//IKiEYQ2PiAVZmCwMX+cP6YDyJPZ+7FYGWl7WFJGtBwdrkUI1oK5BXPPgC2cQprmW3OGLCRfD63ki5rwQPvYgHu2+VuBuD4DX+eAPloqMOhInHRKcJI3GV6/VkZn0eZq/6TRbvfoStBg0vNJN8YrXdi7o6AZn3uLPwkCkov6b+AhhTHHoauqn4g1iRyDDQElsYxqdSqW1vyIAHwadDkOCSlgRtGC5hbxi2LtyGgA/OVAayKwtFJd/FFQgxd51ArosiIzHJcI9waMvoteFC+0JgsODRP+Pyx2swN0eAKmnj0m8fbbAmljJI1OpSQeG/Gt2ed38O4oyK03W0sz5c6AILzUf5r1BlILUML0tOGnKtLpYRNuEH19RUdiRCRodMS29vOPj+F5cP2pwfDjXZ1wYP8QbGK/u88GaTkv6naA8425kcEDC8FLYGRZQHQcJcY8R2PSZDxPgkHIe4cIfau0cjC3WjsVeJ1KLx/UOVuAuD4AP8/Y/mfNRciYPCnCzrCvW5CU5Sc9NRPpHkR2Jy2cCmJCbyz01Lks/gphP9qZj78BsshMPFYjPIG5ASg+L7UzsKK9zuPIvi5ja7Vtwio3nsoUCQia59wljSQ4/M6lRd+6nLDDf/sjVKckZsc6ML87iu7F0rgfbEZB+NXFZgFUkqYrFdi54XsnjfgcrcJcHwAcvXnxC3jf7ycnkk4u1Bd6Vm4zOYF/J9iUY/ZHLyTgOiTxN7Mg3B0OKD1t000N42MPDB2+UQ84DFtAUaPVhWGbtdSf5m5dQBLl1dmrln5jkgo+nAfE2ndAwvQbxpaFrV1bwO0U+/CN9GJy2XLC3TS83MRX6DibdFdV33He9COO00+/MQUVxQtgskbeR18vj+q5W4C4PgGQn//Z/GtXXmk3OkX/JRgreWpiKOwsfu6ZYZZuh3Jv1BWwa6kej+tiEx0kD4B60dMrielQJ5s1/FLS8GswA63Llqq+S44t3Fycd/C2gA9+ODo/ivSghzvocdvX1BofrZs36wh8TJS4lxrIfMULpHMvrnPVYX7MYc6qwN7TGZjeX9Z8JVpFbI1vE434fK3B3B8C3Pv3F97M0HyZdJ7O2QnhXSRpF3IQNrEVuwh3dQ2mdMoKIjPcr/2nmjrnznBwujrNlfV+p7HPoxLxR9EYfqTQbK6TbSsjo4svTK5KeYioCwLPwtb299wA8C5I4J8SJCAokIz3MjdsR68cXwbcTEvqQ8fCea3rlKrqcxRVyzgubxo1fQmpYolXuGaP6Za6PdicrcHcHwOsXz/KxX0mu5peVNWWfJTO5zaukZQbgJunEJ/WazLO8vK2vwjSueu1vywQ2uSiCqSuRh30QJHJ0YInGE2Xu2kRX/+PDSgN6NBWM9LVifOaZ6/kOZHXnfev0NN1TD8y64VCBymJGHtbXMzXcTtDFj1FuPGYNlwlWNgATQmM8tx5cIzLsQLrGh9/CsWBZHIX57jLuCPP3snNX28G//EsO+p9+kuxNyynGy/ZUjuDIrIu2XZKYQrBgYbLJheggJbcpli282yQm3QO14i64ZjwhAsijusPL+GucWxDO54hkDoqGFR8UX6t0REs2wwVyr2N6cMsf9EyJWH10bPwRML/Y8bQYG7N9xJDZUDOqZK6VlLgzSLDHEsIeXecXy8HVVlIvrNGbslP76L2bFbir/xjED/6gZifJki70zZqjkwS7plGTakVnUpYDZNLTfA5DBtRHbBxQ2FR+B9EexCePuqRu7nFClcoCa80iSGoPTMipwyPx4pBf8zWcix8BLc5AUlQIynvEUozu9XlVXPtDS6wJCbf4LtlyDDdOMpVAacKJjU8QOgZROOsj6LODTeMJBo5xwvpk1JYlgav7Q+CzXqt/3O9iBe7qHUD+V/tPmlibR9zJSbK5/erPtCbXxVib9HlpOvWnHQkYjsn6XX1OBJkpY6x9oGV8SWgNrCoOjUBHZ18lorBhuHa9WwiQ03L3QYiiueV8oA8GObeMC+04ytWASpNblo61tpvoeFQwVoM59WHRffQl7ALWamnR4MejwGVFInkD9UAFtM9wwpirB4xBR5AxkBwyXh+Xe1mBuzkA/rv/6Vcf5fNqPs7CJKnIlzPhm6C7ZCtn3CKxWI5/FNSMnUQ+TMXEAsHRp46b3DCZoRpYGT146uM8DMCZ0Cja9g5zK+WQhHMSf7DemJ6B4F+HuaVPXKGnm6fjCMqJrBxw0ruuQzWX68ZIsY7h2jEBCDxAtpjjrHwNbVzpSOyGW0VAhNMvvKbHgB4ObSHMD1xZpkgE4PNuEm6i/H2/3c1+/ObXrz7uKye5Mvly7E6T9RiaUpODVkwEx4FB4bSWknemOnZQkviks/306DdBT/7VN2tV55JEThab95i0TarHNkZwKvbVv8XU8RbEGOV2eG4ASAy0xXOEKWmtgohRCzeS9bXK3g0dLp7zdh6NAeQSeg4yoyViB9EzrZ46oI+YNMMcLP5H61qhVJILkfkQkSF+EOWuczAuUu6PdwBdpXu53s0BkGT588ur/mV9TMAz+cklkiyI4ptsFwMynYJsa5pmtEmOffphANLCvRSsVhlPxgOw8CgSiwF7SoIo7PVwiIUjZVy2voQq1TC9esZ3GdIreH2Krh90y9AD4uAVtRen3MhC2kNk1kAnuShf/ASfYYw2MEb2MalF8QkhQTdu/uyYwAESS+25tlfT+W+zMRfD1MBmVv+I8NHuYwXu4gCYj/3+I5POzJyiu6wR2VV9bsmkJhRF0sK+QI+uGO1ieRSXpidGVZO9nOMlDiMlvc1gXtAY4w9EsMn+KcZIwCFLqeRaHDdZqlBcFXoLvE4Y0pxkODlr9IMQH2L1oQQ/4UxzdgG04itDeejo0AQeN3xUzlx4ONRM34u/6gAGJig+SJ0uiYW9ikhBAMZD3fQAcfz0/FfcH+0+VuAuDoB/yuf+ZTmSMKYLSZYEndSZpI4eQZ5ngXUJzTPM0W9hVLVQbEpnVtq1yMZjlLqLguKh4PrMuBbElmdpBs2wfrFDNzG3gA9ujPgKCIMWc/nOuGBqo5bxNY1ij2/iOoThGl8RvcEXs+qMFa/XxsSwLlWuArwcAzh9MJ3iQzFzq8VzPtwj2vUNrc0g4yIEtfU/bo2Xhp+JvXj9eAfQtbqL6138GjCn0KeTWLw8N6taoJwELcrcijG1TLCM537KNhNJzibi0ImVLnwhz5fZOgwWPsXR9+XRtSG69pE2y5WvKlLG16ITpfyIs8FVQcXghSjttp/upSX2KNFjGoT+ENGPx9w5HC4mR5f5TQOcrhzxDh9txt4ryVXgMQIlzazCMAlTbhjAa9djgRUe2U4PhVN4/fwlqke7jxV45+8Avv0//uq7SbKPyCALk8wxe0g8OyRoOu132TaHj3vE9MnCfVojwlMJvoKGg/RnJB5aEzMiM1f0XIKpx8MH/Iq47BN/FOIZI359wq6u/sq7BNgoIThiBlpB7s4l93IVQR85Be8E8MxELm04LxJtctolvrRT33jDprzlbVeY8VxYcMPCEWZb7kPZWFBUsE5A9hTHlndFzOObz16/HIrH7Q5W4J0fAK9evfrzJIhLMa8y6ZM8Tdbm+iZ/cSTW2swaalA7E+9gNAnJ9slO8PaBDWpZb0g3m/F11NvG1VdXY9Mo4/2fgkz0RgKvRaovZQQ+RZSuPhqv9VWDXCmcMSLMo2kOwSi7RkyvkNFnEEEe6E/ZQZOO5w7KeGMeEHSaEQ4hxsjb8nvW2ZMhdfqLBTMHuCb7bRAuIgDL7J79h8+/8zPuj3YfK/DOD4Dkx8dZChKNKu2qNBNNmMlF5fPGMv0mPh0fTXLyLPk4Oq1v6NSDb+FSGOtv78VzHYn3SXLOp0YWHxYDwfls7PrWb17tQBY9bMa1DFA1nhtHhSLCOrdpC9rx3lvccSO2oRCyr9aRRX9hcbym3AkiaJ60a58xvCUwVkQTlQfGE/+8OFa4OPx03toKdny4eP4ofhfxfi7v9ADo5/49+4hMMYksCnPqskIkOQlI1aVr/1APmIIjD6m7FsUmNcj2kfvM7bBv5tbEYkZD0urpgFm8M6oPX9kXBzwG+EYOfQ+GmyigPFqOjpLGgsaB4qFicNZlpIGovzEFraDFtdiNG1X1Lg5uZk2iuLSL8E36Rc067RsMYnYxa9pZsy3gvXIw6NVZKK1xPTx/ehwAu7Z3cn+nB8DrfPAHqd+aJo2mEk0fxpOZLS/0gxE3AOqILLzgg2rDvnXGXZpINqGR0eerOrDFwyZjizxEGxvyK84CkBL5RjEZLwexHFUYhFHJG04t4jX8POm1H6MN2PlB0ZgMOt3OGTtaYsoUDcR+RAQDp3f617aVG22NLspzDRAS6s4LJydf+sc5UjdOABsfrhndmMfs6dlP4Hu0+1mBd3oAZBk+Jk+a55PGpPOktMtEvwmcK4lUXJewivb3CuZo9MeA4oCJYTyS1UneZWtWm7BjrK9JdmvvIG08xU6xSkMfEE6nMg7+1b1BkuFGUBuua0/FtMiD6iI1+unDNXPCJAMmhMvEEcmL/bmEyl6KT38iG94jiIpnbkhhk73rmmGxXoMbAw+GwOHvc5auxV+bp9d/0yge13tZgXd2AHzr3/7qe0mVj0wWEt3EmRfyDEgsZH7RayomkVRm2CStfNSt2SbbkXjaAkjTBoGvnnzPXjbyeMyqXCz3fC2OUZzMq54fsRUErZjoes5M8K2dtS8uV3zFcSPrFZ0tun61uNKP+egOKBNFaiCQjePYtFpVv+7/ZDTGvWFEz0sMgV+mfjW3f9ARbYCGgLGd4x5Jwixpz9aZhzurwxd/958fPwBkJe6qvbMD4On56z8hY5JSSZve7ZhoWSPyzcfmKutG4ptlc6dPJo6MrgV4FsjYoJmGP57RbCHDIUK+zWPDG8O+sOLnwnRGRvw0XoBPbuZ2yike4wqsh4retMtlkerw4mGYe/j06SE09Vgfe9pAAdcNH94IqwEAuWnzzkItpHWf+Aa/hg1HUwM64zqXgnnBscFtH5HxY/766ac3ATwGd7EC7+4AyOf+NQnJ7+RJmmWRTOxPl0ek7sQotYCxiYUFD4iiIHstjnSmAIpFkST3dlRFE7ayxgBn6w2p+r6ipw8i+uPQEOnBgHMtib1E8CDCoi2KaCcA2ec0+LJ+caErHkj6GVzsI4uvQzY0p4FGCfvWTeM6C12zGBUXugm4exP0NQbBu74NJnAex8EXCCEsS+QvMsgB8Y2nH2v+uNzVCryTA+Bbf/GL7yczPuxKUBj5zzDNtBaQn37bHDKfzbCgqDKqoI3EpipWkMq0Ww4wm8TBqdvi7D9U2cKYXJ2CPelk8D/MWA9I6g++rRXsp7DVWwCJnsozRh2IgiCNuJZz+CrPdeXWNhOeuJi8I5D0AVy+x9dX5x/Vzg2+a2wAGOdpVCcOWnzt/KMWUfnNVTk+roCd0djNNHhnkKPl2bOXv/h33/7JDctjcBcr8E4OgNevX+T7/81Mk3IWo0l+FggplqQkj+mle5N1lAKVECqQ9MnbPQiw4ZUt49hJEQmHhvULLQbKgnSsb6DjqPzg8sT9IW+BlBe9SrwPJ/ESt77qBQHcaYBQEz4z2Hb2lidxjdGYFj3G6CDwWw+Xgeluc9ITMe/Cj24AjVmkAYDNN2YTQP+Gf3lu7tAHJffM0Vglj3OJLxbw/q+X8aN7RyvwlR8AH/K5fy+e8v0/xUEj+5JMJp7CS7qbWBS9Wd3iAsh/n92EJfF5IQxZHy3A442BCWlqYtek1WuG1W2+Ek6LlUMD9KWhJLUP3omXOKKC11g3CEQ9O9AOmYLIT5J6gJzmLCzijW1Ml2CADaYRhJO1yfo15lmjpSxtg9w+97SbGeoaqYa51GXnhJwWP9um5xwjc10ru9Cmq+yDpw8+X8PH/b5W4Cs/AD548erj1kwWwoziY2P4FmAXhgzKgHHTkgQ3IUl08ys1VDTDOTsCiYz8V5cEzmMTuGQlBYccwFN+VZYoJrO5U/zRDT9eKFju0PdGtUHhq65CAFOHi1OOx37NkGitGjgTgeOzsggtSJXwY7tNgyt7eJzsTLIxG9sx79rGUqKTS/mVvIJbwLEOnX/eQeQv/7Zf5us6jaS3mZur8qP/+PkfvBzx43ZnK/CVHwB5i/nJrsH8KWkSeP5vO9ObVzJyLyieFhsZjYyC2UIw72cgmL75DzKGyVUSlK6m7SCf1G/Bo0PFgSD0csFHCzZmaous7xNfQ8DFRe+5sf7RU6wJZ1pty1mz6La6hrisNXD+6Z4c6fmRW8janO9yRKT9Ki9koe+oU+M9xC5vQ6h2LVmXUkXSA3IcXm6s5bpsRIkmghevX/3VBfbo3tkKHJv8VcTF2/8XL17/3aRfXRLBZJhJRNYou0bUjDxTfUBjG7mAixTSIbiSgaMo9w7kpn9jR05v8tduKAmQoqDITfwMoNVnYzmQwYTDBoKG4fJhnwr07cMVJ7mx1sZrsenWvh45WHR+yHF39dX+m/OW8bw4jwxnXsw7dkvTXoiBbZw1PuYysxwbeZ799Jc//MM/Pp08eve2Al/pO4APnr362BrhQmqZTOQN39On5erjGBWt7szF1AbGJCJZdrZIq4j0eKUaiShqpc3CtXgP2aEKov2hX8XIGcbrvBQbg0FwuS3+CJBtUMa6xX+QxonBTGjDHjteljE/kIymcfCkm2e1i2nNxiOsNdfCbnrH/IfncouFCwom3VJf5jMUwm7mqU+0BNG4oE0Qr54++DO6j3a/K/CVHgBPHzz/c9LMXJmEannMK+lkncuFIl+U+BRNxI763rJYcpqcRBNJe2afxJivPaBAJnkv+T6RzA1vcMc0dzl7j6n8XOApXkYBysBnZCz2e0jNKWNNGwRkZyMYzG9ai8/wlYcV3LZ0nQNjPK38iGv9nO9AFgL2rNSVInwjij0cr7Glf/7sY23xccRb4fNnP/ri8b3/LtDd3r+yA4CP/c6Hwn/3XAmKk8QlHanTuStRYVbzA0JyzocZerxbwOCqyZgk5HzwppqxOZuybJlsYYwao0neSsAFGYotOO7XgpFKTF9poxauIXR2Gktl9RwVoajmckQkKD6U1AKgPocNBvD7LIqJpgVTrpl/pFVkvMFeDOInUzKCwtQF29FFptebMX4GN4zcMrE9LJQ+/+LV6w8+uwAe3Ttdga/sAPj1P73+hExKApGlPOy2sEh9UivXJGz7BScrUdCa5WafOWnhnq+2EhSJiyS4qL06XCqEaPGXawtzakVTdejzlGYPA+NWsklPfL4lh6mkRhF5fUbGuwK4aMix7XhuQysx/Yne+pV0NKWA5fB1rM96sBjLXiL/V6Jx7y3u6+C0Dd0ghoYRcRrv4daTrjF3XTpnbBsmvM+fv/7s8ep/rtk9976yAyAJ/H1zitxNtnRRyC/HXOyRQD6LC5DEwiSdKNIn2RhTA/QjZFwMCpMWSxWbqAzBgB1VBOU87D2Ahiuw9acJfnhG+qYcIitlfIBPMz7muDEgCCS3+tVO4E1YQFJlThctX4wXrmQPFWq5jRAMI3oWBzlUiInPQyMCiEJHz4YOGcJDasys79nGz4TeqYQMR6OK9YvnL3/xg28/fu9/Lttd976SAyA//f9uUuMjVqIpdmaMIoRmOQhfHPtGwLQiCedBglqE4I4cRrgtuWh6c5l+M1nxYRutVpPgw4A7nlW251CR2EFuQaMgXsURIr/qUumo8uyMt2iwW19RZ+5UFVCChvMYo3I24E5P/bYFG9dr4saWdp0FIenCIG+As55lnbg1Ne7ijb2sFRhmvbi0jX8QX+SvPP+H9h/X92EFvpIDIL/6y+f+kZb9IpF8PZsVmpen3EhotMlCHq0aUehGzPiqqn4Kry93qQoKQ01+x+DhgkeL2BRnQFkQiX3vVenIOKKTJMUxpkt6/bmBsTU6yKyn1U+hyuKsmceX2puy6yFyziNxEnRXZd5MQIUPp5h+1w93VCc84gnRNRGvjbOu2Mmh3jj4k+D2l7drhXUbk2SNZ0RkzP3Tx1v/XaH34/6VHABJtY9ZjiYNOUMxkp92J2kpnAiQ9eLLFiNaE5ukNOlMPxUmuUKyPbzBFqxa2VyG2hswS0ATk1f8yNqHTXctaoQeUuE/f+hlkQ2eWz4zP5+f2Rg0Hh04AjHMy71qQ97I6lS0WtalcXJbAusVxrb2OB1wFD47LVLiP2OZdQ4pYUIcbH0s2exAdHso7F2Eb1AuEvk/y+/8f3wQPDrvxQqYWW8z0g8//c8fP3/+wf/WZEtqJtGSOWQjiWzW0j9iSM8iu4jsijxQNx358ie9y3uj1EeLxsQvD1c8GU+jGBHGZzQEM3QIj/50tqhqoH9q3zlSU8z1vJfoOBxCV84gUMmZXsk6bhXzCu9/L05Nu2yLkdLBsa4BC0PaAhc0F5ys8bV/xdBXJ8VFU0dRRtu5uY8R/+QXjz/4uSzU+9N96+8AXvRz/0wlEp3cSSOLScQ8WkQkdmRqffUS5sVPn63ZXH1tMw9rw6tbejhJK6h3+oq99ByIrD7rXpuYH+eRguKDINFbdAVKh30LfYRW2vw2gZqPD14l677jQebGGH9o4cZDWjytIwj0oRBIuQQZmmCs0uQJG/alEFLlXPHTeRSP+ESdPSMxjAAaVu1wiMio7XT87PnL3z79X3/q4HF571bgrR8AyZePWRVfFs/ca57tciW3JgU3E/vKB963262DRflqKOnUXUBDGPsWTgsI2nV1feX0/InCuhKwvwpsIBRgG/ke9vAQGk9a+1sLSNJfkyjBA+K2cnzqd/SNE2wNdRSLjnvwyAuHDRx+OCD3AKmGQ0RHgaj2fOCyhQ9v55Eo1GIZ19cQM0Alh3Ttr93OBGnb85+/fnrxx198/t9/sZLH/f1agbd6APi5f8+efeSSWC1kl+meDhVDP+nF58ubw+pGGrlKrceuFltsZVNG1oPXBDOKpJagePaiELXj19bCqGsOMmx9pQNdmikMtVzSTiUGPqsI9XAJ0Xk14DbGxV7urFEcWfyZlkEylq9FnsicWHQ8BuPNaeCxTkLAzyI2tvCgw4ZTZGg6i0hnTV1MUV2jkpUQsdzcs2EvW/yPf+nHeryv7a0eAHzuH7mTRspxy3P+ki+p1K8kFd/f2lp4M5hXo2o4IfJUFj2PkIE0U8eEmzlcdzd9oUFTE6gHAgEl4TD2diiccq+PiNegh0YYvtxig5lFZyd01usF6ruWjN+UnxHhq3VfM4ZoG0B5a15yfUyBo53TdGLhlinyT3ljxPzRE0DZe82kIgQSMU9hAwka79wwjP2j+K+L9x73b5LgdzmP/O7/w/xF2M1/Ba0zcossIo9Mwk3KQ2ZnLmsikioliU1UktnMPuzenIte8OXbe5MarILcKAIhFjTcjKDkMb4kL27ptRk5N7+NsGYYgKUg9+cBCzTWDIhnWnqB6ctY0tt7esol7IXSzVenfJKUq3YxSbvgOqUhCQHaEHeqM46sB8jGMnDk4PM8GoN8tn/+kc+f5td9j7f9x8K8v5239r8D54M//uR1c+zIIzKerEoekcdkKoKtOQZkMnpULSo6NO8mN+YZxa78xRaVvqoeDpH5uhZ8yhTaNrl2HAu7E1DtjUHwRtQDw9DHf9QYUjhLDfEU/1R2HXJIVFebMnO9HAiMykWF6i+ihNWCBe2SEQOOE5kT0Q4tCzZYdVPspx6qmMzhFGztj8MqTp0Jl3jQG7zbnp79VX7V9+kOH/f3fwXe2rcAr5+9+J7JNGs0yYRI8eQew+ZxcvHoFIHg0kx6x1EnUQEB4FXRCh50+BYqjw4xCXafelr88ORGLGLswy6wNPrAcVr79NqkonpnPHOSbzH/3H3jCa22FDAunV2U8UNEDqUfF352n04nHPtiY9O1mXWYtcCQdXKtgj4PJCbJc+fEIcE6VM5y5HOTfhXRv30U/z+3h++3zPz5XU/Bz/17/vrvIG9mklCbYCNyfOs+2ckrmCWI3aG9yFcJIXGT0HYsNhKcnzEgmzIaynI1DmrMeijHqI5goU0razxIpM0lpBOTCOTL/JxANDBqfuHQgDU4lKVwHCkRu0RrM+rjRuyATz3uWEbmGpXk6Q3LDjWCnVPmjbgYYqfJ4YnOOIvD5z/77dML3vK/vAE8Bl+LFXgr3wLwuX+8/d8kMvlYLvLPXOPShDYnAdJ65wwACsCuyAxN9GJ8QQPYocYxaau/8U9ZHqAmenwuvTbiDSn2kFpZsU/f4kDkw8NlvVREAT3nI83m7TW4+quV6BxIeSToamA7im7Ah41Ki5UJG2t0djOAp7ZHfOFqEW8xl2px2Br85bctBLWx2BegP+Ji/k/PvsgfYPzVLz//w78E8WhfzxV4KwfAq9fP/8gaoiia6M22ZmZWkmKgKJJnBVARk6UtgIgR+KKlqicHXdsUQvp62vLNmF/tURx1jA+aFVrOngJRV0WRW5BFAcYoHJUjmGadbd8iCeNhj0UMYe10bjo3TmIzMQZ/gE/8KTrfqjunQDhHOj/8MM1cdy4eNCxvgEdjYFTKtcHyBiNg4356+snrpw/+7IvPv/XyIHl0vpYr8FYOgHzS7octPNLOdqkKE695XV2S18q6SchJ8hrPaXBL1VfdSe4tgEDS7WER1aWEZ5S4AFiAOjzqICWBcougnuGbXqPMICjOL8Vo+ygq5hk6+REbe/qrX75jaUJgQSM4hVP4Y0iQWaM8oJ7FW1II1vQI0gI/eHGuqVE4mB4kGOUK+qdBffaLzx//iccu1Nf9/lYOgHzyz99Mnk+SNs12MTNSfkl3647KCga1CSk+Od/Eb3FyTYuerE8z+WXKpX9Q4CgY7pLJS4LzxSBpnkMiIyG5pMLypbpWG0vpY9EO/ggnzMPeHvYRIuN5bYKvgumLcw5T7BEkptDMOLgrV4s/ATTwmRNkTjTj/nuBWmHJXMFfWfCBjDu+MH4UPqv4+9lMwN/11P0bgBev/4/k2IdNOD2YstRZ8vKovkPTSDaeI8kjsErBoaR4L5yaK1VrYWOR1N7iJsHbB0xhb6GMMeFMgbeW8Lk67+uyAWwg1ik1lHYgWlPXkjtUM6erDssQHCUq2czvcIbBDEIxDnHag4Le2bq8s74n74Uzk406lF/khwI/yq+B/vrxin+u3+9bz4x7G5P+8NNffppc/UGez/unvnq58TdZbQ2oJdXTLMjk/GYq4sFeXr4AgKTxuYH5u9e4Cu7GB9otcOrh8LnyKzxK/2KOKrrojWMqC/ltawT8TIK5njrkO7RfoADC3Ha8okewuNVPGCGi7jvd6vYg4BCobg+ak3d7sRx/FP3Tv89/1/nj3z77xs8ef8xzrtDva++SiL/7JfgXf/HLv0x+/s9hTmZbQWTplxpBrHz7JDWNoqVdxmRztbmibwEAHHHlWkbXkyTQiAuQsZc5NEYSCIiTiv51BC4m5RyjvY288MQ1B4JhDMbpj4ctylXlLjTkQZyv7hwQvP03dMl9C9WpZLzTisPjEBIWwue/yk/yf5p/jv2TF0+//ZvHK/2s9eN2rIBZdYzeQoe/CXjx/NWn+WOSP+LllT/8b0s/37OfLX+snrzlv5POT/IPHf8WuLJFoqNAFstgecfuzTF8WxNax8eBUfDGuD5eJL7XxgJmbehFHvsXiZW7LStp5PGTTyAaq5nLyIoAHVZl5R+UvGs5bAdurAZzHfFH/s9fFvj08xwfL/NxPi8fr/Cs0aM9VuCxAo8VeKzAYwUeK/BYgccKPFbgsQKPFXiswGMFHivwWIHHCjxW4LECjxV4rMBjBR4r8FiBxwo8VuCxAo8VeKzAYwUeK/BYgccKPFbgsQKPFXiswGMFHivwWIHHCjxW4LECjxV4rMBjBR4r8FiBxwo8VuCxAo8V+JqswH8BaGu8lsxizWsAAAAASUVORK5CYII=;" vertex="1" parent="1">
          <mxGeometry x="621.84" y="141" width="56" height="56" as="geometry" />
        </mxCell>
        <mxCell id="BNi_J-HcAc2oYYCLPXiT-13" value="" style="endArrow=classic;html=1;rounded=0;entryX=0;entryY=0.5;entryDx=0;entryDy=0;" edge="1" parent="1" source="BNi_J-HcAc2oYYCLPXiT-9" target="BNi_J-HcAc2oYYCLPXiT-12">
          <mxGeometry width="50" height="50" relative="1" as="geometry">
            <mxPoint x="414" y="325" as="sourcePoint" />
            <mxPoint x="568" y="334" as="targetPoint" />
          </mxGeometry>
        </mxCell>
        <mxCell id="BNi_J-HcAc2oYYCLPXiT-15" value="Mongo&lt;div&gt;Cosmos&lt;/div&gt;" style="image;aspect=fixed;html=1;points=[];align=center;fontSize=12;image=img/lib/azure2/databases/Azure_Cosmos_DB.svg;" vertex="1" parent="1">
          <mxGeometry x="627.5" y="454.98" width="41" height="41" as="geometry" />
        </mxCell>
        <mxCell id="BNi_J-HcAc2oYYCLPXiT-16" value="" style="endArrow=classic;html=1;rounded=0;entryX=0;entryY=0.571;entryDx=0;entryDy=0;entryPerimeter=0;exitX=0.926;exitY=0.705;exitDx=0;exitDy=0;exitPerimeter=0;" edge="1" parent="1" source="BNi_J-HcAc2oYYCLPXiT-9" target="BNi_J-HcAc2oYYCLPXiT-15">
          <mxGeometry width="50" height="50" relative="1" as="geometry">
            <mxPoint x="456.9823200000001" y="437" as="sourcePoint" />
            <mxPoint x="696" y="350.98" as="targetPoint" />
          </mxGeometry>
        </mxCell>
        <mxCell id="BNi_J-HcAc2oYYCLPXiT-17" value="vector store&lt;div&gt;AI Search&lt;/div&gt;" style="image;aspect=fixed;html=1;points=[];align=center;fontSize=12;image=img/lib/azure2/app_services/Search_Services.svg;" vertex="1" parent="1">
          <mxGeometry x="627" y="274" width="45.68" height="33" as="geometry" />
        </mxCell>
        <mxCell id="BNi_J-HcAc2oYYCLPXiT-18" value="" style="endArrow=classic;html=1;rounded=0;entryX=0.04;entryY=0.488;entryDx=0;entryDy=0;entryPerimeter=0;exitX=0.904;exitY=0.318;exitDx=0;exitDy=0;exitPerimeter=0;" edge="1" parent="1" source="BNi_J-HcAc2oYYCLPXiT-9" target="BNi_J-HcAc2oYYCLPXiT-17">
          <mxGeometry width="50" height="50" relative="1" as="geometry">
            <mxPoint x="572" y="369" as="sourcePoint" />
            <mxPoint x="710" y="414" as="targetPoint" />
          </mxGeometry>
        </mxCell>
        <mxCell id="BNi_J-HcAc2oYYCLPXiT-19" value="&#xa;" style="shape=image;verticalLabelPosition=bottom;labelBackgroundColor=default;verticalAlign=top;aspect=fixed;imageAspect=0;image=data:image/png,iVBORw0KGgoAAAANSUhEUgAABAAAAAQACAYAAAB/HSuDAAAAAXNSR0IArs4c6QAAAERlWElmTU0AKgAAAAgAAYdpAAQAAAABAAAAGgAAAAAAA6ABAAMAAAABAAEAAKACAAQAAAABAAAEAKADAAQAAAABAAAEAAAAAADT3eodAABAAElEQVR4AezdB5ycR3n48Wf2+u5eUe+SJXcb9xCKMYbgPxDAEAimJNigYis4lIRuIEGUEJwCQdgOsnQ625Q4ooNNC4QOCQSMMbbBuMuyZVuyyvW283/mpLOl017Z3Xf3fWfe3/hz3rvdfd935juvdt+Zd+YZERICCCCAAAIIIIAAAggggAACCCCAAAIIIIAAAggggAACCCCAAAIIIIAAAggggAACCCCAAAIIIIAAAggggAACCCCAAAIIIIAAAggggAACCCCAAAIIIIAAAggggAACCCCAAAIIIIAAAggggAACCCCAAAIIIIAAAggggAACCCCAAAIIIIAAAggggAACCCCAAAIIIIAAAggggAACCCCAAAIIIIAAAggggAACCCCAAAIIIIAAAggggAACCCCAAAIIIIAAAggggAACCCCAAAIIIIAAAggggAACCCCAAAIIIIAAAggggAACCCCAAAIIIIAAAggggAACCCCAAAIIIIAAAggggAACCCCAAAIIIIAAAggggAACCCCAAAIIIIAAAggggAACCCCAAAIIIIAAAggggAACCCCAAAIIIIAAAggggAACCCCAAAIIIIAAAggggAACCCCAAAIIIIAAAggggAACCCCAAAIIIIAAAggggAACCCCAAAIIIIAAAggggAACCCCAAAIIIIAAAggggAACCCCAAAIIIIAAAggggAACCCCAAAIIIIAAAggggAACCCCAAAIIIIAAAggggAACCCCAAAIIIIAAAggggAACCCCAAAIIIIAAAggggAACCCCAAAIIIIAAAggggAACCCCAAAIIIIAAAggggAACCCCAAAIIIIAAAggggAACCCCAAAIIIIAAAggggAACCCCAAAIIIIAAAggggAACCCCAAAIIIIAAAggggAACCCCAAAIIIIAAAggggAACCCCAAAIIIIAAAggggAACCCCAAAIIIIAAAggggAACCCCAAAIIIIAAAggggAACCCCAAAIIIIAAAggggAACCCCAAAIIIIAAAggggAACCCCAAAIIIIAAAggggAACCCCAAAIIIIAAAggggAACCCCAAAIIIIAAAggggAACCCCAAAIIIIAAAggggAACCCCAAAIIIIAAAggggAACCCCAAAIIIIAAAggggAACCCCAAAIIIIAAAggggAACCCCAAAIIIIAAAggggAACCCCAAAIIIIAAAggggAACCCCAAAIIIIAAAggggAACCCCAAAIIIIAAAggggAACCCCAAAIIIIAAAggggAACCCCAAAIIIIAAAggggAACCCCAAAIIIIAAAggggAACCCCAAAIIIIAAAggggAACCCCAAAIIIIAAAggggAACCCCAAAIIIIAAAggggAACCCCAAAIIIIAAAggggAACCCCAAAIIIIAAAggggAACCCCAAAIIIIAAAggggAACCCCAAAIIIIAAAggggAACCCCAAAIIIIAAAggggAACCCCAAAIIIIAAAggggAACCCCAAAIIIIAAAggggAACCCCAAAIIIIAAAggggAACCCCAAAIIIIAAAggggAACCCCAAAIIIIAAAggggAACCCCAAAIIIIAAAggggAACCCCAAAIIIIAAAggggAACCCCAAAIIIIAAAggggAACCCCAAAIIIIAAAggggAACCCCAAAIIIIAAAggggAACCCCAAAIIIIAAAggggAACCCCAAAIIIIAAAggggAACCCCAAAIIIIAAAggggAACCCCAAAIIIIAAAggggAACCCCAAAIIIIAAAggggAACCCCAAAIIIIAAAggggAACCCCAAAIIIIAAAggggAACCCCAAAIIIIAAAggggAACCCCAAAIIIIAAAggggAACCCCAAAIIIIAAAggggAACCCCAAAIIIIAAAggggAACCCCAAAIIIIAAAggggAACCCCAAAIIIIAAAggggAACCCCAAAIIIIAAAggggAACCCCAAAIIIIAAAggggAACCCCAAAIIIIAAAggggAACCCCAAAIIIIAAAggggAACCCCAAAIIIIAAAggggAACCCCAAAIIIIAAAggggAACCCCAAAIIIIAAAggggAACCCCAAAIIIIAAAggggAACCCCAAAIIIIAAAggggAACCCCAAAIIIIAAAggggAACCCCAAAIIIIAAAggggAACCCCAAAIIIIAAAggggAACCCCAAAIIIIAAAggggAACCCCAAAIIIIAAAggggAACCCCAAAIIIIAAAggggAACCCCAAAIIIIAAAggggAACCCCAAAIIIIAAAggggAACCCCAAAIIIIAAAggggAACCCCAAAIIIIAAAggggAACCCCAAAIIIIAAAggggAACCCCAAAIIIIAAAggggAACCCCAAAIIIIAAAggggAACCCCAAAIIIIAAAggggAACCCCAAAIIIIAAAggggAACCCCAQDACJpiSUBAEEEAAAQQCELDbpE52tbdJ3VCrNNZnZWQ0J3VmllibFZvJSqbQJta0ipV6MWP/dRxW7IJtE5Ope/w5O6rbZJoe/3v8Fys9ImZ4/E8xtl9/H3j8b/dawep7NBnTJ1Lo0+PvF7Hd+oT+XuiVusIeMXV90tDUZ17zmL5GQgABBBBAAIEkC9ABkOTaIW8IIIAAAt4K2I3SJO0tc2UkM1cb63MlI/O14T5XCzRHG9NzpWDmaQN6voyaOdpgz4kpaEPe5PT1Ixvr3igUDnYOZHq1Q2G3lnuXdlHsGnvMjP39iP7+qHYa7NLOhd2uq0NW9+wyRp8lIYAAAggggEDVBegAqDoxB0AAAQQQCEnAbpIGkZZFUl+/XBvty6QgS7SRu0wb78v1Lv0ifZwnZnSeSKY1pHJXsSwFddt9oKPA7NLOkfu0Q+QB7SzZob73a9fAdmnM7DAX9TxSxTywawQQQAABBFIhQAdAKqqZQiKAAAIIzFTAdnXonfihY6WQWal3sZfodiu0gbpUG6VL9HG5/r1QfzIz3R/vi0jAjk1P2K5TIHboVITt2tGyXTsNHtAOA32su1Ny3XebV8hQREdjNwgggAACCAQpQAdAkNVKoRBAAAEEphKwXdIsw/mjtRl/ks5pX6Vz3FdJoaCPGf3Rv0m+CjykUwtu1ZgHd2tnzd3aSaCPhbulve827RxwMQ5ICCCAAAIIpFqADoBUVz+FRwABBMIVGAumt7f1aKm3p2oj8DhtDB6rjX39Ef0x88MtOSUrIjCiHQI6tcD8QTt47tQRBHfo4+1Sb37D1IIiWjyFAAIIIBCsAB0AwVYtBUMAAQTSI2Cvap8lTYWTde79STp3/GRt6J+lj6frEHEXVI+EwOQCxu7ROAO36ayOW7WT4DYdBfJLaei+yVwkvZNvxCsIIIAAAgj4KUAHgJ/1Rq4RQACBVAqMBeAz+ePGhu4bGW/on8Sw/VSeDtUu9EN6gF9qJ5J2DGgHwaj5pTzYc7vZoGEfSQgggAACCHgqQAeApxVHthFAAIHQBQ4M4c+fIHV6N19Ef9yj+SP93eNl8kKvtdDLN7bM4W/0PPyllvSXrlPAXNJza+ilpnwIIIAAAuEI0AEQTl1SEgQQQMBrAduZXax3Ws/SIdgHGvvGnq3D+Gd5XSgynwaBAyMFXKeALej0gbqfmtd2705DwSkjAggggIB/AnQA+Fdn5BgBBBDwXsB+enabDA6crcOrn6yN/D/Wu/tPJjCf99VKAZyA1f9M4fe6jOTPNejgL/T3/5HWvpt0FYJRgBBAAAEEEIhbgA6AuGuA4yOAAAIpELCdc1vF9D9Fi3qeBlp7hjb2tdEvDSkoOkVEwHUK9Op5/zNdnvAnGq/ix9LT+yPzJhmEBgEEEEAAgVoL0AFQa3GOhwACCKRAwF6Xny9DhadIxpytxdVGv5yhj5kUFJ0iIjATgT7tFbhJRwj8WN/8Hcn3/kRHCPTPZEPegwACCCCAQCUCdABUose2CCCAAAJjAgfm75tnaYP/mToP+pl6h/9EaBBAYMYCg9pJ5qYMfF9HCPxQ6nt/xjKEM7bjjQgggAACJQjQAVACFm9FAAEEEDggYLukWWxOh/Lr3X33U5AzdT4/3ymcIAhEIzCi/5pu1vgYN0ih8DVZ1/crY7SLgIQAAggggECFAlysVQjI5ggggEBaBOzW5lU6il8b/EaH9Beer7+3pqXslBOBeAXsIzo64Ac6beA7MixfM+v73MoDJAQQQAABBEoWoAOgZDI2QAABBNIhYK+cl5em3mfrsnwv0obH87TUK9JRckqJQKIFCjo64CbN4XfGfvK9P9T4AUOJzjGZQwABBBBIjAAdAImpCjKCAAIIxC9gO3OnaWP/xZoTbfAbF7W/Pv5ckQMEEJhUwNq92iHwXX39G9KQ+Zq5qOeRSd/LCwgggAACqRegAyD1pwAACCCQZgG7QSPzL2t9uq5V/iId1v9nOqz/+DR7UHYEPBc4MDrAxQ7ImOvN6u7feV4eso8AAgggELEAHQARg7I7BBBAIOkCjwfws3K+5vUC/VmU9DyTPwQQKEPA2tu0I+BrYjM3yJrunxBIsAxDNkEAAQQCE6ADILAKpTgIIIBAMQF7VfssaRw9T5cYO1+sfYkGFGsr9j6eQwCBQAWM3K+rCnxTR/rcIKN93zTrNZwgCQEEEEAgdQJ0AKSuyikwAgikRcBel5+vocFerhf8L9W7gOdquRvSUnbKiQACUwhYu1s/E3SJQfsFaev7FkEEp7DiJQQQQCAwAToAAqtQioMAAukWsJskK3X5F+qd/otUwkXup9Gf7lOC0iMwtcBYEEE3TcB+Th7o+4bZICNTb8CrCCCAAAI+C9AB4HPtkXcEEEBABexGaZJs9rk6rP8CsfIyjQieAwYBBBAoQ+BB3ebzGgz0c8QMKEOPTRBAAAEPBOgA8KCSyCICCCAwUeDx6P1S0Ea//Utt/M+Z+B7+RgABBCoQuE87E68Xk7mG1QQqUGRTBBBAIGECdAAkrELIDgIIIDCVgL06f7LU2wulIK/Vi/OFU72X1xBAAIFIBNxqAkZHBZiR68yagbsj2Sc7QQABBBCIRYAOgFjYOSgCCCAwcwF7bcsSGTWv00b/ar3Tf/TMt+SdCCCAQKQCBZHC97QzoFNM75fMahmIdO/sDAEEEECg6gJ0AFSdmAMggAACpQvYbVInPbln65aX6Lz+l+pjfel7YQsEEECgWgJ2n8YK+E8xhU1mTd+vqnUU9osAAgggEK0AHQDRerI3BBBAoCIB29l6vF5Qr9Z5/a8TMQsq2hkbI4AAArUQcFMExFwno5lOs757Vy0OyTEQQAABBMoToAOgPDe2QgABBCIT0Lv9LbI//yKxhUt0iP9zdG4/n82R6bIjBBCoocCgfnp9VY93tazu/a4xOn6JhAACCCCQKAEuMhNVHWQGAQTSJGA3Z8+STOYSkdFX61Da1jSVnbIigEDgAla2S0Y+K2b0k2b1wL2Bl5biIYAAAt4I0AHgTVWRUQQQCEHAdkmzFHKv0Ptib9E7ZaeFUCbKgAACCEwhUJCC/W/9vNsoa/tuYFTAFFK8hAACCNRAgA6AGiBzCAQQQMBubV4lUneJXgiv02H+cxBBAAEEUihwh3Z+XiWD2U7z14/2pLD8FBkBBBCIXYAOgNirgAwggECoAtbqPa+u3HO0fNrwl5fpX3WhlpVyIYAAAjMWsHa/LiV4vX4u/pu5uOf2GW/HGxFAAAEEKhagA6BiQnaAAAIIHC5gO+e2iunTef3yJrHm5MNf5S8EEEAAgYMCB6cHZK6Wtp4vmlfIKDIIIIAAAtUVoAOgur7sHQEEUiRgu9qOFTu6Vof5r9dh/h0pKjpFRQABBCoTsPYuXUpws06V2mzW7X+ssp2xNQIIIIDAZAJ0AEwmw/MIIIDADAVsZ+652uh/O0v4zRCMtyGAAAKTCtgenS51jYwWPmouHrhn0rfxAgIIIIBAWQJ0AJTFxkYIIJB2AbtBF7hamn2hNvrfqxZ/nHYPyo8AAghELFDQ/X1dbOGDZl3/zyPeN7tDAAEEUitAB0Bqq56CI4BAOQJ2ozRJLvdK3fY9+nNcOftgGwQQQACBUgTsT3T1gMtZRrAUM96LAAIIFBegA6C4C88igAAChwnYTbPapW7odTo09Z36wqLDXuQPBBBAAIHqC1j5tX4Gf0y2937WbJCR6h+QIyCAAALhCdABEF6dUiIEEIhQwG5pXiGZuteLtX+lAaraI9w1u0IAAQQQKE/gHh0R8HEZ7d1s1ktfebtgKwQQQCCdAnQApLPeKTUCCEwjYLtyp+ga1W/Xt71KfxqmeTsvI4AAAgjUWsDaR8VkrhKb2cjKAbXG53gIIOCrAB0AvtYc+UYAgaoI2C3ZM/SCcoPe8T9fh5ryGVkVZXY6I4E6Pf3qMiL1+ujORPf3+GPG/a4/+rK4391rh6bx9x76nPvd7W/UxVabkNxTBfvEk+5396d7dK+5bdzfo+5/Bx/dayP64547dNsD7+D/CNRQoNCtJ/cntCPgX+kIqCE7h0IAAS8FJlwxeFkGMo0AAghULGC35J8kGfv32th5OQ3/ijnZwaECroHuGvEN2vh2P4f+7hrq7u/x97jfXSN9YoP+0P0l8XfrOgI0Y2MdAtpZ4DoF3O8F/X1YH4f10f3tHg/9PYllIU8eC7glBM2VUqj7JzoCPK5Gso4AAlUV0CsNEgIIIJBeAXt1/mSpsy6w31/qj7a8SAiUINB4sFHfWCfSqF+proHf5H7Xx/GGvm+N+RKKX9FbtT9ARg7pGBjS34e0F2FIX3j8d31ufNRBRQdj43QJHOwIGKi/3Fy6b0+6yk5pEUAAgakF6ACY2odXEUAgUIHHG/5W/kLv+GuLjYRAEQHXiHcN+mb9GXs82MBv0OddI98NwydVV8CNLHAdA27kwKD+DOjvg/rjHgf0bzf6gIRAUQGdGuBiBNARUFSHJxFAIJ0CXLmks94pNQKpFbBb8ydpg+FdOp+Zhn9qz4IJBXd36F0DP1uvjfyDDfzmg4/cvZ+AlcA/D+0YGOsUoHMggbUUc5YOdgSYho+Y1Xv3xpwZDo8AAgjEKkAHQKz8HBwBBGolYDfnT9Q5/pfR8K+VeAKPM97Qd439lkN+3J19UngCbmCAGznQf/DHjR7o16Xj+/RvghaGV98zKhEdATNi4k0IIBC0AB0AQVcvhUMAAbuleYWYug+qBHP803I6uG82dyff3dF//Ecb+W5+PgkBJ+BGCriOgD7tEOjVH9dJ4EYSkNIhYO1unb7zYentvdK8SQbTUWhKiQACCBwQoAOAMwEBBIIUsFe1z5LmkXdqVP836xz/5iALSaEOzMHPauP+8Ya+NvJbGjSKPjgIlCjgAg+6EQK92hkw9qi/u1EDpHAFrGzXkWEfknxfp3nF2DoW4ZaVkiGAAAIHBegA4FRAAIGgBOw2aZSe7Ou04f8hvcMzL6jCUZgDd/Fzemc/7360oZ/Xlj6B+DgzqiXgViBwIwV6hvVHOwTco1vOkBSWgLG3aoHeZdb03RBWwSgNAgggcKQAHQBHmvAMAgh4KKCBwI105l+uWf+IGLvKwyKQ5YkCbs6+a+y3akM/pw39nD66qPwkBOIUcKMCXEeAmzrgOgXcIykMgYL9jn6TvMOs67spjAJRCgQQQOBIAa6kjjThGQQQ8EzAbs2dp4M3L5eMnOlZ1snuoQLjDf42d2efu/uH0vB7ggVcQEE3bcB1CuzXn27tEGBpwgRX2LRZK2gnwBdkdPSd5uKBe6Z9N29AAAEEPBOgA8CzCiO7CCDwhMDYkn5iN2hk/wueeJbfvBFo1Pn67u6+G87vHl1kfhICvgu4DgE3baDbdQboj+sY0D9JnglYGdKOgE9KpuF9LB3oWd2RXQQQmFKADoApeXgRAQSSKGC3tiyT0cyH9I7/azR/hHZPYiUVy5Nr37th/O4Ov/txw/tJCKRBwE0TcKMDGCHgYW3bxzTQyD9Ia+8VGihwyMMCkGUEEEDgMAE6AA7j4A8EEEiywFiAv/2514spfFDb/a1Jzit5UwH3DeOi8483+Fv1dwL2cWqkXcCNEHCxA8Y7BIgh4MkZYe/U0WZ/o/EBbvQkw2QTAQQQKCpAB0BRFp5EAIGkCdgt2fO10f9vBPhLWs1MyE+T3uZv14Z+R+OBYf0ZvmYmCPEnAocLDGtQwb16Y9l1COzTR6YLHO6TtL9coMD6ujea1d2/S1rWyA8CCCAwEwGuzGaixHsQQCA2AdvVdqwURj+mGXhhbJngwFMLuKH87Tqk3zX6GdY/tRWvIjCVgA4OGBsd4DoCXKdAP70BU3HF+Jr21si/a+CS95q1u7pjzAeHRgABBEoWoAOgZDI2QACBWgjY6yQnw/m3azjtd+nxmmpxTI4xQwG3FF+7NvZdg98N72dpvhnC8TYEShRwSw66jgD34wIKug4CUnIECrJDo9C8W9b0fkpnN1E7yakZcoIAAlMI0AEwBQ4vIYBAPAJjw/0z5gq9nFoeTw446hEC443+2drod3f7mct/BBFPIFBVgRFtX7ppAmMdAoNMFagqdok7L8gPpF50WkDvLSVuydsRQACBmgvQAVBzcg6IAAKTCdiu3Ok6/3WjBo87Z7L38HwNBRp1Pv8sbezP0gEYbqk+vjFqiM+hEJhCwGpnwD7tDHjs4OiAUW4+T6FVq5c0sqPZqiOi3m1e2727VgflOAgggECpAlzOlSrG+xFAIHIBu6VttsjIh/Ti6RJtZLrF4khxCTQr/2xt8LuGv4vgT0IAgWQLuFUF3PQA1xmwR3/oDIi5vuwjOnrtMlnb18W0gJirgsMjgEBRAToAirLwJAII1EpgbLi/Nf+u8yiX1OqYHGeCQGNGG/w6tN/d6XdL9ZEQQMBPAdcZ4KYJjI0MYJpAvJVofyImc4lZ03NbvPng6AgggMDhAnQAHO7BXwggUCMB25ldLIXMFZKxL63RITnMoQLjc/rnuka/m9N/6Iv8jgAC3guMTxPYrR0Be7RTwP1NqrXAsH62flR6et9n3iRaESQEEEAgfgEu+eKvA3KAQKoE7Aa91788u04vRv9FJNOaqsLHXdiMfuS7IH5zaPTHXRUcH4GaCrgAgnu1/fmo/vToVHVSbQWs/EEDp643a3u+V9sDczQEEEDgSAE6AI404RkEEKiSgAb5O0WD/G3WOyJPqdIh2G0xgZwO65+njX43t7+Oj/1iRDyHQGoEhnRpQTcq4NEBEbfMIKk2AlYjAxizWZoa325e89j+2hyUoyCAAAJHCnAleKQJzyCAQMQCdpu0SHf+nXrX/zJt/OstaFLVBdy8fnenf26zSLP+TkIAAQQOFXAzAtxoANcZ8Jh2Bowe+iK/V1HgIe0IeJPGBvh8FY/BrhFAAIFJBegAmJSGFxBAIAoBuyX/TDGjm3S4/wlR7I99TCGgIafHhvgzr38KJF5CAIEjBNzKAW4FATcqgCkCR/BU6YkbpFB4vbm4/4Eq7Z/dIoAAAkUF6AAoysKTCCBQqYDt6uiQwsjletf/Yr3rz2dNpaBTbe+W7nON/nl6t98F9yMhgAAC5QoM6FCAXQenCLjYAaQqCth9Ys375IHeT5gNwnyMKkqzawQQeEKAK8UnLPgNAQQiEtCl/f5Mm/yf1NDyCyLaJbuZKOAC+nVo9H7X6G/TRxICCCAQpYBbUnCvrh7gRgW4pQVJ1RMoyA90DsZqc/HAPdU7CHtGAAEEDgjQAcCZgAACkQnYT89uk8Ghf9b1pi6JbKfs6HCBJp3P7xr93O0/3IW/EECgegKMCqie7RN77tMwge+Wtb0bdTYXQy+ecOE3BBCIWIAOgIhB2R0CaRWwW3Pn6QDGrXrnf1laDapWbvdJ3ap3+Rdow7+DGIpVc2bHCCAwtYAbFfCYxgrY2S/ST9TAqbHKfvVbUl9Ya17bv6PsPbAhAgggMIUAHQBT4PASAghMLzAW4b8n9z69X/F2fTfh5qcnm/k73JJ9bum+hdrwd/P8SQgggEBSBLp1BYFHtCPABQ/kfnW0tWLtXv02fadZ03d1tDtmbwgggIBO0AUBAQQQKFfAbm55qmQy1+r2x5W7D7YrIuCG+S9oObCEH+3+IkA8hQACiREY1JEAjxI0sCr1YeRzMpy51Kzv3lWV/bNTBBBIpQAdAKmsdgqNQGUCdpM0SH3+PRrh/73ajUgTtTLOJ7Zu1+H9bph/O0H9nkDhNwQQ8ELAzQjYrR0BO/tEBgloH12d2Yf1e3a9jgb4SnT7ZE8IIJBmAToA0lz7lB2BMgRsV+4Unevv7vqfUcbmbDJRQKM9yWxt+C/SO/4t9KVM5OFvBBDwTMBNB9in0wIe0ukBPTpNgBSNgBsNMFC/3ly6b080O2QvCCCQVgE6ANJa85QbgRIF7Aapl6XZd4kxf6+bcou6RL8j3u7a+nP1bv9Cbfg3EjrhCB+eQAAB/wWIExB1Hd6ns3dXm7U934t6x+wPAQTSI0AHQHrqmpIiULaA3dqyTAqZz+gwxHPK3gkbHhCo18b+fA3s5+b41/MRzGmBAAIpEBjQKQEuYKCLFeBWEiCVL2A15KKRT8hI79vMehkuf0dsiQACaRXg6jOtNU+5EZihgN2afYkO+e/UO/9zZrgJbysm0KS3/BfpHf852vjP8NFbjIjnEEAgcIFh7QhwUwPoCIiion8uZvTVZs3A3VHsjH0ggEB6BLgKTU9dU1IEShKwG6VJcrl/0nsNb9S7DXxWlKR3yJvHG/5uuD+Kh8DwKwIIpFZgREcBPKwdAQ8PiIwyIqDs88Da/dqjvN6s67m+7H2wIQIIpE6Ay9HUVTkFRmB6AdvZerzYwvXaYD19+nfzjqICLqCfm9/v7vjzSVuUiCcRQCDlAuMdAY9oR4D7nVSuwKd0SsBf6ZQAXYKBhAACCEwtwGXp1D68ikDqBGxn7iIRe6W2WvOpK3wUBR5v+M/Vhj8JAQQQQGB6ATcKwHUC7NRRAXQETO9V9B32dp1e9kqzuveWoi/zJAIIIHBQgA4ATgUEEBgTsJ1zW8X2XiUm8xpIyhDI6h3/JVmRDl3Sj4QAAgggULrAeEeAixPA1IDS/axoL4q8y6zr/XjpG7MFAgikRYAOgLTUNOVEYAoBDfR3phSMG/J/7BRv46ViAo3a8F+s8/vn6Q8JAQQQQKByAToCKjM09osy0LDOXLpvT2U7YmsEEAhRgA6AEGuVMiEwQwHrFhPqyv2NRvn/iP7GresZuo29rVGX81usc/wJ7leKGu9FAAEEZi7gpgO4aQE79ca2fmGRShCwRlcH0FUC1vX/vISteCsCCKRAgA6AFFQyRUSgmMDYkH/T36lR/i8o9jrPTSJQrx+bLrjfAr3jz3J+kyDxNAIIIBChwJAuH+g6Alg+sFTUEf2Of69OCbi81A15PwIIhCtAB0C4dUvJEJhUYCzKvxn9glhz8qRv4oXDBer043IRDf/DUfgLAQQQqKHAoHYEPNAr8thQDQ8awqEKn5GR/ktYJSCEuqQMCFQuQAdA5YbsAQGvBGxn9sWa4es0yn+7VxmPK7NGPyZdRP8l2vhv0GH/JAQQQACBeAV6R7QjQFe82z8cbz58OrqVX0tm9M/NmgGdGkBCAIE0C9ABkObap+ypErDbpE56cv+g8/3fofP9+bc/k9p3Ef2X5USaafjPhIv3IIAAAjUVcB0A9+uIgP7Rmh7W34PZx3Tk31/qlIBv+lsGco4AApUK0AioVJDtEfBAwG5qnas9//+hc9bP8yC78WcxVy+yXBv+eX0kIYAAAggkV8DFBtw9KLJDRwS4WAGkqQWsRgXIyD9px8m7zQa9JUBCAIHUCdABkLoqp8BpE7Cbs2dpw/8LWu4VaSt7yeVt0jv9y7Iis3TIPwkBBBBAwB8BNwhgbMUADRZYYMWAGVTcjTJYfyFLBc5AircgEJgAHQCBVSjFQeBQAbs1e4kUzCdY4u9QlSK/u2j+CzWqvwvyR2T/IkA8hQACCHgiMKw3tbfraAA3KoA0jYC9U7/zXmZW994yzRt5GQEEAhKgAyCgyqQoCIwL2C5plpHcFTrMb+34czxOIjBH7/a7u/4E+JsEiKcRQAABDwW6NVCgiw/Qp4+kyQWsDOhNgtebtb3XTP4mXkEAgZAE6AAIqTYpCwIqYK9tWSJDma9q4/9MQKYQGJvnrw3/fMMUb+IlBBBAAAFvBcbjA7gRASNMd5+yHo38i3aYvJO4AFMq8SICQQjQARBENVIIBA4I2K7c6TIqX9Xe/GWYTCLQqPP8F+tQ/7k65J9PwEmQeBoBBBAISGBUewIe0tgAOwe0l5z4AFPU7DdlpPFVZv2efVO8h5cQQMBzAS5/Pa9Aso/AuIDdmn+5Xthcq3/rbW3SEQLu026+NvqXKE8dH31H+PAEAgggELqAWy7w3h6RHqYFTFrVBXuL1BdebFYP3Dvpe3gBAQS8FuAq2OvqI/MIjN3MMNKZe4fezf6werBgfbGTwg33X6HL+rlHEgIIIIBAugV2aYBApgVMcQ7YXWIzf27W9fxwijfxEgIIeCpAB4CnFUe2EXACdqM0SS63WX+9EJEiAu5Ov7vj7+7882lXBIinEEAAgZQKjOhUgAc1NsAjblpASg2mLrZbRuESDQ543dRv41UEEPBNgEti32qM/CJwUMBuap0rdYUvasP2HFCKCLjo/su18V/PoIgiOjyFAAIIIOAEenU6wH26WoB7JBUT2Cjbe/+W4IDFaHgOAT8F6ADws97IdcoFNNjfKQeD/R2Vcooji99Sp8P98yKtDPc/EodnEEAAAQSOEHAjAB7WIIFuRICGCSBNFLBfkJG+i8x6USASAgj4LkAHgO81SP5TJ2A7s3+qwxWvF2PaUlf4qQps9ONsoQ71dxH+M3y0TUXFawgggAACRQSGXJBAHQ2wb7jIiyl/ysrNMqrBAdf3359yCYqPgPcCXCV7X4UUIE0CdkvubTrk/3ItM+PaD634rN7tX6lB/twjCQEEEEAAgUoEHhvSaQG6WoCLE0B6QqAgOzRgwkvMxX2/fOJJfkMAAd8E6ADwrcbIbyoF7Dapk+7sRo1kd2kqASYrtLvrv0Tv+C/SHxICCCCAAAJRCQwXDqwUsNvFwiM9LmBFh0jYV5p1fTc+/hy/IICAVwJ0AHhVXWQ2jQJjkf5bctfpPf9XpLH8k5Y57+7661z/Zp3zT0IAAQQQQKAaAnvdaABt8w5phwDpgIDVSAnGvt6s7XOrEJEQQMAzAToAPKswspsuAdvV0SGF4a9oqZ+ZrpJPUVq3tN8yje4/T+f7kxBAAAEEEKi2wKhOBdiu8e8e1SUDSQcErEYjMuYDZm3PBkgQQMAvAToA/KovcpsiAQ32t1is+brO+T8tRcWeuqjurv+qVpEmQiBMDcWrCCCAAAKRC+zX4IB3a2wANz2AdFDAXimtfW82r2D9BE4JBHwRoAPAl5oin6kSsFvzJ+kcu29o//ryVBV8ssKOz/VfqHP9+dSaTInnEUAAAQSqLcBogCLC5svS2vMX2gmgaymSEEAg6QJcSie9hshf6gTs5pan6jJ2X9OW7tzUFb5YgXPurj9z/YvR8BwCCCCAQEwCrBRwOLwx/yN15kXmtd27D3+BvxBAIGkCdAAkrUbIT6oF7Jbsn+mw/89qwD/C2ru7/ot0nv8Sne9PQgABBBBAIGkCbirAvRog0AUKJOnARXubjNo/Nev774cDAQSSK0AHQHLrhpylTEAb/2s0oM4mLTaL2WcPRvjPEuE/Zf8MKC4CCCDgn4ALDuiCBLrpAaQHleAFZm3vzVAggEAyBegASGa9kKsUCViNoyud+Q/qkjrvSVGxJy+qi+6/Qu/6uxEAJAQQQAABBHwQGBo9ECCwe8SH3FY3j8buEVv3YrO2+8fVPRB7RwCBcgS4wi5HjW0QiEhgrPHflfuYBvt7c0S79Hc39RrZf2VOpKPR3zKQcwQQQACB9Aq4AQAP6kiAB4mFpxJ9envjZWZN77fSe0JQcgSSKUAHQDLrhVylQMBukzrpyV2tjf81KSju1EVsbxA5SgP9NbK839RQvIoAAgggkHgBt1zgPbpc4FDKlwu0MqRxjV5tLu75YuLrjAwikCIBOgBSVNkUNTkCY43/7lyX5ujC5OQqhpxk9CNoscY7ZHm/GPA5JAIIIIBA1QRcPIB7tRPArRaQ5mRlVEcCrNGYANelmYGyI5AkAToAklQb5CUVAtr4b5R9+eslY1+aigJPVsgWDfC3qlWEQH+TCfE8AggggIDvAi5A4P06LaCQ4gCBY50Adr1Z29fpe3WSfwRCEKADIIRapAzeCNhNkpX63Jc0w8/1JtPVyOicJh3yr/P93QgAEgIIIIAAAiELDGiAwDu7Rfr1Ma3J6oRHI2/RkQD/llYCyo1AUgS4+k5KTZCP4AXsdZKT4Zavaqv3T4Iv7GQFdA3+pRrhf4FG+ichgAACCCCQFgGN+iv36kiAXToiIM3J2PeZNX0fSDMBZUcgbgE6AOKuAY6fCgHb1dEhhZGvi9inpaLAxQrZrEP+j2bIfzEankMAAQQQSInArkGR+3rTPSXAyOW6OsC7UlLjFBOBxAnQAZC4KiFDoQnY6/LzZch+S4e+nR5a2WZcHjfkf4VG+dc+ABICCCCAAAKpFnBTAe5K+ZQAsVfKmr43GqNTA0gIIFBTAToAasrNwdImYLtyCzXwz3+JmCelrexj5WXIfyqrnUIjgAACCEwjwCoBemlkNsn9PZeaDZLy9RKnOVd4GYGIBVh0O2JQdofAuIDtzC7WxW9+mNrGf5Pe7j+xjfn+4ycEjwgggAACCIwL1Ok9ODctbrkGxNXb4KlM1q6XpflNGh4hpQCprHUKnQAB/sEloBLIQngCB4b9F76nX+onhVe6GZSorUEvbHTIfz19jDPQ4i0IIIAAAmkW6B4RuVunBAyl9EZ4QTplXe/FTAdI8z8Cyl5LAToAaqnNsVIhYLfm54kt/Hdq7/wvajkQ6T8VtU0hEUAAAQQQiEBgWBv/d/aI9AxHsDMvd7FRlwh8s5c5J9MIeCZAB4BnFUZ2ky0wFu1/ZPi7kpEzk53TKuTOBfhbqcMZZzVWYefsEgEEEEAAgcAFXDi8HbpU4EP9gRd0kuIV5N/Mxb1/O8mrPI0AAhEJ0AEQESS7QeDAUn/DGvBP/ih1Gs061P8Yne/fQpj/1NU9BUYAAQQQiFbALRV4ry4VqJPj05cK/2rW9r8tfeWmxAjUToAOgNpZc6SABeymWe1SP/RtLeIfB1zM4kXr0Dv+q9wSf3ycFAfiWQQQQAABBEoU6NW4AHemNS6Aeb9Z27OhRDHejgACMxTgin2GULwNgckE7HWSk6HcNzSG7TmTvSfY5xc0H4hgHGwBKRgCCCCAAAIxCbiggK4TwHUGpC1Z+3dmXd+H0lZsyotALQToAKiFMscIVsBukqxkcl/XOf/nBlvIYgXL6EfHCl26aG5TsVd5DgEEEEAAAQSiECjoNID7dDqAmxaQtmTl3WZd7z+mrdiUF4FqC9ABUG1h9h+swFjjv77lBpHMs4MtZLGC1evHhpvv31pf7FWeQwABBBBAAIGoBVxgQBcgMG1hAay8SzsBLo+ak/0hkGYBOgDSXPuUvWwB2yXNUmi5URv/f1L2Tnzc0AX5O04j/TcS7M/H6iPPCCCAAAIeC+wZErlblwp0owLSkqx2eRjzRo0JcGVaikw5Eai2AB0A1RZm/8EJ2G1SJ93Z/xQxfx5c4aYqULsG+zuaYH9TEfEaAggggAACVRXoGz0QF2BQH9OSxjoBZI1Z23tNWopMORGopoCu3UVCAIGZCuiKPEb25TalrvG/sEXkWL3zT6T/mZ4qvA8BBBBAAIHoBbI6Au8EnYaXS9E0PKPXXiJX267sC6IHZY8IpE+AEQDpq3NKXIGA7cz9k27+9gp24d+mLtjffI32T0IAAQQQQACBZAi4aQB36XSAvTotIC2pIP2SyTzXrO3+cVqKTDkRqIYAHQDVUGWfQQrYzvwbNfrOxiALV6xQLtK/G/LfoUP/SQgggAACCCCQPAG3QsAjA8nLV9VyZPfpKMxzdTrAzVU7BDtGIHABOgACr2CKF42A3Zp7jRTkOh2Elo5/Mw06O8gN+U/TEMNoThX2ggACCCCAQG0FHtYOgO3aEZCe2IAPSmb0bLN64N7aQnM0BMIQSEdjJoy6ohQxCdgt2fM1Au0X9fDpmHDXrI3/49pFmggREtMpx2ERQAABBBAoTcCtEOCmBGiwonQke6cUzDPMxb0Pp6O8lBKB6AToAIjOkj0FKGA7W54mNvNfet9fJ8KnIOUbDtz5r+ejIQW1TRERQAABBEIS6BkW+UO3yEhKOgGs3Cx1Dc8yq/fuDakaKQsC1RbgKr/awuzfWwHblTtFe9J/INbM8rYQpWR8ls71X6Vz/t3cfxICCCCAAAII+CfQr8sD3rFfZKjgX97LynHhe5Lpf4FZLWkKhFCWFBshMC7AGN9xCR4ROETAbm1epXP+v5Waxv/cJg34p3P+afwfchbwKwIIIIAAAp4JtOgygSfqND73mIqUebaM5q+3G1IyTTMVdUohqy1AB0C1hdm/dwL2uvx8KWS+rRlf5F3my8nwohaRlXrnnxv/5eixDQIIIIAAAskSaNTL+xO0EyCfjtBFYuxLZHn+imRVArlBILkCdAAkt27IWQwCtkuaZVi+rEH/jo7h8LU/5LKsyFL9ISGAAAIIIIBAOAIuls/xbSLtKVnK19r1tjP39nAqkJIgUD0BOgCqZ8uePRPQwLlGbEunhtB9mmdZLz277m6/u+u/UO/+kxBAAAEEEEAgPAE3re9Y/a6fnZZOALlcl21+dXgVSYkQiFaAQb/RerI3jwX0S+MjuobuOz0uwsyy7i4IjtELgrTcFZiZCu9CAAEEEEAgXIHtvSI7UxAnryD9kik8x6zt/1m4lUnJEKhMgA6AyvzYOhABuyW7Rof9693/wFOduxugQwJbUzIvMPDqpHgIIIAAAgjMWGBHv8iDfTN+u79vtLvE1j/NrNt/p79lIOcIVE+ADoDq2bJnTwTs5vyzNIDMt3QCQNhj5Nx8wOO08Z+j8e/JqUk2EUAAAQQQiFZgp3YCbE9FJ8DtMthwtrl0355oAdkbAv4LEAPA/zqkBBUI2K35k8QUvhR+41//qbtgQDT+Kzhb2BQBBBBAAAHPBVzsn6N0GmDwyZwoDSNfstsCv7kTfD1SwGoI0AFQDVX26YWA7cotFGu/rkP/O7zIcLmZbNB/5ido4z/Lnf9yCdkOAQQQQACBYATmNWknQC785X8zcq505z4ZTL1REAQiEqADICJIduOXgPYIt4g1X9Jcr/Ar5yXmtqnuwFrALfpIQgABBBBAAAEEnMC8ZpFVreF3Aoistltyl1HpCCDwhAAxAJ6w4LeUCNgNkpEl+c9Lxr406CK7xv/x+uXuHkkIIIAAAggggMBEgb1DInf1iBTsxFfC+dvqGk9GLjRrez8TTqEoCQLlCzACoHw7tvRVYHnu8uAb/836T/tEHfZP49/Xs5R8I4AAAgggUH2BDo1/fLTGBDAB3xM02vy3ssVubnlq9UE5AgLJFwj4X3vy8clh7QVsZ+4v9aifrv2Ra3jEJtf4bxdxc/9JCCCAAAIIIIDAdAL7dCTAncGPBNgpDYU/Mq/t3zEdB68jELIALYSQa5eyHSagQf9O1yeuPuzJ0P4Yu/NP4z+0aqU8CCCAAAIIVFWgXUcCrHKBAQO+N2hkoYzWfd5uFI2CSEIgvQJ0AKS37lNVcntt6xwpyBe10NlgCz4251+H/XPnP9gqpmAIIIAAAghUTWCWtotXBT4dwNqnSj63qWqG7BgBDwToAPCgkshiZQIa9K9eRkY+p3tZWdmeEry1a/yfoAH/Ggn4l+BaImsIIIAAAggkW2B2CmICWHmt3Zp/fbIrgtwhUD0BOgCqZ8uekyKwLPtRkcyzk5KdyPNB4z9yUnaIAAIIIIBAagVmjXcCBCxg7ce1E+DcgEtI0RCYVCDgiT6TlpkXUiSga79eqLFfrwu2yGPD/lnqL9j6pWAIIIAAAgjEJfCYWyKwO66j1+C49mEx9slmTf/2GhyMQyCQGAFGACSmKshI1AJ2S/YMXfYl3Hle9frP9zga/1GfN+wPAQQQQAABBFTATQdYqTEBgk1mgdjMV+w2aQm2iBQMgSICdAAUQeEp/wXs5twCDWX7FckE+qFep4N3jtfGfzNz/v0/WykBAggggAACCRWYq4EBl+vqAOGmM6SboIDhVi8lKyZAB0AxFZ7zWsBukgYtwH/q0P9lXhdkssyPNf412n+2frJ38DwCCCCAAAIIIBCNwIJmkcVB3yS/UOMBvCkaLPaCQPIF6ABIfh2Rw1IF6rMf0zv/YQZ2cevzHquN/xyN/1JPC96PAAIIIIAAAmUKLNFVlBcG3Alg7b/azflnlanDZgh4JUAQQK+qi8xOJ6A9uK8Ua6+f7n1evu4a/8foXLwOnZNHQgABBBBAAAEEai1wX6/IIwO1PmqNjmcf0QOdYdb2PVijA3IYBGIRYARALOwctBoCtqvtWCkUrq7GvhOxz6Np/CeiHsgEAggggAACaRVw8QDmaFyAIJOZLwXzWQ0KSIClIOuXQo0L0AEwLsGj1wK2S5pldHSbGKPj4wNMK/QL163LS0IAAQQQQAABBOIScGOHV+o1SXug1yRuCun+/N/HxctxEaiFAB0AtVDmGNUXGMldoUH/Tq/+gWI4whKdczdfA/CQEEAAAQQQQACBuAXGpyTmXczlAJOx77WduecGWDKKhMCYADEAOBG8F7Bb8q8SY//D+4IUK4Br+Lu7/yQEEEAAAQQQQCBJAiNW5PZ9IgOjScpVRHkhHkBEkOwmgQKMAEhgpZClmQvYq1uPEzMa5rx/F+yPxv/MTwbeiQACCCCAAAK1E6jX+4jHtYo0hticOBgPYIOw7FLtziiOVCOBEP/F1oiOw8QtMDbvP1PYJpLRb5/AUqt+37igfyQEEEAAAQQQQCCpAk0aL+84Db9UF+CgYhcPYHn+fUmlJ18IlCtAB0C5cmwXv0Ahd5XO+z8t/oxEnIMW/TI9Rr9MMwF+mUZMxe4QQAABBBBAIGaBsesWvRcT4nWLte+2W3PPi1mYwyMQqQAtjEg52VmtBPTD+NVi5bO1Ol7NjuOG0Z3ULtJA31zNzDkQAggggAACCFQu8NiQyF3dle8naXuw9lFpsGeY1/bvSFrWyA8C5QjQyihHjW1iFRib928Lm2LNRDUO7obPHas96DT+q6HLPhFAAAEEEECgmgKzNXbR0mw1jxDPvo2ZJyOZz1riAcTjz1EjF6ADIHJSdlhNAbtNWqR+9ItBzvtfpXP+s8Saqeb5w74RQAABBBBAoIoCi4JduviZsjS/oYpy7BqBmgnQAVAzag4UiUB39p/FmpMj2VeSduKi/buo/yQEEEAAAQQQQMBngeU6CqC9wecSFM+7sZfZzflnFX+RZxHwR4AYAP7UVepzajtzz9V5/9/UwH9hnbcLtbd8WYBD5lJ/xgKAAAIIIIBASgVGrcjt+0T6R8MCsHKvNDedZl7z2P6wCkZp0iTACIA01bbHZbWbWudq9q8JrvHv7vrT+Pf4zCTrCCCAAAIIIHCEgItrdFyAcY2MHCVDgxuPKC9PIOCRAB0AHlVWqrPaULhKy78oKAM33/9onfdPQgABBBBAAAEEQhNo1GWNXXDj0JYHtPJauzX/ytCqi/KkRyCsodTpqbdUldR2ZteKmC1BFdpF+nfL/bll/0gIIIAAAggggECoAiEuD2jtXsnYU82a/u2hVhvlCleA1ke4dRtEyezm5pUi9mNBFGa8EK4n3PWI0/gfF+ERAQQQQAABBEIVcMsDutUBQkrGdMio2WptYHGpQqojyjKpAB0Ak9LwQtwCut5qRjJ11wS35N9RGvE/x3J/cZ9fHB8BBBBAAAEEaiSwVIMdzwpstaOMOU+25t5cI0EOg0BkAnQAREbJjiIXWJ59r+7zmZHvN84duh7wOU1x5oBjI4AAAggggAACtRdYqaMfWzQuQFjpI3Zz7tSwikRpQhcgBkDoNexp+ezm7FkaNOZnmv1wFpJt06Ic3+ZpjZBtBBBAAAEEEECgQoEhXRbwVl0ecESXCQwlGXurmL4/MqtlIJQiUY6wBRgBEHb9elk6u0myGljlM5r5cBr/zdrjfYz2fJMQQAABBBBAAIG0CriVAY7W66GQbkFac7IUch9Ia5VSbv8E6ADwr87Cz3F99p913v/xwRS03gX90zv/bk1cEgIIIIAAAgggkGYBNyJymcZDCiu91W7JhzVtNaz6oTSHCNAiOQSDX+MX0HVVz5WC/Z72DIdxbrpSuIj/7YEFvon/VCEHCCCAAAIIIOCzwD09IrsGfS7BxLzfIw29p5iLpHfiC/yNQJIEGAGQpNpIeV7Ghv4X7OZgGv+uPl3QPxr/KT+zKT4CCCCAAAIIHCGwQkcBZINaFWmljOQ2HFFOnkAgYQJ0ACSsQlKdnfrcB7Xxf2wwBu06xG2JLntDQgABBBBAAAEEEDhcIKPDJI/Ni7ipkqEkK2+xW1rPDqU4lCNMgYD+xYVZQWkpld3a8hQpZH6iHQBhrA/TpMU4qT2sL7W0nIyUEwEEEEAAAQRqJ7B3SOTObpFgFgYo/E4y/WewKkDtTiGOVJoAIwBK8+LdVRCwG6VJw8F2BtP4dz3aRwfWo12FemeXCCCAAAIIIICAdGicpEUhjZjMnCCF/LupWQSSKkAHQFJrJk35yub/TtwSKqGk5follgtqTlsoNUM5EEAAAQQQQCCJAotDi5lkL7Nbs2cmkZo8IcAUAM6BWAVsZ+40zcAv9EcnzAeQ5jaLrAxuaZsAKoYiIIAAAggggECiBUZ0DsBt+0QGRxOdzRlnzsrNMtr7ZLNehme8DW9EoAYCjACoATKHKC5gN0i9Dvvv1FfDaPy36Lz/o0Iawla83ngWAQQQQAABBBCIXMAFA3RTKE0g9yeNnCZ1ubdF7sQOEahQgA6ACgHZvAKB5dl3asCXsyrYQ3I2HZv33xrOl1ZyZMkJAggggAACCKRFwE2hXKrTAUJJRt5nr86HM801lHpJeTnoAEj5CRBX8W1XqwZIMe+N6/iRH/coHfbvRgCQEEAAAQQQQAABBMoXWKgdAC4wYBipSTK2024LZJWrMOok9aWgAyD1p0DtAXTof0YKoy7qv06YDyDN1UUM5ugPCQEEEEAAAQQQQKBygZU6FcAtqRxCMvIU6cn/dQhFoQxhCNABEEY9+lWKZdm1Olb+6X5lepLcNuk/oeUE/ZtEh6cRQAABBBBAAIHSBVw8ANcJEEqyox+y17YsCaU4lMNvAToA/K4/73Jvt7TN1kx/2LuMF8uwm/d/jM77rwskWE2xMvIcAggggAACCCAQh0CrxgNwywMGkTKtMpL55yCKQiG8F6ADwPsq9K0Ahcv17v9c33JdNL/LNeJ/Vr+cSAgggAACCCCAAALRCyzWa622MBaLUpxX2y2550SPxB4RKE2AW5elefHuCgRsV/bJGvjvf3QX/nc8zdLgNO7uPwkBBBBAAAEEEECgegLDBZHf7hUZsdU7Rq32bOUP0td7inmTDNbqkBwHgYkC/jfEJpaIvxMpMBb9tGA2aeb8P+catAhHBTQvLZFnDJlCAAEEEEAAAQRUYOy6K5B4S0aOlVz2rdQrAnEK+N8Yi1OPY89cYH/uDfrmM2a+QYLfuVK/hFxwGhICCCCAAAIIIIBA9QVm6WpLbtWlEJIug203N68MoSiUwU8BOgD8rDevcm27cgtFdPG/ENICXbmwPZi1aUOoEcqAAAIIIIAAAmkQWKE3YNzqS76njLSIqbvS92KQf38FAvhX5C9+anJekI+KMR3el7dF16NdpsFoSAgggAACCCCAAAK1FXCrL60KZAqmkT+1ndkX1xaQoyFwQIBxzJwJVRWwW/LP1Lv/3xej//mc3JfOiW1E/fe5Dsk7AggggAACCPgvsKNf5ME+IWHnyQAAQABJREFU/8th5H6p7z3JXCS9/heGEvgkwAgAn2rLs7xq4L9GMYVPet/4d+5LdB1alvzz7AwkuwgggAACCCAQnMBivSbLB7A0oJXlMpx/d3D1Q4ESL0AHQOKryOMMdufeImJO9LgEB7LeWi+yQL9sSAgggAACCCCAAALxCrgxpSt1KoAbnel7svZttqv1BN+LQf79EqADwK/68ia3dnNugVh7mTcZniyj7svlqFbtx5jsDTyPAAIIIIAAAgggUFOBZm3CLA0gLpPR0bKFwr/U1I6DpV6ADoDUnwJVAqiTD2vgP50073lyXy7uS4aEAAIIIIAAAgggkByB+boykxul6X96od2ae57/xaAEvgjQsvGlpjzKp+3MnSYFea1HWS6eVfel4r5cSAgggAACCCCAAALJEhifCqCLNHmfCvajumB2EL0Z3tdFCgpAB0AKKrnmRSzYf9Eh835/HDP0v+anDQdEAAEEEEAAAQRKEmjSy80luZI2SeSbjTlJpzSsTWTeyFRwAnQABFel8RbIbsn+mQZlOS/eXERw9OX6ZcLQ/wgg2QUCCCCAAAIIIFBFgVCmAhj5gN00q72KUuwagTEBOgA4ESITOLDsn7k8sh3GtaNWXVpmXlNcR+e4CCCAAAIIIIAAAjMVCGYqgJkv9UPvmmmxeR8C5QrQAVCuHNsdKdCde4M+edyRL3j0jJu4sCqAoWQekZNVBBBAAAEEEECgIoFQpgJYeYu9pv3oiizYGIFpBOgAmAaIl2cmYK9qn6XL/r17Zu9O8LvcPLJG1wtAQgABBBBAAAEEEPBGwE0FyOsoTp+TWxZweOTDPheBvCdfgA6A5NeRHzlsHv6ALvs3x4/MTpLLnAZfXUDU/0l0eBoBBBBAAAEEEEiugJsKcJTeyDHuF49TRl5hO1uf4XEJyHrCBegASHgF+ZA929V6gliz3oe8TprH8S+NSd/ACwgggAACCCCAAAKJFmjRUZwLA7iZUyh8XJcFpJ2W6JPN38xxYvlbd8nJeaHwL5oZv8dcLWwRybL8anJOKnKCAAIIIIAAAgiUIbBYr+maPZ/OmZEzZVnu1WWUnk0QmFaADoBpiXjDVAK2M/9sff2FU70n8a+5Of/uy4KEAAIIIIAAAggg4LdARod1rgggoLORD9uNwrJUfp+Nicw9HQCJrBavMvUPXuW2WGbdfDH3ZUFCAAEEEEAAAQQQ8F+gTQemzvW87WxlueTzfk+x9f9MCrIEdAAEWa21KZTtzL5YxD6tNker0lHm6JdDu9+zF6okw24RQAABBBBAAAF/BZbpDZ56z5s6hcJ7befcVn8rgZwnUcDzfxVJJE1HnsYCk1jzfq9LW693/ZdnvS4CmUcAAQQQQAABBBAoIuCu85Z5fp1nzDyRvjcWKR1PIVC2AB0AZdOlfMOluVeJkdO9VlgSQM+w1xVA5hFAAAEEEEAAgSoKuGkArZ4HebbydrulbXYVldh1ygToAEhZhUdRXLtN6sQU/j6KfcW2Dxfxf77nc8Niw+PACCCAAAIIIICAJwIr8qI3rfxNxnTodfdb/S0AOU+aAB0ASasRH/LTnV2jUfOO9yGrRfPovgRWeD4krGjBeBIBBBBAAAEEEEDgMIEWXe1pfvNhT3n3h7VvtptzC7zLNxlOpAAdAImsluRmynZJs1jzd8nN4QxyNke/BPIE/puBFG9BAAEEEEAAAQT8F1iiN34aPW72GMnp+NvL/K8ISpAEAY//JSSBL4V5sLnX6zCqZd6WPISAMN7ik3EEEEAAAQQQQCAGgTod/rnU89GfBXm93dy8MgY9DhmYAB0AgVVoNYtjr5yXF2vfWc1jVH3fS13gP58nglVdiAMggAACCCCAAALhCbiln30OCGikUaTuPeFVDCWqtQAdALUW9/l4zb1/q1FU/J1/5AL/zSPwn8+nIHlHAAEEEEAAAQTKFliuAQF9TkZeZzfnT/S5COQ9fgE6AOKvAy9ycHD5Eb8jkC7Xu/8kBBBAAAEEEEAAgXQKZD0PCGg0EoDYDemsPEodlQAdAFFJhr4fU/gbvfvf7m0xZ+moKZ+HfXkLT8YRQAABBBBAAIEECbiAgC4mgK/JyAV2S/5JvmaffMcvQAdA/HWQ+BzYT89u0/VH35D4jE6WQeMCv3D3fzIenkcAAQQQQAABBFIj4GJBLW7xt7hGw3Gb0Xf5WwByHrcAHQBx14APxx8Y/Gtd+m+WD1ktmseFuuxfM6d6URueRAABBBBAAAEE0iawQK8Nmzy+NrSZV9mutmPTVm2UNxoBj8/8aADYy9QCdpNkxVgd/u9pqtdTfJHHvbyespNtBBBAAAEEEEAgsQK+jw51sQAKhbcn1peMJVqADoBEV08CMlefu0Tn/s9PQE7Ky8JSbfz7PM+rvFKzFQIIIIAAAggggMBUArM1PlRbw1TvSPhr9nV2S/OKhGeS7CVQgA6ABFZKUrJkt+l6o0Z06T9PU4sGSp2rQ7xICCCAAAIIIIAAAghMFFimAQH9jQfYIKbuLROLxN8ITCdAB8B0Qml+fX92tVhZ7i2BW/bP3w91b9nJOAIIIIAAAggg4IVAtl5kTpMXWS2aSSuX2E3ZRUVf40kEJhHQs56EwJECeve/TrrlbUe+4skzbsk/r4d1eeJMNqsu8OjeerlrR5Pc/0ijPLqnQX/q5GF97B3ISP9gRoaGjQzqj0v5loK4aY2t2VGZ1ToqcztGZEHHsMyfPSJHLx6UlYuHpLmxUPU8cwAEEKitQMEauX9ng9z9YJPs2NUgu/Y1yM7d9fLY/jrp6a+TkVEjfQNGRgs6cThjJdtspbFBH5v0c6J9RD8jRmW+flYsmjMsRy8ZlGULhiVjbG0LwdEQiEtgqY4C2D0kYj085400S715k9JdFhcfx/VPgPuj/tVZTXJsO3MX6YGurcnBqnGQE9u0NeTzvK5qoLDPpAuMjIrcek9WfvG7rPz2rha5Y3uT7OvVqSwRJXdBv3T+sJywfFDOOK5Xzjq+T5bMG45o7+wGAQRqJbBfPxduuqNFfvn7nNx6b7Pcow3/8Y7AKPLgOgpXaafhiUcN6udEr5x5XP9Yx2IU+2YfCCRSYHuvyM6BRGZt+kwVumWwcYW5dN+e6d/LOxBggDTnQBEBu0Eysjz7G1367+QiLyf/KRfU5ejW5OeTHCKgAvt66uSHN+flB79uHbugHxiq7cyshXNG5Gkn98hzztovpx07wF0/zkoEEipw385G+e9ftcqPfp2XP+iooILeza9Vcp2HJ6wY0M+KXvmTs7rlqEV6t5SEQEgCI3r3/xZtP7tHH5Ox7zNr+j7gY9bJc+0FavftUfuyccQyBeyW/AW69N+2MjePdzN3Rj+pQ6Q5urum8RaIo4co4Ibtuwv57/xfm/zi9pwOz01GKee0jcqzzuiW88/eK8cuG0xGpsgFAikW2K1D+G/8aYd+VrSOTQVKCoUbHeA6Al74tP0yfxajiJJSL+SjQoGH+kUe6KtwJ3Ftbh8TyR5l1u7qjisHHNcfAToA/KmrmuRUpz8Z2Zr7pR7sjJocMOqDzNNALkflo94r+0MgEoHd++rlyz/ukC9+v1329iQ7BMvxywfkJefsk+c/ZZ806VxhEgII1E7g9/c3y1d+1C7f+N/2sTgftTtyaUfKaDyBs3R6wAV/skee/qSesRgkpe2BdyOQIAEXA+A3e0WGvI2V8w6ztvefEyRKVhIqQAdAQismrmzZzbn/pxMAvh3X8Ss6bkZP51P07n9jbYdQV5RnNk6FwPZHG6XrxjnynV+0jgXh8qnQ7u7ehc/fI+c/fa801NMR4FPdkVf/BH5+W046b5wrv73bvyVsj9HggWteuEueeTodAf6deeT4cYFHNA7AfRoPwM/0oLT2rjSvEObo+Fl/Ncs1HQA1o/bjQHZL7us6BuBP/cjthFwu1iiuS1omPMmfCMQn4KJwd31jrnzjZ23eNfwnqi3QlQQuev5unR6wbyyK+MTX+RsBBMoXcAH9rv7qPPmNBv/0PR2/bEDWnb9Lnn6Kt40o36uA/Fci4Pq5f6ujAAYSMjev9LK8RkcBfKb0zdgiTQJ0AKSptqcpq7269TipK9yub/PvFnq9nsqnzhKp45Seppp5uQYCbk7/9d+dLZ03zE308N1yKNxdvre++mE59WidK0lCAIGKBHbptKB//9I8+eb/6so1gaUzdGrA2161k4CBgdVrKorzmN5Av8vTqfQF+ZW5uPesVNQThSxbgNZS2XThbWi35j+pa6Cu97Jk7s6/GwFAQiBmAbeE379+doG4Yf+hJqPfHM//4/3yhpc/Kh35kVCLSbkQqJrAqEbw/8/vzpKtOjWof9C/PveZwrhpQ6953mNy0fN2SyOxRGbKxvviFnCjAG7VUQD9no4CsOZcs67nh3EzcvzkCtABkNy6qWnO7Ja22SKj9+vw/1xNDxzFwdxd/9O4+x8FJfsoX6Bfl+/7+Lb58rWftJe/E8+2nK2rBlz2mocY6utZvZHdeAUeeKRRPnDNIrn1Hv/m+Zcr55YNfP+aB+WYpawuUq4h29VYwOdRAGK+bNb2vLTGYhzOIwE6ADyqrGpm1W7Nvkes+VA1j1G1fS/VO/+L/J83WTUfdlx1gbsfbJL3dS4S95jG9Pyn7Je36bSAliZvIyensdoocwwC39Ch/v/6HwuCvus/GWu9rs570Z/ultX641YPICGQaAF3it6mowD6vBwFUJC6+uPM6/bdlWhjMhebAIulx0afnAPbTdIgmcZPaY78m4To5v6vatWoBfRlJeeMSldOvvjDWfLuTYvFLfGX1nTnjib56S15eerJvdKapRMgrecB5Z5cYGjYyIc/tUiH/M+VkdF0fl8VtEF10x1ZuWN7ky4Z2MuUgMlPF15JgoD7Z1qv03P2eBlQ34gtyPu/OvzNJFCSh+QJpPNbKHn1EGuONPL/hTr0/7pYM1Huwbn7X64c21UoULBGNn5+nnzuv3X6CWlMoD0/Kh9c96CcdXwfIgggcFDABfq77JOL5bZ7Gak2flKsWjwo/3TpDlk0Z3j8KR4RSKbArft0FICPsW4K3ZJpWm5W79VhDCQEDhcIN/LM4eXkr6kEjLxxqpcT+5q7+z8/PXMoE1sPKcxYT39G3vKJJTT+J9T9vp46dVkmN6QoDsIEAv5E4DCBP+jd7rX/uILG/2EqMjZdat1Hlgex7OGEovFnaALeTjHNtMro8LrQqoPyRCPACIBoHL3di0b+P1cj/3/fywIs07n/C7mj4mXdeZzp7j7XyF3CBf0UdehWCfjrlz0irz5vzxTv4iUEwha4/d5meeuVS8V1jJGKCzQ3FuQjf/WgPPnE3uJv4FkEkiDg7SgAeUBGeleZ9cJQmyScRwnKAyMAElQZsWSlIH8by3ErPai7+z+Pu/+VMrJ9aQJ7uuvkDR9dRuN/Gjarc32v+ML8sfXNp3krLyMQpMBNf8jKmz6+jMb/NLU7oKunvP2qJfKjm/PTvJOXEYhRYLG3N5uWSn2e1QBiPHWSemi6pZNaMzXIl72m/WgNEnKFHsq/kSDuzn97uOus16D6OUSJAnt76uUNH1ue2kj/JXKNvf03d7WI1Y+XM48jJkA5fmzjp8BNd7TIW65YJq5xS5peoFAw8oNft8oJKwZk6XxuVE4vxjtqLtCszSUXDHDEw9UrjFn2/q8MddbcjAMmWoBvp0RXT5UzNzpyqR7Bv3PARfxf4G1vbJUrld1XQ2BQI3i/89+XyL0P0elUqm/XjXPkPwmUWCob7/dU4C5dEeNdn1wqLuo/aeYCwyNG3nP1Yvnt3Yzsm7ka76yZgPvn7OuUU2ufajdnz6qZFQfyQsC/xp8XrMnPpN0oTTr3/8Lk57RIDl3gPzcFgIRADQRctP8NnYu4MK3A+oovzJPv/p9/q4xWUGQ2TaHAQ7sb5G8/sVRckFBS6QJuxMQ7rloq9z9MR2vpemxRdYE5el42eTpwOpNZX3UfDuCVAN9SXlVXhJnN5y4QY+ZFuMfa7Mrd/V/IHYLaYHMUJ/DR6+fLD29uBaMCATfE94PXLpRb7+HfbgWMbJpggV5t9L/1iqWyW5f8I5UvsK+3Tt5x5RI6UconZMtqCbjotgt8/Q4rvNp+eja98NU6NzzcLx0AHlZaJFkuWD97A+c0iTRw2kZyDrCTaQW+/YtW+dIPO6Z9H2+YXsAN8b1s0xLZvd/TOyjTF5F3pFTABb38x08vlPt2cuc6ilNg+6ON8oGuRTpIMYq9sQ8EIhSYp9eg9T5eg5q8DA78RYQS7MpzAR/PYs/J48++3Zw/UeP+nR1/TsrIgbfrsZZRVjaJVcDN5b1cL+pJ0Qm4u6Mbti4WN62ChEAoAp/5r9nyvV8xSijK+vzJLXn5j+/MjnKX7AuBygX8HoX6+soB2EMoAnQAhFKTpZQjY/9KA3P7dwU+282/4pQtpap5b3kCbi6qC0hFFO/y/Kba6le/z8o1N3JhP5URr/kjcIuudHH1V+b6k2GPcvrJL89l2pBH9ZWarLo4VHX+XULrjb9T7daWp6SmnijolAK0pqbkCe9Fu01axHga/M/XCKzhnUbBl2iTXnhuf4ThvNWq6Gu+MUd+f7+vcymrpcJ+fRNw01o+8pmFMqoxLkjRCzjXD127iBUVoqdlj5UIuMa/6wTwMVmCAfpYbdXIMx0A1VBN8j57cq8Sa2YlOYtF89bWIJIjuFJRG56MVMAtQ/X57zPvP1LUCTtzF/Yf/tRCGRmd8AJ/IuCRwNVfncfSoFWuL7ciwNYbGWFRZWZ2X6qA6wBwQQF9SwV5lb2q3b82gG/OHuSXDgAPKinSLBbEz+B/3kZejbT22FmVBdwdvX+4bhFz1Kvs7HZ/5wNN8plvz6nBkTgEAtEL3H5vs1z/HToKo5c9co+f/a9Zcsd2Db5GQiApAo3afJqlN6Z8SxkdBdw4+pe+ZZv8Ri9AB0D0pondo92cO1Vn/vs3/8fN+29nOHZiT6yAMva573WwBnUN6/NanQrwyB4PL6JqaMShkimw8fPz6SisUdW4EUMbPze/RkfjMAjMUMDXaammcKmusOHh8IUZ1gtvm5EAHQAzYgrkTUaD//mYFmZ1qJWPGSfPPgl099XJp77FHela1tngsJEtN2BeS3OOVbnAd/+vTX6jwf9ItRO46Q9Z+dHN+dodkCMhMJ2Am5aa93FqqjlROlufPl3xeD1sAToAwq7fx0tnr5znvjn9G/ZTry3/OQz9e7wi+aVqAp03zpH9vaxRXzXgSXb8jf9pkz8wvHcSHZ5OmoCbJvRJov7HUi1XfnEecUNikeegkwos8LQj0BT8nA48aUXwQqkCdACUKubr+5t6X6EBS9q8y/48DbRCm8y7avMtw4/urZcv/5D5vHHUW0GH93YS5CsOeo5ZhsANP22XB3cxbaUMuoo3cSuz/Ncv2iveDztAIDKBWZ4uT23lAtvVwUVPZCeCfzuiA8C/Oisvx9ZcVN6GMW7lIqz6utRKjGwcunSBbf89W9ydPVI8Aj/+TV7ueYiRPvHoc9SZChSskeu/SwDtmXpV432f+tZscZ2GJAQSIeBORR9HARhplsLQBYkwJBOxCNABEAt7bQ9qtzSvkIycU9ujRnA0F2HVRVolIVBFgd7+jHz1x9xVqiLxtLvWgETyH9+hYTUtFG+IVeD7v8rLA3oXmhSfwH07G+Wnv83FlwGOjMBEgbnaeV3nYaeUNRdOLAp/p0eA1lUq6jrj/pH7V9c+9qqm4nwKq5Bf0cZ/j3YCkOIV+PbP22T3Ph8DKsXrxtFrJ0AnVe2spzoS9TCVDq/VXMA1/v2MVfUMu7V5Vc29OGAiBLjqTUQ1VDkTxvoX/K9FJ/57GV21ynXJ7iMXuPFnTIOLHLWMHbopGN/8X//ClJRRVDbxUODuB5vktns9DfjlofdUWf61rghw/8OMxJjKiNdqLODjdFXj1tfKvKbGUhwuIQJ0ACSkIqqVDbu15Sn6D/yEau2/avv18cO0ahjsuFoCv727We59iAvJavmWul8XYI2EQBIFbvgJ52aS6oXOwiTVBnkRd9OqzcPgoFYu1Cl4Hs5f4JyrVIAOgEoFk769j3N8/B1OlfSzgfxNEODu/wSQmP90d/W4yxpzJXD4IwRGRkW+9fPWI57nifgEvv6zdnFBGUkIJEbArVrlXTLHyNaWp3qXbTJcsQAdABUTJncHdpO47shXJjeHk+TM14AqkxSHp5MpMKqRpL9/Uz6ZmUtxrr7zCxpaKa7+RBb9/36Xk709xKdIUuW4pVtvuYspGUmqk9TnxS0J2OBhs8rHG4WpP9kqB/DwTK280KnZQ132hSJmrnfl9bIX1Tvl1GfYXTzu79Vhe6RECfxIlwQkIZAkgZ/ewjmZpPoYz8tPb2E1gHELHhMg4Aak+Hj9mpFX2Y3COrwJOIVqmQU6AGqpXetjZcS/JT7cHCo3l4qEQJUFWEqqysBl7v7BXQ0E+CrTjs2qI8BnRXVcK93rT+gAqJSQ7aMWmK/taOPZ1BRrZklLXm8YktIkQAdAoLVtr2qfJdb49w/ax97TQM+h0Iv1M9aSTmwVc8c1sVWTuoy5IKEP7fYwuFcKauqeh5qomxTUs1dFdFMAOjwMLOzjDUOvTozkZZYOgOTVSTQ5ahp2c//9GtJTr72mHVxoRXMCsJepBNzQf3fxSEqmwM13+hhMKZmW5KoygZt0yTlScgV+fSdxAJJbOynN2VwPOwDEvtBuavVvynBKT7Eoik0HQBSKydyHf2t7uuB/Gc+GTiWz7snVNAK33dcsuvQNKaECt9xNoyuhVZO6bN16D51RSa7023QpVxICiRJwIwAavWteNUi99S9oeKIq3q/MeHeG+sUbT27t5palOvz/6fEcvYKjzuGLvAI9Ni1BgIvGErBieOue7jrZuZuo6zHQc8gJAixLOQEkYX/eeg8jABJWJWTHCczxcIRhwV5A5aVHgA6AEOs6k3m5GP3Pp5TTi/0swf98qjKf8/q7++lsSnr93X4fF/ZJr6PQ89fbn5HtjzAtLcn1fOeOJhka9utyJ8me5C0igXkedgBk5BzbmV0ckQC7SbgAHQAJr6DysmdfXt52MW7l44dljFwcujKB+3f6OEevsjL7tvX2R6gj3+ostPw+sKtRCgUal0mu11Gtnx1aTyQEEiXQpDe0Wr0bxZYRm/mzRDmSmaoJ0AFQNdp4dmy7cgt1DZKnxXP0Mo/q5v3P9rC3tMzislm8Au6Cfuce7urFWwvTH33Ho9TR9Eq8o5oCO7j7X03eyPb9APUUmSU7ilBgrocjDc3on0cowK4SLEAHQIIrp6ysFYybw+NXvc7W3vs67rKUVd9sVLLAI3vqZHiE861kuBpv8AAdADUW53ATBXY8yp3liSZJ/JvPiiTWCnmSOR5e29rMufa6/HxqL3wBvxqK4ddH5SUsWP967+Z52EtaeU2xh5gEHnqMi/qY6Es67EO7qaeSwHhz5AI793g3hDdyAx92+CCdhT5UU/ryaPRGg2/BAI3UyUiBaQApOFvpAAioku3m3AIN/fcMr4rk5knlucjyqs48z+z+Xj72fKjC7j7qyYd6CjmP+3sITOtD/e7vo558qKdU5tGNAvAv+RdHzD/j2HPMFVbsVRBhBoz5c+0A8Oub0Lfe0Qiri13FI9Db79c/kXiU4j9q30BGRkbjzwc5SK/A/l4+K3yo/d4B6smHekplHvMay6bJs6aWNc+2W/PzUllfKSq0Z2dlimqmnKL6GLzDzf8nIVBDAbe0F8kPAS7s/ainUHPJKBQ/apbPdD/qKbW5nOPdNNd6sYUXp7a+UlJwroQDqWi7qXWuxv57plfFyenQ/xZ67r2qswAy2z/Ex54v1ThIXflSVUHmc3CEzwofKtaNFiIhkFiBuR6ucmV1RDEpaAE+NUOp3obRl2lR/JpMz/D/UM4+r8phjPUqv2nObCZDXaW5/uMue4bPirirYEbHz3AlOyMn3hSTgJsC4G54+ZSMnGe3tM32KcvktTQBPjZL80ryu/0L2sHw/ySfT8Hmrb6ORqUvlUtnjS81FWY+M6wW6kXF1vGZ7kU9pTqT/t3w0uAFo+enus4CLzwdAAFUsO3q6BBrnuVVUdr0s6WB08+rOgsksw1cLHpTk7S/vKmqIDPKnWU/qpVOXT/qKdW5dKsBePeFZl6a6joLvPCejUkJvDbKLV5h5Lm6qbaoPUr+9YZ6hFtCVvtGRHr0Z1DDrQ8UDjzqg4zq/9yjS66fpk7/V6/fXo362KxxG1zshqyfMRwaGxgBMFavHvwv1zJ+EnqQWbIYnEC2mWUofKjUhvoUfqa7Irvv7z733a2PE7+/3anrGpxuGEud/rjvbzcU3S297L7DicFU21O7Xu1b9TJ9/3Btj1vR0ex5tkuazWoZqGg3bJxIAToAElktJWaqYF841kgrcbPY3u6+kGYR/T8W/xG9anhsUGSvfgn16M/oDC6cXBvMrcemm0nvhFy7URyt+jHSrvXp6tRdaCQ8dbTSqEx4FY1lr6WpIE101vhQVcHmsSPPZ4UPlTunVRvAaUjDej4+NiSyb4bf3+7rvaD/czyBfH97Xc3uxpdPHQBGcmJz5+qF37e8difzRQXoACjK4s+TdoM2/TP2eV6NLXKNRQ8aiv6cBdPk1F0E7NWLhke1E9d9+bi/o0rjFyTuouRe17GjPdwu4q2r44SmOW1qQEq8wKxW7r4mvpICz2BHWhqWntfj7PaAOwDc9/WeQ76/o6yrYt/f83TJOjdFkxS9gLtJ4q6TbJQXYdFn87A9Wr3BKEIHwGEoYfxBB4Dv9bi85ck6/3+BV8VwjURS9QVcz/8u7fZ/uP/A8MBqH9F9qbmOAPeT1SGGi7IiCQz0OLuNhmW1T4Uo9t+RD/iiPgog9lF1ATqhqk4cyQGCrCf3ffqofpfu1O9vN0Wv2umw729tGixqSeT3d7UZqrp/d+PLda7s03r1JpkXaVbf5E12yeiMBXT8LslrgULdC7zKvxv+35Hcu8NeWU6VWXfH4JZ9IvfpmH03N7DWyc1LvKtb87A3cUPe5urdIpb3qvUJUfrxls6jA6B0NbaIUmDJPJ8u1KMsuV/7WjArsM8K14l+s3533tdTm8b/xOp2sQXGv7/ddANSdAL+3QBbabtaT4gOgD0lRYAOgKTURLn5yIwNzyl369pv53o/Gf5fPfdBbez/fr/Indr4HqrBXYPpSjKgeXD5cRcTtbiLMV1+9HUXMGrpfC5qZkAV61uWL3CTVkkIxCewYgGfE/Hpz/zIKxcF8lnhvi9/d/D70g3Pjzu5/Nwxfj2RgPzE7RHF8WfpFEmjN8J8SoWCmwZACkyADgCPK9R25RZqpPYzvSpCAoeEe+U3VWZ360XQrXsSd8d9LMvujsatOiLBPSYgrVqcjHwkgCKxWVixkDpKbOWkJGMrtBPKt2v1lFTN48V0o7mWh/BZ4b6/b9O7/t0J7HRyIwp/q3lLyPf345Xv4y9uNQYXONmrRAeAV9U1w8zSATBDqES+bdS+QJd58acr0V1JJTg4XCLreCaZcnP37tahgu4nATf9J82yW3HAjQRw0xJcfIIY08rFgdwxitGw2oc+ahEdANU2Zv9TC7hlKOd1JLBBNnW2U/XqknnDfq8W4r4Lvfr+1uuMmL+/vT/B5/g2DTbzDNvV0eG9OwU4TIAOgMM4PPvDiF/z/93wf9f7SYpOwC3r54YMursHvqRHdDWC32tHgMt7TOmE5SxrGxP9jA6b14bXUSHc1ZtRaXlTkgVOOVqDsJESK+D1Z7n7DnRD7L36/tZrjT/o9/dMlhBO7FkTc8Y63DSAmPNQ2uEbxI6cV9omvDvpAnQAJL2GJsmf3SQulL5f/yD9C34yiX5CnnZz6n+nw+p7PAyA1KN31VzeY5rneNox/ZLJxNcBkZAzKLHZcI0u6iex1ZOqjJ26ig6AJFf4Gcd7Wj/u+/t2/Q7s9vD72y0nHOP3d5LPxxnlbWwagLuE9ygdWA7QowyT1ekE6ACYTiiprzfkz9EuxPakZu+IfLneTqL/H8FS9hMjGpDH3TnoT/KY/2lK5/LuLoCGah9cqDU7KkcvYYj5NDUU28uncdc1NnsOfLjAqdpZSEquwJnH9SU3c5PlzHV8u1FwLsier8mt9OO+v2PqxPeV7fF8e3c9bF9gNwhtxscr0P9fqExf69CO+jX8P6dBTxo43SI53dzQu7GLh9o3nCPJ/6E7casWuI6MGKYDnHGMhxeOh9oF/PuZx2ucCBICCRA4ZumQtOc9bqglwLBaWZijS7oum+9ZR677/r5DG/8JWRWnoroZX3Uohu/vivKdhI07PBsBIGa+rMielQQ68hCNAC2yaBxrv5eCeW7tD1rBEb3r7aygrNXc1AX8cw1mt05vKMmNBLhTy+TKVsP09FM1mBEpcQJz9aL+pKOI0ZC4iklphlyU+bNP4bMiidV/jm+f4aF+f7vgvrX9+k7i6VhanprqRLL641Oy4le7wyfbGPJKB0AM6JUe0l6Xn69rEz2p0v3UdHs6AKLh3qHDUX2c8z9d6d08SFe2GqazdO5oRz6gjpQa2lXzUOec1sPSa9UEZt8lC5x7Oh0AJaPVYINnneFZvTygo85C/P52MQFc2UilCfi2Kpa1zy6tgLw7yQJ0ACS5dibL24g826vl/1xPZ4tnPZ2T2cf5/F4d6vhQbRvJNS2uK5srY42Su7N3zmkMNa8R94wP80ztACAhkCSBPz6xV7LNAUy5ShJqhXlx0zLOPN6jRuce/W7bGfDIpp21/f6u8PRJxuazPFsO0GbOttukJRl45KJSAToAKhWMZ3u/euG8m+sUT6VOeVQ3x+6eFDSMXBlrOJ/wOWfp0EVSYgTcnN6zTvDooj4xcmSkmgKNDVbOPZ3Pimoal7pvNyqjzpeVXNx32r18f5dax8G/P+tZbCwjzbIv/5Tg6yUlBaQDwMeKLtg/8SrbvvVyJhHXDa+rYcM4NgJXxu21uyv/Ryf0yrJ5tRt1EJurJwc+/+n7/Lmo98SUbEYj8OJnaMRzUmIEXvKMvYnJy7QZSdP3N1MBpj0dHn+Dj6tjGR2BTApCgA4Az6rRXtuyRIf/H+tNtuv0Ey6vvZyk8gV6dH7droCHDk6U2TVYs7WRjZ6e53NhP7EGYvk7o3fzXnQ2jaxY8DnotAKn6tKUqxbrZxMpdoGTjuqXE1Z48p3o5vw/6kleo6hZV9YQ4xxEYVNsH96NkC34dQOymDnPjQnQMvPtRBjOnKcdAP6kdl3qxLWySOULuB71tEXYdWU+se3/s/cecJYWVfr/eW/n3D09gZlhAhMYGGDIWSQpiIggCChRQERE0b+LEVeCuOviGv6uYVkBc8LVNa4JXSUJIorkMAMMk0PPTE/ndN/feXqmmZ6ON7yhzvs+9fnc6Tv3vm/Vqe+p+1bVqVOnCmeWx52YdH7151Olrz+57XR6U58cvV/HYHR9uNmXlvrSr/Vdt6Vc1m0uk+VryuXxFVXS1ROfTfjIpZ0ys1mNXUwk4CiBs47bJp/9wYzYpIPL+5K53bLvvB6ZNbVPZk7t3RGbwPdka3tGnl9VKY8+XyVPvZTsbbpnHWfIULg6Oo+22BrmyIJXRdd/jyza3P/rdYyc0bFH1sggz/OO9L8pNd4lksKGba51TSgwDQAT4nHwy4y63xh5TgzSw8ONqXACWP1HhPy0JdQbkYUjaD8NNQNy2lHb5Wf3NSSO8h7N/XLuCVvljGO3SU3VWEHMdvXhA1lPnn25Uv78ZI3c82itLF9dESmPi0/dEml5LIwE8iVw+jHb5eu/mipbtkcX1BbGu+OWdcixeuQdvBCqKsb6He+oySmHtw2epvrnJ2rke7+fIn97tjrfKjp//bTGfnnt4XpsrIWEvpv9twVNxScjJv81OhVrM2P8LpP+mleJdPwmPmgsOQgCNAAEQTHKPHw5Icriii7L2jEnRVc44AzWpsh1cCS6tbqKUB/NpPyS17XIrx6sT4wXQKnOTy47fbNgUp1roCxcB9davK7Qe9eqZ8Bv/lIvv3moXlZtDDda8cGLO+XARapvJhJwmEBleVbe+pot8qUfTwtVSkS4f81hbXLqEa2DXjv5ONHh2mMO6Bh8Pfx0jfzLt2bIxq3JMcRfdEqLICijiYQ+LK0pwv7bPGJ4ytoxAAD3ifqiAcB4w9OugskKAf/2+kXiDTxvRd7Bo//2bzQjrnOCdutKz+NbnRMrUoH20/ZTHc1q263fmSE/vc9+e507o1duumKt7D0nuP3KT75YKb94oFHu/muddHYHv03g8+9dJYcz+n+kPy0WVhgBbJM55/oF0toR7HMJx5IetX+nvOGYbXLM/h1Sptt0gkjtXRn59+/OkN/9NZotVUHIPF4eU3X70g8/8YINA0CP9t+Ppbz/xviPR0CP15x3fd6pniJPGtrWIvKwd0XHEbsqwHcWCdADwJLWMv0nie71M5MicN82w6IQQVuCm8AVUrwT92xRBtXRuLEOegE81CC9fYZ+YyOUtP+Cbrn16tWCFcQg0357dct+e62Xa9+8UX7/SJ0aAxoGYwYEUcbhesY6J/9BkGQeURCAC/5lr2+Rz/9weiDFIe4F4pC8Xrchwd0/6FSrW39uuHydYDvQt34zJejsI83v0tdvsTH5B5U0Bf4brxUgoO+caPrv8UQw8TmOAyxXw3rv+Nt7nKqHL4f4X2ts9C7bts0puShMXgSCNWHnVTQvzpfAjW8sv07v2T/f+2K7frYGIqpkEyuY/0u6P3sgmFWggmWI+0Z0iDO0HUUwJ6+tzkr/gKdBtGwOWI7SIH+fvmaNYMAfVsKqJDwL3qDH9Z18aJtU6s6AdS1l0llg8MDG2n759LtUZmXPRAJWCOw7v0ee0KCZ2CZTSMJWgpP09/MeNai9982b5OC9O8eJ0VFI7qPvwbaAw9TDprbKl4eeqhl9gYFPFutz50MXbrARUxjd9kvt7L8j7L8NNOGJRexUo31XsIb7iQss4ltPMuIP/Pmmn/U9W0QuvDVmApydxayAXIv3fZ0C/b3sizoTqs31nlivw4hjvg408tm8GKvAjhXeoS5h67scEyoGcWAAqddZZkXwbudj1Wa/vbrkt7rvvb3L1qMRwcFu1Yk0JhZRpca6ATlCV+/PP3mbLFvQNXiywMYtZdLTl5uuZkzpl8++e7XM3SP4Vc+oGLCcdBJAt3bcge3ynEbdX7Mpt/gY2Ld+5H6dculpW+QjF6/XQHZtMlsj+UfZRe6vv1PEHPvbc7aMnGB0y5VrZY8pRp4VcOlen+L4PUOPhYj776FiTf4Fq229dkT3vI03/bTv13YEpqQjCehjlckCAf+/6vaWkqwdaxvc/5fY33MYW9vA5B9H6TCJwJNkVnQD1j9pBPyP3jbbDPm9ZvbIV65bJXXV8a8eZHWL0j+WVw1OMB5fUSnPrKyUts7djSlzpvfKqUdul/NP2rrjCDMzpCkoCexOQA3zure+Tn5yT6M88UKV4CSNoYQJ/8LZPXKAGhUP1CCXR+zb6Ux7/8z3psuP72kaEtX5v68/ulWuv2S983K+IuA67b9xlC1T5P23WeR9arx/1FDMCE8e8S7vOMwsbwoehWMtKQdBwL+95lLV1teDyCuSPLDva49kn0UcKsdn9ZgjHIPHJFKn++P2ieY0gCHcN9wxUwPeuW/AqtcjDO/48MrBM8GHZHftb3dvRja1lkqFbh+AvFF6KbjGgvIkl0C/2t8QGLCzp0Tq1RiH40VdTTBUvP8Le8pfDRwTiLgI3/zYSicMnDnrk/33LlQx9N+7Cjf2DoEA4T1iI/VLWUejd4nsOkvYhtyUcieB3Hw1iSt+Ap53VPxC5CFBXWF7I/MoIbmXYv9gByf/ryi4QwfSYBJh+sAFGwQu6i4nRA2/4bJ1Tk/+wQ8T/jnTegcDnHHy73KLomzFEMDRm831A4Nt3eXJP+qIIz8/oS71s3QLgsspo3J+7NL1tib/6Kva3e47ItV5DP13pPULsrB6U3HZS6W39tAgq8+8oiVAA0C0vAsvzfePLvzmiO8sUTfIGlMPsogBTVJcr0543V08mkT4EL7O6ogq4ui4CKT3kYvXRbo/N19yV76xRRD4j4kESIAE8iUAb5xPvH1tYMcN5lt+Ltefp9uEDl1izJUe/Tf6LKYdBGLov82it7ZwlvFtLUyabRjhCE4DQDhcA83V/6bUqPv/foFmGmZm1h5iYbIoJO9uzv5HYeuKfkUFR9Nd/vrNo0Rx4YOD9+6Si07d4oIolIEESMAogX3mdcs7z3TzGYfApq7KNqG62X+PxhND/z1aCAOfWBs7+56dhUkD6o9aRBoAoiZeSHn9tUfqbXaW1LHni6lwAt3RRXIvXMiI74zpeJzLTm+R4w/W45wcSlPUzfimK9ZoNG+uMjmkFopCAiYJnH/yFjnmALc8ifZo7pd/fafb3gnjKpv992g0MfXfowVx/BN4z1ZbGj9nj3GcKMWbgAANABPAceYrP2vLzcaaFdMZRe8UBNFgmXYngCNyYkg4fuqfL10nizSatwsJ8nxUtyZgrzETCZAACRRLYOiZAsOiCwlxQj511WpprI3e6yuQ+rP/Ho0xpv57tCAGPjG1gOZN979auZcBqhRxDAI0AIwBxb2PDLnZmLNguqdt7h8cQycxDiCqKrLy73pe/czm+ANmnXPCNjl6f7dW68bQFj8iARIwRKCpbkCD7cUf86RMTwr55DvWyuI5bhhcC1Ih9/+PxhZj/z1aGMc/sbaA5pVwG4DjTWo88WgAGI+MI5/rOcOe+D62ANhItRr9X1cpmYog0B/PancREod/a8wDiGmN/fL/v3eVTG2Ib1Vq/sxeedebNobPmiWQAAmkjsCRSzvk7Fdvi63e2NL08betsx/YlP336DYUc/89WiCHP4EBwNIY2mMgQIdb04Si0QAwIR4Hvvx6/SINRT7NAUlyE8HWMSa51YlXkYASmD2tTz7/3nhcU7EydtMVa6WijMYhNkYSIIFwCFxzzkaBoTHqhMn/Ry/ZICcd2hZ10SyPBNwiUKqz/ypLcQAMeSi7penYpaEBIHYVTCLAwICt/f+1lh5ck7CP6+uMJfNvRJD0jG0X0l4ze+Qr160SBKmKMl39pk3OxCGIst4siwRIIDoCMDDeeFm0wfdg3PzElWvltKNao6tomCWx/x5N15H+e7Rgjn5iKg6AHOjfJtWOkqRYExCgAWACOG585dvZX4NoQjU0ABTdbthZjkZY4s6jau6MXvmvD6yURXtGs08VEbrPO3HraCb8hARIgAQCJoD999eowTGKhPgqt169Rk5w7KSVourO/ns0Pof679HCOfgJttLaSWVSXneoHXEp6RABd0bVQxLx7+4EfM/O/v8a7flgBGAqjgACKTLtTgBucQ6lZo0F8B/vWyWHLekMVSoEHsS+WP6sQsXMzEmABIYROPekraFPyvFs+8/rXpYjNPZAohL779HqdKz/Hi2gY59Y86T1s3YWKh1TdZzi0AAQJ/1Jyva/IBWSkQMmucydr61FL3WH3O6SVHAJYXcg+r9y95jU1wzI5zQmwEWnbAllgo7jsBARu67ajeO5RumEH5AACSSWwEf0uNGw4gEg4OAdH47OiypSJbH/Ho27glON0VAm+KRceeFlJWXlECuiUs5dBAy1sF1Cp+ZdbfV+Wlc7vkB0/w+maVa6N9kNpmJF5FLlJhMEr8L+/E9euUZqq7JFVHD3WzOZHRGxl8zt3v0L/o8ESIAEIiCA59mn37VaGtTQGVTCc+3S01r0WNU10lAbXL5ByRdIPuy/R2Os5NbQ0VAm+cTSeNrLHjRJbfi1gwRoAHBQKa+IlBVbPyprbkuvgHbsDQcQuysE3v+Vbj+qjtc9rN/655cEK1tBpHefs0mQJxMJkAAJxEVg1tQ++ZTu0cde/WLTntN75UvvXyXveONmgeE0sYn99+6qxf41x/vv3QV25H+mxtOZxf6XptU6Qo5i5EjA7VF1jpVI7GWed6CZusHtrYzNKRB9YQ+hoyvegdQv30yqdfXAwCb46U198pl3r5YPX7Reagr0BkA1rz13o5yve3CZSIAESCBuAssWdsln37NaqisLMwJg1f/NJ26Tb1y/UpBX4hP7791VXK1jQwP99+5CO/A/UwYA3axc2W5nu7ID6nVBBM7YXNDC+DLY8QBAAECm4AgwnsIulvV2dsFgnHPGsa3yvRtfkDfoXwx+c03Y83/9Jes5+c8VGK8jARKIhAAm7gh6mu/xp7jvqx98Wf6/8zYInm+pSey/d6naUP+9S2gH3mHhw9KRkl6JnfmKA+p1QQTO2lzQwhgy+L548veyz6nptHKMr937aJqKacti6R7D4RJhrLS1d/gn6X0/W4+YNRZYqbrCl+OWtQ++Vm0sl3UtExsxlszpHtwXe8S+wWwhSG9jYc1JgATCIDC1sV9ef9R2WbelVF5aVzFhETAUfPCCDfLuczbKNL0vdYn99y6VG+y/dwkf4zusJmzTMWCfEcOZ562+6ae9v4iRGIvOk4C2MCYXCfh3Vi4Qv2SFi7KNKdO+9WoAmHiSM+Z9/HBsAgO6cvyouoFnc19BHjsj45/CnfKgJluW8DGQP7aiSn5+f4M89FSNtLTuCIiEFbGDFnfJOcdvlaP376CX5Bjc+BEJkIB7BFasqZDv3d0kDz5ZK1vbdqwjYdsTVvxPOXy7nHTodilN8/IS++8djTYh/Xdsv8CXdUFgg5FAwJ73oHd5O48DjK2x5F8wDQD5M4vkDv+rtWdLxv9RJIUFUcihU8xP0oLAEGgeK9pEtqTcC2CqepbsVRMo1rgz6+rJSP+Ax+P94lYEyycBEiiaQGd3RgayfJ6NAsn+WwSeofOT1X+P0nOYH7T0iLxgJhhwp9R11HvnSUKP9whT0fHkzRgA8XCfvFRP7AQARMA6S3uVJqfvxhXNE7tZuiFkyFJMSx4DRNSuq2YfGXLLYfYkQAIREEBwQD7PxgDN/ltkavL67zE0Hd5HiANgJ1VLR91iO+JSUhoAXG0DnqEjAG09pFzV+Gi5GspFylP8E8VxSowrMbpd8BMSIAESIAG3CaS9/8bCEPvv4tqotcW1AZ+BAIvTeKR3p3h2ESnn/AvzDP2QakxZKfPXRVx3YIPOHlVxlR5/uTNTXPf46VMCEiABEiCBQgmw/y6UHO8bTsDSkdCeb8dzeTjjlL6nAcBBxfu3108RX+Y6KNrYItEDYGwuQXwKF/iyFP5MEfWfLpRBtCDmQQIkQAIkEAeBNPffU+j+H0iTq9axkJ1EDwA7upIUziwMaCeTtfUjsvWAMtAAhomI2AppXAmfpav/DFE6rCHwLQmQAAmQgCkC7L9NqctJYW152NIDwMlGNLZQNACMzSXeT33ZL14B8ii9UpsQjnphCo/ADI2kmyYvizrdUsLgQeG1J+ZMAiRAAiQQDYG09d/Y98/+O7i2ZWvsN9P/Rl1zcJVnTmESoAEgTLoF551dUvCtUd9o6+EUNZ3gykvLUTqwJc3lsUHBNRzmRAIkQAIkECuBNPXf89h/B9rW4GHrGVpk6+/fO9D6M7PQCNAAEBraIjLOCg0AReBL5K1wA0tDQMCZ1enydkhkY2WlSIAESIAEXiGQlv57FvvvV3Qe1BtM/i0FApSMnflLUDoymg8NAC4qzvPs/IC4/z+6FrSndq5JPlanvkxkNiP/R9egWBIJkAAJkEAkBNLQfyN2D1PwBEwZAAwtYAavKVM50gDgmLr826Rag5/Ndkys8cXBWe1M0RCAF9iiOpHSBP5sy7VOC2qj4chSSIAESIAESCBKAui/F6L/NuTOnSsf9t+5kirsOlPjbG+fwirJu6ImkMCZRNQIAy6vvAb7Z2zoBXN/HNfGFB0BHAm4RAcRSQq8iLrAsJHG4w6jazksiQRIgARIIE4CmCjvXc/+O04dWCzblKetoRhmFttCgDLbmGgGWGHns/INuf9X6r50pugJIPAiJsw4Ysh6wv42rIrYOurGOnXKTwIkQAIkEAcB9HWL2X/Hgd5smVWGxtq+t9C/UQwJbLZVFC04DQBFIww6A0PWM1v7koJWVLz5Yb/8QnWZt2wEwOR/kdahQevCRAIkQAIkQAJpIFC3s/+2FN19pF4w9mD/PZJKOP+H54iVsZ4n5bJn/fxwQDDXIAnQABAkzSDy8n07R2jQABCExgvPo7FcZB91J7S4pxAyQ3bUgYkESIAESIAE0kQAfd++hvvvJey/I2uuOlwydRJApp9xACJrHIUXRANA4exCutPQERqW3JJC0lbs2cKdcN8GEUtBYir1sbOPypzkEw1ibxgUgARIgARIwGkC6L/RF1rqvyu0/8aYg/13tE3LUhuxtJU5Wi06VRoNAE6pQ4WhB4BrGnFfHnQM+2uHPKPSfVmbdNVjaaMta7b7VCkhCZAACZCARQLwpLTUf++n/belyajFNjGWzKYCARqKZTYW65R8xkANDinav616pnie+lUZSIjcjn1JTG4QwF7CuTVqlde9hS93iPRl3ZBrSAq4/M9R+aZWDH3CvyRAAiRAAiRAAkP9NzwCXu4U6Xes/8Z4D+ML9t/xtVVTRhd/SXygWHKuBGgAyJVUFNdl4P7vR1FS8WXw+L/iGYaRwxRdYUdQvTU6iNjY7UZzwqBhTrXGKqDBKAyVM08SIAESIIEEEGjWvhKxAVzpv3XeL5CJ/Xf8jcvUqVs0AMTfYCaXgCPyyRlFd0VJdlF0hRVZEvZxM7lJYMhaD1c9dN7oxONIGMgs1a0Je2mkf07+49AAyyQBEiABErBEYGT/HYfsGDOw/46D/PhlVqhS4hrLjS/VON94M/xvT7HhzTxODdLwMT0AnNJyZp4bS7Y5QKEHQA6QYr4EewsX6OR7dpXIBvUGaOlR18KQPUxwVA28EPbQMnlKRMwNgMWTAAmQAAmYJPBK/63ec+vVo29LbzT9NxYNEE+I/bdbzQbbRMp1TNcz4JZc40nT3TtXv3pivK/5efwEaACIXwe7JPB9NQAYSab2IxlhGpaYMNZg/x7c+Fr7dhgCtuvfoIwB6JjqddtBs078G3XwoMUxkQAJkAAJkAAJFEkAUffnqSF/jhrvW9UI0KIv9N8DARnzYbRH/w3DPfvvIpUV8u3wvLViACjJ0gAQcnMoNnsaAIolGOT9WZkrVjzr6QEQpOajyQsTdbj14YXU2a8DCX116GCiW4MO9ej7yYzLyAMDEhiAEJW2XvOq0b8YRDCRAAmQAAmQAAkETwB9bJMa2PFC6kD/rX03+nH0393aeWcnMQoM77/Rb6P/Rj/O/nsHU9f/HRx3q84tJB8ezUwuE6ABwCXteGLnB8MYAC61nMJkqdafP14y7PhAnB4AI8AA/u4cTGBPIgYI+MuTHwpjzbtIgARIgARIICgCODEAr+FpsP/Wfht99/D+W7vuwTg8ZWq8x3smmwQsed5m/Tk2IadH6hFPj/RU3LWa+nep43SbzHZNrjHlwUQQHQlT8ghAr+oNqDP+5NWNNSIBEiABEiCBpBJ4pf9OagVTXi94X1pJmaydBU0rTAOW01BrCrjmrmXXWjVTRRqcerkm2ih56P4/Cgk/IAESIAESIAESIAESIIFQCJjyAPDmhsKAmQZGgAaAwFAWmZFXasdaRvf/IpXN20mABEiABEiABEiABEggRwKmPABoAMhRq7FdRgNAbOhHFJwZjJg54kNH/4ujSJhIgARIgARIgARIgARIgATCJ4AgjlbiMGVltn+bEa/m8DXnZAk0ALiiFpwAYCVZeQBZ4Uk5SYAESIAESIAESIAESGAiAlbG357GNSupnDVRVfhdvARoAIiX/67SPd+OAcCSG9IuwnxHAiRAAiRAAiRAAiRAAjYJWDEAgG5JmZ15jc3WUJTUNAAUhS/Imz07MQAsPYCCVBHzIgESIAESIAESIAESIIE4CFjaguvzJIA4mkiuZdIAkCupsODzAPwAAEAASURBVK/LGvIAsPQACltvzJ8ESIAESIAESIAESIAEwiZgaQHONzSvCVtvDuZPA4ArSvFkjiuiTChHRoOQlOqLiQRIgARIgARIgARIgARIIBoClrbgehluAYimVRRUCg0ABWEL9ib/a1IpntcYbK4h5WbJ+hgSAmZLAiRAAiRAAiRAAiRAApESsDQG92VGpGxYWF4EaADIC1dIF/dWTQ8p5+CztWR9DL72zJEESIAESIAESIAESIAEoidgagtudlr0gFhirgRoAMiVVJjXlXp2DABlbDJhNgXmTQIkQAIkQAIkQAIkQAKjCGALLrbiWki+obmNBZ4By8jZXMBAC8zOjpXMlPWxQG3wNhIgARIgARIgARIgARJwjUCZEQOA59tZ3HRNxxHIQwNABJAnLcKSlYwBACdVJy8gARIgARIgARIgARIggcAJmIkD4DX4X5CKwOvPDAMhQANAIBiLzMQTO1YybgEoUtm8nQRIgARIgARIgARIgAQKIGBpHF5VZcfDuQBVWL6FBgA3tGfnB2LpweOGbikFCZAACZAACZAACZAACRRPoMTIFgDUtIRxAIpXeDg50AAQDtd8czVkADD04MlXC7yeBEiABEiABEiABEiABFwlYGohzrMzv3FV3yHJRQNASGDzytbnFoC8ePFiEiABEiABEiABEiABEkgbAUsGgKyh+U3K2hENAC4o3BMbFjIcPWLJ9cgF3VIGEiABEiABEiABEiABEgiCgJVTAFBXSzHOgtCNoTxoAHBDWTaCAFqyOrqhV0pBAiRAAiRAAiRAAiRAAsEQsDQWt7LAGYxmTOVCA4Ab6rLhAcAjAN1oLZSCBEiABEiABEiABEggfQTKSuzU2dIWZztUA5GUBoBAMBaeif+labV6d3XhOUR4ZymbS4S0WRQJkAAJkAAJkAAJkAAJ7CJgazHOxgLnLrqpeccZXdyqrmpviluEnMu39dDJuVq8kARIgARIgARIgARIgAScJ2AqFpc/xXmeKRWQBoDYFV9SF7sIuQpg6qGTa6V4HQmQAAmQAAmQAAmQAAkYIWBlQS4rduY4RlQflJg0AARFsuB8Buz8OGgAKFjLvJEESIAESIAESIAESIAEiiZQYmT65nl25jhFK8VWBkZakC2o+UmbsfPjoAEgP9XyahIgARIgARIgARIgARIIkoAVDwDx7cxxgtSPgbxoAIhbSX7Wzo/D0tmjceuV5ZMACZAACZAACZAACZBA0ATMLMjRAyBo1QeVHw0AQZEsOB9LHgBsLgWrmTeSAAmQAAmQAAmQAAmQQLEErBgAPCn375LyYqvL+4MnwBld8EzzzNGQdczKAydPDfByEiABEiABEiABEiABEjBBwNKx3F11djydTSg/GCFpAAiGYxG5GNofY2bPURHq4K0kQAIkQAIkQAIkQAIk4CoBSwty2T4aABxsRzQAxK0U36uNW4Scy8+wueTMiheSAAmQAAmQAAmQAAmQQNAELC3IDZTamecErSeH8+OMLm7leIY8ANha4m4tLJ8ESIAESIAESIAESCDNBDKendp7ho47t0O1aEk5pSsaYdEZ2HGNseRyVLRamAEJkAAJkAAJkAAJkAAJOEbA0PxfxFCwc8fUHKY4NACESTenvOkBkBMmXkQCJEACJEACJEACJEACaSdgakHOULDzFLUrGgBiV7aRHwasjZ4pk2PsmqUAJEACJEACJEACJEACJBAoAUtbAMTQQmegSnI7MxoAYtePbyM4hqmHTexKpQAkQAIkQAIkQAIkQAIkEDwBU7M3IwudwWvJ6RxNNSGnSRYsnFde8K1R3kgDQJS0WRYJkAAJkAAJkAAJkAAJjCZgyiPXLxtdAX4SNwEaAOLWgEhp/CLkIAENADlA4iUkQAIkQAIkQAIkQAIkECIBSzEAfKEBIMSmUGjWNAAUSi6o+7K+EQNAUBVmPiRAAiRAAiRAAiRAAiRAAgURsLQolzEyzylIEXZvogEgbt1l6AEQtwpYPgmQAAmQAAmQAAmQAAmYIGBp9uZn6AHgYKOy1IQcxBeISDZ+GDwAIBBlMxMSIAESIAESIAESIAESSAUBT0pSUU9jlaQBIG6F+Z6NLQBxc2L5JEACJEACJEACJEACJJB2Apa2AAiDALrYXGkAiFsrHrcAxK0Clk8CJEACJEACJEACJEACJBAwAT/Lhc6AkQaRHQ0AQVAsJg/fiAGgmDryXhIgARIgARIgARIgARIggeIJmDoGkDEAild48DnQABA80zxzNOIawxgAeeqVl5MACZAACZAACZAACZBAwARMjcl5CkDA2g8kOxoAAsFYRCZWtgCIqadNEQrhrSRAAiRAAiRAAiRAAiRAAsUToAdA8QyDz4H7MoJnml+OCAJoYW5tQcb8yPNqEkg0gc1bSmXFI7Wycm2F9HbpD1jNvc1T+mXPmb0yZ99OadT3TCRAAskj4Gc9Wb+iQtavrJT168qlt8+TMs+X5ml9suiQdmme1Ze8SrNGJJAmAqaWb+kB4GLTpAEgfq3wGMD4dUAJSCAxBO6/u0l+8Jsm+Vt7mfgT1GpWSVYObOqTg5Z0ytGv3SrNMzgpmAAXvyIBZwlk+zPyzH118mc1+D25tlKe7CyV9vGk/eV0WaC//XMPaJPTLt0gZZUTPSXGy4SfkwAJkEDOBDjXzBlVdBdyXTc61mOW5N9RM6BfuG/LayoXWVQ3Zh34IQmQQPwEeno9+eytc+QXa6ryFiajpoL9Kwbk1Xt3yilntkjz7N688+ANJEAC0RHw9ff+97sb5Td/rpcHWipki5//cG5p6YB88trVMn1xd3SCsyQSIIHiCcBu99eW4vOJJofve1d0vDWaolhKrgTy7zFyzZnX5UTAv70mq1sA3NcDDQA56ZMXkUAcBHwdDHz8hvnyh00VRRdfojkcW9MrZxy1XY5641bJlGeLzpMZkAAJBENg/ePV8qtfTJFfvlwt6wIYOszQrQF3fmSlNM7pCUZA5kICJBANgYeNGACycpd3Zcf50UBhKbkSoFtGrqTCuw6ja4y5HU/u2ygcB0jxSCA0And9d3ogk38ICJekezrK5Z7fT5Xpf5gip+/VJW948ybZYy9OEEJTIDMmgQkI9HRk5E//PVX+95F6eaQvI1g1CCptUM+BGz+zp3zuMyvEMzASCarezIcETBOA1d9KKsky4JCDuqIBIG6leIIfhvvdrqWHTdw6ZfkkECGBjq4S+foDjaGUuNHPyNdeqJFv3FotR+hupXNPbpEjX7dNTB1BHAoZZkoC4RPYvKpC/vt70+UnL1ZJW4CT/pGSP9xTKg/8ZKoce87mkV/x/yRAAi4SMDT/Fz+DdQUmxwjQABC/Qmz8MCw9bOLXKSUggcgI/Pi7U2W7Rv0OM2HF8cGOUnnwZzNk0S+nyVuPbJXXnLtJShlALEzszDulBJY/VCvf/+lUuXtrufSFOPEfjvdb9zbQADAcCN+TgMsECoj5EWN16AEQI/zxiqYBYDwykX2eVQOA+zEAhR4AkbUIFkQC+RC4+4nafC4v+trlAxn5xANN8mX1OjhzUYec/7YNUtvM/r1osMwg3QR0QP/Y/zbKt/UUjwe6Jz7BIwxQj6sXwJrllTJ7EQMChsGXeZJAsAQMrcr5no2FzmAV5HxuNADErSL8MMJdvIu7hiyfBEggJAKbN5fJiu54HuMt+uC6c3mt3PWxWnnT3E4596KN0sxAYiFpmtkmlUB/tye/1Rge39X9/S9m410MeOj3TXL2onVJRc16kUByCBia/+tQgSsEDra8eEaODoKITST+MGJDz4JJwDqBRx6o1wP84k04b/xbGpH8+/8yX06f0S0XXbBRZu7dFa9QLJ0EHCfQ256RX3xrhnzn8TpZ74g778MvVMrZjnOjeCRAAiAQd8+fjxbg6czkGgEaAOLXiI0fBrcAxN9SKAEJjCDw0svFH/s3IsuC/9und/5kQ6X87HNz5IS6PrnivI0y/7COgvPjjSSQRAJdrSXy82/piv+TdbLJMfe/lzrcj0ecxDbBOpFA3gRMnc7LLQB56zeCG2gAiADyxEXwhzExH35LAiQwHoHVG8vH+yq2zxEw8A9t5fLHO2bL0d/vk7edtVmWvqotNnlYMAm4QKBjfZn8z7d14r+iRlodm/gP8Vmn8T2y+sqUmJpdDInPvyRAAm4S4BYAB/VCA0DcSvH12G0LMQA4Hoi7pbB8EhhFYE2buyt2MATc31EuD3xnlhz1P31yyRtaZNmJraPqwA9IIMkEtr5UId/XFf8fr62STsc7e5w4sOGFCpm5mFt4ktwmWbckELC0BUDnOUzOEaABIHaVeOo5a+CHzC0AsbcUCkACIwm09scbNGykPGP9H0+3P3eWyZ/v2kOW6VnjF520VY45Y4t47os+VnX4GQnkRKDlxQq5S/f4//e6Sul2fOI/vELbt5bIzOEf8D0JkIB7BGxNqW1J6562Q5GIBoBQsOaTaVbP3DHgApA1YKTIBzuvJYEEEOg25pnzWG+pfPDX02Tx3c1y/jFb5dTzWtTdmM+WBDRFVmEngXVPVssP7pomP91YKb0GqXQxDoBBrVHk1BGwNCb3fLoUOdhAaQCIWyme1xm3CDmVT/tdTph4EQlESaA7a8B4OAaQ59Vz4ZZ7muW79zfKBUe2yikXtEgJ9x2PQYofWSHwwiM18p0fT5Pfbakw7e/a3enutiIrbYFykkDoBCzZzbNG5jmhK82tAmgAiF8fNgwA3AIQf0uhBCQwgkAv5v+WBgIj5H9hoERueWCKfP2hRrn48FY59S2bpKzCcIVG1I//TT6Bp++tk2/8dJrc11Fm+af4iqJ6umwaFV+pAN+QQBoIWPIAEBoAXGySNADErxUbrjHGXI3jVyslIIHwCWT0/PAk/DRXa+Txf32wSf5LDQHn7d8mb750o1TW0O0o/BbEEgol8NjvGuXbv5oiD3QlY+I/xKGUo8IhFPxLAu4SGDDU83u+jYVOd7UdimR81IeCNY9M4RqTMbDiZcramAd/XkoChgmU6WJdv4HHR66IW9Sg8ZXH6+V719XJ2Ys65fy3rZfaZp4glCs/XhcyAR1zP/bbRrnjV83yV41nkcRUVmZoYpFEBbBOJJALAUs/U8+zsdCZC/cEXZPMHsySgjIDahkzEg57QGcaJXQPtNS8KGuyCZR7vnTppDlpaZsGRr1zeY18/2ML5PRZ3XLxZeuleU+LIdWSppl01iere23+/D/N8vX7GuWp/mTvkS8vT5BFMZ3NlbVOAwFLi3LZLD0AHGyTNADErpQS/WEY6XAH4wAkb7IRexOgACRQIAF4ACQ54dz0H+r56T+/ZS85Y0a3XHjRBpm2WA9OYSKBCAhkOzPyx7umyh1/aZSXEmhoGwthOWNwjIWFn5GAWwQseQAwBoBbbWenNDQAxK0W7I0xMv8XeACwxcTdYlg+CbxCAB4AJo4RfUXiwt50q6Hjh3qs2k8/O09eN7VHzn/TJpl/SEdhmfEuEpiEQOemUvnFt6fLXc/VyjoLx/ROUp98vi6rYOyNfHjxWhKIhYAlDwCPHgCxtJFJCuV0bhJAoX+dFSxy2UgcF9jQE6VMDYHKEjUApGiLPDYB/Gxzhfz8q3vKkVV98pYTt8rhp281s4sqNQ3TaEU3PlMlP/zhVPnZ2mppN1qHYsWuqLWyIlFsTXk/CRgmgAU5MynDLQAO6ooGgLiV4vkaHMOIBcDUAyduxbJ8EgifQAMCdvUke0/yWBQx9HlQo68/+L/TZdGvp8rZenLAaRdukvJ6WinH4sXPJiCgP6Hn7qmXH2hgv7u3l6fJnjYmlIapfWN+zg9JgAQcItBvaA9ABludmVwjQANA7Brx2mIXIVcBLB07kmudeB0JGCbQUKmDgLQuVe7U2/JsRm59rEHueKxe3jyvU868YKM0zGXAQMPNOhLRs50lcv//NMn39ejJR/vSZ0QbCzLCEdfx1I2x0PAzEnCLgKUFud7+lI9S3Go6Q9LQADBEIr6/2+IrOs+Sk3TeWJ5V5+Uk4CKBxipDqwAhA2xRT6rbVtbInf+ylxzX2Cvnnt4iy47bHnKpzN4agfZV5fK/P5gmP1xRI2uteN9FBLlBAxJlSvlMiQg3iyGBwglYGo+Xd+o+PSbXCNAAELdGPH+rWIkubMniGLdeWT4JRECgsTZFAQBy5NmnO6r+0Fouf/juTFnyw+ly5qFtcuqbN0tlDbcH5IgwkZc9+6d6+emvm+Q32yqkmxP/MXXcmLG0r3jMKvBDEkgHASvj8ax0eVfoI5fJOQI0AMSukox6ABjpdK08cGLXKQUggWgINDRyUjsR6WfVtfvWBxvlyw81yMl7dMt5b9os8w/gdsSJmCXpu97tJXLf/zTLXY/Uy+N0859UtY2IKcJEAiTgPgErW3IzYsfL2X2tByohDQCB4iwgswH1AMDGOwvJUtARCzwpIwkUSaCJAbtyItiuXlY/XVclP//ynnJE1YCcdcw2OfqMFimtyOl2XmSMwIsP1snPfzVFfrmhUtqNxNh1AXETYoowkQAJuE/AivOfr3McJicJ0AAQt1qy2W2SMWIBsLTnKG69snwSiIDAjFk9EZSSnCKy6vr9YFepPPj7qdL4+2Y5ZVaXnHbqFtn7iI7kVDKlNWldXyq/+8lU+dWTtfJM/86gfpz859UapnJLUV68eDEJxEbAikeuJzQAxNZIJi6YBoCJ+YT/bU3VNukxMoi38sAJX2ssgQScIDBrHqPdF6qIbWoMuEvPe7/ra9Uy/5tZOW3fdjntnM3SvAePQSuUadT3ZXsz8sivG+Rn9zXKvW1l0se9/UWpYPYUtv2iAPJmEoiCQFa3DftGtg6Lxy0AUbSJAsqgAaAAaIHecuGWNrmzBs487uvCyp6jQBXEzEjAXQLNjX1SruLRDFCcjl4ayMhXnqiX256ok0OrB+TUQ7fLiWdslco6K36WxdXf1N067n3xL7Xy6981yS/XVOnyEpf5g9LfrJl8kgTFkvmQQGgELHnj+ll6AITWEIrL2P1JZ3H1c/5uz1M73u1+q3hes/PC9nF/oPM6ooCpIqDPD5lZNiArGeAsEL1ji8DDnaXy8L1T5PP3TJFXNfTKCQdvlyPUGFBRw+dfIJALzOS5R2rkT39olD+urBYYbJiCJzBrvhFvxOCrzhxJwA4BS2PxDD0AXG1YNAC4oRm4yBgwAFhxOXJDqZSCBKIgMLM6Kytbd+55jqLAlJSB4HG/3l4uv/7TVKnQ12H1vXLiwW3y6tO2SU0DPQOiaAYvPlIrf/h9o/xuZZWsynLSHyZz+FHM2pundYXJmHmTQCAELBkA/Aw9AAJRevCZ0AAQPNP8c/S8LXrTwvxvjPgOxADA3qMMXS4jJs/iSGBcAjObdN9ua9m43/OL4glgXfR+NQbc/6dmKdPXQVX9cszenfKa01tkyhy6TRdPeEcOWV3Zf+JenfTfqyv96yplk57ewBQNgWleVspreKxoNLRZCgkUQcCSAUB8xgAoQtVh3koDQJh0c897Y+6XxnwlHjwVXG2MWQssngReITBnpk5PX6p+5f98Ey4BhEl7WE8SePgf9fJFfR1Y0S9Hzu+SI49qk0VHtIuXoadUPhrYsqpc/vLHRnnoyWp5qLVCWvO5mdcGRmBWBbe4BAaTGZFAmAT6DPUxvqwPEwXzLpwADQCFswvuTk82iJXfMw0AwemdOZFAAAQWLlS33T8HkBGzyJsA1kv/1lMqf3u2Tr6ir+ZviBzR2CuH7dMhh7xqu0yHbph2I9Cl21Uev6dBHnmsRh7SVf7luupvpfvbrSIJ+8/8em5rSZhKWZ2kEug3ZazbkFQ1WK8XDQAuaND31EJmZAhkKfqoC7qlDCQQMoGFB3SGXAKzz5VAi174q23l8qsH9WyGB5tktnoDHNzUIwct7JKDDm+XmUtVVynbyt6+oVSe+Eu9PPpkjfx9XYU83VsidDTPtUVFd93i2TRWRUebJZFAEQRMbQHwaAAoQtVh3koDQJh0c83bmgdArvXidSRAAqETaNKVu2adaLZkuV86dNh5FrBGdbKmpVJ+oS/5S5M0qaF3qZ76unR2j+y3pFP2PaRdavdIztnr/bobZcVjdfLUo9XylAbue2pbmbw84AlOV2Bym8AiBgB0W0GUjgSGCFhaiMuohzOTkwRoAHBDLXZ+IKYsj24ol1KQQNgEFtT2SYsGqWNymwDOrL+/o0zuf06DNj5XK/Lz6bKH58tCDSq4aFqfLJrXJQvUMDB7324pq3LbzXPji5Wy8ukqeX55laxYXy7Lt5fq8XwlQkdyt9vgWNJhE8bCg9rH+oqfkQAJuEbAyjjcV2evunYEOWdykAANAC4oZUAtZFbcQq08eFzQK2UggYgIYPL4MA0AEdEOtpj1Gul+facaBVaqUUDPuJd7mge7gxlqGNhTAwzuWTcgc6b2yfTpvTJ1Zp/M2LNbpszqldKqcLeNbVlXLi3rymTj6grZpBP8tZvLZPW2UlnTWSqrdN8+T4wPth3Emdss9SCqauTGjDh1wLJJIGcCdsbhm7zzuOMrZ71GfCENABEDH6c4Ox4AveEOOsfhw49JgAQmILBwL92/u6Jmgiv4lSUCWPtfp4aBdd1l8rC+ZJNuIXh6Vw3gUD9FH8WNJVmpLdVXmS/1lfiblQp9X6OvjL4XndjVVvji6f+ROjsygtNcpT8jHX2e9PV70taTkXbdl9/eo+/1s23ZjGzRrQv6liklBBbx+L+UaJrVNE8AR3Hb2QJgZ25jvmHkXwEaAPJnFvwdXkZ/JEas771uu6UGrxzmSALuE9jnUHXfvbvZfUEpYSAEMIdv0Ql6i07WpRcv/aAjkKx3ZMLJf4Aw3c9q0R7053BfS5SQBJRAj6ExOOKbMTlLwIrjubMAAxHsiu1bNR8bPXCvEUNFIIphJiRgg8D8ed1Sry7jTCRAAiSQL4Gl+wZpPcq3dF5PAiSQMwE77v+oEg0AOSs2+gtpAIie+agSPU8j8PiycdQXLn4A16NBH1IXhaNMJJBOAvoMkaU8xzudymetSaAIAhgE7nckAwAWgZC3kkB0BHosLcJlbcxrotOeUyXRAOCKOjLeGldEmVQObgOYFBEvIIGoCew/pyvqIlkeCZCAcQKLEENiCs9uMK5Gip8WAqbicGVWp0UtFutJA4ArWhvwX3ZFlEnlsOWCNGl1eAEJJIHA/svoxpsEPbIOJBAlgWXNCCDBRAIkYIKApW24Wc/OvMaE8oMVkgaAYHkWnlsmu6rwmyO+09IDKGI0LI4E4iKwnwYC5AM9LvoslwRsEli2mJ5DNjVHqVNJwFIQwEyWBgCHGynHi64ox8/YMQD0MNiYK82GcpDAEIHq6qws0HPjmUiABEggVwIHHLU910t5HQmQQNwE+gzFACjL0AAQd3uZoHwaACaAE+lXniFLGT0AIm0aLIwEciVwyJ42DhPJtT68jgRIIDwCM72sTF/YHV4BzJkESCBYAlZiAPjSLRe3bwq28swtSAI0AARJs5i8LO2V6TZkgSxGJ7yXBIwROOIwRvM2pjKKSwKxETiY+/9jY8+CSSBvAgjAnTXigevJy4MnnOVdSd4QFQEaAKIiPVk5FZa2AOhDiIkESMA5AgcfvV3KnJOKApEACbhI4KilnS6KRZlIgATGImBq8c1QXLOxWKfgMxoAXFEyXGWyYiMaD04BGDBihXRFv5SDBCIgUFmRlWW1fRGUxCJIgAQsE8Dg77DjWy1XgbKTQLoI9FjyvuX+f9cbJw0Ajmho0FXGEztnZpp6EDmiZIpBAhEQOGIxV/UiwMwiSMA0gf3KBqRhFo8ANK1ECp8uAt2WvG95BKDrjZMGAJc05BlymTH1IHJJyZSFBMIlcOTxjOodLmHmTgL2CRw514bDoX3SrAEJBETA0hGAXtbOgmZA6rGWDQ0ALmksm3nRJXEmlMXUXqQJa8IvSSBRBBbt3SnNGUsrBYnCz8qQgAkCRx9DQ6EJRVFIEhgi0G3pmN/MC0Ni86+bBGgAcEkvGVnukjgTyoJopEwkQALOEdDtRHLULB4H6JxiKBAJOEKgSXzZ+wieGOKIOigGCeRGwJIHgAw8n1uleFVcBGgAiIv8WOV6nh0DQJclS+RYsPkZCSSXwAlHMbhXcrXLmpFAcQSOnNIrmVIG8i2OIu8mgQgJIPi2lSMAfemWl7vWREiHRRVAgAaAAqCFdovv27GYmbJEhqYxZkwCThI4QqN713kc4DupHApFAjETOPHQtpglYPEkQAJ5EbAUdyvjr/Bu1HPNmJwmQAOAS+op61iunnk2Ru2wRvbbENUlFVMWEoiCQGmpyDHTuA0gCtYsgwQsEajRIcYRp26zJDJlJQESsBR3K5ux482c4pZFA4BDyvcukQ7xZL1DIk0sSpelM0knrgq/JYGkETjhaAb5SppOWR8SKJbAq5t6pbyGfXexHHk/CURKoNPQttuMIW/mSJXoVmE0ALilD1HjvB3LmamIpK4pmvKQQLgEjjppm1RzG0C4kJk7CRgjcPKRNAwaUxnFJQERSx4Avr+CKnOfAA0ArukoI3biANADwLXWQ3lI4BUC5eW+HDW195X/8w0JkEC6CdRq9Q87he7/6W4FrL1JApY8AHzPzjzGZGMIRmgaAILhGFwuWUMeADQABKd35kQCIRA4macBhECVWZKATQLHN/dIWRVjc9nUHqVOLYF+azG3Bux4Mqe2UYnQAOCc8i0dBch9hM41HwpEAsMIHPvabdLAbQDDiPAtCaSXwMlHcfU/vdpnzc0S6DQ11u6R+u7VZlmnSHAaAFxTdon/jGsijSsPTwIYFw2/IAEXCJSV+XLKvE4XRKEMJEACMRJo1gBDh76uNUYJWDQJkEBBBEx52/rPe+eJKYtFQTpJwE00ALimxLaO51QkO+E+LQUmcU3XlIcEIiDwhjO2RFAKiyABEnCZwGlzO6W0lEf3uqwjykYCYxKwNM72vSfHrAM/dI4ADQCOqcS7VvTw7qydCJqmLJOOKZvikEAEBBYt7ZTF5TTIR4CaRZCAkwQ8leoNb6Qh0EnlUCgSmIyApQCAnk8DwGT6dOR7GgAcUcRuYniGLGgddpwVBhn36wpIj06GYLiA7Hjhfa8GWRng6shu7ZD/SQyB0w9sS0xdWBESIIH8CBxc0S9z9uNWoPyo8erEEfB1jIetqyPHfxgTYmzoarK00JbN0ADgajsaIVfpiP/zvy4QyGaeEM8/2wVRJpXBNcskHvAImAK5uvVB36vvh/5igp/LM75E10tK1TZWrq/KEpGKne/xt0p/MvieiQQMETj1nBb50sON0mdIZopKAiQQDIEzDtkeTEbMhQRcJYDxHVzlB1869uvWMSAm+/gck3u8svqaKGFoh/FduY77KjHu2/m3Wsd91frei2Hs17OzDhPJ7dJ3GUMLmC5xi0EWGgBigD5pkZ7YsaDBMolJdxwPRoDEQ327Tmva9dWmD/wgDBLoMAa0XrAKt42YMuH5X6EdQY3+dPAa7Bj0r37ERAKuEqhv6JfjpvbIHzZXuCoi5SIBEgiBQL1avU84m+7/IaBllnERwEQeCz3w4MTYr2PneK1YeTTbHcYCjCXHyAzjvTp91ZaJ1OurNAKDgC0v2x5Z1bZiDHL8yEEC2pKZnCMwoAYAKxNKPIhhBMCDMaqEFf2tGiqhtXfHpD+qclEOOoghK3OLyoAE40etKqyhfEenABYR9As7Cue/JJAbgbPPaJE/fG1WbhfzKhIggUQQeN3sLimv1T6aiQSsEsC4C4s7WOwZXPDR95Ot5odRV8iA14buHbnX6lgP475mNazDQzSMFMSiVhhyjZmn/6x3o6Eg5mPWIT0fRjhrSw/Uomvqtz8nfk2vTiL1yWIgwRIbtgEAq/KbdcKNSbdrFlF4QMD7AC8kWIXRKTTpq0GtxBlaA3aA4b9xEjj4iDbZ+7sD8lyPFetinLRYNgkkg8AZDP6XDEWmrRaY9MMDc4su9GDBx8U9+u065sNrjboLwCMUhgC8gvQMMGUAoPu/pZ8pDQAOasu7Svr82/3luoy81EHxRos0+IAKybUY3gWwtmLiH4fFd3RtJ/8EHRXkxQv7yaYomylqDKhTYwBtAZPz4xWhETjvmG1yy/81h5Y/MyYBEnCHwOHV/bJgWYc7AlESEpiMABZSMHZyddI/nvxYmMJrtRoDYASYrq8gFsZcW/Aar/74nCcATETHue9oAHBOJTsFQiANXwwZAAIGiYfe2i6RbWr9tZzgubBJDRh4lamL2FTtFGZU7nhvuV6U3SSB15zVIl/54xRp8WmJMqlACk0CeRB464nc+58HLl4aFwEsmmzGOEkn/pbOvB+LFxaqhsZ88ASdpeM9xAwoJLl+OsHIOmUNxS8bKXsK/x/SppUUkgy6yln/saCzDC0/BGAJKmHF/zk9suypVvuT/5FMEJF2nRo1/rFN5IV297YyjJSX/08cgbJyX87aW9seEwmQQKIJLCzJyhGnbU10HVk54wTgPYqx0D+0na7SlXPrk/+R6kCcqqf1BI5n9YWxbb6pkHvyLSPI60vLHg8yO+YVLgEaAMLlW0zufy/m5kjvHQoEWEyhsAC/pK6KT+jkGA/NJCfEDICLG4wc6By2Jry+SdalwbqdfdFGI8FFDMKlyCTgCIELDm8Vj+E+HNEGxdiNAPbNY6HnSR0DYSxkZXvnbpXI4z8IXIixLca4/boQlGtCfC0zyW+VS1tfMCMuBRVuAXC1EfjeX03tF4fLflWBow10AC/jwagT47QlHGGzXF8IIDO7ekfQwLQxYH0jJdA4tV9OmdUlv1hbFWm5LIwESCAaAtM8X04+b3M0hbEUEsiVACb+q3Ssh79pTNgagNgGc2p2bAedjMHIY6gnuz7W7/2/6YFYKRzExwq9qMLpAVAUvvBu9q7s2KC5rwuvhIBzLiRQCVziYQWGC1gaJ//DVQB+z6k3wDNqER86TWD493xPAgESeMsFmyTDvjpAosyKBNwhcN7SNimrymOl0R3RKUkSCcCV/Xkd6z2t45u0Tv6H9Iqx7os65sV4D2PgiZKpEwDkbxNVhd+5R4AGAPd0MlwiOz8orGTnkxDc7wntDJLu7p8PE1yLyT+MACu0s+ydpHPIN29eTwI7Cey1sEtOnKorEUwkQAKJIlCjhr03qoGPiQRiJwB39xd3bu20HtA5aJitO7cFjLcFFEYTUwtjGTvbloPWpdH8aABwWnGeHQMAHlaIeJ9LQiC85TrBzWcvVC75JukanH37uO4Zw0kIiBnARAIBE7j8wo30AgiYKbMjgbgJnD2/S2qnpNTFOm74LH8XAWztxBgG0f2ZxiaACT7GwogNMHKYl++i2tglRPep59EAEB3tQEqiASAQjGFlMmDnB4WH12TbAPCwg8s/zkkd+bALC6HlfBEYZ42yQrBAa52BZe4pkX3+Pl1y0hQGoEyJulnNFBCo1Y71rZdi9yATCcREAItBcPXn1s7cFYDYAM/rloDhK/7tytFO6pTa9mftiEtJQYAGAJfbge/b8QAAx4kMAHBnh2s7Xf7zb3GIBPuMdg4IlEhvgPz58Y5xCVx24QZ6AYxLh1+QgC0Cb1nYIQ170KhnS2sJkRaLOmt1wQKR/dO+z78QlWJLAMbIPTsn/h15bqstpMzA7vH+4Z0npiwWgVXdcEY0ADisPO/t3St1xmcnlO94D/0hizD+MhVGAJ3rBrUSI27CRIaWwnLnXSklMH9pl5w8lROGlKqf1U4QgQaty3mXcfU/QSq1U5WhMd4ablksSmmDHHWxB2Ppbkvj5aytxcqilJScm2kAcF2XntjZBjCWmzqimMKqyYB2wbQ0dApwr4OlndsogmGa8lwuuwReAExxEcDhqYcNZOWC/n45p39AZtLLJy5VmC73Eo38X9PMvf+mlWhReCxMYJsiFyaC0d7g6VhqBLA1vrMzTwlGS4nIRQ8fZ3KaQNb7q3jyWqdlHBIO+5e61dW/cud0Aq7rz47Y1zR0Lf8WTgAdAyztODFgYZ1IqVd4Xmm4E+0Skyo9pHYwYcY19D4N9Z+kjvMWd8kpM7rl1xsqJ7mSXwdFoFwzOnxgQI7Xif+r9C9Wb4fSe9Xz80elJfLl0jLpM/jTbtaf2lvUmHFidkCm6u9ujXZg92l9fl9SIs/xdzek5kD/TveycvblXP0vGCri7QwdujPUV7BfnRgngj7jOLvxothPfDe/nYhArgG1J8ojyu8y3iNRFseygiFAA0AwHEPMxf+zzlZCzD/grNvVnbhSJxIwBHDyHzDcEdlt15kCLO8La0VqUvpTxn45tDV4RnSpQaRPByXwNsEJE3g/3moqJiIY4JXhpQarCryUIYxXVWohqICVID3pqivXyR9vmS/dlp41BtVzQDYrp+sq/0k68cdxbWMltLzz9Jqleu0/lVdIu6HH/3Far4/09u5m0Jiv9Zzf1y8X6WtVxhs0BPw6UzL4fqz687P8CbztkDYpr9FnINPYBNBPwL0a/QRe6COw0oo+YshAPNad6CeG+gj0E3hfhX5Cf6XoJ8r1szQmsFyuizvoe5nSTcCXDlnZ8US6IdisvaGhhU3AxUrt31Y3VUqyG3VcbkNXzRUic6t3uKmzcyhW/bndr4NqmVcjMlXZJzlhlQZ747DVBBFyESRneNTcIOsO40C1DvTq9FWv67U1OthL+OrlHZ+bLXc+p8YkpkAJTNEJ8Ov7BuT1utI/bzyD1DglPpPJyLvLy6XLwNMf2xfep5P8zDiGjeFVhOnjUa3bz0pL5Y8lGWEUiuF08nu/ZyYr3/ns81Ka8Md/zlTQT8D7cLu2KnjJYRtimP1EbZlIrfYTMMLjL/rjJCccUYyVf3BmIgHJ/sG7outkgrBHIOFPKnsKGUti//bq5Tr5WDjWd859Bos4LOXcDxa9amap4WV2VfTlhlkiVmoQHXebDjrg8RDXoAODugY1BDTqYK9R/ybQPbS7MyNv/cBC2ZhN6apWwO14sa7gYyX/teoKX1bEWPkBnSh/qKJMPZTd7a7fqMaND/b2FSThdr3r57pF4L/1tTHhRraAm9hgdv9y6mY5/qyWMLK2kycm+Ogj8EJ/EWc/Ua99RMPOfiJpHgLrdOshjnFmIoEhAr73Se/t7R8b+i//2iGg5kom9wkMbgOwYQDAhA0vpugJIDBgt652LNBVXMsDaQzmcFzk5h5dwdHBXBGTp8CUgAHlVpUHLyQM8uBx0aTGgISs+FRWZ+Xq47fJTf83ZUcd+W/eBDBFP0Ynw2/Rif8hagAIIh2j+Vyk+X1TV8tdTIer2/8HCpz8oz71+gO/UGMGnK+vu9UI8H2NFfC8Gj2YJidwZHV/eif/eCbDKNyC5zL6CQc6Csg0ZIjAsb3wCGjSfqIZRmPDbRpoUZ+NGvCPiQR2I5D9827/5X/MEHB3ScEMwvAF9e+ovUZ7ty+GXxJLSAQBDDoW19tbpYZr/0YM5nTyH9cKTr4NAJ4A0zTmxTQd5CUgbgDG0Fe9f6E82e3mZDNf9UR5/bE68b9cJ+r7BDTxHy67OjTLuyvK5THHJsYztMF8radHGgKee8Hr4fayUnnWsfoO10nc7+FV8q1rVsmcA1K2Iov9/Ju0n9ikk9GwXPuDVi6MxFPUCDBd+wpr8XoQkG552w5jS9BcmJ9tAr5abwcy072r2uwcV26beKDS0wAQKM5wMvPvrD5EfEbZDIduQnOt1j3re6sRANsxXE6YOGDCD9dC7NW0mvAkhTcAtmEgOJTh9NTDtfKOO2c74XhhAeNROvG/Qvf4L/WDWfEfr84b1KvnUjUCtDni3aOtXb7S0xuKwQMM8Gi4T+MD3K6eD8tpCACS3dIlczvkqo+s3u2zRP8Hgefg5Yb+Ao3DaoIBYA/dqof+wvUROILpPquTf8t9s9V2YkFuX5733t6xtwVRKeNoAo7PDkYLnMpPXu58TDs89b9iIoEcCSAI0tN6QgBWS1xNcN18YpvIigQMMDAgRXCkJ7U+WC3BYNVoWnp4u5wyna6ek6lvoa5+f14nwJ9R9/ewJ/+QBavt79Ege66kd/f1hTb5Rx0xN8KpAl9Xxh9XxtPhnsI0SGCG58slV69PB43BiPP6TMWzFc9Y680A8ZHQ56E+6ANdTdjK+bRG+ufk31UNxS+XL3T/j18LBUtAA0DB6KK70btR+nU0xHM2o0OejJJ6tAN/Bkf1ODYZRZAmTPxf0EjCrslWrOYxOMUKFQZ3K9Vmh6OmDKb3vmeNNOkkg2k0gQb96L06+f1ad48cHoK7/+gSd32CkwQOjbjMXaXveneYTszP1u0OUSQYAk7Ven+vu1eu1jgBVWyWcu2rt0hVozvGoFDaAVaf8QzFs9T6qv9YgGDYQB+IvhCxDFxKOMHJxbGDS4woi8Y/QnwyJqsEaACwojmPljYrqnJKziErvgsr0pDhWTVIPKcvF+QJU1GYpCBg0uM6uMNeVWOpYWq/vOfELcakDldcHG93lk567+rqHozuH8dGD0yGr+vtL+pUgWIp4aDIj6oBJGrv5Urlf5F6QHxXYw7AMyCt6fDqPjnhLQnfcosAsHh24hmadIPP8H7RBYM45HnGce/BtP74Xat3xnvQNZEoT+4EaADInVW8V2b9++MVgKWbJYCVFFjz45p0w3UXe/yf0kGFaysdYSsVAZRe0lWswQGVrUnLqedulqPrHFuZCltf4+Q/X9vwl3r65AM68cUEOM40V2MNXKIr4XGla9UdH9sR4krYCvCp3l65ReVojlGOOOqvoUbl/W9PsOs/PKaeV/d4nDNvJcBfUA1h0DNO+0gcsxdXu8bKP4z0Rj3XglIF88mBgO9vl5qOx3O4kpc4SoAGAEcVM0qsgYp71BIejc/lqML5gXkCg8F8tGOPeoUB+x2f3DmosRLZPwxlt4HDVpENtla0PvjuNVKT+CW48RWOVf7LdLL9dV11XuaA6/2QpBcP9Mu8GCYJOOngdH25kE5UOeANcIYj8kTB5Kpl22XuvgmM+g970qDHlD4jcYxeWhN+0zCWo89E3xllwtjgWS2Xk/8oqdsty/Pu9c7jnMSuAnUHh2Xh0yS7d9XWVvW5fCxNdWZdAyaAjn1wX19EK9EYyCCIUFyeBwHjKzo7zJtwljK2QMAgYyBNn9sj7zpcB4UpTDN1MP5FDUD3dnU7x5FrLiXI80FdAY/SDR+xDz6kHhAupVrl8GHl8FnVU9K9AZaV9cu579jgEv5gZMFKP56J2O/vhm0pmHoVkwv6TPSdMBhHkTD5x9gAWwaZSCA3An/K7TJe5SoBGgBc1cxYcvnyx7E+5mckkDMBGAFg5Q/zdIChAV2crow5A4nhQmyDiGOFp8Cqnvm2DXJYZcSrUQXKGtRtJ+mqsmur/iPrdpB6JCAoYFTpnwZd7qMqLb9yjlQW31AjADwUkpgqdY58/ZXrJFOSsAkaVrnTuDUsl0YKb4BBg7FuiQhzO0Tvzsk/V/5z0QqvGSLgZ2kAGGJh9C8NAJYUl/H5g7OkL1dlhZUfKy5hdPhYucCADvsZmcYnAB1gxSWqFZ7xJZn0G097ieuuWSMIwpb0hAjzN+lE9xP6wuqy6+kalbMxgq0AMIic7Pjkukk5/JvywPGEcQRoDLOtXHtoq+x5QMJc/3EEHla5wzRGh6mUqPJu3XmqTBjH8cGw8KwaGMIYC0TFh+XEQMBvl4Guv8dQMIsMkAANAAHCDD2rbOm9WkbClgBCp8YCxiKAYD/PacePIHVBJRzV9LRGbuaALjeiiImAFZ4X9eV4fIQ5i7rl2lfp/twEpz11Avlfuqf8NY5PdIerAG757wk5ICAMDO/XbRAWErZEvFVPaviPBG0JOLyqT954RYIC/8FgBXd/HIGH90yTExgyGAcZHwF9PwL+RR0XaPLa8grnCXj3eVcJV3mc19PEAtIAMDEfp7713r59iy7CMeqmU1oxLAxWFGAECGLyuUlXc1bAoGCYR1yib9Z9noh8HaQxJoS6nHnhJjl5iuo5gekYdSG/Qyf/CwxOSF6nE97DQzwW78O6oo7VdUvpwEF99soB+tdyqtMO//r3rhF44SQioa9ZrhN/BPxjyo8A+gf0E0F4jeH3/LxO/sPwKsivVrzaJgF6I9vU225SJ6Vb2a1Sif5PhnEAEq3fqCvXrkbcFTogKyatVdfUl7CaU0wmKb8XcQFgjAlzr2cAiD/4gdUyO5MsRV+sE+h/0yP+LLj8j6fC63SSjiPigk6nKZvjQjQuBC3v8Pym6STnP/S4wFMMeXQMlx/v33/CFpk2LyFGN0xgsfUsyFXskcDS8H94jSHAbjEJRhicTMNEAgUR4P7/grA5dhMNAI4pZFJxGHhjUkS8IE8CGJBhUFFIWqX3rSlyMFJIuUm8B8YYx89grm3sl5svXCdlCbD2oPP7J3Vtf6dOnjPG64PtC5cG7KaPCfR7Q95eEPbPGKclfFzjAlyu9cD2AEvprOndcsr5my2JPL6sg3vNdfLPSef4jPL5BgF2VxUYE2KlTv5phMmHNq/dnUCn1HU9svtH/J9FAjQAWNNaaek9KrJtv0ZrzNMgL9wK1+fplolBSL73pIFlMXWES+YzIZ/SUIx8eu8+x7TJ1furt4LhhGB//6b7xM82PsEdroILdLV+r4Bc3jFZ/qhOnOvgKmw8oS5XqHHkejX0lBqpy9KyAXnfh1YZkXYSMRFgDs+0qM+1n0Qs81+vV8N7vsZ33LMxIR4l5hVotAKef793nuiqEZN1AjQAGNOgd2lbi07/HzUmNsW1QGC1ruYjkF8uCQaDYt0QcyknjdcgQKPjngDnvWudHFufY1txTIcNOqf9orqGY99/khK8MrDaXR5ApS5Qw8gRCeOD7Qz/EhCfABCPm0Wj6vGW96yWsuoEtM+hlX+cDsMUPAFsv8u1H96iz2sY7ZlIoCgC3t1F3c6bnSFAA4AzqshDEE9+k8fVvJQEciOAxT7EA4Ar+kRps64gFLplYKJ8+d0uAj06+A/6lIZduRf9ztNl1es/tFqmZ2xNUhDM7j802N8+CZvcDil0b63fe4rcCnCU7pl/Z5F5DMnj2t9jtW7/rp4f8ABxMWFAduMZG2XG4jy9sVysDAL+IWgdJ//hageTehypOFFqV8+yFxmnZyJE/C5HAj7nHzmScv4yGgCcV9EYAnre78b4lB+RQPEE4PKLQdt4R/lhIIEjnJjCJ4DtAMtVF0Gc0hCCtA1T+uTfrlwrlSHkHUaWzdq2v6iTv4Vo4wlO2NZwUoGB7+ZoW7tpMCZCcgEdqsafz/f2OBn08R17t8vhr9ejVK0n/MYQaG4yY7L1eroiP46SRSDZsRL6cvTpjvYjY4nMz1wl4G+Qyzsec1U6ypUfARoA8uPlxtV17fdryHXtXZlIIAQCcNvExHOk1yZc03F0EAcSIUAfJ0sM6nBetqNp74M65IZTNzsfRA8B7b6kbv/zEz75H2omH9VJ/LI8vRxm6u/6c8rI8mkIQ/Wf7O/+WtfPqBHAJU+A42r75KJr10wmuo3vMSFttblFyAbgEVLiuYZjeEca7oeODuy35ak1onb8rzMEvN+q91+yLejOsA5fEBoAwmcceAk7AnB4fwo8Y2ZIAkMEOnX2/6IOKIYe9Zj0Y4Dh+DF1Q+In6i/iMji85eLVZ7XIO3Xl0tWEPf+f14ktVrfTkjCx/bTWGVsCckk4ReDLev3MHK/PJU/Xr4ER4FatcxjHJ+Zb9zm6leZjH3lZvJJ873Tw+lxc0h0U27xIg4Z7fQ4PPefw04fxmFswzKvWoQpw+7FDyihWFBoAiiUY1/2e99u4ijZfLsJCl2vTr9LRVm2ZSJ3Ghq7Q99jYzLSLACaea3YGDcIEFC7pTPEQQNBFxF5wNF34vrXy+mb39i1XqwULK73zhwbFjvILQyys5H9OtzxM5gmA77+k101P0eR/iPchWncEBozzWMsGz5dPX7tKaqck4PmK4+VyDUo3pAT+DY4A+uih4wHRd/O4v93ZYoyHsR7GfBj7YQyIsSCHfrtzGut/vnamGfn9WF/xM5sE2Oxt6k38r9XtI9ns00bFj17sEm3qU3Wtp14f+njwl47T9HFkEfYt4rxi7Hfn0UUi03SX9yb3JnfRN6KYS8xom923QaRaBy0Opr4eT973kQXyaJcbh60hGj4CvmHPd5pTn45uv11aIt8pLZWuYY+9Rp3wX6KR8d+sMQPcbFHRae23JSVyc3n0ZgDtieQLF6yTZcfp1irrqVu9xp7S4/7gds4ULwH22Tv412Civ3Oyj0l/2ThrnvCewLgPW+4QUJGejmO13797V3QcMtYX/MwmgWHDAZsVSLPU/h01L2j990ozg0nrjon/zCqR6TqJxft8U69OHrASjtVXroDnS4/XB02gXKdq+6kRYDwDVtDl5Zlf6+ZSufLGBbJmoIDfWp5lTXQ5Sr9Z3btPGkj35H84o041BDyiz8Bt+heu/gepYcQNU81wKeN7/w01kPxXWXRE0EZvOKlFXnvu5vgqHVTJiBfztAYvpLt5UESZT6EEqvU3jMWeKWoCHm/CP1HeMGBhwQOeLDQEDCf1KTUAfGT4B3xvm8A45jDblUqP9DyPc0Jdw/K7f+MOA0Ahk39kDvewGWo8wKQLecGQgJVYJhKIg0AvYjPovk5HF9kapvYPujPDrTnOdLkeY8fJ/+4awHaI49QgcoaeEHAYJ/+7w9H/XaqeEG/QV1Tp6v23J2PyD2AvaXwYTv6jajosZyQBjMkwNsMYDWM1jNkKmfwjX4wV99BFI+RVBx8dph0EuO04aS2BBgDbGv2NbfFDlL5Brb9L6ndM4IMqBvvF5tWIHKAdAzqIQo0KQcnDfNJJAPs6N7q7JWPe3l3y7xevE0w440gn6wT3sggncnHUkWWGQ+ADajg6OIItIxfM7ZALr1kXTiWizhWrpVv0mcREAlETGJqsL9MxGcZmGKMFlWBAWFK3w5MgqDzN5qOnjnW0P2BWfAo+JgEaAMbEYuTD7ioYANQ3nWk3AugEFtaGt1IPr4A51SLLmnYYAhg8cDf8/E8EBBBp2+EVt6VHt8mnztugwdWiTftqsL/rNagbfXSi5Z6U0rAB4BPafsIMiPiGGV3yrg+vTgYyHDs3FHQuGTViLSwQwJgLWzsP1DEYxmKFrvZPVleUs0DHkogdlebkyW+9aznXSFoToAHAsEa9azbh7K0/Ga5C8KLDIrxYV/6jWJ3HPmx0PnAVa0TIMSYSiIgAotrjiCeHI7cfemKr3HzmxsgCzNWrx8EtjhzrFlErYDEhEGjS39QtOBkgBAeWE5p65UMfX5WMA2fAB9uRGPQvhFbILMclgLEWvDD31LFXFOO8ISOAo3F3xuUU5Be+9/Mgs2NebhCgAcANPRQuBX+Yu7PD3q+KiJt1pZa3WF3F9lbDA94zkUAUBBCUcq0GKnI4vfp1W+XG120K3Qigpjj5WG+/7OGwQcRhNVG0EQT2020A7+vXiOABplc39MhNN70omUwIloUA5cw5KxxNitNymEggCgIYW2GMhbFW1GM8eBhg22c6U1ay8qt0Vj3ZteZsxbp+BwZ+pgtfCRlRFKkMWGjjfEg3qJsYvAHgmoYZCRMJhE1gnQ7CHT+d4qQzt8jNagSAe3VY6QLd83+s7v1nIoGgCJylRyQGFUjy6Lo+ufnml6U0KZ7E2H6Ec+aZSCAKAjjWcKm6+2OMFVfC4hK2f6Yu+Q96V3ZsSF21U1DhNLbmRKnVu6rrZa3QY4mqVKGVcSEwH9zF4Jq2SK3UUbinFcqK9yWDAFa8X+pw9lSAIcgnqBHghpNbQvEEOEBXa6/S4G1MJBA0get0S8m0Ir1KXlXfK/96y0tSVp6gIylf1mcOtiExkUCYBAa3dOpYar4G+Aswvl9BIuOkgTgXmAoSOoib6P4fBEUX86ABwEWt5CtThj/QQWRNevarKwn71JbqcTRBRqV1pW6Uwy0CHTr53ezuqQBDsE5682akd3sxAABAAElEQVT51zdukiB/pZXq/HR9X1/sY8OhOvJvsgjoE1xu0PaVKdDJ7jVTeuSTSZv8I+L/9mC3RySr1bA2gRCo1Bk/xlAuxVeaksJYTwOcXwTSnh3MhAYAB5WSt0jZAQbowETbtf336MD21Q4sTre1vBsTbzBJAKcC9Lu/InfsaVvk0+evl6B2U16tK/9zuBJpsslaEfrggay8uT//1fszZ3XJDTevVLd/93+XOesCvzU8a5hIIEwCterqj7ETxlAuJcQCqAlzM5tLlR2UZaX3jvYnnZOKAgVCgAaAQDDGnMkVXQ9rkI41MUsRb/Eurf4PJwEXNmwHSKPleDgHvg+XACb/q9Ut10A69IRW+cLla6TeK25ihPPazy5gYmYAEUV0jMA7NCDgzDy2AlywsEM+8LGXJVNSXBt3DMOOoKM4+o+JBMIigLHSEh0zuRp13yWPhLB0MJSvJz8Zesu/ySNAA0ACdKrbzn09VyjdUTqrHbMUD29X2Du2QDs0BLJhIoGwCGzqcT4g4FDVlx7eLv/5nlUy08t/ZRV5DLn+F+qaPSQH/5JALgSqdB5/nW4FmCyhPV57cKtcc93qZBz1N7zCPfpbReR/JhIIiwDGSBgrYczkakqTB0BW6F3sajsMQC6Hf2UB1C6hWfhfa2yUbG+1+KX66m+QkkytRuR5lfjeLQmt8uTVWqYRYqM+GmZyqUZfgeBJHESN5sJPgiGA7SY4KslIal1XJh/+1Fx5rDc/t8p3quv/xRr5n4kEoiRwU3mZ/LZkbGMz4pP/swa6PFljXSQyrWgTwf5/JhIIgwAm//M02J/rs5JeNYT9Y2sYBNzK0/O3Sl/nnjLQUCFlPY3ildZIZkAVlKmTAU8732yblJZul/6+Lukr75CrW7cNLka6VQtKMwEB139qE4ie3K/8GzXm0OzaJeJll+jTcJEuJSwWGdBXRl+yZ3JrXmDNYC0+dEqBN8dwG40AMUBPUZH76N7Juvwm1HHS6e4okRtvmSv3bsstwNJcPyvf7O6TsgIDs8VZV5Ztm8AWFf8tVRXSMWKW0qjbWW69eJ3sd7ROkpOYcNTok61JrBnr5AIBHLE3V+eWVtLf9EkwkLDtPSPZZ6VLZyL5hevxZb0+Gp/TLcnP673Ldf6if/3nZGXH096Nog8RJpcI0ADggDb8uzSIdWv1Qer2dLz+YI7Xif9xupqvS9pMORFAAMD9G3O61JmLcHTbJrpTOqOPJAlSq5N/BFAylLC9+jtfnim3PVGvY4eJ02f0aLajNDAbEwnEQeA7paXy5bJdBrZFZVn51D+9LDPn6RacpKbn1bCxjav/SVVvrPVq1nNhFqgTq6UEYxiMYkw5ElBvAcncrxf/Sec390hf18PeVTL5nqocc+dlhRGgAaAwbkXfpZP+Ktlee6Zay84XP3uSrvK747cLw6alloE9WTguxlqiS2U0GkMwIXiJIII1rPZo30lP2AZg8PSJh37ZJDf9Ypq0jvMAOnFgQG7p5bgh6c3X5fr16aPkwooKWaP+ric19chHNdhfVXWCDVLt+nt7ervLKglONvQVqleBRdLAqSrBVTymnBBQD0GSFbmp9IwaANoMGQAw5nGJsT/oRHWfSvV9qaj4sXfRlpQ8YNxq5S41CbfIhCDNoGv/nLpjtHe5WCf9b3Fq0h9CfSPLsr5Mo8a6Yz/Jud6YkGJlhWcq54wspwvh/o5TIbASjuCQGNANJQzsevXVpoPaVl3R2qZ/k3iMnFWjmOpp/VNVcv2XZ8szA7vvtVZtyrd7enjs31Bb5t/YCNxTViIvLuuSS969brfHS2wChVnwMzo2x/MyaQlGYYwdmvRVoy8cIzy8r0C/0K2GnXad6G1T7w700/oRU0AEwH6x4wH/xqvqc/qbaE3gb2K8+ob5uS/dapy4W72evyn17T/1zhO6GoXJe1jew0bGwz7l20AJDAbt83uv0Qb+Ls14VqCZMzMRWJHRkVhMOFHpWbUmdxiyJrvKGccHzaoWwZaQXBM8ArAVY11X8lZ89tbfRENu++pzxRXVdX3tGfnSrXPkh5t2nZzxJl39v46r/1GpgOWMR6BZH9rv3KR9ToJd/ofqnsTVf6zyY8/5dN3enM9Rczj+cK32E5tToPch/Yf1FwZqLNrgmGSLabku3GzlPDV41flb1Aj3VRmQz3lXdmwIPn/mOJyA0V/f8Cq4+96/s3aaWox14p99rzZqY5vU3eU6SjJM/BYaNQCgMnA1hEtZF89XHqXbXD7A6Q97qf6LCXwHHazSuAxJGtxZ9YwZpvNff3uafPr+Jn2MevKD7h6ZlsdZ7MOy4VsSCIbAoToBvFyj/Nck2OV/OKmkTXQwVkCwubIiTsDG3u8X2tlfD28n+byvVAM9YtTkY3zJJ/8oroX+W2gIChE14N4lfsnN3tu3Lw+xnFRnTQNACOr3v1E1W4/J+LC+rsg7imYI8iQ+S8seAEPKwdEyT6kRoC8lA8uhehf7FwO6+Tr5z2PRf8Ii4eaJzj0pethPB1rVcJ63m577e7U8/r1pcs5Gu3Wg5MYJlKmB8LxtIq9N0VZVrHg/pnVOQsJkE4HmgvKIwvaAlzsZyDfftgHDy7668l8RVIedrwABXc/4TQGBnDQb7LP4jpSU3uK9rXXFpFfzgrwI0ACQF66JL9bAfuWyveZqjXL5CY06ZnhJeuJ6OvetwajnYzLENgDst0zinvQxK1zkhzPVhXNPdfkPOmHgi9gMSfDIsBhheSx9IvLaXU0id+tjVcfeTCQQGYFZOga9Wlf956TM5Tcpx9VixRlBUeEpFnTC1rHVaghgmpwAYi4s0ed3re79t56SGhfDXb3AEPAV6S//uHfVVl0pYwqCAA0AQVDUPPw7a14jWe828fwFAWXJbHIlgBVOrHQmIW3RQSasy0wTEwhr8j9UKmIDwP3VeoBGBLVapruPykMY/A6xivLvY7p39xtT1f3S+ApSlMxYVmEEMvoMOE2fAWfpKjg8ANKU8Pz7xxY9NcV4pbEtbJFO/sN0N6cRILdGAg8MGKSTkOCtybhN0WvSl/W6nfrd3hXtP4q+8OSVSANAkTr1vz2lXrp6PqtbVC/XF3kWybOg28t1MnCgTnKSktbqisIaXVlgGpvAdJ0EztN9nGEneGLA0m+9ow/bWBK2Hkbm36uP2Z/q7/1/4Q3AR+5IPPx/AASw2n+ZToAXpHSf73oNjIqYKJZTlIHm4AUAQwDT2AQQnHe2euwlJT22VaSH2zXjU6f/I43j8S7vknZuDCxCCQlZFiqCQBG3+l+rPlx6uh/Rff5XcPJfBMhibx1I2IMYnWVSLOXF6nbk/djuMTcEt/+R5eD/cFmE62g+pwqMlU/cnyGwYZIWMMu1MufqAOx6DRI8G56BTCQQEAGs9J+lq3s3rEvv5B8oN6sBwHLCkX54dkcVZR5b0RoS4Noehs6bNE5Pkib/YISgwUwxEvDO0ThNj/t3VJ8WoxDmi6YBoEAV+nfUvF9d/u/Xg2MXFZgFbwuKANwV+xNmBJivK9xJ2CsXlI6RD9w4F+mq7/CzmoPMf6y8UCaOmAzThXSscoP8DAENWxO4f3mRGjZuXrvDGJA2F+0g2wfz2kEAx/rdrBN/uPyrnTG1CUf/WY5/gmc1Jv9RP7MXaD+RlK1WQTV+eGHA9T9JCZN/jDmZYibgTdfB4C/0tLVP+DfqMixT3gT0ScmUDwH/C1IhNTX/qfe8LZ/7eG3IBPbRGADFHAMXsngFZY+J29Pqgo6gdEw7jnpE1P840jadQCMwoNXUpHsvFyVsIDZcF+t19e1Hui3g4Yi8Q4aXzfe2CUzR4Ktv1FX/V+vpHxxGirykrv+bDHsAwGCLk4HiSNb7iSCZIeI/YjMVc+RikPIElRcMZBiXMblDwJdfSUnZBd5l29R6y5QrARoAciWl1/m31U2Vkuwv1N3/yDxu46VRENhLJzdTExJgZjgvngywg4YLRz1a3ucJr4mDdIJcmvAZztMaH+L7U0RW0h13+GOE78cgUKEGVgT5O10n//Qg2QEIcU8e1e01Vlc499Df/5wI4sOM0Zxe+YhHxO3w0ttHDTFJ9GJsUU8hHBXM5BYB339KMv7rvMu7VrklmLvSJHw0GBx4/2uV86W0/z5O/oNjGmhO3QldJYcL3byUr2piL/7cmAd1aKzYx1htNPq8rwN7xAJIetpXVy5v0G0BV27WVcCEPhOSrsOw64dRz7G6yv1v2k7SGOF/Ir44hcbq5B+xWsI4FnYiXmN9BwME+qw0pzk6Zkni5B86tbw9Jslt0vOWSjZzv24JWJrkagZZNxoAcqDp316/SLIl9+pTfUkOl/OSOAgk1QAAllN1VWOavtKaZmjdwzjDOV+eWEWfr54mVsd2GNynIQ1N8D6lEzy4dlcmLD5IGnQYVh3310jtN9JANC5eq88IPJMRNyfK+DDjQUQcAPRZaU3Yppfk+nNLprst25M5ks3eozHaDnRXSHckowFgEl34t1fOU5P47/SyPSe5lF/HSaBd93EmOSHyPbwB0pawkoJj/1xJ0IFL8uTDBdtJ0jR4wcT/bN0S+LnVOwIF1tAQkE9zSdS1+6lnyD9rgL/rNqo3ke7hZRpNACv/242ygYHcpRXnPdRbLKoTCEZrMr5PKtULA0byJKekjzWt687zmsXz/8//avWh1qsStvxW17LC5jKYv/+NqtnSl4Hb//xICmQhxRHYX/c4Wz+ybSICmLw9pSuaaTqCBisJLrj/D9cLBso4B9iiHsAyyaszw/U08n232rvv1cHpLzVC+DajWzlG1on/H58AljeW6Yr/mWoE2isl3i/j05j8G6t7mxHtf1mTexPuVZ0i67X9pSXB4LFUx2A4gjGpCe7/T+jzhMl9Ar6/ST23X+W9o+0594WNR8IE/1KLA+rf1tSgk38E/JtfXE68OzICrUZXL3IFVKGTFhypo/1satJ0XUlxLWGgM0s9MiymrSmIAzCeXuAR8FqN3vzpNXqGS4sIor8zJY8ARjWH6+TrFnX1f5+u+HPyn5uOrbr/41ns4mr79AQGJZ6oJWHlP8mTf9Q9icfpTqRTy9953jTJZO/276yaY7kaYcqepqlEzhz9u6RKttf8Ridax+V8Ey+MnwBW/+EFkPS0RlcV1uoAN+mpQSO54zxnFxOC6mEloNuYWzme+AfqalnSjmYqpI30KYxHdPLwBx24PufQNpNC6sJ7dgR9xFF+J+iLxp38WoQubMrft+hRR/pcs5RgFD9Aj5pzYe//WNxwdCyOBkx6wpYHBP5LekKfzyCAtrTsyz9koPx476qt6j7LNJwADQDDaeh7nfyXyPbaH+kekjNHfMX/WiCwjw4G6hK+Vx5jtOd1JTPpHg8L9RghBBRyNVl1mcVpBlY9GMJqC+v1mXGvtrc/qjGgg45xYWEOJd/F6tVyij4PD1GjKHd2FIZ4o8ZIWKknI1hL8IhrdnilfatO/perESDJCeOtJTDCJLmSWrc29Rh7hnNIk1r2sn8Ur+s07zLRBx3TEIGEz5SGqpnH3/aaT3Lynwcv1y7dpL/vOh0UJDmho91L6/ikdkZ9xlagc9ULgv81On6W+xQdeMIbw1pgvQ06YcKKTdqPqhreFvfQwd25W3ccC/cXXcn6rXqerHTY+DRc9jS+r9Ln3pE64X+tTq5mp2CFNWwdbzA4LsbqP57BLid4sWF7gtWjFSdji/gLC9RwijFJ0tPGFMVzSJou/cwJ4td+QaT9HUmrWjH1ScPPNmc+/u3Vp+uT7Of6MCOXnKk5eOEBug0A0WiTnuABAE8AY16bOakFK//wAHA9bdLJ9Evqcmwt4cisNB8tmYu+1ujg/WHl9KC+4CHAFC+BMn3QIZr/4bpSfZgOxisSavyMmjJc1OGqbi1ZeYa9oP0DvMWSmBZpH92UAkMptvo9oQbiJI61ktgux6uTL2/z3t7xjfG+TtvnnOju1Lh/W9VctdT+TfeSNaetESSuvlYmj0GAT2qkYXg4THV8dQf6y+qI4B86MLB2IkBa4mUE8RtDHq8YA9Q7YL3jnilB1dmFfIZP+g/VST8COTIFSwBuzXBvtpSw8oxYJha8mBBccYVBA8tk7cHFE3omk7nQ76E/q0EyC61zEu/LSpdk5Gjvio5/JLF6+daJBgAlpvv+y6Wt5l59e0S+AHm9gwTQqvdTL4AkHwk4hB1Bm55WLwCc8Z6khMFduZG92Kt0RXK9QRfaJermXs/JbN4/mxfUMPWwGgIe18CBq1Ow+pU3oCJvqNWIdFjpP0Qn/Adxpb9ImhPfjn4DR8taSzN1C9OeRoLOwTj8KAIsWoM8gbzV6hG1r/YfFgwwE1Qjp6869TeC7ZZMCSGQfUa6aw/3rtlk0HUzWBXQrxE822v/WZ/OnPwH27biyw0d7cs6KcMEJ+kJ0Y8X7owHkJR9hjDcWJn8o31N08GoRQPAWp1c0QCQ/xNigbrz4nW+3rpdjVTPqiHgSW0Dj+nfLexS8waa0Qf2XN3OhEn/Um2T+ypbfMYUPgGr59Rb2r4Eb4UqfS5gIpmEhEk/xhxpmPxDX/CyZEoQgcw+UtFxq1boXQmqVEFVwVppqpN/e+3+Ovl/RHf9cyknaS3B9SjyQfJOUrRhDO6wv9NSeka9MNp0EmMtpeHUjKh0gjkrPAKe1Pb7lBoEluv7TiNeLFExQjmY3O+pk6F9dLK/v076l+iEn/v5o9TAjrKwr/lx3b5kLbl8POx4LBEnBvFikpCsbM8LgrXVk36CqHuy89CHX+Z474q2+5JdzYlrl2oDgH+j7gaZU32PBv47dmJM/NYkAZx1joCAiMKbhvSSej3gFATryUpwp+Gcre7zbNRJ6mIDwRaHs7b0fpt6s7ykjF/SbQP4+7z+Tdsxg43q0j9f90Ev1mfT3joJmqfvy7nCH3szflEnpZsNTkotBp5Dv4z+2XpKU3wleFQ+vi25Jy1Zb4tFy599Vjq6DvSuFYMPwaIrP5hBuv0V59Reo6v/nPwH05bcywVH5K1R9625xlaTCyU5V/dEtusqdJcOuC0n7C+0lpp0Lz1cPa0FA0QEcLimWmRuoY1g8ot97Hgh+dpG1mpbeVGNAav0LwIKbtDXZm3z1j2E67Wue+jzZ4ZWZKb+3UvbFib+OLKPyS0CvaqTFtWNtYRnrOvHw47FtEZ/49YTjl2cr67/aUmr1WCT1GOW06LDCeuZWSK11R/SAdDNE16W4C9TsjQ6WoP+nbXTJJtdrlH/U7BRfHT9U/VJmoKdYTL3FI4GNLzCdogexKFjDXPJqgdGmlZ1XG1UWe2KW7TRwxiwQY0BQ4aBLerF1Kaft+lfXBNnqtRnSqM+X+p08jhdJ/h76Pvp+sKkH/+vMvzMiZNrHGWv1MnNRoPeYtN1e808gwZ9nBbzN8OBAPHoWdKgv32DxvlCfl/b9Xn2rI6jmJJOoEcyA/t4l3W/lPSKjlW/lPyax6h61v8IJ/9jcEniR3B1xKkAWD1IesJK7izdfwzPB4sJ2zYsTv7BGhNpi1swsH1htq7eVloFb7Ghj5AZ++Kn6WQaL41KM2YaMgTgL4IPbt9pGECcgV59IQ1tL+jVZ12/vrD43rXzO3yPY/WG3O+rd67Ml+tfLFB6+h0+wwS/TtsDXg3D/o97mewTwKqm1f3oVs+cR8A89G3wvLCYZqp3YVom/3D9T8J2DYvtLHqZKyRbcoMWe1n0Rcdfoj6V0pf8O6pn6WrKco0AoDMlplQQwJnyCF6TlvS0HlvTrpMJawmDDASms5gwP8JxT9a2AYC1xcCLFtsIZSaBuAkgqrnF6P+YQB+kx8NaTVYDxdZon4wj/3DiUBqS1dgYadBNGHX0ZUBPtFjmXd7+VBjZu5znsKUBl8UMWrYMwv9x8h80VpfzQ7AjRMpPS1qgxg6LwQ8xyLOaMD5qUkOTxYTfR4+u+DKRAAkklwCMkxa9lKCRBvWwspwsHW07xBmeCxhLpGXyD284i4Exh/TFv/kT8OBzmv1E/jfav8PwaLsw+P7XGxbqBunLCrubd5kmAMtuj1EXvHzBI2CPxeCHpcYfSRYDVKFtIWbEOoN7gvP9XfB6EkgzAaz8w8XZYkKgVcvJ4hbEOer6n5atYRgb4rhGpvQRyHpvUs/ww9JWceOj7QLUNdB/rd6V3tgHBSBLzC0Y+KxoU2Of0QFQvorAtgdreyYtewBAP1ilsrjSA9mxMthNLwCgYCKBxBHA6v/GnadRWKscnqnWPQCsGbcb1OCCoItpSBgTLtexoVXjWBp0FGYdPVFXF/99YRbhYt6pMgD4X5qmvkz+pS4qgjJFRKBD98WvNhogrxBEOLbn/7H3JlByXWmd530hWUtmarUky5Il2ZYt7y4KuunpobqbfYaGok8PUDBMUYW3crM39GmGppnBrIelOUBBAcZLLWxdNUDBsDPDAF00NMOBqcW75VWStdraMrVYmfHm/4tUWKFURMaSL967333fdxSKyBcv3rv3f++799s/S0K19RWJMIDNRsMAmF+vGRUQRnk2/DeOQJ0QeE37nlX9HoIoa6tlshSSh7dCnUr+7VNVDCooOdUXgbzxNfkHJ7fWCQDr7PZwY7XqrIT/zGiGseG66mcvgsBhWTrrEufFRm4p+WEKsYYwq8ROWqQ3lAvAGSGLI+dtdgR6I0Dm/yN6ti0SewJJSq2TpS0B4d+qJ9uw8wRe0OqzMWxf/fzeCGRhhbyDH+h9Qnrf1EsBEJr/Jr0h9B6NhAB1kKdV67UOZMmVzxKT1Gvu4Op5tVEvAHlChoPuBdBraP24I2ASgQN6psnzYZHwqLIYP78Qayt7G3uXtdDBhVgP+jc8ILygkyPQQiD7pvzhVlHcWuBRGwVA/uiaz5P1/85ajKp3sj8CrZgvJXyxWpe3fw8vP6OVzKc2j/vlfa/ir60qMmKF4VuID5mQCZVxcgQcAfsIUN3DssdbXeLQY5hpWP0tJg8eBTu8YvaKB6xLTqhRMKrfb64Nyye+rC7dro9E0Gh+TV0G1fs5IAJsAM/XJCkgLunXr4lfKDVqpLpixq3S0mo5aRUWQydHwBGwj4Bl6/96JVVdrYo2KZDYjegJ4T8Fb4t+QOMNA+8HD+jkCFyGQPbVl/2Z8B+1UADoWccW968THkfv2qgIEO/8orTAdaA1Kn4RuzUlJW08XgBW6aS8AE67F4DV4fN2OwItBM5JwCGvh1W61vAauhDz2EMwLFYNWojxoH/D87mX26Bo1eu8PP9X+QdDAklH+g9bLRQA4fHV/13Iw87+cBg6g8Q4aMbXqlQLL2K2eE3pM1nfrbofVzEExyXskCG5DnQddX0jfuxTKsODwmXScMXR/R4bWYclwfuYMAIH9Axb9api7ZwyvH4unFYxV2Cok+s/vB5hbk6DI4BMwfPYljPacgcySAqJmzuRyLK1IZ/44s5DqX5OaHVddIi+atFvrXzJQ9hO0DI5wINH7N+MXiQ64R2NZ+xa6KrGgvJnqy8ucFW1oYz7Egpwg0IBnjkZJ2OYmkseXgAvyNXQIk1rvTiltYPN3skRcARsIcB+b1nQsexB1W2mxLy3kfXfUpnCbvgOcuy4vGG81G1vpBDmJyRboHhD4J/U3t/PYIRMgXyBIe114RvzPO/d8wXftMIAfn/BweT+rIcCoJl9aYjY6Nl3VrEwb5fldouysw6jbVupB5nXRnkGQLhXnxRDz4uHddbjn+aB0f9YSV6SoLZy/fwC+NYXCX5gcScUgHKIsVESm0cHqGjMeQZRxlmkV2VBvEPPhHsUWRw9b3OdEaC2uVVaKYaNtTMlinVvo8QilYJSpzPag1+S679Vj5hxjQ85H8i1wWutXmJXhiJkEnhKXtfJ4EFJxQPysrDszZmHLx0KA6MnJ8/W5Y+u3RiyuaMaH5sqALRwN1GTddinss+MZBHEwkd8IK9ZXxVbiOEKd9u69GvgorV9Ql4A5yITTCc03+8Q/inRUSlaXjbMjO9SYqjYc0ekNF+8L47AUhHA8m/V84i+36A1Z1NiYbhPab+NLe4c5TT7berWf6o9PS3861L1qd/6wXjjTbxRL0IVi6Y3xVdSYSG2+T5MP/NlN2f3n9o7zE+snWtTKB4G5cbsP9PpNvuJRu2WtcUL/+CH6ocHH+b+bRtC2C23cHf1nd8gnjuVvkIErS1MVmyEQiI1XRTJlWC0rBJZxC1r863i7u12BEZBAOWu5fwdrJUIJ6lRbMp28IX/S134x7gFT1d34R+eHx7/RhkU3y6en7Efh/DPvMJgieyCDGOWZv+52aYP2HCbgvGAnWudlucoAOwRcTc36wEqY3EmLpwwAR7Yu+XuS+xdHUrB9JoVZyWEPq8NI/V8CSSMvCYyKwthKmiPUyKULVsjw3kYfAkVOuhlAYeBzM91BCpD4LA8+s4bDu+D/xgm1LEyoIe4McJnbErUOrj+w8PBy8HT1ZWQIeDz7hJvD4+Pcq2M54v7IsMQzmORssym7DgE1kZHZoge5o13DHF2HKcifN8st6wqhHC07zuUbwCvgF3SFPZLABIHYsW3gvCIFwy7bQ+KCFUBYrNOW2Zee+GOFwBJPK3SIYUxWM1jYBVzb7cjMCwCWDsPGq5owxq5ScaI1Cg26z84s/enTvBw8HJ1JATvnRc9fHmvgs9DhrmlIllmyWOe25Mdh+yzYY60f0+l/MtClt/R/8zIzrghAsEbrwCSDt4pRcDNCg8gF0HdiIyxrySuBGCccQWLiSzHjfXCEZwt17TGkkIogJMj4AjEiwAlzizn82GNZK1MjWKzQLPnV2FgKnNc4d3g4epG5FG6STz7XeLdsfyX4UW8GMYoIq6PjMdcrL1vfZfdmD8cktaSJa0ACL+8eod8XSRNGyLcssjGGQuxF9Oe26XFu1WvuuUJOCLLJ0xVykQG4JhiLlNUADB/NkuhttzwkkuJn9M1taak/Px739JAAM8pMnBbJazSrJEpEqWYYyH4udQqLCzEliz08G51IgR/cnmR1JHxjUmPtkHPNbKNLWqEFZN7bDV5uNYa5kYH6Ojyxq0DnBXPKQgHuN/HSiQMIYZoj17jSh4SY9+xfJLJPWXCRSwW4TRVBQCWLcu5AJj/+xNXhqX8jHvf0kaAkp2W89awNqZo/WfWUSc9BsIabNIaOwR48Gqv1chbDe/cPRcF/3bJ7yHgKu1UZBtrXid5uK00fCq4UdoKgCyzpQAgJqtqd51BJiEWY7wBCA1YbTi7+SB9bZ9DGbcTKq2UKrEwxxIKQMKkFPMAMHcop2dtE+yc81iyKDHm5Ag4AvEggGeO5f2JNXGz3P9TpNZ+FokCACHMci6afvODZ8Byyd1+/ev8fpV4b1z98c5dJ4t/7IRssy1iA2c3/JrGZMhufVjkWNoKgLx50yJ9j+sr6s+TKMwS4Up2pzKLkrOgigQjZWNFXdOUE8qgPY4l/ORkokImm2BslReGfY7wAqBag5Mj4AhUjwCP4j7juWpascrVQzmWFsSyl+G1ac8Ne/AhgTeDR0udUODgxQHvbS2Ug7xilhRQWX5zytMpbQVAyDabGTwWZskGJgnFxZ3SQqJdtuDBMCrIuFdSTzZVF3VwwQsghjE8GVHM5KjzpdfvrpGlKwaMe7Wv33GqARxOPCSmHwb+vSMQCwLk5rC8J7WUoola/5kjpyLYywituF7W4lSJ+Q9vZjkEpt/Y8JxsF49NqW6r8gLlB00poZpb+g2L5e8TVwA07SgArjbgwrPYTG/FN2sTv1uZR0094It1qst31PJlo4ktq2+Xpo50CE+UGMoDwTSlamVuMbxS+FkmYiy9LKDlEfS2p4AAGf/3Gc/LQey/ZYXoYvMIgTQGZTbVFVIt6QwvBk8Gb5YiYRhsGdkk+G/TOFrPk2GpzGfeuDrFKdXuU9oKACuDR5mMVFzoieVruyelWjEApusZbTix1fZtP9VLfUeBMyV3wSoJ4T8GxmlcGGyVJj+WpIuj9JHx8YSAoyDnv3EEikNgv1z/Z5UzxSrBL+ARlSqxh1UtmE4oVvxa4wrnXvODXEHPihezXPqyV984ToK/W5V0mzBbjDMpELKOHXnHFQBm51wWNplo+xol1UuNSA5IxQCSlKSycHWOEUzXc6fTtIKicb5eG07VmuY3DJe06pwr3T7r8TBfEYBkgCkrabqNmx9zBGJB4Izcno8aXyOxTKdq/WeeVJ0wtb2X43qdGpFcEeH/gmEFWK8xIU7+RvFgJPibSlA+qNrA1Av3hcez4AqAhZiY+TvPJYEaIDwAUiWSlNwl1yU2+tQIF2hcz9iIUiMUOFVbDU5EYD0Z57iS+Mq6csx66bFxjq9f2xEYFwJ4O1vPds7aR1WUVAkvqRMVK2jwrsCKnBph8Yf3SjEM7Wpyaoln5j1VooKBDZrIHwoJPkDz4CcseaqDWWCbjJ8sZcUcBU0sycSV3yFtZmqb0Tk8ARJ1QUNpU2WZRxioqi0oo8z3QX/Dc2GtLM7CvhEGc8gTAi6Exf92BMaKwDE9c5YT/wEO+0vVXmbjHCT2Li2PlRGGpe0JGl4Q/p89mV4eJkI1bpPNEsu/5VLBg0z4q0x5pCRo4ZsfpNQVAMkO3CDPWHTnTEiRdpuUAOQISMntjyQ0uKJVHetX9IDjNkjsWZV0WMnmUiYS4tiJh+s+Ep4QsDsuftQRGAcCCEDW82+skLCzOWELJ+N+pGLF6K4IwviKnv8YBfaK1zpTpWal4E7BZ5HcL1V3/25waRjN0PcbMSSPAGjaCoDcyMDVSU2B4o8kcxZrmC72gBGPiScAG1RKhMdGlXXrUa7EUEZpXGPa3vzHdf0yrsucf8V4HfIycPJ7OAJFIEDYjfWkZ1imU4xLb4/vtMLXqvTQgMdal1jseLsM82nxWqnQOkJkZRSjvF/Kz8PC8bLCJkuG1LBYae1ClPv+nbYCQOJYXwRiOCHFOKZ+uBL/R4LAmxNKEjitjWmvEgOmVouW8A0sNlVR6jXnifXDO8YykQww5XANy2PjbU8HAZShr1ccV75UNFnrUo5vBp8jFY4RIaUxlPJd6jzp/D1KZpIupyL8w//uFu+7Ry/rHoCd4zToZysyT8LCP0OVtgIgz2z4D6fkzjToAtA+b31HkkBTYUHtDix4RxB6XhtVSp4AxGneqLCNquiEYimrtKaMu9/M+x1SslinFCyT1sfA258uAuwp1hP/MToIpyns9b1mGqXpqqxgs0t7dUox5BhUXphOxxMQ5dcdSvK3UbxvXQnPThtUcRzPeEFKWwHQCEfGC19BVz8joTElgXFYWNpJAskPUGXSuWHb3et8lAB4AqQ0ppSq3FRhzCZx5inTWuFr3WWTckz7zqQ8St43R6A6BFLItcEaZ32d6zcDDmgNrMppmKpLvFIheKi9Ev4xAlgnkjLWJcnfYmPFmNox6BxerCvWv0tbAdA0ogBAGZZynPOgTwnx5iRC2ZpA5tqWEkAbV0pKgB0VWhZgAMizkDKlYBkjO/lpKcCcHAFHoDgE8BK0Xm0Dq39qrukLR5iqKFWFaBClt7NCT72FWCz177blPwXhnzxK5L2aSiwvwyhjjKxjJWF2bkSGHGUc9Ju0FQBWPAAYvKo2jREnzth+hjcA7tC3ShGwyvj0PCmhFde1VHIC4FZYJQOXunU5ldhY3JRTmfNjW+j8wo7AgAhgTX45gX1kYwK5TvoNWZV7FCVliS1Pgdg/UrD8E99/q0r7oZhJueTlMHPOkqxjSYYcZgwunpvIatGj581gx32DBFpWEmP0gLvQw2vkDYDGlFrBluMF0V4/n5AnwCZpsqvSYqM5Pi48U6YUsgFjBdufeMhGynPQ+xYXAgflUm7HZbY7dmQ4T7EmfWdv2Z+qslYTOllltZ5OHIr4/KJ4pqqwLKL9XIMYfzxaCZ90mkfgTYUJHjfkIZhnh1IeurQVACF7xdTgWXfxKxpsmAYsznukQbWcKTUlTwCUMbs0JlURFpaUrctYcFJg5A5LAZBKxuaq5rrf1xHA9f+1BPJQbZXi2PIe3m8msieRBLUq2jWVRhk5vF3In2S5ogx7ONWtyPKfUjLGIub2IfEFpvi35r4iuh3rNdJWAOThqViB79quo9ro7WTH7NqFsRwkQdod0qRWmYRuqR1Dm/1CIq7RuKpXJaTiJXMgcevyNnm9UMrJMsHIvSQrjobLyRFwBEZAgGcoBdf/5VrL8ORLmTDeVMW7bZZyBY9J68R8f1HCv2UvP6z+ZPinupXT5QjgGVhleczLWzPgX/kTA55o8jTjXGYfzJuZrcFjAdxXoRa5D5yVfr1MpucbpOVGs2o1zu24agO3cgJUimQxN8dVvSohFS2ydZfYxUaBuX5dAgxzS1nj69liQ+3fOQI9ETiYyDrHWsaalioh+FdVpabqvDxFjinCv1XLP+Nwk1v9F50Orxg0gDWusiVDLjoAV36ZtAIge/D0MZVjsRXDQfb4oxIUnbojgGYVDavVUjdot9noUPZYJhi6qjIOgx3W5ZQqLCycC1fLqoOnhXU6QlWAxKs3WB8jb398CFDxpCqhskg0WMOwUKdKVe9FJExOwc2cmH+rwj88KfmqrPKkZTybeDdbq3SWh3Nh8tSLZcBT1T2SVgC0QM0NunAQS3ZOyTKcuiPQ1rbeYDSzKhtdCkoA3N2qqumM1YV6y6kSBrNdCZR0gkF+WQqvlJU1qc5B71c1CPCsoOA0FSvbA6qqlMQ9mlP44SoTNE5JuUJSXsvUVqBYygzfxpus/sxvvFKr8oZstyXm9/OSZSx6Nmfh6exdaQcxpq8AWNb4bzE/G13bBgPw/Ck7tTK7dqKEg2x+5AawaClNRQmwU2EZVZW3Ie7Scrxgv0cEBg8li3VCmflqwsoa6+Pj7Y8LAXKckPzPOrF2pRCb3mscsGhWlY8mFQUxbuHHDHq8UnXhNiWnrioXUq85GdtxlrGWLBNbwwZoT57bkx0H6FbnKekrAEL4884Om/lMwoyWFcBMi6tp6CrDCzFKAMbYMq3SErK1wnh18EvZW4YqGFTDsE64AFp18bSOvbffDgKEy1BBwzqxZuGenipdkFITt/WqaIuMHxYNH228sPy/LOGffcEabV5p1/BUNtYvyfuvquSYS+5rw6bsOES/01cAZNN/rXhrg6uMRhHrpkXXmSEmYCGntl2x9lB2xdiUxvXNuqJnm5iRlRXhPidO4oWEXcwpnZVKBu1XxDBTB9jJEXAErkRgVmtZCqFh9Iyyfyu0dqVIhGZQqg4lQBWEuzlJeC2TReG/HXp6fSIlF8c9fyjZbNVDM5fU2Ah/MW6Iqr5+RVx7ed3O7pHwnzX/prw7Fnynw9JdkA3YqT8C6+RyeJdCAni3RLjAtco9WWp0R1ux9rApVkUkzKK6Qqp0LQqWBJjplAScVOea96s6BFJRkFGl51rjAupiswDhdbrCxKbkhrFcVYF5fsyYTa5VitoT/S32WFz2HZWaeNmlT2X3Th+12/zBWp68AqAFQ5b92WBwRHrWfmnSbD9M5QGLBwCeALgfWnKdtq4EYIOsMgvuCXnLkDwzRWp5uCTCUKfi4pziPPM+VYcAAlEqITI7tVYloK/sOhlIPFtlzDpJd6vcZ7uCMsRBDB2WasHDQxKGt0fx/lbLTw8xPIWcitES679lysL/Y7n5g7a9HgqAucZvDwpItOfxQKEIcBoMAeLSb9eiTYy6FbKuBCAjbpWMHxtPqooySg3xSoFaSc4qtKClgKH3IR0EyGHySiJ7e0sRrBjpFIlwvSpLM7YUwRV62i11TFHQWypxjdfdLeIhCcFLIA3PUodvoN/jrZyCISZPQGYcYMAMSUcD9KbHKdkD008rouOTPb62cziVh6ssxEmSc/sGW5nUUQKQGdcioSHfVrGlGiWZxcRCg4w3ljVLXi29+kSVE/I2kL/ByRGoMwLtZ4F369QKBZMSOEVqJeyteF8mFMySQaNzHiAUoqC3QnhZUGEq5SoWRY8FvFcKRsosvBruO/3XRcMT4/VqoQBoAd8IvxHjAAzdJhZRss8mwC8M3fdRfoBFerdCAm4wlLgFAZY4Q4tjfI205VVmJwazVoIhKVJSIywSJFxMgbB64g7q5AjUGQHKY5LDJAVqJYOt0gVsTCAe117S4rkq3JCrrrazFGgRCq0I/1j6cfm/STyj5TwLSxmvUX6LgiedXGW/IV1mhQ/7KAMw2m/qowAIzd/QkKYxqLiikS04BavBaPN2+F9tklsidVutJFNDCfCqQQGJDZQkRVUTiYZS9AQgtIXSlykQVjUrjGEKeHsf4kKAfTyVNYoqMFWWgx3XyJJb5gWU8RWzjjtlwCAEwBoh/FsRDOENb5PVP5WqO2XMlbYHU0r7eJ6IsXiA8a+NAiC79+w+xfF8YgBMbJwC8/z0qRDOz9lobwytnFRIAG5dVpLokCzHYjzVlHBG4VIlwa8RSpHSxgSeMIExKFiKGlsYxJlELKBFYeLXSR8BamPjqZQKUQXGooC6GP7wWHvxtqxY+N8od3SS/1kjS8I/+XVuF28Ij+g0GAKUwXxGMgjPSTKUP5HdN/OpZLrTpyO1UQDM45C9vw8etr7GdfApPYBk1nYaDAHcunDvslIlAAHWohIAN7qqXejg28DOekbahTObRFswhSlQy4IgJpsSgU6OQB0QQGdPDoxUPPhYi1iTUiKs1oxR1cI/SpUdEXjUDTu2VoR/nCrgVW4WT7icP5wGQmD6gmSPk+kp77PwswP1P5GT6qUAWDP9OyHPXkxk7Oa7MSst3LN6EK24WcUCPu6KhASsMOBObVEJcJWWlqoTArbnGpUB9ibEcNMvKi6kwrDgxfSSwXCX9vzyd0dgGARe1lqEB0AKhJKXtSgliqni0jbxKdbKz1HlxQI/2ioZfTHLf0rzd9x9IXTpGa1hb0r2SIny/GiYOvNrKXWpX19qpQDI3hW06+ZpeQEwwhjP0Li2Ese5Ja3fpH/r+3ZIgAXrBUoAa5bsaxQGsDoSBctxuak9J28Z3NZSIBQsFi1DvbAn1vY1rWFOjkDKCCAYpeQyiycda1EKRFWS5yXYxFJKlrwK1xhL+soabmEdXyOPlTvl8m+B94vl2cIbBo/KqhNijguPrPELkhG1QNeHElm5hxiwFTOPSmJ+Y4hf2DmVhEKeF2C48cKKukda4O3StMfuAQZjgqLHClEWKiYhlVCZJ+Utg/taCkSeBYuxob2wx3KUknDUq59+vJ4InNS6Y2n97jdKCFGbjQmovfqERwYuzSgiYyE8KyzlVUC5xRoeO+GZeKt4vlQUV2XgjbWfeP/Ucipdwu58aOS/dOnPenyqnQIge0+QCqvxc8kOLwm1EHJw03EaDAEEfzaFm7UpxO5WzSZriYlEQN1QcULAzlnQTlxjwUWxs929PpMQMBIni15NHOo4pQFTcY8equN+ctIIUPaSmPJUCMGU0ropEEL/0+KZzkUUlsG+SWI6K2TBONHK/6Q5i7HHaXAE8J588oQMJynnGst/Obtn5tDgoKRxZu0UAK1hO7f6P+n9YBpD2KUXuLLhpkNcbUR7WpeWxnWITZdMsFXWsR8EESua9nZfduBdEZF7BVEyKFF4Rqwn4qJ00faEYnBZu56ToORJAdtPj79bR4A5vVfWM95Toe1SmOOibpkYDsLqcPuPaWzYKy3lVUD4jz08kVDEO9bHZYyI/dnB5Z9KSuRPSno/bp4OzexHYh+OcbTP+Ao+GiTZtxydDln+0Gi/NvSrY/ICaGnuEnF5LgP6Vi1YeQJUXcauX1+txNrRDzCNsbYuXjJYfs4bzwuwRW64axIqX/SmtJatDNz9HgL/3hGIHAGETBSNKXm1kDtnq3HXfwQacsLEEu/fOY2J+19lxK3LQm4iqlRg2LGusOqcI+P+3A6JOaKw4uSp8aPZAzOHk+9mlw7WUgHQwmHqzGPKBfBEF0zSOkSG7WelwUs3dqf48Wq7N6KFj8hwfUVHibezkHCHhl8rpgZFQGx0Rs8HSrKYYj+HxYg5uiuxOtynpLTcJ+uDkyNgGQE8jSyvLQuxxzpt3fWfXDBPaM1njYmNyPhP5n8LBE8Zc4li9kWSVO5WiT9LuRSqHvujGA5lGIE3Sp2a4UCYnXl/6t3s1b/aKgAyKgJk4ed6AZPUcdycWahbcW7GrZ1lDgya+FulOY65DI8VJQAbMPV2YyTcP3EDPWAoweJCHHFxtG6VW9gnGMwjnstkISz+txEESMobo4V5KfAhnMZS2WWUfuD19aws/7FWg2GPJFY9dmJuxyz8t5M7U+7ZaTAEeCbgg8jDg/t/HWhZ/ovZg8Ew47e0QTKw0iytg71+nT8+9YWh2fwtxSYrMKhGhCDGJs7CWNvRH3K8WRj3alGMOXs8jEOMbvYLoYb5itHy0m4nSh8qF1h8NtizUfKRCDQVYhxulAUHN04nR8AKAieVOAtmOiU+mtw4tys8LqZ8LsPMh5a7ugwhsY7JlPC9TQaH2OmYhP+XIvbOYp7eLI+4FRF6HMY6tlTfeUU8btKx/l3Bl0Ywe0923/THun6b+MFaegDkj06+V8m//qh2wj+TGW8A3BKJfyM8wKk/ApSLuUVCCLHWsRJjaiGzfexhFTCJL8K4x8olLjIBEZZxz03J3ZFhIIY6ZuXbIkPiX9UQARRwqeWwYE25UWuLReGfNQRrNa+Yl3UqusROxITHLPxvEo92m5RULvwPNpMwbpF0l/WqfsI/GK0Ur/fr+WNT3zYYYGmdVTsFQP74xP+uIfygLHz1NilhhSXOB1cup/4IwACxQV+PdRhJK0KyoATAfTRmRQrDijb8BaNucOAba6jFqI8MyhisqZRSc3IEYkYApTpzNTXdOqXTrLr+I/ij2I2Z2BNjrz4Us9s/LBn73g3iz1JSgI9zzsLnkAsDb6U6U0Yh5fz9+WOTP1E3GGqlAJCW56GQZz8g4T9SCa7k6Ufs88vaHN0bYHDgN2ujvkUaZmLMYiSUALEzO9u0UceKX3tMqX2L5dkiwUyuVUnLlKidtTvW2N2UsPa+jIZAa45K+E9tjuKafo3RWGrcmmPPZM5eSFnFmImKUpSEi9GDoh3vbyEEMoYxZn1CSVlfq3+vUfj3+SOTP93ryxSP10YBILf//6DV6/tTHMQl9+nkRW8ABMcYF/gld7DgC1ByjbIysWrssXjEzPSwYVuwUqMht6gEQDeFp4qFZFLDPJpt6yphTE6OQEwItLxUFFZ3LjHTP2tIy/U/JrAHbAu16S0kEUX4j1khTuLEVmK4AXEv87QJGW/vEC+WmsJ7HBiybcIXfsZ41aNxYNO+ZiP8W+WH+6H2n6m/10IBINeO75LN/0dTH8wl9Q9vAATHpxJLIrYkUBb5MSXtiDW7euUiJ1X4Fdr6mMM7iNWjnnTsBPPzmsotWiPmJ/kWUiPiq/fKeuFKgNRG1m5/mIvE0U4nlHyzPRo7JZzGWL613b5e71isLVRgIKwCr8JYCU+4lwiHi7CB6xXF26rSJAydFkfgPLH+UlDCF8LrO/VGIM+/T6Hi/7H3Cel8g60oacofmfqfQiP/P9TJWig7ChlMYtwpKUbcX6zx7oV0tKCLkHyPEnIxrqvUwI01gzr1mJ+Rwil2YpW8STjCcFgjqlccFzOcGmHxuVlj4vGeqY2srf5g+ecZO5FgHC3rHc+YNUIR84yEHQuJXAknjNV6jWdoq5JFhIwNvCmhhE6LI4By8pCs/hgxLDwPi/em3G+z8A3ZvTO/Wu5Ny71b0gqA/IOTn6VkPH8l63+CprASJsoq6Ux2KfNvrBtUCRAMfAsYQNzFY9OuosDZIyYu1jEkDg1X+9gJV9g75WpoLbswcckk+kktLpn5skHeN7vJTB775PH2JYuAlfVr2AHAJf1OVUimAo4lsrTesX7dpPUrRkI5j8U4Nk8rjP1UugE7p8URQBGG90ZqYUmL97q4b/NwLuTNL8geOPvfirtoXFcytroPDp6E/60S/v9PF/4Hx+yKM8m6Td12FhE2VqfeCGAtoYZvbO6SrdjUiN1TyQVgwYqLYudFuc9ZIxh5MiOnSHg2ULLRyREoGwG2QxS+FpSXo2BzvYQsa8I//SRW3YKyE8X8jkgt2GckOD4fofCP8v02KaVc+F/8iYZXIbn30/KudOF/cawW+zYLq0LW+Hj++Oodi51m+bskFQD5x1TWYU5u/1lIduBKnXTE033m+HxMuesBekNPPB/JAUkSGBO1YlS1obOxx0YoTK6JOAayE6/Tcom0kFSqs818XiflVKoZkhHAYHacHIEyESCWlvwgKRLr8QaD4U6MBzHrFogQy5URst8IjM9KqRqbJ+OUQr5uV7iE1VKUZc1JngGS/MWc/6ksLIq4Txa2hrzxm/nDIbGySvPgRLgCFTBq0xPfo9j1dxRwJb9EGwE8AGC0PUlgG5Hu71hc90SYHJANHW+OsxFmqUY4tWJtOqBnwKI3DJmmKeeVIsHsIJA5OQJlIBB7gtWlYEBWdQsVWhb2ESU3JXAtEDxCjArZN0kUJ+F/Vu8xETmMblUYoxUeoQrsWoob8Xd4JVnwgKkCo9Hv+blh+dT/NvrP4/2lVqK0SNkbPzs0s7+R9d+gCtvIWDBrNioGiyzjbGZO3RGIMTkgmyjVC2ILVUCIs2LJJfkQSYisEQzek7IOWFRgDII1lssUKx8M0nc/pxwEKC1nIbv8KGhI9g+3y8V6FR+MEWPC2FigXeKbtkTm9YbQ/7QEyNhcxlGUoLx2NrP7zEbxBZ95UPyTJ/nrjlExR5shz74gu3/6vxRzuTiukpQHgNw0JvQQ/LoL/2OeXFpzWu6PuBoRHuDUHQE2rxuluY6pkgLaYZL7xKYlphQS1icLdFgbboSOFH2hW6HlnqSeqdJhMUFWrICpjkHK/WJupSr8M27Xa6+yKPwj+JDp3ALFWPYP70CqJsQk/JMXiApGeKO48N99Zrfd/T3Df3d8ij0q5qn5eP6BzUkxUEkpAOSmodqNjVuKHXe/Wk8E0BqTINDDAnpC1CrBh8U9Jvc1kjtS3ic2IdaK9RaGyWppPdwpreRc6P1U9f4Ga4gVS2DvXvg3sSGA8M/cSpVQwMZaLrYf5seVmyU2hXavNrPHxSTQojzZK14gptBAvEopj2h1PvYa+6KOw79hxMHdH68+p3IQyLLdYfWZ7y/nZuXcJaalaEk9zj+0bneYnX1Ci2tkvlVL6padHzOTcGvDXYuSaU6XI3Be0jZCd0wbbYx1nsHIQk1tyirCpFgk3AZx94wxKWRReLIObTMYplFU//06xSFwQIL/a0bcy0fpdTt5rYVqLN36Z2XPIBkrJXljIoTImJJZMhdvFkaxhSjGMGYYHlBC4u3i7v5VjciF0Gjcnd1z+pmqGlDkfdPxAJib/RkX/oucGkNeS2tTwAXXwwK6A8eGRgkbhO5YCEE7trh7SiPFFDLRa6yosYsgbZHa7pUpK+oOSGBLWWizOO8sthmX/5TnEWstYWpWhX+W4Gl5AMRO2ERiK/uHV0tMwv86KdVjLKUcw9yCV3tSZf1QALjwX+WIXBVm536uygYUee8kFAD5YxNfJlC+okhg/FojIoArHmEBz2ixisnaPWJ3Cv0ZIe5ot2NywSb5XkyurcSgblGCydgJ4f9MbDEUQ4C2Sks/tb5TJiy3Mc3tlLFOsW/MndTDSa6XS7qV3Cvd5hhx6xaSmuIdGVMJu9j2fXgiqielrJTuNn/7HWtn98fLBS9Sp+oRaGRfnD868c7qG7L0FiShAJDJ8AeXDoVfoVAETstCSsbxV1WeC9clp0sIEAcI4xWLpRtLQEzJHMmyb6G6RExJky7NrsE/EWMZYzmqwXvQ/0zm9hFPVNofKD/jMgSOSDHK3EmZELo2GVC2LjYGFoQi9jL2tFjopKzJMZVNhR+ykv+nrDHEwIAXG1b/UwY8XMrCJZr7ZD8kRwzzsc7mFQAXrf//KJp54Q25hAByfzss4A1tOk6XECDpEvGAsWi8YQhi2WhiN4pJ1QAAQABJREFUY5gujdrln1JQbJFlGdfLlOlVeST5+pPyCBfbNxJ8xiQgFdu7+atNLY/PJX2UflpI/heTQpu8Ly9oPYzBJgPvg9U/Jo/IUeZg0b85Ll6ZUFqy+1sNMywak9iul4W3hccmzHudm1cAaCH73tjmhrdnAQJs0i/IhenZyErNLGhm6X+SSO5WbYAxVAhgo2GMYgnbIAzAsmtq6ZNpCTckBjjlpEswuyS7ikXBtYSh8p+OGYHTsra9KGVoykQ50Jv0zMfigbYUrGPvA3tYLCFt7UTEMSiu4XngfVJXPg8zt8nuD49MVQbP7j8MctWcm2XfV82Ni7uraQVA/sjU52sTe0dxcPiVxooADPgTcmnCtTKGTWisnR3w4hOyxNy+Lo74QGIpn9cGFENMJYzdLsIkBsSxitNiUNwU0W88LhAIrCYCGwSDdrmrGVnAnByBbggwN1j/Ura68YzzrKe0dnUbyxiOsXe19rAINjHm9F4pQWMQLNtVJ+B9nObLMcMTPyGrvyupLc2Iz80fn/xiSw1e2FbTCoCwLP/mhR3yvyNHAEac5Eq4OMWUgbZK2LDIkP12TQSu2OcvemtUiUf73lPCg+RJsVJMSZ2WihGWqhsSTwqI0vE5kilpjjs5Ap0IkM+D2tqp59lCIJ1MSPCKeQ1m72IPi4FIzBxD2Vd4HHgdeB6n+dC0zxz37P5W58JcZloGNfsU5h9ec7Xc/7/S6rypfbsJC8At92l5BMSwMVU9IMTD3SLLzIYIygSihY4l+zWlk2JhojrnCBa0mJnPzrYO+rkOSQFnL7pZxuDlMui4+HnjRYC5gPCf+pxIIenfwplA6FKM4UsoWWIp+0cpyxhyoMDbwOPEkvdo4Vwq829CLamURdilhTwWZWJj6V6N/J35Bye3WmpyZ1vNKgDCbPO96ojxFLadQ1HTz9RTJ9MpSZdSZ8D6DTFu77u1QSKIVU0wDSSjqZpamMgyHZvLqvXs2b3GlaSA5KZImVqxsIm7eqc8fkX2Dddo3P5T9wpZE5FAWuT4ca1NEeyXnX1aLrY6lhwL5LSIQZkPTwNvE3vOhs5xHMdnvNCojEWFLCplOVlHYLm8xt5ttRN2FQBZfq9V0L3dXRCg7BKuUMf0rjWytkS4IBvlpghc33EbjKHMEu6CZAuOpTQgTEzMoQlLfXiYfyvtbg0DdR/F48uJJ3sbCIian8Qax1xImbCQxyKQjgNn1uJYrMrsUVi5Y3Bxb3tZjgPzYa5JxaOW8D/MjxI7F572qHjbT0vwpzJWnXncxIY2GJZFTXJ5+aNTd4Y8uyO1eVT7/uAB8JKYcsIC6p6s6wbFalZdox1tdatkUAS7FTHqsSgBtq+Og8Eb14IBE7tHcZqxKFzG1U9ykFBr2ameCByIxDV6nOgjGN8sgRSrdKpE37bLc6lqAmv2qBiS27Flo9yqOunfVu2V14uXqTPBy8LTonAmBM0pMQSy2xQGcJfFThndFfIvtwi2t3lABHzBnAcKd2xeVRJjsV+McgxEXCUJhFZVuGxRtgimJnUCYwSH1F02qbXsyUhTn81X9u+YlD+vJa784dnlGU4tV8mVoznvkVVl/hy8LNibYkmweFjr2km5/1dJKGViyYNQBQ5u0KoC9WruORe+opobL+2uFXLSS2h4lr9zCb/2n1pAAA22u0zNewGgQRcvVxmRD2C6Ymai3flVMFrrq6kfDHNXJ1dGki/urnjutcd9nO9YZurucTROfGO7NklnyTmTOuFFFkNlmTJwZn+8UbliyHVQNpEzJZZSvvSdihZ4t1RFKJ6Ye9tqoCjvhTFu/h7S2gud9I5nNo3SVYoVI02C/NG1G1Wr54gEIkkCTrVBABfwnRVt8DGAjDafjLG45VdBCN53yMIRU614FEQkOCoDE6xLMJgx9b+seQAzQ+KilAkLHkx86mEPKY/hIH3DKveU3HFjyG0ySHtHPYcwpW0Ve4+N2val/I6kjri+l5H1nr0AC3ds+WCeVlLLqhT2hEGQbyL1RLK95ij5RFAuemWrXgileTxXKsC5xtbswdPHLHWwAnXpEuFpNL9ECTTSEP7JbI5LMS56CFjL9DcMaK5NDDkPwYZELsRx8YJpwVJVx2z5Zy6WTblahR/YdGPLCr/Ead3358wTXAypY/6msCibsCoclCAIYxkLkVxonQTzg7J2oAzgmSmaYGgIw4iNySu6n4tdj/JhrD0oAlIl+rdXz9YtiuHVkDsliAD7KkrU1IV/EsjWUfhnyiKU46W1XiEeKC3HxSux92DhjiHZX+ejyhpdlfC/QjzsnpqEnHRizmf4dIwRdQ4nQ3bBSxJZBv6cZ4N3eCj2VDxDeB7Jg8AaDE9PyekUyiBikL4q/yL18qNMBytkTwEQmu8wzaGxQVFCjNeo8WI8PDM8QFIG8ADxPg7hJ8ZZzAJ7Qi8YHAST1GOUO8cARdHtElCeFxNbhcsygjYll2Kqu8wms0vuhteIGTui9hHbW4RHgKAOm3XNazXHUk6g1Tm/Fvu8QxijhIyhNORi7VzKd62SWRIadqqvTukhAIPOfpkyoSiue9I1xhdDAcphwteoMFTIniDejevCdyDkxEYIV1XltYCXJd9E3QwzKBVRupBLpog5Ftuc6tUeBHqSXRJixNhP6nkYlS+Elz0qvg3eDTytUt78PDXdlAKAYTRF+SOTfx8a4bNNNbrd2PXakHZKcB31QWlfZ+E7C/9J1WzHTZz3cWm9F9636r/ZhGHWYXrqRC1LltwcqxDGYIBwhY+VcAE9oefguDYTmP1hngWUc1PazKhZvFH9RHPtdAkBsH0W91Jt2CkTFkTmgFM6CKA4flFrZsoEQ36rFMS+bl0+yqxbhATwQsnH34MSWMJfwLvxihlbFFwoPMom1kp4gjoZY8AYfhsvE7wj60BY+FGq8TzwXnS4HJ6tr2gOn9BzapGy8PfZvTP/yFLTTXG4+WOb1oT87HFz8f+gjAUNzfG4ib0Njdrr0kqy4Q0jAI27beO6PhsQioC6aZ/R9qN5HoKfKWQI7lISvhgtIN06d15Wa54HvGawYHeW4UHgx7pPxnu8K2CgOebUGwHWE0oapcz0YNy73dAc7z1a/g0InNNz/5Tqb6dsocP9Gu+wuu2Bw85wlOe4HuM1yd7Aejan9zaxH1ylPWCV9gLyDlnZ5+jHJ4+Xb0GtY64JXNYR/MvIM9Gel1W9s57AX2+QQQTjSBns0SHJLvuErz2aDecmNmTfctSMplkjaoiyc1j+Yc9s0fXSjuLyXwbxgPKgTumeO/UZjTfWD6zFqTJALMRoYyk7Q6x2GYtUGWPZ7x6EQUxKG/uiQgLKVPTgUmnFTXqlNrCV2sCcikEArT9WRpQAMNApEgadF7SH36Z+ukLI9ghj7a0yeWoZ6MGk31pD9+tRsMVK3XJZtsX69u1qKweO5npZxD6Ap1Sdkv0BL7zPARleUuWlmT94uZD0GC/IKrxrt4qHR8qjOo8tWh4mzr1dTf6ElWZr5zBEzeathlo739RrFUdclvC/EBw9x60F+gYpA96+oboyOQvbNY6/WZDRypLhuaokOOPoV79rskCTnX/UfBL9rt/te2K1hnGj7HYNP2YXAQQOkuUVHcoUEyJYCPeL0XOyjQB7AmOZKrWE/8SfxVTHrsh+HdGeXBbBa8Bz1En4h6eEt2Q9SVX4x3CIrPBZkhV4r0L4b89hkmxulexkjfK5Wyw12ZgaNDMFbsu1OJZaqGi+id/mhfsuQhxa4zItx2U8GTB7lMGhn1ipi45TKqMPw94D908qBBASQKK+cRsC2ACJA68TAzDsmKR+PsI/SgA8AVLI4tttvEjuNCUFm+cD6IZO/MfweiO5VKqEpY6s61bc1FMdh6r7hSdWWZWBCGOlClNd4v3hj+GrsPyPm6+qYh6xhmDpx3OWkJeY6DopAMhpdhaXPCtkS0a1pQDIwh4r06DVTgTQGF1IYRgobYZyAvf5wxIaiYtLiQh7YPGgn2gTUye8PQiBICsrdZCJdx8noRF3BcA4EY7/2oRXEA7wjBRuqSoBXtGztEb5ALC0OtlBgPWPdTBVgnFHAUfeEqd6I0CY57iJajtYheu052MgwwssNSMZc4V1A2UOyu0YZRTaiJIJ/p2qV3boFjtNlX3UUmOlghO4SDoGiKRiZMqMmXjw2yUJT8uiSxm1lBKbsHATR4QViFJxZbrJVzXubNB3SmAhIzAb2LgoVTe4ceGV6nVRJiKIPCNPgBQZJfpE9nj66GQHAYT/VNco9u09mo912M/szLjqWjrueY6QuEvCfx28KRlFjGGvav2AJ06N4A8R/KloYYFoJ7KUFS+AvLnHAqztNtpSAOTZTivyvzmr8xpNhTVyJ9yuxQ/XV4RmyzU52zOcd7LA46pMrXgS52k9SZqwDlELmkQur0gBQgb8wsmIIq7wfvsFr0CADbqlBJAnwLiZ0StuXsIBykkSY7tFrpJO8SPA/sWYpUhYxai3TryukyMwTgQI89olfil2Q1ZRGLB34e7P+pGSu3/b0IfgbzFcCA9eci9YoLyxy0Iz2200w8XnH9g8FVadseMLcressJaTZOHSy0JI7FNKTD2ubIRmIBzXgVqbmjw7GMciE/cRe1oXxqAO86SIPhIW8pyW6JTWizYuMFF3aE2nZKRTvAiQ3+YJKXtTUV53Is0cRPivkxt2Z//9c3cEsI4+caL7d6McZZ4RE06IKMaEOhCerwiZKYWyMXaMI1n1KW9plchv8akC5/e4cVgzM5G9K4jpjp/szIqpaWU5M0Kt0mPGzczEvBJ/87YN8grQRpCK+xexoXslpDwna2WqZcw6HxM2AZL23KXHp6hkZjCga2uiQOnE0j8vjgAJ826WazIMZGqE8izlmPIUxguhn3CNFIV/LP+7axaDncKcLKMPeGCR9LgIgke4U7wCPEMdhP9z4gefFS9IqdBUhH949Tbvzrtl4Z85TZJrS4r34xOyFNggO35kF5ZtCJkRvxwSsaVCbAK4zVOSg7AAssynsFCelLUSrfm1aEjVtxSFls45yCJK3d6tCodgDMmQPQrh1XKjGNEEZbxR4PDfLECAUCKslCTuKdLjZMFtKvkTD4dDenYslieqBLCSb3pQXk6Ee6VGrLUI/1bidlPD30J/yHFEBaRRYqWZX+ulQIAXqkteCfYm+KBDBXtGVjlXMNpRdnyzxjI1fnZSMtU5yR8WqNFAAXDQQlPtKACWZRvMMJSWXf97zVoWFGKIiIMlHjYFRQCbwAFtApREJMlNlXVPe+Fe9HE2+JskoJEXgBAP+j6oyzaZY28WTp4RvehRSet6eIjcpHnyfILWWNYLwodSXOMtz0LcRNmTUiSyr9clZC3F8SujTxhqbpXl/nlZsynROwjxG5JAkxsJr9W6EPlBqO6C9T8FIqwVpXSKgn97fCx5ADTm3AOgPW6FvedzWt1QVRqglBdTXBFRBLDYIEBiEbOe/ZtQAEICcKMjP0Aq4Q6LPSoIMPQVVz+y3Z6QRwBlExduijxyqyX4E0u2SYIP4+/kCPRDgPwQWC1fSEwJgNKQxJpkYXeKB4GXNCapeZyw1F6vZ6go9+54RstbMg4E4FtQAlACmZw/3bxh2PfXaj/fIF6H9zrt5/CpxPmDTwqEaz8W/2s0lqmPIx6sZihzBUDhY9VUyUIrskcdYqfwCGDx2aIX5QNTUASwMSAE4w1QVLx84Q9CwRdk42jF9BO2IoUA3gDkSZjTq6ENBmVWHeZzwbD65YQAVkvCRYivTIkIHyJpVF3WiNjHjnU7xaz/KGix0Do5AoMiAI/cLu3cuZcv0z6OpbiuezlrBMK/dWMV8wBFT4v3llEmNVf/XvPcUj8zO3XGpAI0Q/Lxc4oOARRz7cWoHVNlOQkTGwQCy+sSXoirY9OsE8EgkFTIzhpWp9Gx11eE5FxKABLo6dFKhvACQHFWB2+hmAetbdWLuY2jtA3hH68rJ0dgVAR8L583ZrBW4+FondphuPDbdVPkWMn/xhzLgpnYEksKADOgDhxTbX1B6mw/CxIZRwkPaMXVywXNMsPPhoFViVI4xFehWXdyBByB4RHAhZm14OWElACz2o6oGY2g5lQdAgc0BilY9ToRbO+jncf8syPgCAyHwFHxoPu0Pgya42i4q5d3NrznRu2hhGvWNf+SJfNvnplprR0FQNbQk2xEokwhS/6oyxsL1PViilEE7NeQWda8ElPa7gOJmFZZikMadQD9d47AGBDALRVGDDfMVIgcKJu1zrU8ZlLplKF+kPWcWOeUCIUzFj4nR8ARGA2Bc5K/8DgbNBniaHcp51eE0W2X4F/3PYawVCvUklVtNNaOf3PeVM02IzRKKRYjXRu4mSxYlAO7TcmyKA1mmdhInjyZbpZpy2PjbbeDAEpBXikR7qVO1SCAdS8lQkkGs+/kCDgCoyGA1R9ezbrwT7UmEjpSsanuwj8z4eyAlS1GmzXF/qrZVEZxG2RHMms0T4bciAXW+uJT5NydUpwsC9lxJWHZr2SBaGctUtsbgCSBeAN4GTCLo+htrhqBHfIOelOeAKwHKdBphQnh5eQ12ssdTZIwppT4jxK0eM45OQKOwPAIUNYYqz8VjSwTwj4hQL6fXD6KM4bkhsacNFA2yJAHwNRRG5CqlQi5C8upmWn8mBpK2Zk7VR0D4dlyHBMbzBN6vnH/dXIEHIHhECCecbcEHRSDqRBhDZYTn1obh7Yy1lq7e7UXpn+3LH2pl/Lq1X8/7ggsBYFjUiZj9bcs/LdDZ+8Qj+zC/+WzAY9qFDxW6MyaY1aaaiq1Wf7YhMIAMpmTDRBaPI/l6z5QMHAI0AdJ0NL9FBNHyQKOQqNulQJMDI43MmoEyJPytDzlLG3siwFK6dAtUnI6jR8B9o5UcknA+BMm5x5l4583foe0EGAPeVFWf8ueQCTPRk4gNM5SqbsyZxKJXl+T97AFyvPXs/vPbLLQVNpoxwNgHtF9VoANRxNxcR0H4Cx0LHp3bpivWWtKDdUBCBvPE9JJ4Y7q5Ag4AoMjgOBDjpBUyuihzESx6TReBMCYcrMpEBGNe/QMuPCfwmh6H8pEAJ7rM+K9rAr/8LwkkMUrFl7Yhf/us4ct1ZIslWWvdu9InEeNKQCyl+OEsUursGy97kqALshcOoTlHAv6bXLqmLKTjuJSB/SJzOYvnJ6PP7PszXBZp/wPR6AEBFJyfSZLsYcFjX/SgHEqVXZulPA/YXTfG/9I+x0cgSsRQAH4skKu4LmslvcjKfbt4nnJ+eHeo1eOcecRZChT6332SmfzY/9sSwGQh6diB/Sy9h2QpcJjQy+DpOsfZDxFCUAc5ArMIgaJOLSnjodAaSonR8ARGAwBwmhSSX6GZTq1mvSDjWI5Z8HwH0rE+r9LzL/H+pYzb/wuaSAAb0WsP5n+LRKePmT1Jym2K/76jyDKHiuu/+3e5OHJ9kcL77YUAHK4tgDqW23ECwAlgNNgCGxUzdO7tTjuFHNEbJQ1IvHjU4prJmZJa5eTI+AIDIAA5c9SKA+IgOpeAAMM+IinpKJgYb5vSawc5ohD6j9zBAZCgHWVnDEWq0jh3r+NkFfxthvE4zoNhsAhjbm1HEGN3JQCwJj/WS4FgDHBEKZlvaxcKWW9HuzxHe0sMiEjDKAM2C9BGhcgS8I0Hh9oLSlbcqPCG1KJcR5tNP1XjsBgCOxQ0lQsPJYzOdPTI3r2t2r9sqjAHGykqjkL5coRo5a/TsTwdsP67+QIOAL9EcCjikR/lF+2Rogqm7QXbJfwb7nyVRW4nxH/bDHXS2bLSG3LA2DuDB4AkgqN0YuKWbIar1QV1CyY5AcgVoqYKWvEhvWkktTMeEiAtaHz9laAAIo/QoCsM0owrJaSFlUw1CPdEuHf+h6KMni39jRP+DXSFPAf1QwBFMJPyeXfovCPou9WVfcgvM36nlb2tMP1/0XleODdFOXT4ZWZpy012ZQCIHswKO16828tAdxqK24sL0mLaW0+xwA0sVLETCEcWMuWTGIw3NbID+DkCDgCiyMAo0SMJJYTy0Scuud+KW4EYQSth1Ywp0n6Z20PK24U/UqOwOAI4PlpsUwsOazYwzBcudfv4OPdeSay0lnJTOYo++vsoWDK4mdKAdCaD/myT5ibFzT4uCzCqdQurmIACAm4S4sqsVRYC60QggALGplrXSiwMmrezqoQoBoIz7hlImuxK/2KG0GwNJUJukvXt2pOr1MooJMj4Aj0RgAjGaGfuP1bsgDDk7ZKW6usn8f59x7fft8gI5ktq53/Vb/uxfa9uC1j1Ah/adaSjhvjVVootine1Wl4BFhktws7kijtk5XtuCHLOplr8QRBO+zxwcOPvf+iPgiwPpILwGqNZ0aKBEbUeXZaGgIIBNYz/2MJJA7YyRFwBHojQIjP83L9Pi1HX0uEwE8OG/fuWdqokTvLsqdX3vjLpQFQ/q/teQBcmP6ELKkKrjZKVAWwmNwiJrhb5VQUS7lHMVbUErdCCDRPK6aN0AAnR8AR6I2A9QSaZKu2rMDoPTLlfgOG5w2vlyh7b1QcsCWvtXJH2O/mCMzzRPBGloR/eM9bxINi1HHhf2mzGCUv1bPMUv5G2D/919aab04BMJ8HIPsTa0Bf1l5cnHB1wbrhNDoCuFTeIZcrS2UDiW1ioyPBjZMj4Ah0R4B8ALuk5LNMVutVx4S59cz/7E0uHMQ0o7wtsSEAT/SMciVZiftGqXedLP53KCR1rYf1LHk67ZM8xMs05X+UGYv/B25zCoDWHMnC75meKzQeVxeTmS4jQ15rcats4F1SBBAaYIHwAGDDs17yzALW3ka7CJD3w3I8JXlf3Ntn9PlHyNQJg+W/2j1ep/lrZU9qt9nfHYEyEZiWIQSDiIV67/CahHXdLV6TeH/36lnaTCHHwwsK+bAe4gUK+bLfXxoY1fzapgJg5UoUANZVRvPJLp6TIGg9wVE1c/fyu2IxbJcNpARL7NSKd8PlzT0BYh8qb1+FCFwvL4DlNreploeXlwQcffJYxo6SfzfI+u/kCDgC3RGYVngP/K+F8p7wlLfJ4k9ZP6v7UfdRqOYoivFnNfZmE/51wJaHmZCt+oOOI2Y+muSssne/cSpkzd8xg/JiDUUAfFKCoMeLLobS4N9ZWqhl4ArPaxFkI3RyBByBKxFAkNplWJDyMIArx3SQI4THWa6ksENz1ut/DzLSfk4dEZgR3/ucrL+xC//WDEsW5hKyzlOSefD+SIGy8NvZfcc0me2RSQVAC+a88WF7cPdoMR4AaELJgum0dAQ6XbWukcsWf8dKbIBshJ4TINYR8nZVjQChAFZLqLG2u3J3+Bl0Sq7/Vj3jKGXprv/Dj7n/oh4IEOsfu+Uf9354R0uhpRZmDzIOln+ra3s3jLPsQ90OWzhmVwGwZubP5GK5zwLIA7URiwdZMJ8hHkpMo9PSESBZC0mYSBS4JuJkLSgB9qru7SyTwMkRcASuQGCnQgEaMWvyrmjxpQOWLdmXelHup9eNxv4jOBC24uQIOAJXIgCPQ6m/mHkdEvuR4M9ScukrkY7rCDkeEPxNZ/rvAmkeXg6vTv9Fl29MHDKrAMjeFeaUwvDnTaA8TCMJCXjixHwd6WF+5+f2RoByLbeqXMvuiMu1sECSEMV1AL3H0b+pLwKrtFVtlUXGIpEMkHAfp8EQIDnUifODnRvbWVgNLZWmjQ0/b0/aCJD4OtaEfyvEJ8IjUtrPn+Hi5iEJz59INMy5Ed6v7P9mLbZmFQCt2bli5S+FPJdaKTGCAdqnMoHEyVgpjWJhCHAlvlOa3W0q4RKjNRFX4dQ0pBbmhbfRBgJkXl5hcMuyLNBWMTNIDGVRYUJysG2ao06OgCNwJQKUvz4ZYb4jvHa2iye8W7whPKJTMQgguyDDUPKcPTA1Qva8sOJxy90yyE1dgruVDLCRffDSkcQ+kSiFBIHUyIw9WYoV6BH8t4tJQxGwPsLF/pC0pa70sTKbvJ1lItB6dsWoWaQUsh2XhbtVrKgNTtiZkyPgCFyOwDkJg/A2sRECP4I/ijsv61fM6CCrILMguyDDpEpZ/kj24HF10i6ZVgC0YG/O/bTcpo0GDA4wcXI9TNTJ/PTxEHClcSoGgZVy97pZ7l6EBsTk7sV4v6x8AE6OgCNwJQJXrwzBQpnPhS3HuydFK8jCfi71byz/pyO0Evbr1yrtJ574rx9K/n1dEcAKDG8TCxFStkf8Hy7/uP47LR0Bhpd8N58hhFkyS0zjvfTeLbzCeSUX/9mFB639bV4BkN1/7pWQ5Q9bA37o9pI0hUUUrZrXjh8avp4/IDkgCV92RGS9oTxKjK5yPUH0LxyBkhDAwIoHjzVC+PdqAP1Hjez/FhUluBC78b//+PoZ9UOAdS8WfqadGPpOJYZeF6EHqNXZAc+Ku/9LMl6llOG/13jk4Reye8/u6/W1lePmFQAtoLPGDyWZC6DbLKJcHJUCyKiZsntNt76P6xiuX1slVNy9Yb70SwyM3DH39hjXcPt1jSMA42bRC4BkgE6LI3DCIEZ4kG1wYWLxgfVva4tADFVQ4OnwHrtbgn+rNHQMTF4CM4JwVZJXPy2ZpDalrJunw4rsxxIYPeXRT4Cye6ePhqzx0wl0ZfAuoFVF47ZXD5/HjA+O22JnLtemQOmX27VJVF028ITG1/M+LDZa/l2dEbDoBWBRuC17jlnEyK3/Zc8Sv58VBPDmqTqnR6usn3i6G1Wek0SdTktHoC34U7Gs6vFdem+GvEL2k9l7po8M+aMoT0/oaVj1U0J4f5Qoj7NRWJV4CHG9IdGK09IRmJBFh9wANyk+jFixKoiN0xU7VSDv97SAgEUvAMK43Gur9+yaltIz5vrg3VqO9T/GZLLd2urHHIGyEYCHqSoWfKV4N/I8eVm/4kb9nCrevShZo5aCv2DMwqvh3GQyxuaKpJvi5mP7Stl9x06HZvYd7b9r946bFQ/l8/IIcCazmOHHrZNYMbwCqsjuXBuXqmKGy69SMwQI27FGFhPclYWxxdw2LXfisgDy+zgCxhCogoeRTq6V1R/ezZVzxUwYFDkI/p85HsLrkjVqS/m3Z99yVECkQckoABiO7IHp3w559rtpDM0IvZCBKeBCSWgAMTmedGoEEBf8hPwAMHnt/AALvh7rnxaTYY0VEL+4I9CBwAYl8FxhbAvzNbljABd8tIYNIWOe+X/BIPqfjkAHAjIYl0aE9RPnf9cGJYpVUk7KxjotDQEUOMT4Y1ysteAPjNnvZPeeSUq+XL602RHhrxtz36aygF+op1++PzUmsnKSKHBKQ3yNLGVYs309HH1CtPMDbJYyYL9qnJYRq+ob2Ojj5b9MHwGUc1suPo9WeoubOy6xXnP68hEDE/YsS7RF+6qPo6UR87aWjUBZ+lks/ddJ6I+ppHPZWBd1v7YhkVJ+1tbkojC48jpnQmP2O688bPtIegqA1nj4rvzWtOQBnpYGD0sZwisMM8Ks02gIsMEQV4a76n6VZRznAmnNujkaov4rR2B0BLDAHpBCDqbFApGmhRCtKXkvOF1CYFrAWPJ4Ygvd5Jn/Lw2gf3IEuiAwbh5mjUQYBH9fT7uAP+Qh8q9QfeqIXPzPs1E5XUKgORdmM2Ma6kut7/UpPQVAvuz94gaV7tPpMgTelC8WjPJBafXwBiB+lmR3TqMhwMZz27r5MIt9wnUcsW6+qY02Nv6r+iBwlRSbJAQswyOnKFRRHvqzfTma1nIjUCVmpe+flw+i/+UILECAdQ5lWdEKWgwx2yT4b3Ql3ALEh//zvGSDw5ILjkrwt6SEHb6nS/iFPMob+c/oAl+9hItE99OkTMH5YxNfptXmD6NDOdYGwcRslUcADHRSM6FkwNncqMZwQB4BZEktgqhzfrsUDE6OgCOwOALHxbjsNZSXB6Z1d70j1K4YUMrZsoZaIUqKEW/s5Ag4Aosj8IzyURWV4JOqTNuVlNkF/8Ux7/ctPOtJrbdHZPE/qbA0p8EQyPJ3Kg/A7w92cvxnJSP25Q+Hq8Lyiackyd4UP+yRtRBLBqEBm8XQVJHtPjI4Rm4OcaxoUV+TNvXCEhUBN4jB9ARTIw+F/7BGCPDcfVLZia2UkIOJJVGV0yUEPq0kU1bcTsnN8naNn+douTR+/skR6IUAyePIIL8UIpRgm7xWN4lPTUZqWQogI/52TnslFcOw+GP5dxoWgefCvpk7sodCEuEA6YQALJt6QH5GLvwPO505H8Zrn6zXhAhg1SC20V1Uh0eynZQMwf2Ni4qAURbZ5drsXMM9PP7+i3oiwHOHF5OVLMV4CaGs8Fws8/MVLKwI/7R4vTznXPiv51rjvR4eAUJO4WlmRxA4V8k4hZcqPJWn9hoe+/YvyDuDcQq+FCWA06gI7Ak7J75RMb+PjnqBmH6XhC4t/0iYDBcmnxew18YErum2kB8AbSsLr3sFjDaUrLPEJh+SmxXZvwelnXJxo/SgkyPgCAyGAO7juJFboVvWhrBWgqTTvAvqc6pYY4Xc/d/KSHk7Y0HgsHigV2VkGpTIsUSVDa9eNShiV56HoI9SHMF/HDmqrrxjPY7kYV9YNrMnuydoUtumNDwAZiffp2Fw4b/IuXhGXgEs2CS4wxpNiAAlBZ0GRwD1GhsYLxZgFmIW5MU0sGi8t0jp4uQIOAKDI7DuolXWShKjs1pfXQEwP75gYYWwQlJyzMkRcAQGRwD+8ajkpcWedQxNLV5Tgr8nqB4c24Vntq398JpW9sOFfYj57yzsCHNT98qq9wsxN3OQtpn3AMgfCsvDjsm96uyuQTrs5ywBATKvUkqQMAF3Xx0NSBbkU/IGOMFLVsvOXAFkNKfEIAkAnRwBR2A4BLAiW0loBEO8S54+TiG8LEUzwoEFQglO9RcnR8ARGA4BBNPn5KXVGQpAbD/hW4TVoMR1N//hMG2f3Y7tp4wfxjuncSPwUlgzc3P2rmAabPuSxnWT79JIu/A/7unO9dHe4hWwX14BWLUJD3Ar1nDIEzuKBallRZIAwMLdjn9FweIb4HB4+tmOQBsB8pZYUQCcM803tBEv5r29/hVztfFehco5To6AIzA8Ahg23rZelZIurn0kn/bw0uFx7PzFNJ6lEvpflzGJZLhOZSFwQzi9+islFH28rBuO4z72FQBZ9q3FFxkdB9QJXRMrNu5FvNDg4hGA2/oKLehOwyHABjhh/zEcrtN+tiMwBgTW6jk6MIbrjuOSbSZ4HNe2ds3F3IJj64srvGMbEW+PJQQwgDi/s7QRw2v0DQn8/UIqlnYX/3U/BLLw7TrFtALAdAhA/sE1t4Zm8+l+4+Tfl4QArlyUEsSdyy3ZJYHut3EEHIEWAlhA/kHlAK3EPX7ORs8mjwfUP7xhZwL7mNkZK2+pI5AKAhj3TyL0y+jGO387VYtArlFozN2U3XvuxWobMvrdbZse8+Y3jt51/2XhCLAw8Wolc7noFeDa3sJh9gs6Ao5AFwRQOhJGQ6ypBXpTlhySftaZwMAKMbe8/J+V0fJ2OgL2EaBk7OsXXfwthUrZR75/D7KQhXz5e3TiQ/1PjvMM+W/bJBl7MqVfeLfN1ifeaqw6uCc9eTKEp/SiBAy1np0cAUfAERgnApYSaFoSfsc1Zp1JUMd1j6Ku68rsopD06zgCjkAvBPBgw8X/WSW1/Yw82l47eylPVK/f+PGKEMhRAJglux4AH1z9uaERtptFvi4NxxrHi3KCVytEgHwBHkdZl9H3fjoC5SKAldYKuVI0BEtKEEtzy8oz4O10BByBeQSmVRnqmAT/N2Qw8xyxVmbFDfljk2/L7pv5lJUGd7bTrgIgX6YMjG5V7hzMqD8Tn3tM8Uu8PHFg1EPljXMEzCJgSUizJPyOa0J0lgQb1z2Kuq6luVVUn/06joAjMD4EUAIfF098REK/l+8bH85jvXIuWTS4AmCsGC+8eLP5ziTj8RCOqQffSTCKllwlO9ve7TP9OSi3Jl6eOLAbQn7MEXAERkFg5YK1c5RrlPUbS8LvuDCxtK95lZtxzQK/riNQHwSwW76V0E9W/xTL99VBjnlrxmZfoY8/9Nafhj6Y9ADIH16zKWTNOw3h3L2pJK1ap4z5ZM2nhjXMa68kQ8QFnZfgTCIQNIW4C1EDlHh7y9ROHLhcWBAesHnVfCIvy33ytjsCjkA1CCCksa5aYKouGF+7ixhhS2EQlpRLRYyNX8MRcASKQ4CEfsdk6ad8direXyT8Ju8O8suk9t6Veq2SHNOrClhbjkF+OaXX8QQUIHn4nPzhDeuyB48r4ZktMqkACMtn/1lvSdnAACDkUy7v2tVXWvt7NZ/f4ILIaz0n6bcQyoBTihs6rhcKAasEI0iyQF4sKJuEDwoBFhgnR8ARcAQGReAqrRlvGhCum2II605WSjayD/leVPfZ6v13BIZDAEX06+LNSYptmT/v7PWU+PP1yueF8XLYxKidcgzGPvj+Q/IEhu+3shd0YsHnLCwLy978p/r0xwu/iv1vmwqA0HhH7MD2bB/C7Q1TxVm5J6QQmJAyYKtePEwnLioDThrWrLUTB+5X4kAUAe4V0HM6+ReOgCOwAIHlskBYsLC4/G8n2RVzyskRcAQcgUEQwNqP0I/F35KXU7e+YYMjVHeDXgj+eOsWRVzrugnx+VIGvHTarpIky2SUdgVAUdNi8evk4R9L62KPeIB2S/jv5R6z1B7xMCEw82LRwdWIciK421gkwhvaXgFUDtiiRYIFyOLYW8Tf2+wIWESgSAZlnP23avEoEpM5I1oQK3OqyLHxazkCjsDgCIhdbcX2k9AP93b+tkwYK/HCpXrXuBWghA3culZKgJl5ucUcbnP/xFyT1WCbHgBZfoc5KRDBdZzC/8LZB8NyjQRmXucUJsCiRAZ+qzkDWFB5kSBxC0oO9YtEI06OgCPgCHQiYMVV2+pa3In1Uj8bkf/d/X+pA+2/dwQSRQBjG9b+o+KvydFlmdg7q/K6xTCKdzRhExguTVFmMiedOQVA/uHV28NsttHU3CB50I1jtPz3A2OVwgR2Ts672uAVwEKFm71FImv0AcUMvaYFdwNeAQp9WGNuGltE3tvsCNhAwIqHkHULURGzwUKyRvo5Lq+9IjD0azgCjkD5CMBD46FK/i3r3lzE8mNYw+LfKxF5GQizd6MEOHdK+c0sySjZNSSnzx48fawMmIq6hz3Jaa5xW1GdL+U6TGiE/xisUq3kg7KcE1NPQhKSb5AzwCIj2tYSoilk8dqqPm0kPMAK91/K7PObOAL1Q8DXADtjbmW5ttJOOyPvLXUEbCKAwE8Ja6tGtDbqrGnE9pM/LCYjGnIKMtOTSqpvRUEMpisCsukn+GiF7CkAQthhBdxWO9GoUSIjNiKT501r5ksLogjAK8DSw9aJJ5rCF6dD2C9Pi2u0mFFhIQaFS2cb/bMj4AiUg4AVYc1KO8sZNb+LI+AIOAJxIgBvfAzBX4mpKcdtmRCwkUswmuEdHCNR7YzwZWQTK9Rs7rTS1HY77SkAmvl2U1bebcpwGTMRnrBL4QHbJTgflDsTuQKsujOR+Xufkoi8pkWahIFoNj15U8yzz9vmCBSPgNX1q3gkDFzRiBbEopecgdH3JjoCUSNAnhZ4YgRR69n8Wx7ACP7iiy3kz7pWPDwhFlYMk3m4Luq53KVx9hQAIWzr0o84D+Feg4BtgcjyuUPKimu1OLDYsehZTVJFu3HRog94BKBJdEWAhVnobXQElo6AcQPN0gHwKxSOQNMnVeGY+gUdgVgRSE3wbycEJ4m2FUImoQIBycstUCbjtDGypwDIsg1mMCZJnTVCUKYuJ1rCFBQBeAMcljIARQAuTx4aYG1GensdgeEQsOIBYIgXG24AhjjbCgYu/w8xqH6qI2AUAazNhxKx+OPdT5Jsy56wGFGtKABCtt7arLenAFBEvRmQY4z9HxS8TkUAbjgI0ZY9AlAE4BFAqANJEI14ng46XH6eI+AIXETAyjq1zIr0O8aZZUUhO+sagDHOAr+0I1AtAoT4UCHrgPhEQkktE2tqKiGwMSUn7Dcnslyx1LbIoAKgKZCNME6xJtgYZo6iCEBoxnqORwDKACsM9sJ+wsS9ohwBKAIId0C76OQIOAJpIWCFgbMi/I5zdljB4AISgpMj4Agkh8BpJZEmd5T1rP6spamFvBKygCfDnIFZl2eRJ3y7EkODCoDMhtRGwg39S4ZYXLZrfrPAoAjATcpKco6Fg3BWq8lzp0NYr6l0vfRJluKiFvbF/3YEHIHLEbhgxIJjRI99ObgF/9UwAgJhJSQB81wyBU8Av5wjUBECGLL2yeJ/VLysZaLs7SYl98NQlyIvi6fcnIE9PWvKSmqL7CkAmtmsCQeAVA0G7dAAXIwOSBHwOooAW5P+rdaeUFmXJy7IG0BKABZQJ0fAEbCNgBXrPyiT5KjuZIkDQbG0PNKyWXWfR95/R2AYBI6L98Mb1IqyuFff4Fu3SfBfmfC6ZCWnz5xkU2Nkafudh7bRFMgGGCes4ylbDCgjcoMEZ0p1EDf1hhZUi8QYvTQ93/4blV7CLTwWR9Hb7AjMI2BJAZCitWbYeWhJCXJOnmPUp3ZyBBwBmwhg9X/5Ir9nswfzrd4g71U8clNfj5CjrIQcZ5k5IcieAiBvnDfjWn9Wuoo1BisBDLMwkudg9xppIcUckWjPqiLgpJ7dJ0+oL1ICWE7eOMzY+bmOQGoInDGkhHcFgC2XVRQATo6AI2ATAZ7fvQr9JATUKk1JZLtOhjdLyfGWgvUZjZV0ACYocw+A8Y9T1jxuwgMAJEgukroCoD3iaCJRBGyWS/1+KQIsJlTBevisNoid0qxSKcDJEXAEbCFgSUjDi6rutNIQBpbmVt3nlfffEehEAJf/F2X5t+JO3tl2Pk9I8Cdx9drEDYoL+31K8oQZyl8309SLDbXnAdBsHLUQAdDC9w2VFSE+p07EAnX7uhBYcPcrxuqcgeQdnePDBvGy2k2zr3ElQCc0/tkRiB4BS9adq1LKEjvizLjKkEs91ignR8ARsIUAdeQJ87RIxPaT3G+jYv3ruF0gR1ihPBy10tR2O+0pABq5QDbyJMCMTssLALeduhExSmTZP6Ykga8pWaCl2FzG6lUpAcg8uk1aVydHwBGwgYAlzyMPAQhhhZG9nNnPfk5MKlm3nRwBRyB+BMjwT7I/a0Quqq0S/DFCUVGsjoTC1dJ+rnoS1obJkP9dG9psf/uTiXeE37oS6xau9Hetn9diWqn53B6vVpUDaY+dHAFHIH4EENCsJAzC/b+ujF3nTAIDK4kAEf6nNcecHAFHIH4EcB9H+LcSQw6irIcYne7eoATbUgDUeY84qFBiS9QIByw1l7YaVAA0nzcFMsnlKDdXZ+pc1NBoWrKgsIGcNxbGUOe55n2vLwKWrAUkT3WaR2CVITbE0hzz+eUI1BUByvu9ILd/K8I/PDGlte82aiwrep6hvLGWUHwuf65oGMZ9PUM770Uo8queHTcohV//VWmyrCYfKRIM3Jp2KoPpXcoRsFHhAfozesKiSOZYJ0fAEYgbgdOGEgZZSn437lFfZShEztIcG/e4+fUdgVgRIOHfrBHDDeGyd0rw3yXe2MPC5sOsCMG1Rs2Ve6012ZwCILv/1BuaIUdMAX1eboN1DgVYOFgkNqFiAMkC12nxi50oLfa6hwLEPkzevpojYClj8GpDQu+4p9VqQ2wICgBCAZwcAUcgTgTwuLWwF6y7mDD7JvHClrygxj3qBxU2bSmZ7zweB7MHj58cNzRFX9/QztvZ9ezvOv8y8fmQJnXdQwEWDhSlTfZo8bttbfzlTQ4rmYyTI+AIxIkADIOlRKOUTXWaR8BSOAQeYZ4HwGeuIxAvAkci59UmxffeIp53j158drqEAIobk8ZSgzKpULepAMjy//fSjDHyCaMBbkn2NFvjB3hKmtDWgihlAEqBGInYzzc9AVSMQ+NtcgRMWHw6h8kVAJfQsIaFBeviJXT9kyNQHwRQ0J2MNBSMdQ5rP56vlMt2uhwBSoa/oHBbiw5WWdOeTCr0bSoAmplJsFsZqveeUmySxRl++bM6lr8IB2BxJDwgxhhZt/yMZdj9oo7AkhE4bihEhwoAHut5acgJCSM/jBWyNNesYOrtdASKQIBwzdiI9e3GqRDuUJw/8f5OVyLQyrVlWTbK/vbKTsV/xKYCYMXMJwStIY6vYyKg5XrO8kTv6Ms4PsIHkiDwLpVBuV5JUVZo8YyFyCzr5Ag4AnEhQLKn0xEyfr1QitXLqVd7yzg+acgihhffOfcGK2Na+D0cgaEQiCkMDEVvO+n11SttJL0eCuyCTkb4f14ykV3v6PNh+czfFIRGqZcxqQDI3hOUIrL516UiVeTNcCd/1pUAi0KKImAzZVHkEXCDtKcxeAQYMlItiq1/6QikhIC13CqTESk1Y5kH1mJhj9e8tG8s88bb4Qh0IhBDiWks/mT0v0sWf2tlrzuxLOMzwv9zcvu3pMC/Epe/nJdJr/wi9iMmFQAtULPGH8cO7qLtw1XJlQCLQjQ/zpK6N0l7erc8AggNqDJeFI2ukyPgCMSFwOvGhDFrwm4Zo21NKeJVYcqYFX4PR2A4BFZUaKUhmSnGKgT/LTJeNSpsy3CoVXM2wj8y0HSkORsGR+VPBj81rjPtSjRz2e/FBeUIrUEJ8IwqR1Am0Kk/AoQGEEd1kxbZst1oWcudce8/Rn6GI1AmAqydlmqzt9YRQ+7uZY3lVKTJX3v1H3dVPPmcHAFHIB4E4NHKFrwxSmGculO8KcYql/v7zwdCNZ6R8J/CGjrX+P3+HY7zDLMKgOyB6acF6f8XJ6xDtApG4ikpAaadmRgINRbXDVpk71BoACUEy2IcuY8n7hpoiPwkR6A0BLDEWsqpulrriKWEd2UN5HKxIlV6d43ST/cCGAU1/40jMD4ECAFYX5KCFWXDzRcFf4xTLvgPNq4I/cg8MSZsHKwHnWf9Xfa+0891HrD02awC4CLIv2EJ7J5tpSoA2rBjNvMa9uzXuL+gasBtUgSgDEDzOk7N79bV4+6NX98RcASGQQDB39qauUZMo1N3BNaUxLh3v/vwR1EANC1pn4bvov/CETCHwDVj5NVQMJDQj2pVvNaLB3UaHIE3FK73tGSdVBJqZ8G0DGpbAdBsAn4apvNcjMRL0yG8qvyGfHYaHAHCAYi9epvyBFw3EcKqgqf1OjGmvtAPPh5+piNQBgLUYz9vrDKH13/uPTOsYYPi3pMB9h5P/8YRqAIBvDUR0oskEvttl2Lhbrn5U9LPw0GHQxeRZv+ZEF5Qwr905JtZ9eWjwwER19kFS0rldi574Ox+zabfLfeuY77b4XPzGjLKBToNhwCutddqkaaE4K3SzlJFYNkS/bJwS71Rbl5OjoAjEBcCR7RWWiKWoiljVu4y8cUDYInLdZnNbd3riHvtlY6539AR6IcAWfiXutaK9WspEm5ZOy/4b5NxyRNB90P+yu/J04OH88GzV35n+Ugz/HZ235nXLHfBvj9i1vg5aWG+yvIgXNH2VozMiflSIkVrMq+4WaIHcLXltUuL9ik5iVAq7CQWQy1GgxCMKNhTx3WpSoRB7ufnOAKOwOAI8BxbK/+Hp5LH//ceY7AhR4Kl2FAyWLNfu0Ww97j6N45A2QjAs90qw82rsjoflaJ4UKda8jxtkFs/eQRQSI4zrLRsTKq4Hx5SeDaT8T81yrIPWO+SNX17V7zzRyc/KcvB27p+af0gQijaTBdCixlJBIcZvWDccB8mFomMpDwJMKAko2q5kMl7oOhQgmJ64FdxBBwBQqXwlrJEuJBiRXLqjcABWYleE9NuidijcQt2cgQcgfgQeFP8HqViqRZzQYIowihu6PB6WPRX6oUCD74PV3+npSMAxvsuKl+WfrX4rpCHT2X3z3xWfA0brkWa8SlQ9mN6on8jhZ5c0QcSDRHriiWaTKNOS0OABZ6XY7k0HP3XjkBVCBB7fcyY8A9Wnkek/4zB8mbNqZI9epuUO9QBd3IEHIG4EFih55LQUF5O40cAeeVlKegH9bYdf4uKv0OW/WjxFy3/ilJ9JUD7pz8WsvzJBHrSvQtYqUmewQvm18kRcAQcgboicFhWYhl1TBGupYQAOC2OAJY4i+VWU4tvXXyU/FtHwBFwBC5HAKs/gv+zivdPWfgP+dNh3/RvXt55m38loQDIHgrN0Mx+3OYQDNFqSmh8RrkBeHdyBBwBR6BuCFB2zVryP8aorNrUKcwHi54SeAEkzfSmMLG8D46AIzAWBNqyCfkWUqc8++GWzJlAP5NQALTGYe3MryvRx/MJjMniXZi96A3wzMkQzlozgy3eNf/WEXAEHIFFEUD4t+gFRWIpp8EQsKgswTHvYA2Y38FG0M9yBByBOiBAtbLnLnon46mcPDWfDWtnPppKN5NRAGTvklNolv2HVAambz9OK/Pwk/IGIBlWihk2+wLgJzgCjkCtEMD6b1HIIrmotRr3VU6sdcoDYLFawjH3Aqhy2vi9HQFHoCQE2IsPKMkfMsjJGnkkZ9n/2pI1S4J53LdJRgEAUNl907+ltz8ZN2jRXB+rA5mwCQvABdHJEXAEHIFUETiE9d+glYGEo1kSBXfKmVlgtUGZ9a0RmcUPJVbr2toYeHsdAUdgvAi03f1f01qHIqAu1Mz/7+zeM7+bUneTUgC0BibLvkvvSkNZI8L15kXV2nxKYQF4Bjg5Ao6AI5ASAng5kfzPIl2tkqJOwyFgtUrLMVnDKCvr5Ag4Ao5ASghQOvtpJfgjGXn91rjZkDW+M6XhpC/JKQCye6efUkrAD6Q2UAP1Z0bCP7kByMLp+QEGgsxPcgQcAQMI4G5oMfafOtNktncaDoE1CgOwWA0Ai9h+zVUnR8ARcARSQIDkphgYEf5RAtSSmj+b3T/9RGpdT04B0Bqg1Su/XwkBX05tsAbuD3U4ic15RfkBapGYY2Bk/ERHwBGwhsA5MSBHjIY4bZQru3v/Dz/jwOxqo4kTCcerLaM8/FD7LxwBRyBCBAi3I8fYZ2RUrHOIcZ69KC3+D0Q4QktuUpIKgOzdb0hV1Xi3lAD1TZNPaA4Zsz8lRQC1OevnsrPkh8Mv4Ag4AhEg8KosqsRXW6RNBmPZY8F5k+HQiVeYs7EA6e1wBBwBR2BABPC0w+Pu05IdyDFmde8dsLt9TmvKT/7e7L5jintIj5JUADBM2f2n/2vImj+T3pAN2SMeXmpzkigQbZ7FJFpDdtlPdwQcgUQQOKGYaqtZhtfI9X/1skQGooJugB0YWqQzCsers9XM4ph5mx2BOiNAnp2DyrPz6eMhkODPq4vhvfeTCiv/y1SnRbIKgNaAzZz9j8pS+ZlUB2+ofhGbiDYPrR4Pt8V42qE67Cc7Ao6AaQRQXu4zHE+92bAFO5aJY9kLACuaM9GxzCRvhyPgCHRDgDXqNSz+EvzJX+Jr1jxKWf5kyGYe6gZZKseSVgBk3x7OK3Pj18uHRRksnFoI8HC33HvemPcI8BwBPjEcAUcgRgQOK5aa+H+LRB37DUZj2GPCmzwAy0gIYJAIu8Oi5uQIOAKOQGwIvOXqL8H/gBsFLx+e5ukw1/ia7J4gq2m6lLQCgGFrZW7MGvcoHk+Sr9NbCMBXtz0CPEfAW7D4B0fAEYgAAZgTrBJW6WrF/jeMCq4xYZ4JQ8t5FA6JfzzvZQFjmlLeFkeg1ggQBtwyAl509Xdv4Munw7ys+N7sgemnL/8ivb+SVwAwZIrh+E29/Vh6w1dAjwgNIEcAoQEoAqxa3AqAwi/hCDgCkSCwT2uRVVdE5P4t7v5f2EzasppYTJtEGAvVeJwcAUfAEagSgXMS/F+RMzSJwT3Gv/dIZNkPZ/ed/XjvE9L5phYKgNZw7Z/5PvkA/GE6Q1dwTzqTBT6rIgok33JyBBwBR6BsBChjesxo2T+wWie39VWe/K+wabNKbAqYWiWSWFqez1Zx93Y7Ao5ACDNKSPqiBP/PyHnWuzMAAC3sSURBVOJPOV2Mfk69EPjTsGb6B3p9mdpxq3r1kcYh/9WNa8P583+hH799pAvU7UcTYmKxZOGCiSumkyPgCDgC40QAq/+Tqjt83mjsP9jcus5u9vpxju1Sro1SCMW0VSInxJ3rQ7iqPjYXq0Pl7XYEkkAAI95BefdOa+106o8ACeOXr/jn2T0n5CJRD6qdVJc/PrVZdS3/SsO7px5DXEAvl4tp2SIlwDVyxYSRcXIEHAFHYBwIvCxLxVHD1n8s/zevDWGF1knPATD8DME69SYvKYBIokeSWt55nRQji6eaVVovL4ab11htvbfbEXAEYkcABTreRuT3sqxELxvnPH9ByWbfkd0zc6jsW1d5v1pKc/mH1u0Os7N/pbjCrVWCb+7eMLRktr5WigCvb21u+LzBjkDUCJyWq+Izsv6nQihLsfi237t+lsKALPcpK1YR6hHkSTbV+d7+TFIqBPz296mMf7d+3CQFgFeH6IaMH3MEHIFREUDYR3F+RIK/1dw5o/Z9qb/L86Ohuewd2ftOP7fUS1n7fS0VAAxS/vjEZ4dm+HO5tstc4zQ0AsRkblV4wNqrhv6p/8ARcAQcgcsQQEh8Up53JCqqK7UUAVIY8E4KgWUXlQetv/VZ/1peBe13wrL47rK/F4DHOQs9Ebh2O6QLZlH/LiPGom1pb3/f+d7+nqHi+FsvHeAzgjxCfeu4zmlf67Kb1PQPlECEAqSs8Knp0Hq3HYHSEZiW0vyQSvjh7q9l12lYBPKT2h8/X5b/Tw77yxTOF3dQX8ofmfgcMU9/Km5oY31RWGLPSdC0SYqAzXo5U7NEMP3njkBNESDrPyXTnByB1BEgp84NU6n30vvnCDgC40AAxeobWPv1OiMFgNNoCOT5idDI/8fs3rN/O9oF7P+q1goAhi9/dOLtCgVACbDJ/nBW2AMsSlfLK2CzmJsp9wqocCT81o6ALQTIUvxUQq7/ttD31laBwB6FAliubFAFZn5PR6DOCLBP4ub/Bm7+dQaigL5n+XHJff9Dds+ZvyvgamYvUXsFACOXPzJ1mzRBf6aP15odyZgaTiIsrBzuFRDTqHhbHIH4EGi5/kv4P+ccTXyD4y0aGwKEAtyhahG8OzkCjoAj0A0B9scTSn56VEI/lVCcCkAgPxKa2ZdkD8x8uoCLmb6EKwAuDp+qA9yuWMX/S39uMz2iMTWe2NP18gbYoqSBa5bH1DJviyPgCMSAAPWJX5dVw8kRqBsCeADgCeDkCDgCjkAnAijEyeaP4E9OFadiEGiGA/L2lvA//XQxF7R9FVcAdIxf/vjqHWEu+wMlhbir47B/LAKBSSkAKCW4Ua+FSamKuL5fwxFwBGwhgOCPAsDJEagrAjsnVV5X+XOcHAFHoN4IYO0/rmR+ZPInuZ9TsQjk4VMhb35F9sDZ/cVe2O7VXAGwYOzyD2yeCivPfFTxIf9ywVf+ZxEIkLUaJQAhAlPuFVAEpH4NR8AcAiQveuqUZ4g3N3De4EIRIHfOLSpE5B5yhcLqF3MEzCDQiu2X0I/w79b+8QxbJu/uCyu/JnvwuCcb6kDYFQAdYLQ/5g+F5eG6iferVNI3tY/5+xgQWKlcARsvJg7ks5Mj4AikjwBMDkn/qF3s5AjUHQGq59yufAC+B9Z9Jnj/64LAmyqTisCPm79n8h/vqGfh8XBh5t9kDwZPorAAaVcALACk88/88cnvDs3wo/IGcOm0E5iiPzML1yhXAF4BG6QQ8BCBohH26zkCcSCAm+Ozsvy7i2Mc4+GtiAOBCXnD3SpPADzknBwBRyA9BNoJ/RD6T0r4dxovAnmrVsL3ZPfP/Kfx3sju1X236TN2Sg74LxQ38lEljrimz6n+dREIwACtlxIAZcBaLydYBKR+DUcgCgTIZfTiaZUxcuYnivHwRsSFAErwW5QUkLAAJ0fAEUgDgbPydCPfjSf0K3E882PK9P/1yvRPYnenHgj4TtMDmM7DreSAeeM3dexzO4/75zEjsFIlklAE8FrhThhjRtsv7wiMF4FXZ0I4rFhHJ0fAEeiOAHvdDVPdv/OjjoAjYAOBC3LxR+jH2o8CwKk8BPLwtzLafrUn++sPuSsA+mPUOiN/f1gZJid/Qn98+4A/8dOKRIAqAleLOSJngNdOLhJZv5YjMH4E9p8J4eDZ8d/H7+AIWEeAqgBUB3ByBBwBOwjMXcziT2w/Lv54vDmVjED2y2HN9Ldl7wruZjgA8q4AGACkzlPyR6e+LoTmL8pNb33ncf9cIgJUD8BSQjUBj5ksEXi/lSMwAgKvSfg/4ML/CMj5T+qKgCsB6jry3m9LCBDXf0q55QhrQ/Dnb6fyEcjzE0oe9k3Z/dP/ufyb272jKwBGGLtWSEAIHwl54/NH+Ln/pCgEiJXcoLhJPAPIF+DJA4tC1q/jCBSDgFv+i8HRr1I/BFAC7JAngHNp9Rt773G8CCDjn5Kw3xb6sfw7VYhA9jchm313du+5FytshMlb+9Yy4rDlubblxyYJB/gJfZJfulOlCFBKab0UAVdrKDx5YKVD4Td3BIIWyPCyYv6JgXRyBByB0RCgKs6Nygngyu3R8PNfOQJFIICMT+WaN7Sf8aKUrVPVCGhAsh+Ry/8PyeXfEy2MMBquABgBtM6f5I9MfE5ohF/RRLyt87h/rhABlAHrxDiRL2CdPAM8q3KFg+G3rh0CuEHunfZSR7UbeO/wWBCY0h52s6oDsK85OQKOQHkIkMAPgf91WfzPu4xZHvD97pQ/rRLt35A9cObv+53p3/dGwHeU3tgM/E3+cLgqLJv8Lv3gB90bYGDYyjnRlQHl4Ox3cQRAAMvI8yr1N624SCdHwBEoBoHVqoKzZ62q4agyjpMj4AiMBwEM+2dkWD4hgd+F/vFgvLSrzkrG+qmQzTyU3RO8pNDSsBSUToUhkH9w8i5ppR7TBf9xYRf1CxWHwHIxT3gF4FbpYQLF4epXcgRAAGvJ3lMhnFMJJCdHwBEoFoGVUgLsVjgAFXGcHAFHoBgEEPpn2u79Evwp4ecUHwJ5+JRCC+9zq39xQ+MKgOKwbF0pfygsD9dNfov++BGpV7yWT8H4FnY5PAM2KGcASQTXeALBwnD1C9UTgaNSxr+ibP/E/js5Ao7AeBAgF8B1EyGQINDJEXAERkOAfer0RUs/yfxc6B8NxzJ+lcvSn2U/HmanfyR7MLhrYYGYuwKgQDA7L5V/cO3NoTn38zr2pZ3H/XOECMBU4RGwXi+8A/AUcHIEHIH+CLSS/UnwP+beeP3B8jMcgYIQYJ+6Xt4AnhegIED9Mskj0C7Zd0IyJCX7Zt3Sb2DM/zQ0ln1rds+p5w201VwTXQEw5iHLH514p7RXP6vb3DDmW/nli0JgSi6W68VgbZSHwEpXBhQFq18nMQRw+X9B8f68OzkCjkC5CBAScKOcDEkS6OQIOAJXIkBOGuL5EfhPSfBHCeBkAYH9auR/zO6b+YiFxlptoysAShg5JQmcCMunvkfusf9eYQHuu1cC5oXdYkLKAMIEUAjw2ckRcARCOCyL/35Z/p2h8tngCFSHAN5r21crJEAv5+aqGwe/czwIoJBG6MfSP6OXy/zxjE2/lsy7+/+k3P1/TO7+YjCcxomAbxnjRHfBtfMPrdsdmrM/rQXpnQu+8j8tIIDFpR0q4OUFLYyYt7FoBMiQ/PLMfNKkoq/t13MEHIHREJjQ3rTLvQFGA89/ZRoBBPx25n4s/e6RZnM4s/B7obH8O7NvPPmCzQ7Ya7UrACoYs/zRyS+SEuAnQiN8dgW391sWgQCxl3gFrNMLpYDHYhaBql8jVgSw9B84K8u/XrWwqNBJ3x5jnY7eri4IMF23yMFwu5IELvO52wUhP5QKAnNan0/Kuo9bP9Z+T+Jnd2Tz/Ck1/ruz+8/8gd1O2Gy57xIVjZtyZ2XhsamvDln+42rCDRU1w29bFALkDUAZQCJBDxUoClW/TgwIwGC9Km+88x7rH8NweBscgUURWKG8NTulBKDKjZMjkAoCbdd+BP9peaJ5xRnbI9sMB8Ky/AfD1JnHsncFZy4qGE1XAFQAeuct84+FFeHU5DdpNXtIyQLXd37nn40icJUYMLwCeK2RYoDQASdHwBoC02K0sPpjZXFyBBwBWwiw91xHWIDnrrE1cN7aFgJvKks/ew/CPkL/my4jpjEz8ukQGj8V1kz/uAR/MRhOVSHgCoCqkF9w3/zhNZvCVc3vC83woCcKXACO9T+xyMCEoRAgY/NqVwhYH9Kk24+l5TVZ/KmP7OQIOAK2EWDf2SGPAPdMsz2OqbcegR9hvyX0S+D3WP7URvy8OvSwDJ0/nN07fTS1zlnsjysAIhu1/CNTW8Js/l1SBHyHKwIiG5yimtP2EMBC4wqBolD16ywVgfNiwA4g+GufrkWc/1IB8987AoYQ2KgQte3yCFglhbSTI1A1AuekaD590cJ/WoK/h5hVPSLjur8GOfzn0Jz7/uyBcy+N6yZ+3eERcAXA8JiV8ov84dU7w/LGv9PNHtTLg/lKQb2im5CwaRJlgF5rLoYNZP5oVjQa9bvtjJgvyvq54F+/sfce1wsBthVy1VyjZIF4Bjg5AmUggEKZTP1Y+Aktw8o/61rmMqCv8B5NGTF/KzSXfW92/6m9FbbDb90DAZcyegATy+H80VW7Qrb8e2WSu1dtkoTolDwCPJW4a6IQ4N3zCCQ/5JV0kOR+BxWCB1Pm5Ag4AvVCgL1li2wLV+vVcFawXoM/5t6SpR/FctvCzx5DJRmnOiAwL/jPNr4ve9/p5+rQYat99FXfyMjlj6y6ITSW/Vu55r7PQwOMDFqRzSSR4CQvWW1aigF9dqatSITrcS3KJR2Vi/8RWfy9dFI9xtx76QgshgA5ajZLCbBJXgF8dnIEhkGAbPwI+zNy6ecdCz/hZE51Q2De1b/R+NHsntPP1K3zFvvrCgBjo9YRGnC/mq7MPk61RYBkglhxCB9ovbtSoLZzYbGOY3k5ob35dQn+J2X1d0PMYmj5d45APRGAG2Qv2SRlwEa9CE1zcgQWIkByPgR9XPpb7/rbrfsLUarP33l4U0bJj4Z82Q+6q7+tYfcV3tZ4vdXa/PGpzWLkvyXkTSUL9PKBbwFT5w94BLQVATByKAh4eT6B+s0KhHwsMcck9B+X0I9LppMj4Ag4AoMgwF5C0kAUAes8V8AgkCV3Dpb9c7LkvyXoX7Tyu7Cf3FCP1iHK+WWPh+XNn8jee/bAaNfwX1WJgCsAqkS/gHvnv7BuQ1h54Vt1Kb2yLQVc0i+REgI84asuKgJ4RzHAi0oETmkhAGNGciWs/cT3u4t/WuPrvXEEqkBguTYREgaSPHCDXu4ZUMUojPeeKIjPyJJ/TkJ+28KPSz9KACdH4DIE8mOKP/1AyBvvl8X/jcu+8j9MIeAKAFPD1bux+ftVKWBy8mtDln93yLM7ep/p3zgCQoBYT7wF2mEEE1IOoCBwsoUApZMQ+HHtp5SSW2dsjZ+31hGwhADeZGu1b6AMWC+lALlpnOwggDz/pqz6bRd+hH1eXoLPzhhW1dI8f0FGxp8LczOPZA8G1Qt2so6AKwCsj+CC9kthm4UPTn6RwgO+Q68v118+xgsw8j97IABzh2KgHTqwUp9XidlDOeBWnx6glXwY5o2Mylj6cfGHeXNyBBwBR6AKBPAko0rNlJQBJKfFu8ypegRQBJOIry3c836Ol/YO3zKqHx9TLcj/q6z9PxvWTv929i6fPaaGrk9jXTjsA5Dlr/PHJz5bPlz/Tg/v16gf2qGdHIEREYDRw0NgFQoCMXkoCfh8ld59FRkR1D4/g4mDccNaQzklLPzu1t8HNP/aEXAEKkMABTKKgDViN1Ac42Xm1WrGNxxY7onTbwv37c8oip0cgdERmJUB8bfCsvynsnvO/N3ol/FfxoyAs+4xj05BbcsfWX1dyBrfLGXA/UoIt7mgy/plHAEJ/1pCUATgCgrzh9fACj7rOMc818Bgs2RWwn472RJCP595dyoOgbxlvbgghZXqnTnVGoE8PyHB9AUxuU/p9aT2xqdCQ5+a4de0pq2tNTZFd74dZsY7HgIoBcgr4NQfAQT5N7UPvKn9gXes+hxrC/4eo98fQz9jcATy/HWti4+G5twvZvefe2XwH/qZFhHwVdjiqI3Y5laegImprxQD/J1ieP7piJfxnzkCgyOA9QdlAJ4CLeVAp7LgoqKgLlUKsOhjqel0zWxZbnQMBYDT+BCgVFFDIVFTM38eZtbeGJqzt0nQ260kV7ulxbpJ6yHvu9QA95Qa3yiUfGVlqc4l5DcUu9rM9rbeQ2Ov8uQ8ld0zc6hbY/JHpj5f5/2xvlP6e6exIYACoOVRxr6gF8qBVsiZ3uviMYDw3hLmO4T6lsB/UcC/oO89p8vYpqBfuBOB5jPyFP4lj+/vxCT9z64ASH+Mu/Ywf3z1f68H/tv05Vfp5UxvV5T8YCkIiOdreQosx3tAL7wGYBD5mxf5B67ib72WXfy7lIYNeBMyKM+JaUOIx0W/zcTBwHX+PavvnMpHAMt/I/u67N7p31zs5vlDYXnYuWpnmFu2W0Lg7paCYE5KgmX5TikKrpOC4JrFfu/flY4A3hwHJSS9KgXOyyFbJou+hP1G84Uw13ghe2Dm8CgtUondr9U15QkQWJmcykagvQ+09wLWfj63/zaxD7An6MWa33rpM/sC+0Frn5DSV/+cHIEKEZjVGvdxKUd/Prt/+r9U2A6/dUUIaGV1qjMC+cMT10rIelAM1APCYVudsfC+G0KgkwnEYiT+sKUoQFnA3+2khXgX8B3E58VYevFoLaaNc7HOIK9jgWm/c6wl7Ot4m6lD8Od3TrEi0NT43JvdP/PhpTZw3oNq7Y6QNxVSle9ovfKgz9kOTYKduv5WWZw3i6nSRHNaEgJ4bOThqJ7jfcJ7v5jU/XqOXxHW+8PcnD5nr4Z9Zw5lD7WeziXdqtuP80cn7tWC8aiPZTd0IjnGU4ZCuK0sZm1n3W+t+Xpn3W/vDW0vs9b3i7QfobztVs+63/7Mus9e0Fr/+azv3vpbf3Bc/5wcgfgRyKUYbTzWcvN/4Oz++NvrLRwXAs6ojAtZY9eV9asRdk5+oZr9Pm1k/1rvCtRzcgQcAUfAKAK5VrIs/+bsvjO/VFYP8o9JxTQzSZ6VzWFWCoFG2NL6HALeA1svftb3+UZ9Xi9pZZ3e6+CBRdmoExKoTuj9DXmfHQ1Z85By0xzR30f1OiRhbf7z2cbh7JtPHtexSil/bOI+KXQecSVApcPgN3cEHIEiEMjC32vf+eWQnflIdk84V8Ql/Rq2EXAFgO3xG0vr80dX7QqN5feLWZMVxL0CxgKyX9QRcATGh0BL+M++Lbtv+gPju0kxV84/EiZDvnp9OL9svYTg9WHZ3Lowp/fAK18ji+akFBkrJIyuk0pjucIT1skirr+bk1IwTOj7lbJIKnFddsm/JctX6zeXJzvkN5nu1aZWIryFdsvstK6tDJRtap5Tm87KXXlabbmg+0mA5/vslEyg53XvM9onZvR+Xt+fCM3G8ZaQv1yfLyw7GVbpfdX0CZWPerN9RUvv+eOT3ylsf8qVAJZGzdvqCDgC8wjkR7RvfEiuMY9k95/a66g4Ap0IuAKgEw3/fBkC7hVwGRz+hyPgCFhAAOE/ZN+uuMaft9Bcb2PcCCgc4EEpOH5BrcSp3MkRcAQcgbgRaFv7p878ipSvZ+NurLeuKgRcAVAV8sbu+5ZXwFx+j9ig7caa7811BByBOiAwX+rvHsX8/0oduut9LAcBeQLcI08AwgEueVmUc2u/iyPgCDgC/RHI86Py1vpwmG08kr3v9HP9f+Bn1B0BVwDUfQYM2f9WjOupyS/Rz75Rr38lhuhyN9Mhr+enOwKOgCNQEAJyQ8/+F7n9/1ZB1/PLOAJvIZA/OvV1CnP4sPa8FW8d9A+OgCPgCFSHwAW5+P+hwrE+FObO/EH2YLhQXVP8ztYQcAWAtRGLqL35wxvWhavOf60cbt8jxvvzImqaN8URcARqhUDztDy0vzq7b+ZPa9Vt72ypCOSPTX2BmO2Pa78jeaOTI+AIOALlI5DnT2kN+oh47w+NWu60/Eb7HWNDwBUAsY2I0fbkj0zdpnrZ75Wb5HtlISHbtZMj4Ag4AmUgcFBhSf8yu2fmk2XczO9RbwTkCXCnEiz+kVC4rt5IeO8dAUegNARI2po1PibB/1ey+07/VWn39Rsli4ArAJId2mo6lj+kLNXXTXyZyjzdIybpy91dsppx8Ls6ArVAIA+fDI3mV2b3nt1Xi/56J6NAoJUTJ2/8nmJu74qiQd4IR8ARSBEBKrL8sYT+D4U1079ntZpKigOTQp9cAZDCKEbah/zxKeph/8+hmX+9FAH/JNJmerMcAUfAIgLN7ONh5fQ3ZO8JMxab7222jUD+2KY1IZz7VeUF+ErbPfHWOwKOQFQINMM/yKvt1/T6dXm2HYqqbd6YZBBwBcD/397dx1hW1ncAf869O/syM/tmFQmgqPHd1JdIqCCJ8d1atdSKNY1iWbGbSLQvaZqmja2p/ac2TRMTTSDCilpaNfElYLVqsG0Q0ILYF1CpBURXFCzL7szOvs55+r13RUlcZFl35p577+ckN2fmzr3n/J7Pc+eec37neZmYqux2QYZ3TEr/DaVpL0hf3ad0O1rRESDQWYHBNH+98p5y594/bd6VTkcWAiMSqDWp7cvm/6LU+uf5yfnUiOrBbgmMvUBT7syR7VM5tu3QnW3sa3MsCuCANRbVNFlB1g9sOLP0er+dU/ffyimT8QImq3qVhsDKCdS6J/0gtxnpf+WIbfnhC2RcgPNKs3xpkttpFWAhQIDAMQgMp+4rH00C8Yqybd/1TZMUgIXAKglIAKwStN38rEDGC+iVx2w8O00o31Rqm9YBzaaffZVnCBAgMBCo38jF/+uabYsZAdlCoFsC9ZKNTy795Y+nv+4zuxWZaAgQ6IxAW/aVfrkqXWM/nKn7Pmfqvs7UzNQFIgEwdVXezQLXi8ts6c+/Ji0CMq1gfUXW67sZqagIEFh1gbZcWjbvfXsGQdq36vu2QwLHKDA8js3MvT/38d58jG/xMgIEJl/gQM5pP59Wr/9Y1u79tHFrJr/Cx6GEEgDjUEtTFuORZMDsizPCcloGlMEAS+umjEBxCRAYCtTdpTZvay7cewUQAuMikAFwX5dWbRenNcAjxiVmcRIgcAIFalnOTFjX5/j18bLc+/tm+8KPTuDWbYrALywgAfALE9rASgrUHVu2lPbQIAlwXpIBL0sWde1K7s+2CRDoikD7pdwxOb95677vdSUicRA4VoF68YbHZqybD6Wj2wuO9T1eR4DAGAs88KK/11yR7mr3jHFphD7hAhIAE17Bk1S8+oFNuZty+NyMFfD6lOvFeayZpPIpCwECA4F2oZT+n5XvLr7PKP8+EeMsUD+W3r4Lc7+fRNa7kwjYMM5lETsBAkcVOJxnr84YNR8rdc0nmwv33HvUV3mSQMcEJAA6ViHCOTaBevnGXyrL7WvSKuC1ecdL89BN4NjovIpAdwWacmUSABc12/Z9t7tBiozAwxMYDhDYyywBTXPOw3unVxMg0EGBA4npCxmv6pNlpv/p5s0L/9fBGIVE4OcKSAD8XB5/HAeB+pFHbCr7D76y9Oprc6fllekmMDcOcYuRAIEfC9Tyg/SXfkdz4WJGUbcQmDyBI7PezF+UBNe781nfPHklVCICEyxQy9706f9sknifKGvXfaZ54717Jri0ijYFAhIAU1DJ01TEuiOzByzPvjTThb0qJ1rn5kTrpGkqv7ISGCuBmjY8TflIWdP7A3dRxqrmBHucAnXH3MlJVL8nn/w35rPvHOw4Hb2NwIoL1HpfBqPOnf5M27d/9hPNRfcsrvg+7YDAKgk4+KwStN2svkBmE5gpM3MvyJf3q7P3wePxqx+FPRIgcFSBpt5c2l5G+F/8t6P+3ZMEJligXjb3kjQhfm+S1E+b4GIqGoFxE7g9AV+Z1NyV5dDef222l0PjVgDxEjgWAQmAY1HymokQqJetf0Jp+69OM67zctJ1VgrVm4iCKQSBcRJoy87Sr39Z7ly6LIP8DQZQshCYSoFht4DT5n8zx6S/CcDpU4mg0ARGK9DmYv+mTNd3VWnbK8uFS19rmtw2shCYcAEJgAmvYMU7ukC9eOMjy5p2MF7AqzJf8yuSC9h49Fd6lgCBEyNQF9N/8n1l3+xfaUp5YkRtZTIE0lpttvTn3p6RxP8k/yNbJqNUSkGgowJt2Zf/tS/nf+2qJN8+3rxl6fsdjVRYBFZMQAJgxWhteFwEhuMG1LlzftxVYDCrwGnjErs4CYyBQJpQNjvSIeedzfmLd49BvEIkMBKB4VS3veU/zhgBv5fk9PqRBGGnBCZRoNZ7csH/udzpv7Ic2PBZSehJrGRlejgCEgAPR8trJ16gDoYk++DsGemb/GvJEP9qCnxGHroKTHzNK+AKCLRpXXNFmvu/s7lg/x0rsH2bJDCRAsPuaqV5d6m9N6SAjj8TWcsKtcICbbZ/Q87j/inrz5RtSzdq2r/C4jY/VgISAGNVXYJdbYF62fyjcgB5eVoHvDLrl+ZO5iNXOwb7IzBWAoPmlb3m8ly8/G1z4Z5vj1XsgiXQIYG6Y9OT0i/5jzJY4PlaBHSoYoTSUYH6o5yjfSH/K7nob/652bZ4T0cDFRaBkQtIAIy8CgQwTgJH7sz0XpKDy2AE5xdn/Yhxil+sBFZMoNY9aWL5wSTK/lqfyhVTtuEpFBgmomu5KFPbZpwAx5wp/Ago8lEFMq5MW67PceeLOR/7Ytm5dFMGlh3c+bcQIPAQAhIADwHkzwQeTKB+rPTL7tln5+BzThppPj8HoJfl5Gzzg73e8wQmVOCufO4vKYdn/q7Zvmv3hJZRsQiMXKC+71HzZd3SW3K8+cO0SnvsyAMSAIHVFVgqbb229HoZwK9eY5q+1cW3t8kSkACYrPpUmhEKZCTnmdLfeGZpll+Uu6AvTBPoszTbHGGF2PUKCzTX5STs/TkJ+6i5kleY2uYJPEDgyLFm7g3pavO2JJ6f94A/+ZHA5AjUsr807bUZuO9LpfS/VJYXvupYMznVqySjFZAAGK2/vU+wwHB2gXb+rBTxhaUsn531maYbnOAKn4qi1YziXz9cmv5l6V95y1QUWSEJdFigXjL/jAy0uS2JgDelNVrGrLEQGFeBdqG0zVdK07s2N0/+pfQWr2suSBLAQoDACReQADjhpDZI4OgCwy4D980/NSdrz02T6XQZaM/J+mk50Pk/PDqZZ7sh0KbZ5dU5KbukbFr8dPP6crAbYYmCAIH7BYbHl8W5JJvL76Z7wG9kveb+v1kT6KjAXTn7uSa99tOkv3djObzwFXf4O1pTwpo4ARceE1elCjROAsPBndo2TTibs3LSdnYOhmfkMTdOZRDrxArcms/kB9PM/3KD+k1sHSvYBArUyzecWg43b07T6d/J8eRJE1hERRo3gVr25nhyQz6P16YV2XVluX9ds30ho/ZbCBAYhYAEwCjU7ZPAgwjUd+Wuzamzz0o2/KzSW05SoHdGXvrEPMwF/SBmnj6BArX8Ry74P5m+xZ9oLtj7XydwyzZFgMAIBOqlc89KgjktAto8mmeOIAS7nD6BwUj8mQK2/fdS+9eXXvrx37n0nxmh//D0USgxgW4KSAB0s15EReAnAsORn9fufUouyp6RJ9N9IF0IavPcZNLX/+RFfiBwfAJtPkc35fN0VS4O/qF5y8K3jm8z3kWAQNcF6o71j8ud119Pku+8/L8PxqeRWO56pXU/vsMZf+LWjD9xY+7w35hP1M2l7X+tuXDPvd0PXYQEpldAAmB6617Jx1gg/T3Xlj2zg4TAc3LAfU4OvM9JYiB3d3obx7hYQl8dgaXs5pqcsH2qHGo/1WxfyjR+FgIEpkmgXjp7SlqYnZu7s+eW5eFUthumqfzKejwCGaSvNmkllqRx09yUsWG+XpaX/lu//eOx9B4CoxWQABitv70TOGEC6T7QK6dsfGJZU5MQqM/OHZ6nJinw9OzgCXkYEOqESY/Zhupw0L6MrNxcnUTR1WVp8SvNO8qBMSuFcAkQWCGB+t6yrszPPy+Dsb0ozbZflO+KX8muZlZodzbbfYFBU/3bcg6RmV7qN7O+qfR6N5Xv7PnfNOMfNO+3ECAw5gISAGNegcIn8FACwzmjZ9Y/prS9tBhonp6TuyQE2kHrgUHf0PmHer+/j5lALctJBX09F/tfzt2aa8ryzOeb7bt2j1kphEuAwIgEcsyYLTNzZ+f745zSts9P97MXJBQJgRHVx4rtdpgcrt9O/d6cfdyWY8Ytuat/c9m8dEtme9m3Yvu1YQIERi4gATDyKhAAgdEIDFsMnLr+9GT2n5oTvUFy4CmlaQctBjLoYHPSaKKy1+MQ+E7u0tyQOhz0wbyhtGu/6oL/OBS9hQCBowrUHVu2lPbQmfmeGcxSM5jG9ox81zz2qC/2ZAcF6g8T1LfT5eMbGf8hd/RrLvTbb5ad+7/jjn4Hq0tIBFZBQAJgFZDtgsC4CRxpErr+1FL6aS1Q8xi0Ghh2JTjye222jluZJiTeQX/9G1Mfudhv82i+2rx17+DkzkKAAIFVE6gXb91c1hz+5XwPDQakzcC0GZy2SQszy+oL1LI/x4Tvpy5uS0I/d/LroPl+1vl9w/r/ad54757VD8oeCRDosoAEQJdrR2wEOipQ3795a1l/6PFlufe40quPT5Igj+b03BU6LSeDj07Yg0evo+F3PayMqlxuj2NG5G+/lZPqW+N8a3rp3tKcv3h314MXHwEC0ylQPzR/UjlUnpELzyfnTvOTcghI67KSn0uOD8ahOc5PxaDP/SDJ+4M8dsb1jiR+by9tc0da7N1eDs7c0bxt967j3La3ESAwpQISAFNa8YpNYCUFMktBvyzMPjonfidnP6fkcWRdkxiovVPz/Em5S3Fanh+8Zu1KxtLJbdd6X9IjOxNb7tr0ckI3mEYpj9L/Vjm8cJtRlTtZa4IiQOA4BIbj0KzZ+ITSLA+6mz15+Oi1p2c4ucGxIC3Nms3Hsdlxf8uBJEfuToL3e0fWbS7uc6FfBxf5wwv+7yeZclfZunR3+uMvj3thxU+AQLcEJAC6VR+iITB1AvXijY/Mxe+jSz/dCury1pwQZV2OrJu6Jac+W5NO2JrBibbmojl/y9/brHulY9NWZYqk0tudsuxOfLkj0+xMOe5KnN9Lpf4gcX+39Ht3lYN7duYCfzAVn4UAAQJTLzAcdLDZeFpak52c78/HBOTkfIcOEsSn5PdTfvy9nyRBm0fHprptM1heL9/3Td01/N7vNbtyzNqVY9auJHbzfC/PZ90b/L0/+Pm+HAt+2Gxf+NHUVzwAAgRGJiABMDJ6OyZA4BcRqDvK+nJwdmtZNzNbDh3aUvo1Ux3m5LCpa9Nkfi7rDXmsz8nWfC7EZ5JY2JTf+0cSCFn3y6bh/tv2QGn6P70gH5zI3b/Uui+vT//KLL1mX07eMpp+Hs3gQr/Nz+19Zf+6XeXu3bsNpnQ/mjUBAgRWRmA4eO1pm7aU3sEt+VLekhZUm9PlIImBYSuCPJfjwmAZfPc3zU+TxA8ct6Yuz6av/Lrh65bLnny3L+f1uWDPutY9uQN/KL8vDr/7a773++3e/Hww3/cLZbk5XGZm7isHDi2VtUu7mgsG/e8tBAgQIECAAAECBAgQIECAAAECBAgQIECAAAECBAgQIECAAAECBAgQIECAAAECBAgQIECAAAECBAgQIECAAAECBAgQIECAAAECBAgQIECAAAECBAgQIECAAAECBAgQIECAAAECBAgQIECAAAECBAgQIECAAAECBAgQIECAAAECBAgQIECAAAECBAgQIECAAAECBAgQIECAAAECBAgQIECAAAECBAgQIECAAAECBAgQIECAAAECBAgQIECAAAECBAgQIECAAAECBAgQIECAAAECBAgQIECAAAECBAgQIECAAAECBAgQIECAAAECBAgQIECAAAECBAgQIECAAAECBAgQIECAAAECBAgQIECAAAECBAgQIECAAAECBAgQIECAAAECBAgQIECAAAECBAgQIECAAAECBAgQIECAAAECBAgQIECAAAECBAgQIECAAAECBAgQIECAAAECBAgQIECAAAECBAgQIECAAAECBAgQIECAAAECBAgQIECAAAECBAgQIECAAAECBAgQIECAAAECBAgQIECAAAECBAgQIECAAAECBAgQIECAAAECBAgQIECAAAECBAgQIECAAAECBAgQIECAAAECBAgQIECAAAECBAgQIECAAAECBAgQIECAAAECBAgQIECAAAECBAgQIECAAAECBAgQIECAAAECBAgQIECAAAECBAgQIECAAAECBAgQIECAAAECBAgQIECAAAECBAgQIECAAAECBAgQIECAAAECBAgQIECAAAECBAgQIECAAAECBAgQIECAAAECBAgQIECAAAECBAgQIECAAAECBAgQIECAAAECBAgQIECAAAECBAgQIECAAAECBAgQIECAAAECBAgQIECAAAECBAgQIECAAAECBAgQIECAAAECBAgQIECAAAECBAgQIECAAAECBAgQIECAAAECBAgQIECAAAECBAgQIECAAAECBAgQIECAAAECBAgQIECAAAECBAgQIECAAAECBAgQIECAAAECBAgQIECAAAECBAgQIECAAAECBAgQIECAAAECBAgQIECAAAECBAgQIECAAAECBAgQIECAAAECBAgQIECAAAECBAgQIECAAAECBAgQIECAAAECBAgQIECAAAECBAgQIECAAAECBAgQIECAAAECBAgQIECAAAECBAgQIECAAAECBAgQIECAAAECBAgQIECAAAECBAgQIECAAAECBAgQIECAAAECBAgQIECAAAECBAgQIECAAAECBAgQIECAAAECBAgQIECAAAECBAgQIECAAAECBAgQIECAAAECBAgQIECAAAECBAgQIECAAAECBAgQIECAAAECBAgQIECAAAECBAgQIECAAAECBAgQIECAAAECBAgQIECAAAECBAgQIECAAAECBAgQIECAAAECBAgQIECAAAECBAgQIECAAAECBAgQIECAAAECBAgQIECAAAECBAgQIECAAAECBAgQIECAAAECBAgQIECAAAECBAgQIECAAAECBAgQIECAAAECBAgQIECAAAECBAgQIECAAAECBAgQIECAAAECBAgQIECAAAECBAgQIECAAAECBAgQIECAAAECBAgQIECAAAECBAgQIECAAAECBAgQIECAAAECBAgQIECAAAECBAgQIECAAAECBAgQIECAAAECBAgQIECAAAECBAgQIECAAAECBAgQIECAAAECBAgQIECAAAECBAgQIECAAAECBAgQIECAAAECBAgQIECAAAECBAgQIECAAAECBAgQIECAAAECBAgQIECAAAECBAgQIECAAAECBAgQIECAAAECBAgQIECAAAECBAgQIECAAAECBAgQIECAAAECBAgQIECAAAECBAgQIECAAAECBAgQIECAAAECBAgQIECAAAECBAgQIECAAAECBAgQIECAAAECBAgQIECAAAECBAgQIECAAAECBAgQIECAAAECBAgQIECAAAECBAgQIECAAAECBAgQIECAAAECBAgQIECAAAECBAgQIECAAAECBAgQIECAAAECBAgQIECAAAECBAgQIECAAAECBEYk8P/w9B2F1GuRowAAAABJRU5ErkJggg==;align=left;" vertex="1" parent="1">
          <mxGeometry x="619.84" y="570.98" width="62" height="62" as="geometry" />
        </mxCell>
        <mxCell id="BNi_J-HcAc2oYYCLPXiT-20" value="" style="endArrow=classic;html=1;rounded=0;entryX=0;entryY=0.25;entryDx=0;entryDy=0;exitX=1.015;exitY=1.045;exitDx=0;exitDy=0;exitPerimeter=0;" edge="1" parent="1" source="BNi_J-HcAc2oYYCLPXiT-9" target="BNi_J-HcAc2oYYCLPXiT-19">
          <mxGeometry width="50" height="50" relative="1" as="geometry">
            <mxPoint x="457.97980000000007" y="456.9760000000001" as="sourcePoint" />
            <mxPoint x="672" y="633.98" as="targetPoint" />
          </mxGeometry>
        </mxCell>
        <mxCell id="BNi_J-HcAc2oYYCLPXiT-21" value="&lt;ul&gt;&lt;li&gt;evil LLM with&amp;nbsp;deepseek-ai/DeepSeek-R1-0528&lt;/li&gt;&lt;li&gt;SLM sentiment analysis with distilbert-base-uncased-finetuned-sst-2-english&lt;/li&gt;&lt;/ul&gt;&lt;div style=&quot;forced-color-adjust: none; padding: 0px; margin: 0px;&quot;&gt;&lt;br&gt;&lt;/div&gt;" style="text;whiteSpace=wrap;html=1;" vertex="1" parent="1">
          <mxGeometry x="436" y="616.98" width="455" height="59" as="geometry" />
        </mxCell>
        <mxCell id="BNi_J-HcAc2oYYCLPXiT-22" value="Azure Content Safety" style="image;aspect=fixed;html=1;points=[];align=center;fontSize=12;image=img/lib/azure2/ai_machine_learning/Content_Safety.svg;labelPosition=center;verticalLabelPosition=top;verticalAlign=bottom;" vertex="1" parent="1">
          <mxGeometry x="343" y="184" width="55" height="55" as="geometry" />
        </mxCell>
        <mxCell id="BNi_J-HcAc2oYYCLPXiT-23" value="" style="endArrow=classic;html=1;rounded=0;entryX=0.509;entryY=1.018;entryDx=0;entryDy=0;entryPerimeter=0;labelPosition=center;verticalLabelPosition=top;align=center;verticalAlign=bottom;" edge="1" parent="1" source="BNi_J-HcAc2oYYCLPXiT-27" target="BNi_J-HcAc2oYYCLPXiT-22">
          <mxGeometry width="50" height="50" relative="1" as="geometry">
            <mxPoint x="365" y="362" as="sourcePoint" />
            <mxPoint x="483" y="362" as="targetPoint" />
          </mxGeometry>
        </mxCell>
        <mxCell id="BNi_J-HcAc2oYYCLPXiT-28" value="" style="endArrow=classic;html=1;rounded=0;entryX=0.509;entryY=1.018;entryDx=0;entryDy=0;entryPerimeter=0;exitX=0.48;exitY=0.024;exitDx=0;exitDy=0;exitPerimeter=0;labelPosition=center;verticalLabelPosition=top;align=center;verticalAlign=bottom;" edge="1" parent="1" source="BNi_J-HcAc2oYYCLPXiT-2" target="BNi_J-HcAc2oYYCLPXiT-27">
          <mxGeometry width="50" height="50" relative="1" as="geometry">
            <mxPoint x="271" y="354" as="sourcePoint" />
            <mxPoint x="371" y="240" as="targetPoint" />
          </mxGeometry>
        </mxCell>
        <mxCell id="BNi_J-HcAc2oYYCLPXiT-27" value="policy" style="sketch=0;outlineConnect=0;fontColor=#232F3E;gradientColor=none;fillColor=#232F3D;strokeColor=none;dashed=0;verticalLabelPosition=middle;verticalAlign=middle;align=right;html=1;fontSize=12;fontStyle=0;aspect=fixed;pointerEvents=1;shape=mxgraph.aws4.source_code;labelPosition=left;" vertex="1" parent="1">
          <mxGeometry x="266" y="321" width="22.66" height="31" as="geometry" />
        </mxCell>
        <mxCell id="BNi_J-HcAc2oYYCLPXiT-29" value="stage-1&lt;div&gt;stage-4&lt;/div&gt;" style="text;html=1;whiteSpace=wrap;strokeColor=none;fillColor=none;align=center;verticalAlign=middle;rounded=0;" vertex="1" parent="1">
          <mxGeometry x="490" y="213" width="60" height="30" as="geometry" />
        </mxCell>
        <mxCell id="BNi_J-HcAc2oYYCLPXiT-31" value="stage-2" style="text;html=1;whiteSpace=wrap;strokeColor=none;fillColor=none;align=center;verticalAlign=middle;rounded=0;" vertex="1" parent="1">
          <mxGeometry x="526" y="318" width="60" height="30" as="geometry" />
        </mxCell>
        <mxCell id="BNi_J-HcAc2oYYCLPXiT-32" value="stage-2" style="text;html=1;whiteSpace=wrap;strokeColor=none;fillColor=none;align=center;verticalAlign=middle;rounded=0;" vertex="1" parent="1">
          <mxGeometry x="295" y="247" width="60" height="30" as="geometry" />
        </mxCell>
        <mxCell id="BNi_J-HcAc2oYYCLPXiT-33" value="stage-3" style="text;html=1;whiteSpace=wrap;strokeColor=none;fillColor=none;align=center;verticalAlign=middle;rounded=0;" vertex="1" parent="1">
          <mxGeometry x="543" y="414" width="60" height="30" as="geometry" />
        </mxCell>
        <mxCell id="BNi_J-HcAc2oYYCLPXiT-34" value="stage-21&lt;div&gt;stage-5&lt;/div&gt;" style="text;html=1;whiteSpace=wrap;strokeColor=none;fillColor=none;align=center;verticalAlign=middle;rounded=0;" vertex="1" parent="1">
          <mxGeometry x="512" y="526" width="60" height="30" as="geometry" />
        </mxCell>
        <mxCell id="BNi_J-HcAc2oYYCLPXiT-36" value="OpenAI Assistant" style="image;aspect=fixed;html=1;points=[];align=center;fontSize=12;image=img/lib/azure2/ai_machine_learning/Azure_OpenAI.svg;" vertex="1" parent="1">
          <mxGeometry x="631.84" y="367" width="36" height="36" as="geometry" />
        </mxCell>
        <mxCell id="BNi_J-HcAc2oYYCLPXiT-37" value="stage-3" style="text;html=1;whiteSpace=wrap;strokeColor=none;fillColor=none;align=center;verticalAlign=middle;rounded=0;" vertex="1" parent="1">
          <mxGeometry x="530" y="375" width="60" height="30" as="geometry" />
        </mxCell>
        <mxCell id="BNi_J-HcAc2oYYCLPXiT-39" value="" style="endArrow=classic;html=1;rounded=0;entryX=0.032;entryY=0.556;entryDx=0;entryDy=0;entryPerimeter=0;exitX=0.948;exitY=0.5;exitDx=0;exitDy=0;exitPerimeter=0;" edge="1" parent="1" source="BNi_J-HcAc2oYYCLPXiT-9" target="BNi_J-HcAc2oYYCLPXiT-36">
          <mxGeometry width="50" height="50" relative="1" as="geometry">
            <mxPoint x="651" y="476" as="sourcePoint" />
            <mxPoint x="824" y="577" as="targetPoint" />
          </mxGeometry>
        </mxCell>
      </root>
    </mxGraphModel>
  </diagram>
</mxfile>
